<?xml version="1.0" encoding="utf-8" standalone="no"?>
<!DOCTYPE svg PUBLIC "-//W3C//DTD SVG 1.1//EN"
  "http://www.w3.org/Graphics/SVG/1.1/DTD/svg11.dtd">
<svg xmlns:xlink="http://www.w3.org/1999/xlink" width="526.153846pt" height="347.04pt" viewBox="0 0 526.153846 347.04" xmlns="http://www.w3.org/2000/svg" version="1.1">
 <metadata>
  <rdf:RDF xmlns:dc="http://purl.org/dc/elements/1.1/" xmlns:cc="http://creativecommons.org/ns#" xmlns:rdf="http://www.w3.org/1999/02/22-rdf-syntax-ns#">
   <cc:Work>
    <dc:type rdf:resource="http://purl.org/dc/dcmitype/StillImage"/>
    <dc:date>2023-11-07T20:37:35.535172</dc:date>
    <dc:format>image/svg+xml</dc:format>
    <dc:creator>
     <cc:Agent>
      <dc:title>Matplotlib v3.8.0, https://matplotlib.org/</dc:title>
     </cc:Agent>
    </dc:creator>
   </cc:Work>
  </rdf:RDF>
 </metadata>
 <defs>
  <style type="text/css">*{stroke-linejoin: round; stroke-linecap: butt}</style>
 </defs>
 <g id="figure_1">
  <g id="patch_1">
   <path d="M -0 347.04 
L 526.153846 347.04 
L 526.153846 -0 
L -0 -0 
L -0 347.04 
z
" style="fill: none"/>
  </g>
  <g id="axes_1">
   <g id="LineCollection_1">
    <path d="M 32.787692 32.787692 
L 518.953846 32.787692 
" clip-path="url(#p03adf84668)" style="fill: none; stroke: #808080; stroke-width: 1.5"/>
   </g>
   <g id="LineCollection_2">
    <path d="M 32.787692 58.375385 
L 518.953846 58.375385 
" clip-path="url(#p03adf84668)" style="fill: none; stroke: #808080; stroke-width: 1.5"/>
   </g>
   <g id="LineCollection_3">
    <path d="M 32.787692 83.963077 
L 518.953846 83.963077 
" clip-path="url(#p03adf84668)" style="fill: none; stroke: #808080; stroke-width: 1.5"/>
   </g>
   <g id="LineCollection_4">
    <path d="M 32.787692 109.550769 
L 518.953846 109.550769 
" clip-path="url(#p03adf84668)" style="fill: none; stroke: #808080; stroke-width: 1.5"/>
   </g>
   <g id="LineCollection_5">
    <path d="M 32.787692 135.138462 
L 518.953846 135.138462 
" clip-path="url(#p03adf84668)" style="fill: none; stroke: #808080; stroke-width: 1.5"/>
   </g>
   <g id="LineCollection_6">
    <path d="M 32.787692 160.726154 
L 518.953846 160.726154 
" clip-path="url(#p03adf84668)" style="fill: none; stroke: #808080; stroke-width: 1.5"/>
   </g>
   <g id="LineCollection_7">
    <path d="M 32.787692 186.313846 
L 518.953846 186.313846 
" clip-path="url(#p03adf84668)" style="fill: none; stroke: #808080; stroke-width: 1.5"/>
   </g>
   <g id="LineCollection_8">
    <path d="M 32.787692 211.901538 
L 518.953846 211.901538 
" clip-path="url(#p03adf84668)" style="fill: none; stroke: #808080; stroke-width: 1.5"/>
   </g>
   <g id="LineCollection_9">
    <path d="M 32.787692 237.489231 
L 518.953846 237.489231 
" clip-path="url(#p03adf84668)" style="fill: none; stroke: #808080; stroke-width: 1.5"/>
   </g>
   <g id="LineCollection_10">
    <path d="M 32.787692 263.076923 
L 518.953846 263.076923 
" clip-path="url(#p03adf84668)" style="fill: none; stroke: #808080; stroke-width: 1.5"/>
   </g>
   <g id="LineCollection_11">
    <path d="M 32.787692 288.664615 
L 518.953846 288.664615 
" clip-path="url(#p03adf84668)" style="fill: none; stroke: #808080; stroke-width: 1.5"/>
   </g>
   <g id="line2d_1">
    <path d="M 58.375385 32.787692 
L 58.375385 58.375385 
" clip-path="url(#p03adf84668)" style="fill: none; stroke: #000000; stroke-width: 1.5; stroke-linecap: square"/>
   </g>
   <g id="line2d_2">
    <path d="M 58.375385 58.375385 
L 58.375385 83.963077 
" clip-path="url(#p03adf84668)" style="fill: none; stroke: #000000; stroke-width: 1.5; stroke-linecap: square"/>
   </g>
   <g id="line2d_3">
    <path d="M 58.375385 83.963077 
L 58.375385 109.550769 
" clip-path="url(#p03adf84668)" style="fill: none; stroke: #000000; stroke-width: 1.5; stroke-linecap: square"/>
   </g>
   <g id="line2d_4">
    <path d="M 71.169231 109.550769 
L 71.169231 135.138462 
" clip-path="url(#p03adf84668)" style="fill: none; stroke: #000000; stroke-width: 1.5; stroke-linecap: square"/>
   </g>
   <g id="line2d_5">
    <path d="M 71.169231 135.138462 
L 71.169231 160.726154 
" clip-path="url(#p03adf84668)" style="fill: none; stroke: #000000; stroke-width: 1.5; stroke-linecap: square"/>
   </g>
   <g id="line2d_6">
    <path d="M 71.169231 160.726154 
L 71.169231 186.313846 
" clip-path="url(#p03adf84668)" style="fill: none; stroke: #000000; stroke-width: 1.5; stroke-linecap: square"/>
   </g>
   <g id="line2d_7">
    <path d="M 83.963077 186.313846 
L 83.963077 211.901538 
" clip-path="url(#p03adf84668)" style="fill: none; stroke: #000000; stroke-width: 1.5; stroke-linecap: square"/>
   </g>
   <g id="line2d_8">
    <path d="M 83.963077 211.901538 
L 83.963077 237.489231 
" clip-path="url(#p03adf84668)" style="fill: none; stroke: #000000; stroke-width: 1.5; stroke-linecap: square"/>
   </g>
   <g id="line2d_9">
    <path d="M 83.963077 237.489231 
L 83.963077 263.076923 
" clip-path="url(#p03adf84668)" style="fill: none; stroke: #000000; stroke-width: 1.5; stroke-linecap: square"/>
   </g>
   <g id="line2d_10">
    <path d="M 109.550769 211.901538 
L 109.550769 237.489231 
" clip-path="url(#p03adf84668)" style="fill: none; stroke: #000000; stroke-width: 1.5; stroke-linecap: square"/>
   </g>
   <g id="line2d_11">
    <path d="M 109.550769 237.489231 
L 109.550769 263.076923 
" clip-path="url(#p03adf84668)" style="fill: none; stroke: #000000; stroke-width: 1.5; stroke-linecap: square"/>
   </g>
   <g id="line2d_12">
    <path d="M 147.932308 109.550769 
L 147.932308 135.138462 
" clip-path="url(#p03adf84668)" style="fill: none; stroke: #000000; stroke-width: 1.5; stroke-linecap: square"/>
   </g>
   <g id="line2d_13">
    <path d="M 147.932308 135.138462 
L 147.932308 160.726154 
" clip-path="url(#p03adf84668)" style="fill: none; stroke: #000000; stroke-width: 1.5; stroke-linecap: square"/>
   </g>
   <g id="line2d_14">
    <path d="M 147.932308 160.726154 
L 147.932308 186.313846 
" clip-path="url(#p03adf84668)" style="fill: none; stroke: #000000; stroke-width: 1.5; stroke-linecap: square"/>
   </g>
   <g id="line2d_15">
    <path d="M 160.726154 32.787692 
L 160.726154 58.375385 
" clip-path="url(#p03adf84668)" style="fill: none; stroke: #000000; stroke-width: 1.5; stroke-linecap: square"/>
   </g>
   <g id="line2d_16">
    <path d="M 160.726154 58.375385 
L 160.726154 83.963077 
" clip-path="url(#p03adf84668)" style="fill: none; stroke: #000000; stroke-width: 1.5; stroke-linecap: square"/>
   </g>
   <g id="line2d_17">
    <path d="M 160.726154 83.963077 
L 160.726154 109.550769 
" clip-path="url(#p03adf84668)" style="fill: none; stroke: #000000; stroke-width: 1.5; stroke-linecap: square"/>
   </g>
   <g id="patch_2">
    <path d="M 32.787692 43.022769 
C 35.502066 43.022769 38.105632 41.944337 40.024985 40.024985 
C 41.944337 38.105632 43.022769 35.502066 43.022769 32.787692 
C 43.022769 30.073318 41.944337 27.469752 40.024985 25.5504 
C 38.105632 23.631048 35.502066 22.552615 32.787692 22.552615 
C 30.073318 22.552615 27.469752 23.631048 25.5504 25.5504 
C 23.631048 27.469752 22.552615 30.073318 22.552615 32.787692 
C 22.552615 35.502066 23.631048 38.105632 25.5504 40.024985 
C 27.469752 41.944337 30.073318 43.022769 32.787692 43.022769 
z
" clip-path="url(#p03adf84668)" style="fill: #92a9bd; stroke: #000000; stroke-linejoin: miter"/>
   </g>
   <g id="patch_3">
    <path d="M 32.787692 68.610462 
C 35.502066 68.610462 38.105632 67.532029 40.024985 65.612677 
C 41.944337 63.693325 43.022769 61.089759 43.022769 58.375385 
C 43.022769 55.66101 41.944337 53.057445 40.024985 51.138092 
C 38.105632 49.21874 35.502066 48.140308 32.787692 48.140308 
C 30.073318 48.140308 27.469752 49.21874 25.5504 51.138092 
C 23.631048 53.057445 22.552615 55.66101 22.552615 58.375385 
C 22.552615 61.089759 23.631048 63.693325 25.5504 65.612677 
C 27.469752 67.532029 30.073318 68.610462 32.787692 68.610462 
z
" clip-path="url(#p03adf84668)" style="fill: #92a9bd; stroke: #000000; stroke-linejoin: miter"/>
   </g>
   <g id="patch_4">
    <path d="M 32.787692 94.198154 
C 35.502066 94.198154 38.105632 93.119722 40.024985 91.200369 
C 41.944337 89.281017 43.022769 86.677451 43.022769 83.963077 
C 43.022769 81.248703 41.944337 78.645137 40.024985 76.725785 
C 38.105632 74.806432 35.502066 73.728 32.787692 73.728 
C 30.073318 73.728 27.469752 74.806432 25.5504 76.725785 
C 23.631048 78.645137 22.552615 81.248703 22.552615 83.963077 
C 22.552615 86.677451 23.631048 89.281017 25.5504 91.200369 
C 27.469752 93.119722 30.073318 94.198154 32.787692 94.198154 
z
" clip-path="url(#p03adf84668)" style="fill: #92a9bd; stroke: #000000; stroke-linejoin: miter"/>
   </g>
   <g id="patch_5">
    <path d="M 32.787692 119.785846 
C 35.502066 119.785846 38.105632 118.707414 40.024985 116.788062 
C 41.944337 114.868709 43.022769 112.265143 43.022769 109.550769 
C 43.022769 106.836395 41.944337 104.232829 40.024985 102.313477 
C 38.105632 100.394125 35.502066 99.315692 32.787692 99.315692 
C 30.073318 99.315692 27.469752 100.394125 25.5504 102.313477 
C 23.631048 104.232829 22.552615 106.836395 22.552615 109.550769 
C 22.552615 112.265143 23.631048 114.868709 25.5504 116.788062 
C 27.469752 118.707414 30.073318 119.785846 32.787692 119.785846 
z
" clip-path="url(#p03adf84668)" style="fill: #92a9bd; stroke: #000000; stroke-linejoin: miter"/>
   </g>
   <g id="patch_6">
    <path d="M 32.787692 145.373538 
C 35.502066 145.373538 38.105632 144.295106 40.024985 142.375754 
C 41.944337 140.456401 43.022769 137.852836 43.022769 135.138462 
C 43.022769 132.424087 41.944337 129.820522 40.024985 127.901169 
C 38.105632 125.981817 35.502066 124.903385 32.787692 124.903385 
C 30.073318 124.903385 27.469752 125.981817 25.5504 127.901169 
C 23.631048 129.820522 22.552615 132.424087 22.552615 135.138462 
C 22.552615 137.852836 23.631048 140.456401 25.5504 142.375754 
C 27.469752 144.295106 30.073318 145.373538 32.787692 145.373538 
z
" clip-path="url(#p03adf84668)" style="fill: #92a9bd; stroke: #000000; stroke-linejoin: miter"/>
   </g>
   <g id="patch_7">
    <path d="M 32.787692 170.961231 
C 35.502066 170.961231 38.105632 169.882798 40.024985 167.963446 
C 41.944337 166.044094 43.022769 163.440528 43.022769 160.726154 
C 43.022769 158.01178 41.944337 155.408214 40.024985 153.488862 
C 38.105632 151.569509 35.502066 150.491077 32.787692 150.491077 
C 30.073318 150.491077 27.469752 151.569509 25.5504 153.488862 
C 23.631048 155.408214 22.552615 158.01178 22.552615 160.726154 
C 22.552615 163.440528 23.631048 166.044094 25.5504 167.963446 
C 27.469752 169.882798 30.073318 170.961231 32.787692 170.961231 
z
" clip-path="url(#p03adf84668)" style="fill: #92a9bd; stroke: #000000; stroke-linejoin: miter"/>
   </g>
   <g id="patch_8">
    <path d="M 32.787692 196.548923 
C 35.502066 196.548923 38.105632 195.470491 40.024985 193.551138 
C 41.944337 191.631786 43.022769 189.02822 43.022769 186.313846 
C 43.022769 183.599472 41.944337 180.995906 40.024985 179.076554 
C 38.105632 177.157202 35.502066 176.078769 32.787692 176.078769 
C 30.073318 176.078769 27.469752 177.157202 25.5504 179.076554 
C 23.631048 180.995906 22.552615 183.599472 22.552615 186.313846 
C 22.552615 189.02822 23.631048 191.631786 25.5504 193.551138 
C 27.469752 195.470491 30.073318 196.548923 32.787692 196.548923 
z
" clip-path="url(#p03adf84668)" style="fill: #92a9bd; stroke: #000000; stroke-linejoin: miter"/>
   </g>
   <g id="patch_9">
    <path d="M 32.787692 222.136615 
C 35.502066 222.136615 38.105632 221.058183 40.024985 219.138831 
C 41.944337 217.219478 43.022769 214.615913 43.022769 211.901538 
C 43.022769 209.187164 41.944337 206.583599 40.024985 204.664246 
C 38.105632 202.744894 35.502066 201.666462 32.787692 201.666462 
C 30.073318 201.666462 27.469752 202.744894 25.5504 204.664246 
C 23.631048 206.583599 22.552615 209.187164 22.552615 211.901538 
C 22.552615 214.615913 23.631048 217.219478 25.5504 219.138831 
C 27.469752 221.058183 30.073318 222.136615 32.787692 222.136615 
z
" clip-path="url(#p03adf84668)" style="fill: #92a9bd; stroke: #000000; stroke-linejoin: miter"/>
   </g>
   <g id="patch_10">
    <path d="M 32.787692 247.724308 
C 35.502066 247.724308 38.105632 246.645875 40.024985 244.726523 
C 41.944337 242.807171 43.022769 240.203605 43.022769 237.489231 
C 43.022769 234.774857 41.944337 232.171291 40.024985 230.251938 
C 38.105632 228.332586 35.502066 227.254154 32.787692 227.254154 
C 30.073318 227.254154 27.469752 228.332586 25.5504 230.251938 
C 23.631048 232.171291 22.552615 234.774857 22.552615 237.489231 
C 22.552615 240.203605 23.631048 242.807171 25.5504 244.726523 
C 27.469752 246.645875 30.073318 247.724308 32.787692 247.724308 
z
" clip-path="url(#p03adf84668)" style="fill: #92a9bd; stroke: #000000; stroke-linejoin: miter"/>
   </g>
   <g id="patch_11">
    <path d="M 32.787692 273.312 
C 35.502066 273.312 38.105632 272.233568 40.024985 270.314215 
C 41.944337 268.394863 43.022769 265.791297 43.022769 263.076923 
C 43.022769 260.362549 41.944337 257.758983 40.024985 255.839631 
C 38.105632 253.920278 35.502066 252.841846 32.787692 252.841846 
C 30.073318 252.841846 27.469752 253.920278 25.5504 255.839631 
C 23.631048 257.758983 22.552615 260.362549 22.552615 263.076923 
C 22.552615 265.791297 23.631048 268.394863 25.5504 270.314215 
C 27.469752 272.233568 30.073318 273.312 32.787692 273.312 
z
" clip-path="url(#p03adf84668)" style="fill: #92a9bd; stroke: #000000; stroke-linejoin: miter"/>
   </g>
   <g id="patch_12">
    <path d="M 32.787692 298.899692 
C 35.502066 298.899692 38.105632 297.82126 40.024985 295.901908 
C 41.944337 293.982555 43.022769 291.37899 43.022769 288.664615 
C 43.022769 285.950241 41.944337 283.346675 40.024985 281.427323 
C 38.105632 279.507971 35.502066 278.429538 32.787692 278.429538 
C 30.073318 278.429538 27.469752 279.507971 25.5504 281.427323 
C 23.631048 283.346675 22.552615 285.950241 22.552615 288.664615 
C 22.552615 291.37899 23.631048 293.982555 25.5504 295.901908 
C 27.469752 297.82126 30.073318 298.899692 32.787692 298.899692 
z
" clip-path="url(#p03adf84668)" style="fill: #92a9bd; stroke: #000000; stroke-linejoin: miter"/>
   </g>
   <g id="patch_13">
    <path d="M 58.375385 37.905231 
C 59.732572 37.905231 61.034355 37.366015 61.994031 36.406338 
C 62.953707 35.446662 63.492923 34.144879 63.492923 32.787692 
C 63.492923 31.430505 62.953707 30.128722 61.994031 29.169046 
C 61.034355 28.20937 59.732572 27.670154 58.375385 27.670154 
C 57.018198 27.670154 55.716415 28.20937 54.756738 29.169046 
C 53.797062 30.128722 53.257846 31.430505 53.257846 32.787692 
C 53.257846 34.144879 53.797062 35.446662 54.756738 36.406338 
C 55.716415 37.366015 57.018198 37.905231 58.375385 37.905231 
z
" clip-path="url(#p03adf84668)" style="fill: #08306b; stroke: #08306b; stroke-linejoin: miter"/>
   </g>
   <g id="patch_14">
    <path d="M 58.375385 63.492923 
C 59.732572 63.492923 61.034355 62.953707 61.994031 61.994031 
C 62.953707 61.034355 63.492923 59.732572 63.492923 58.375385 
C 63.492923 57.018198 62.953707 55.716415 61.994031 54.756738 
C 61.034355 53.797062 59.732572 53.257846 58.375385 53.257846 
C 57.018198 53.257846 55.716415 53.797062 54.756738 54.756738 
C 53.797062 55.716415 53.257846 57.018198 53.257846 58.375385 
C 53.257846 59.732572 53.797062 61.034355 54.756738 61.994031 
C 55.716415 62.953707 57.018198 63.492923 58.375385 63.492923 
z
" clip-path="url(#p03adf84668)" style="fill: #2070b4; stroke: #2070b4; stroke-linejoin: miter"/>
   </g>
   <g id="patch_15">
    <path d="M 58.375385 89.080615 
C 59.732572 89.080615 61.034355 88.541399 61.994031 87.581723 
C 62.953707 86.622047 63.492923 85.320264 63.492923 83.963077 
C 63.492923 82.60589 62.953707 81.304107 61.994031 80.344431 
C 61.034355 79.384755 59.732572 78.845538 58.375385 78.845538 
C 57.018198 78.845538 55.716415 79.384755 54.756738 80.344431 
C 53.797062 81.304107 53.257846 82.60589 53.257846 83.963077 
C 53.257846 85.320264 53.797062 86.622047 54.756738 87.581723 
C 55.716415 88.541399 57.018198 89.080615 58.375385 89.080615 
z
" clip-path="url(#p03adf84668)" style="fill: #6aaed6; stroke: #6aaed6; stroke-linejoin: miter"/>
   </g>
   <g id="patch_16">
    <path d="M 58.375385 114.668308 
C 59.732572 114.668308 61.034355 114.129092 61.994031 113.169415 
C 62.953707 112.209739 63.492923 110.907956 63.492923 109.550769 
C 63.492923 108.193582 62.953707 106.891799 61.994031 105.932123 
C 61.034355 104.972447 59.732572 104.433231 58.375385 104.433231 
C 57.018198 104.433231 55.716415 104.972447 54.756738 105.932123 
C 53.797062 106.891799 53.257846 108.193582 53.257846 109.550769 
C 53.257846 110.907956 53.797062 112.209739 54.756738 113.169415 
C 55.716415 114.129092 57.018198 114.668308 58.375385 114.668308 
z
" clip-path="url(#p03adf84668)" style="fill: #c6dbef; stroke: #c6dbef; stroke-linejoin: miter"/>
   </g>
   <g id="patch_17">
    <path d="M 71.169231 114.668308 
C 72.526418 114.668308 73.828201 114.129092 74.787877 113.169415 
C 75.747553 112.209739 76.286769 110.907956 76.286769 109.550769 
C 76.286769 108.193582 75.747553 106.891799 74.787877 105.932123 
C 73.828201 104.972447 72.526418 104.433231 71.169231 104.433231 
C 69.812044 104.433231 68.510261 104.972447 67.550585 105.932123 
C 66.590908 106.891799 66.051692 108.193582 66.051692 109.550769 
C 66.051692 110.907956 66.590908 112.209739 67.550585 113.169415 
C 68.510261 114.129092 69.812044 114.668308 71.169231 114.668308 
z
" clip-path="url(#p03adf84668)" style="fill: #08306b; stroke: #08306b; stroke-linejoin: miter"/>
   </g>
   <g id="patch_18">
    <path d="M 71.169231 140.256 
C 72.526418 140.256 73.828201 139.716784 74.787877 138.757108 
C 75.747553 137.797432 76.286769 136.495649 76.286769 135.138462 
C 76.286769 133.781274 75.747553 132.479492 74.787877 131.519815 
C 73.828201 130.560139 72.526418 130.020923 71.169231 130.020923 
C 69.812044 130.020923 68.510261 130.560139 67.550585 131.519815 
C 66.590908 132.479492 66.051692 133.781274 66.051692 135.138462 
C 66.051692 136.495649 66.590908 137.797432 67.550585 138.757108 
C 68.510261 139.716784 69.812044 140.256 71.169231 140.256 
z
" clip-path="url(#p03adf84668)" style="fill: #2070b4; stroke: #2070b4; stroke-linejoin: miter"/>
   </g>
   <g id="patch_19">
    <path d="M 71.169231 165.843692 
C 72.526418 165.843692 73.828201 165.304476 74.787877 164.3448 
C 75.747553 163.385124 76.286769 162.083341 76.286769 160.726154 
C 76.286769 159.368967 75.747553 158.067184 74.787877 157.107508 
C 73.828201 156.147832 72.526418 155.608615 71.169231 155.608615 
C 69.812044 155.608615 68.510261 156.147832 67.550585 157.107508 
C 66.590908 158.067184 66.051692 159.368967 66.051692 160.726154 
C 66.051692 162.083341 66.590908 163.385124 67.550585 164.3448 
C 68.510261 165.304476 69.812044 165.843692 71.169231 165.843692 
z
" clip-path="url(#p03adf84668)" style="fill: #6aaed6; stroke: #6aaed6; stroke-linejoin: miter"/>
   </g>
   <g id="patch_20">
    <path d="M 71.169231 191.431385 
C 72.526418 191.431385 73.828201 190.892168 74.787877 189.932492 
C 75.747553 188.972816 76.286769 187.671033 76.286769 186.313846 
C 76.286769 184.956659 75.747553 183.654876 74.787877 182.6952 
C 73.828201 181.735524 72.526418 181.196308 71.169231 181.196308 
C 69.812044 181.196308 68.510261 181.735524 67.550585 182.6952 
C 66.590908 183.654876 66.051692 184.956659 66.051692 186.313846 
C 66.051692 187.671033 66.590908 188.972816 67.550585 189.932492 
C 68.510261 190.892168 69.812044 191.431385 71.169231 191.431385 
z
" clip-path="url(#p03adf84668)" style="fill: #c6dbef; stroke: #c6dbef; stroke-linejoin: miter"/>
   </g>
   <g id="patch_21">
    <path d="M 83.963077 191.431385 
C 85.320264 191.431385 86.622047 190.892168 87.581723 189.932492 
C 88.541399 188.972816 89.080615 187.671033 89.080615 186.313846 
C 89.080615 184.956659 88.541399 183.654876 87.581723 182.6952 
C 86.622047 181.735524 85.320264 181.196308 83.963077 181.196308 
C 82.60589 181.196308 81.304107 181.735524 80.344431 182.6952 
C 79.384755 183.654876 78.845538 184.956659 78.845538 186.313846 
C 78.845538 187.671033 79.384755 188.972816 80.344431 189.932492 
C 81.304107 190.892168 82.60589 191.431385 83.963077 191.431385 
z
" clip-path="url(#p03adf84668)" style="fill: #08306b; stroke: #08306b; stroke-linejoin: miter"/>
   </g>
   <g id="patch_22">
    <path d="M 83.963077 217.019077 
C 85.320264 217.019077 86.622047 216.479861 87.581723 215.520185 
C 88.541399 214.560508 89.080615 213.258726 89.080615 211.901538 
C 89.080615 210.544351 88.541399 209.242568 87.581723 208.282892 
C 86.622047 207.323216 85.320264 206.784 83.963077 206.784 
C 82.60589 206.784 81.304107 207.323216 80.344431 208.282892 
C 79.384755 209.242568 78.845538 210.544351 78.845538 211.901538 
C 78.845538 213.258726 79.384755 214.560508 80.344431 215.520185 
C 81.304107 216.479861 82.60589 217.019077 83.963077 217.019077 
z
" clip-path="url(#p03adf84668)" style="fill: #2070b4; stroke: #2070b4; stroke-linejoin: miter"/>
   </g>
   <g id="patch_23">
    <path d="M 83.963077 242.606769 
C 85.320264 242.606769 86.622047 242.067553 87.581723 241.107877 
C 88.541399 240.148201 89.080615 238.846418 89.080615 237.489231 
C 89.080615 236.132044 88.541399 234.830261 87.581723 233.870585 
C 86.622047 232.910908 85.320264 232.371692 83.963077 232.371692 
C 82.60589 232.371692 81.304107 232.910908 80.344431 233.870585 
C 79.384755 234.830261 78.845538 236.132044 78.845538 237.489231 
C 78.845538 238.846418 79.384755 240.148201 80.344431 241.107877 
C 81.304107 242.067553 82.60589 242.606769 83.963077 242.606769 
z
" clip-path="url(#p03adf84668)" style="fill: #6aaed6; stroke: #6aaed6; stroke-linejoin: miter"/>
   </g>
   <g id="patch_24">
    <path d="M 83.963077 268.194462 
C 85.320264 268.194462 86.622047 267.655245 87.581723 266.695569 
C 88.541399 265.735893 89.080615 264.43411 89.080615 263.076923 
C 89.080615 261.719736 88.541399 260.417953 87.581723 259.458277 
C 86.622047 258.498601 85.320264 257.959385 83.963077 257.959385 
C 82.60589 257.959385 81.304107 258.498601 80.344431 259.458277 
C 79.384755 260.417953 78.845538 261.719736 78.845538 263.076923 
C 78.845538 264.43411 79.384755 265.735893 80.344431 266.695569 
C 81.304107 267.655245 82.60589 268.194462 83.963077 268.194462 
z
" clip-path="url(#p03adf84668)" style="fill: #c6dbef; stroke: #c6dbef; stroke-linejoin: miter"/>
   </g>
   <g id="patch_25">
    <path d="M 109.550769 217.019077 
C 110.907956 217.019077 112.209739 216.479861 113.169415 215.520185 
C 114.129092 214.560508 114.668308 213.258726 114.668308 211.901538 
C 114.668308 210.544351 114.129092 209.242568 113.169415 208.282892 
C 112.209739 207.323216 110.907956 206.784 109.550769 206.784 
C 108.193582 206.784 106.891799 207.323216 105.932123 208.282892 
C 104.972447 209.242568 104.433231 210.544351 104.433231 211.901538 
C 104.433231 213.258726 104.972447 214.560508 105.932123 215.520185 
C 106.891799 216.479861 108.193582 217.019077 109.550769 217.019077 
z
" clip-path="url(#p03adf84668)" style="fill: #08306b; stroke: #08306b; stroke-linejoin: miter"/>
   </g>
   <g id="patch_26">
    <path d="M 109.550769 242.606769 
C 110.907956 242.606769 112.209739 242.067553 113.169415 241.107877 
C 114.129092 240.148201 114.668308 238.846418 114.668308 237.489231 
C 114.668308 236.132044 114.129092 234.830261 113.169415 233.870585 
C 112.209739 232.910908 110.907956 232.371692 109.550769 232.371692 
C 108.193582 232.371692 106.891799 232.910908 105.932123 233.870585 
C 104.972447 234.830261 104.433231 236.132044 104.433231 237.489231 
C 104.433231 238.846418 104.972447 240.148201 105.932123 241.107877 
C 106.891799 242.067553 108.193582 242.606769 109.550769 242.606769 
z
" clip-path="url(#p03adf84668)" style="fill: #3787c0; stroke: #3787c0; stroke-linejoin: miter"/>
   </g>
   <g id="patch_27">
    <path d="M 109.550769 268.194462 
C 110.907956 268.194462 112.209739 267.655245 113.169415 266.695569 
C 114.129092 265.735893 114.668308 264.43411 114.668308 263.076923 
C 114.668308 261.719736 114.129092 260.417953 113.169415 259.458277 
C 112.209739 258.498601 110.907956 257.959385 109.550769 257.959385 
C 108.193582 257.959385 106.891799 258.498601 105.932123 259.458277 
C 104.972447 260.417953 104.433231 261.719736 104.433231 263.076923 
C 104.433231 264.43411 104.972447 265.735893 105.932123 266.695569 
C 106.891799 267.655245 108.193582 268.194462 109.550769 268.194462 
z
" clip-path="url(#p03adf84668)" style="fill: #abd0e6; stroke: #abd0e6; stroke-linejoin: miter"/>
   </g>
   <g id="patch_28">
    <path d="M 135.138462 242.606769 
C 136.495649 242.606769 137.797432 242.067553 138.757108 241.107877 
C 139.716784 240.148201 140.256 238.846418 140.256 237.489231 
C 140.256 236.132044 139.716784 234.830261 138.757108 233.870585 
C 137.797432 232.910908 136.495649 232.371692 135.138462 232.371692 
C 133.781274 232.371692 132.479492 232.910908 131.519815 233.870585 
C 130.560139 234.830261 130.020923 236.132044 130.020923 237.489231 
C 130.020923 238.846418 130.560139 240.148201 131.519815 241.107877 
C 132.479492 242.067553 133.781274 242.606769 135.138462 242.606769 
z
" clip-path="url(#p03adf84668)" style="fill: #ff7e79; stroke: #ff7e79; stroke-linejoin: miter"/>
   </g>
   <g id="patch_29">
    <path d="M 135.138462 268.194462 
C 136.495649 268.194462 137.797432 267.655245 138.757108 266.695569 
C 139.716784 265.735893 140.256 264.43411 140.256 263.076923 
C 140.256 261.719736 139.716784 260.417953 138.757108 259.458277 
C 137.797432 258.498601 136.495649 257.959385 135.138462 257.959385 
C 133.781274 257.959385 132.479492 258.498601 131.519815 259.458277 
C 130.560139 260.417953 130.020923 261.719736 130.020923 263.076923 
C 130.020923 264.43411 130.560139 265.735893 131.519815 266.695569 
C 132.479492 267.655245 133.781274 268.194462 135.138462 268.194462 
z
" clip-path="url(#p03adf84668)" style="fill: #ff7e79; stroke: #ff7e79; stroke-linejoin: miter"/>
   </g>
   <g id="patch_30">
    <path d="M 135.138462 293.782154 
C 136.495649 293.782154 137.797432 293.242938 138.757108 292.283262 
C 139.716784 291.323585 140.256 290.021802 140.256 288.664615 
C 140.256 287.307428 139.716784 286.005645 138.757108 285.045969 
C 137.797432 284.086293 136.495649 283.547077 135.138462 283.547077 
C 133.781274 283.547077 132.479492 284.086293 131.519815 285.045969 
C 130.560139 286.005645 130.020923 287.307428 130.020923 288.664615 
C 130.020923 290.021802 130.560139 291.323585 131.519815 292.283262 
C 132.479492 293.242938 133.781274 293.782154 135.138462 293.782154 
z
" clip-path="url(#p03adf84668)" style="fill: #ff7e79; stroke: #ff7e79; stroke-linejoin: miter"/>
   </g>
   <g id="patch_31">
    <path d="M 147.932308 114.668308 
C 149.289495 114.668308 150.591278 114.129092 151.550954 113.169415 
C 152.51063 112.209739 153.049846 110.907956 153.049846 109.550769 
C 153.049846 108.193582 152.51063 106.891799 151.550954 105.932123 
C 150.591278 104.972447 149.289495 104.433231 147.932308 104.433231 
C 146.575121 104.433231 145.273338 104.972447 144.313662 105.932123 
C 143.353985 106.891799 142.814769 108.193582 142.814769 109.550769 
C 142.814769 110.907956 143.353985 112.209739 144.313662 113.169415 
C 145.273338 114.129092 146.575121 114.668308 147.932308 114.668308 
z
" clip-path="url(#p03adf84668)" style="fill: #08306b; stroke: #08306b; stroke-linejoin: miter"/>
   </g>
   <g id="patch_32">
    <path d="M 147.932308 140.256 
C 149.289495 140.256 150.591278 139.716784 151.550954 138.757108 
C 152.51063 137.797432 153.049846 136.495649 153.049846 135.138462 
C 153.049846 133.781274 152.51063 132.479492 151.550954 131.519815 
C 150.591278 130.560139 149.289495 130.020923 147.932308 130.020923 
C 146.575121 130.020923 145.273338 130.560139 144.313662 131.519815 
C 143.353985 132.479492 142.814769 133.781274 142.814769 135.138462 
C 142.814769 136.495649 143.353985 137.797432 144.313662 138.757108 
C 145.273338 139.716784 146.575121 140.256 147.932308 140.256 
z
" clip-path="url(#p03adf84668)" style="fill: #2070b4; stroke: #2070b4; stroke-linejoin: miter"/>
   </g>
   <g id="patch_33">
    <path d="M 147.932308 165.843692 
C 149.289495 165.843692 150.591278 165.304476 151.550954 164.3448 
C 152.51063 163.385124 153.049846 162.083341 153.049846 160.726154 
C 153.049846 159.368967 152.51063 158.067184 151.550954 157.107508 
C 150.591278 156.147832 149.289495 155.608615 147.932308 155.608615 
C 146.575121 155.608615 145.273338 156.147832 144.313662 157.107508 
C 143.353985 158.067184 142.814769 159.368967 142.814769 160.726154 
C 142.814769 162.083341 143.353985 163.385124 144.313662 164.3448 
C 145.273338 165.304476 146.575121 165.843692 147.932308 165.843692 
z
" clip-path="url(#p03adf84668)" style="fill: #6aaed6; stroke: #6aaed6; stroke-linejoin: miter"/>
   </g>
   <g id="patch_34">
    <path d="M 147.932308 191.431385 
C 149.289495 191.431385 150.591278 190.892168 151.550954 189.932492 
C 152.51063 188.972816 153.049846 187.671033 153.049846 186.313846 
C 153.049846 184.956659 152.51063 183.654876 151.550954 182.6952 
C 150.591278 181.735524 149.289495 181.196308 147.932308 181.196308 
C 146.575121 181.196308 145.273338 181.735524 144.313662 182.6952 
C 143.353985 183.654876 142.814769 184.956659 142.814769 186.313846 
C 142.814769 187.671033 143.353985 188.972816 144.313662 189.932492 
C 145.273338 190.892168 146.575121 191.431385 147.932308 191.431385 
z
" clip-path="url(#p03adf84668)" style="fill: #c6dbef; stroke: #c6dbef; stroke-linejoin: miter"/>
   </g>
   <g id="patch_35">
    <path d="M 160.726154 37.905231 
C 162.083341 37.905231 163.385124 37.366015 164.3448 36.406338 
C 165.304476 35.446662 165.843692 34.144879 165.843692 32.787692 
C 165.843692 31.430505 165.304476 30.128722 164.3448 29.169046 
C 163.385124 28.20937 162.083341 27.670154 160.726154 27.670154 
C 159.368967 27.670154 158.067184 28.20937 157.107508 29.169046 
C 156.147832 30.128722 155.608615 31.430505 155.608615 32.787692 
C 155.608615 34.144879 156.147832 35.446662 157.107508 36.406338 
C 158.067184 37.366015 159.368967 37.905231 160.726154 37.905231 
z
" clip-path="url(#p03adf84668)" style="fill: #08306b; stroke: #08306b; stroke-linejoin: miter"/>
   </g>
   <g id="patch_36">
    <path d="M 160.726154 63.492923 
C 162.083341 63.492923 163.385124 62.953707 164.3448 61.994031 
C 165.304476 61.034355 165.843692 59.732572 165.843692 58.375385 
C 165.843692 57.018198 165.304476 55.716415 164.3448 54.756738 
C 163.385124 53.797062 162.083341 53.257846 160.726154 53.257846 
C 159.368967 53.257846 158.067184 53.797062 157.107508 54.756738 
C 156.147832 55.716415 155.608615 57.018198 155.608615 58.375385 
C 155.608615 59.732572 156.147832 61.034355 157.107508 61.994031 
C 158.067184 62.953707 159.368967 63.492923 160.726154 63.492923 
z
" clip-path="url(#p03adf84668)" style="fill: #2070b4; stroke: #2070b4; stroke-linejoin: miter"/>
   </g>
   <g id="patch_37">
    <path d="M 160.726154 89.080615 
C 162.083341 89.080615 163.385124 88.541399 164.3448 87.581723 
C 165.304476 86.622047 165.843692 85.320264 165.843692 83.963077 
C 165.843692 82.60589 165.304476 81.304107 164.3448 80.344431 
C 163.385124 79.384755 162.083341 78.845538 160.726154 78.845538 
C 159.368967 78.845538 158.067184 79.384755 157.107508 80.344431 
C 156.147832 81.304107 155.608615 82.60589 155.608615 83.963077 
C 155.608615 85.320264 156.147832 86.622047 157.107508 87.581723 
C 158.067184 88.541399 159.368967 89.080615 160.726154 89.080615 
z
" clip-path="url(#p03adf84668)" style="fill: #6aaed6; stroke: #6aaed6; stroke-linejoin: miter"/>
   </g>
   <g id="patch_38">
    <path d="M 160.726154 114.668308 
C 162.083341 114.668308 163.385124 114.129092 164.3448 113.169415 
C 165.304476 112.209739 165.843692 110.907956 165.843692 109.550769 
C 165.843692 108.193582 165.304476 106.891799 164.3448 105.932123 
C 163.385124 104.972447 162.083341 104.433231 160.726154 104.433231 
C 159.368967 104.433231 158.067184 104.972447 157.107508 105.932123 
C 156.147832 106.891799 155.608615 108.193582 155.608615 109.550769 
C 155.608615 110.907956 156.147832 112.209739 157.107508 113.169415 
C 158.067184 114.129092 159.368967 114.668308 160.726154 114.668308 
z
" clip-path="url(#p03adf84668)" style="fill: #c6dbef; stroke: #c6dbef; stroke-linejoin: miter"/>
   </g>
   <g id="patch_39">
    <path d="M 186.313846 242.606769 
C 187.671033 242.606769 188.972816 242.067553 189.932492 241.107877 
C 190.892168 240.148201 191.431385 238.846418 191.431385 237.489231 
C 191.431385 236.132044 190.892168 234.830261 189.932492 233.870585 
C 188.972816 232.910908 187.671033 232.371692 186.313846 232.371692 
C 184.956659 232.371692 183.654876 232.910908 182.6952 233.870585 
C 181.735524 234.830261 181.196308 236.132044 181.196308 237.489231 
C 181.196308 238.846418 181.735524 240.148201 182.6952 241.107877 
C 183.654876 242.067553 184.956659 242.606769 186.313846 242.606769 
z
" clip-path="url(#p03adf84668)" style="fill: #008000; stroke: #008000; stroke-linejoin: miter"/>
   </g>
   <g id="patch_40">
    <path d="M 186.313846 268.194462 
C 187.671033 268.194462 188.972816 267.655245 189.932492 266.695569 
C 190.892168 265.735893 191.431385 264.43411 191.431385 263.076923 
C 191.431385 261.719736 190.892168 260.417953 189.932492 259.458277 
C 188.972816 258.498601 187.671033 257.959385 186.313846 257.959385 
C 184.956659 257.959385 183.654876 258.498601 182.6952 259.458277 
C 181.735524 260.417953 181.196308 261.719736 181.196308 263.076923 
C 181.196308 264.43411 181.735524 265.735893 182.6952 266.695569 
C 183.654876 267.655245 184.956659 268.194462 186.313846 268.194462 
z
" clip-path="url(#p03adf84668)" style="fill: #008000; stroke: #008000; stroke-linejoin: miter"/>
   </g>
   <g id="patch_41">
    <path d="M 186.313846 293.782154 
C 187.671033 293.782154 188.972816 293.242938 189.932492 292.283262 
C 190.892168 291.323585 191.431385 290.021802 191.431385 288.664615 
C 191.431385 287.307428 190.892168 286.005645 189.932492 285.045969 
C 188.972816 284.086293 187.671033 283.547077 186.313846 283.547077 
C 184.956659 283.547077 183.654876 284.086293 182.6952 285.045969 
C 181.735524 286.005645 181.196308 287.307428 181.196308 288.664615 
C 181.196308 290.021802 181.735524 291.323585 182.6952 292.283262 
C 183.654876 293.242938 184.956659 293.782154 186.313846 293.782154 
z
" clip-path="url(#p03adf84668)" style="fill: #008000; stroke: #008000; stroke-linejoin: miter"/>
   </g>
   <g id="text_1">
    <!-- 0 -->
    <g transform="translate(29.606442 35.547067) scale(0.1 -0.1)">
     <defs>
      <path id="DejaVuSans-30" d="M 2034 4250 
Q 1547 4250 1301 3770 
Q 1056 3291 1056 2328 
Q 1056 1369 1301 889 
Q 1547 409 2034 409 
Q 2525 409 2770 889 
Q 3016 1369 3016 2328 
Q 3016 3291 2770 3770 
Q 2525 4250 2034 4250 
z
M 2034 4750 
Q 2819 4750 3233 4129 
Q 3647 3509 3647 2328 
Q 3647 1150 3233 529 
Q 2819 -91 2034 -91 
Q 1250 -91 836 529 
Q 422 1150 422 2328 
Q 422 3509 836 4129 
Q 1250 4750 2034 4750 
z
" transform="scale(0.015625)"/>
     </defs>
     <use xlink:href="#DejaVuSans-30"/>
    </g>
   </g>
   <g id="text_2">
    <!-- 1 -->
    <g transform="translate(29.606442 61.13476) scale(0.1 -0.1)">
     <defs>
      <path id="DejaVuSans-31" d="M 794 531 
L 1825 531 
L 1825 4091 
L 703 3866 
L 703 4441 
L 1819 4666 
L 2450 4666 
L 2450 531 
L 3481 531 
L 3481 0 
L 794 0 
L 794 531 
z
" transform="scale(0.015625)"/>
     </defs>
     <use xlink:href="#DejaVuSans-31"/>
    </g>
   </g>
   <g id="text_3">
    <!-- 2 -->
    <g transform="translate(29.606442 86.722452) scale(0.1 -0.1)">
     <defs>
      <path id="DejaVuSans-32" d="M 1228 531 
L 3431 531 
L 3431 0 
L 469 0 
L 469 531 
Q 828 903 1448 1529 
Q 2069 2156 2228 2338 
Q 2531 2678 2651 2914 
Q 2772 3150 2772 3378 
Q 2772 3750 2511 3984 
Q 2250 4219 1831 4219 
Q 1534 4219 1204 4116 
Q 875 4013 500 3803 
L 500 4441 
Q 881 4594 1212 4672 
Q 1544 4750 1819 4750 
Q 2544 4750 2975 4387 
Q 3406 4025 3406 3419 
Q 3406 3131 3298 2873 
Q 3191 2616 2906 2266 
Q 2828 2175 2409 1742 
Q 1991 1309 1228 531 
z
" transform="scale(0.015625)"/>
     </defs>
     <use xlink:href="#DejaVuSans-32"/>
    </g>
   </g>
   <g id="text_4">
    <!-- 3 -->
    <g transform="translate(29.606442 112.310144) scale(0.1 -0.1)">
     <defs>
      <path id="DejaVuSans-33" d="M 2597 2516 
Q 3050 2419 3304 2112 
Q 3559 1806 3559 1356 
Q 3559 666 3084 287 
Q 2609 -91 1734 -91 
Q 1441 -91 1130 -33 
Q 819 25 488 141 
L 488 750 
Q 750 597 1062 519 
Q 1375 441 1716 441 
Q 2309 441 2620 675 
Q 2931 909 2931 1356 
Q 2931 1769 2642 2001 
Q 2353 2234 1838 2234 
L 1294 2234 
L 1294 2753 
L 1863 2753 
Q 2328 2753 2575 2939 
Q 2822 3125 2822 3475 
Q 2822 3834 2567 4026 
Q 2313 4219 1838 4219 
Q 1578 4219 1281 4162 
Q 984 4106 628 3988 
L 628 4550 
Q 988 4650 1302 4700 
Q 1616 4750 1894 4750 
Q 2613 4750 3031 4423 
Q 3450 4097 3450 3541 
Q 3450 3153 3228 2886 
Q 3006 2619 2597 2516 
z
" transform="scale(0.015625)"/>
     </defs>
     <use xlink:href="#DejaVuSans-33"/>
    </g>
   </g>
   <g id="text_5">
    <!-- 4 -->
    <g transform="translate(29.606442 137.897837) scale(0.1 -0.1)">
     <defs>
      <path id="DejaVuSans-34" d="M 2419 4116 
L 825 1625 
L 2419 1625 
L 2419 4116 
z
M 2253 4666 
L 3047 4666 
L 3047 1625 
L 3713 1625 
L 3713 1100 
L 3047 1100 
L 3047 0 
L 2419 0 
L 2419 1100 
L 313 1100 
L 313 1709 
L 2253 4666 
z
" transform="scale(0.015625)"/>
     </defs>
     <use xlink:href="#DejaVuSans-34"/>
    </g>
   </g>
   <g id="text_6">
    <!-- 5 -->
    <g transform="translate(29.606442 163.485529) scale(0.1 -0.1)">
     <defs>
      <path id="DejaVuSans-35" d="M 691 4666 
L 3169 4666 
L 3169 4134 
L 1269 4134 
L 1269 2991 
Q 1406 3038 1543 3061 
Q 1681 3084 1819 3084 
Q 2600 3084 3056 2656 
Q 3513 2228 3513 1497 
Q 3513 744 3044 326 
Q 2575 -91 1722 -91 
Q 1428 -91 1123 -41 
Q 819 9 494 109 
L 494 744 
Q 775 591 1075 516 
Q 1375 441 1709 441 
Q 2250 441 2565 725 
Q 2881 1009 2881 1497 
Q 2881 1984 2565 2268 
Q 2250 2553 1709 2553 
Q 1456 2553 1204 2497 
Q 953 2441 691 2322 
L 691 4666 
z
" transform="scale(0.015625)"/>
     </defs>
     <use xlink:href="#DejaVuSans-35"/>
    </g>
   </g>
   <g id="text_7">
    <!-- 6 -->
    <g transform="translate(29.606442 189.073221) scale(0.1 -0.1)">
     <defs>
      <path id="DejaVuSans-36" d="M 2113 2584 
Q 1688 2584 1439 2293 
Q 1191 2003 1191 1497 
Q 1191 994 1439 701 
Q 1688 409 2113 409 
Q 2538 409 2786 701 
Q 3034 994 3034 1497 
Q 3034 2003 2786 2293 
Q 2538 2584 2113 2584 
z
M 3366 4563 
L 3366 3988 
Q 3128 4100 2886 4159 
Q 2644 4219 2406 4219 
Q 1781 4219 1451 3797 
Q 1122 3375 1075 2522 
Q 1259 2794 1537 2939 
Q 1816 3084 2150 3084 
Q 2853 3084 3261 2657 
Q 3669 2231 3669 1497 
Q 3669 778 3244 343 
Q 2819 -91 2113 -91 
Q 1303 -91 875 529 
Q 447 1150 447 2328 
Q 447 3434 972 4092 
Q 1497 4750 2381 4750 
Q 2619 4750 2861 4703 
Q 3103 4656 3366 4563 
z
" transform="scale(0.015625)"/>
     </defs>
     <use xlink:href="#DejaVuSans-36"/>
    </g>
   </g>
   <g id="text_8">
    <!-- 7 -->
    <g transform="translate(29.606442 214.660913) scale(0.1 -0.1)">
     <defs>
      <path id="DejaVuSans-37" d="M 525 4666 
L 3525 4666 
L 3525 4397 
L 1831 0 
L 1172 0 
L 2766 4134 
L 525 4134 
L 525 4666 
z
" transform="scale(0.015625)"/>
     </defs>
     <use xlink:href="#DejaVuSans-37"/>
    </g>
   </g>
   <g id="text_9">
    <!-- 8 -->
    <g transform="translate(29.606442 240.248606) scale(0.1 -0.1)">
     <defs>
      <path id="DejaVuSans-38" d="M 2034 2216 
Q 1584 2216 1326 1975 
Q 1069 1734 1069 1313 
Q 1069 891 1326 650 
Q 1584 409 2034 409 
Q 2484 409 2743 651 
Q 3003 894 3003 1313 
Q 3003 1734 2745 1975 
Q 2488 2216 2034 2216 
z
M 1403 2484 
Q 997 2584 770 2862 
Q 544 3141 544 3541 
Q 544 4100 942 4425 
Q 1341 4750 2034 4750 
Q 2731 4750 3128 4425 
Q 3525 4100 3525 3541 
Q 3525 3141 3298 2862 
Q 3072 2584 2669 2484 
Q 3125 2378 3379 2068 
Q 3634 1759 3634 1313 
Q 3634 634 3220 271 
Q 2806 -91 2034 -91 
Q 1263 -91 848 271 
Q 434 634 434 1313 
Q 434 1759 690 2068 
Q 947 2378 1403 2484 
z
M 1172 3481 
Q 1172 3119 1398 2916 
Q 1625 2713 2034 2713 
Q 2441 2713 2670 2916 
Q 2900 3119 2900 3481 
Q 2900 3844 2670 4047 
Q 2441 4250 2034 4250 
Q 1625 4250 1398 4047 
Q 1172 3844 1172 3481 
z
" transform="scale(0.015625)"/>
     </defs>
     <use xlink:href="#DejaVuSans-38"/>
    </g>
   </g>
   <g id="text_10">
    <!-- 9 -->
    <g transform="translate(29.606442 265.836298) scale(0.1 -0.1)">
     <defs>
      <path id="DejaVuSans-39" d="M 703 97 
L 703 672 
Q 941 559 1184 500 
Q 1428 441 1663 441 
Q 2288 441 2617 861 
Q 2947 1281 2994 2138 
Q 2813 1869 2534 1725 
Q 2256 1581 1919 1581 
Q 1219 1581 811 2004 
Q 403 2428 403 3163 
Q 403 3881 828 4315 
Q 1253 4750 1959 4750 
Q 2769 4750 3195 4129 
Q 3622 3509 3622 2328 
Q 3622 1225 3098 567 
Q 2575 -91 1691 -91 
Q 1453 -91 1209 -44 
Q 966 3 703 97 
z
M 1959 2075 
Q 2384 2075 2632 2365 
Q 2881 2656 2881 3163 
Q 2881 3666 2632 3958 
Q 2384 4250 1959 4250 
Q 1534 4250 1286 3958 
Q 1038 3666 1038 3163 
Q 1038 2656 1286 2365 
Q 1534 2075 1959 2075 
z
" transform="scale(0.015625)"/>
     </defs>
     <use xlink:href="#DejaVuSans-39"/>
    </g>
   </g>
   <g id="text_11">
    <!-- 10 -->
    <g transform="translate(26.425192 291.42399) scale(0.1 -0.1)">
     <use xlink:href="#DejaVuSans-31"/>
     <use xlink:href="#DejaVuSans-30" x="63.623047"/>
    </g>
   </g>
   <g id="text_12">
    <!-- cry -->
    <g transform="translate(53.031197 27.148476) rotate(-30) scale(0.1 -0.1)">
     <defs>
      <path id="DejaVuSans-63" d="M 3122 3366 
L 3122 2828 
Q 2878 2963 2633 3030 
Q 2388 3097 2138 3097 
Q 1578 3097 1268 2742 
Q 959 2388 959 1747 
Q 959 1106 1268 751 
Q 1578 397 2138 397 
Q 2388 397 2633 464 
Q 2878 531 3122 666 
L 3122 134 
Q 2881 22 2623 -34 
Q 2366 -91 2075 -91 
Q 1284 -91 818 406 
Q 353 903 353 1747 
Q 353 2603 823 3093 
Q 1294 3584 2113 3584 
Q 2378 3584 2631 3529 
Q 2884 3475 3122 3366 
z
" transform="scale(0.015625)"/>
      <path id="DejaVuSans-72" d="M 2631 2963 
Q 2534 3019 2420 3045 
Q 2306 3072 2169 3072 
Q 1681 3072 1420 2755 
Q 1159 2438 1159 1844 
L 1159 0 
L 581 0 
L 581 3500 
L 1159 3500 
L 1159 2956 
Q 1341 3275 1631 3429 
Q 1922 3584 2338 3584 
Q 2397 3584 2469 3576 
Q 2541 3569 2628 3553 
L 2631 2963 
z
" transform="scale(0.015625)"/>
      <path id="DejaVuSans-79" d="M 2059 -325 
Q 1816 -950 1584 -1140 
Q 1353 -1331 966 -1331 
L 506 -1331 
L 506 -850 
L 844 -850 
Q 1081 -850 1212 -737 
Q 1344 -625 1503 -206 
L 1606 56 
L 191 3500 
L 800 3500 
L 1894 763 
L 2988 3500 
L 3597 3500 
L 2059 -325 
z
" transform="scale(0.015625)"/>
     </defs>
     <use xlink:href="#DejaVuSans-63"/>
     <use xlink:href="#DejaVuSans-72" x="54.980469"/>
     <use xlink:href="#DejaVuSans-79" x="96.09375"/>
    </g>
   </g>
   <g id="text_13">
    <!-- cry -->
    <g transform="translate(65.825043 103.911553) rotate(-30) scale(0.1 -0.1)">
     <use xlink:href="#DejaVuSans-63"/>
     <use xlink:href="#DejaVuSans-72" x="54.980469"/>
     <use xlink:href="#DejaVuSans-79" x="96.09375"/>
    </g>
   </g>
   <g id="text_14">
    <!-- cry -->
    <g transform="translate(78.618889 180.67463) rotate(-30) scale(0.1 -0.1)">
     <use xlink:href="#DejaVuSans-63"/>
     <use xlink:href="#DejaVuSans-72" x="54.980469"/>
     <use xlink:href="#DejaVuSans-79" x="96.09375"/>
    </g>
   </g>
   <g id="text_15">
    <!-- cns -->
    <g transform="translate(103.54962 206.262322) rotate(-30) scale(0.1 -0.1)">
     <defs>
      <path id="DejaVuSans-6e" d="M 3513 2113 
L 3513 0 
L 2938 0 
L 2938 2094 
Q 2938 2591 2744 2837 
Q 2550 3084 2163 3084 
Q 1697 3084 1428 2787 
Q 1159 2491 1159 1978 
L 1159 0 
L 581 0 
L 581 3500 
L 1159 3500 
L 1159 2956 
Q 1366 3272 1645 3428 
Q 1925 3584 2291 3584 
Q 2894 3584 3203 3211 
Q 3513 2838 3513 2113 
z
" transform="scale(0.015625)"/>
      <path id="DejaVuSans-73" d="M 2834 3397 
L 2834 2853 
Q 2591 2978 2328 3040 
Q 2066 3103 1784 3103 
Q 1356 3103 1142 2972 
Q 928 2841 928 2578 
Q 928 2378 1081 2264 
Q 1234 2150 1697 2047 
L 1894 2003 
Q 2506 1872 2764 1633 
Q 3022 1394 3022 966 
Q 3022 478 2636 193 
Q 2250 -91 1575 -91 
Q 1294 -91 989 -36 
Q 684 19 347 128 
L 347 722 
Q 666 556 975 473 
Q 1284 391 1588 391 
Q 1994 391 2212 530 
Q 2431 669 2431 922 
Q 2431 1156 2273 1281 
Q 2116 1406 1581 1522 
L 1381 1569 
Q 847 1681 609 1914 
Q 372 2147 372 2553 
Q 372 3047 722 3315 
Q 1072 3584 1716 3584 
Q 2034 3584 2315 3537 
Q 2597 3491 2834 3397 
z
" transform="scale(0.015625)"/>
     </defs>
     <use xlink:href="#DejaVuSans-63"/>
     <use xlink:href="#DejaVuSans-6e" x="54.980469"/>
     <use xlink:href="#DejaVuSans-73" x="118.359375"/>
    </g>
   </g>
   <g id="text_16">
    <!-- crs -->
    <g transform="translate(142.895288 103.911553) rotate(-30) scale(0.1 -0.1)">
     <use xlink:href="#DejaVuSans-63"/>
     <use xlink:href="#DejaVuSans-72" x="54.980469"/>
     <use xlink:href="#DejaVuSans-73" x="96.09375"/>
    </g>
   </g>
   <g id="text_17">
    <!-- crs -->
    <g transform="translate(155.689134 27.148476) rotate(-30) scale(0.1 -0.1)">
     <use xlink:href="#DejaVuSans-63"/>
     <use xlink:href="#DejaVuSans-72" x="54.980469"/>
     <use xlink:href="#DejaVuSans-73" x="96.09375"/>
    </g>
   </g>
  </g>
 </g>
 <defs>
  <clipPath id="p03adf84668">
   <rect x="7.2" y="7.2" width="511.753846" height="332.64"/>
  </clipPath>
 </defs>
</svg>
