<?xml version="1.0" encoding="utf-8" standalone="no"?>
<!DOCTYPE svg PUBLIC "-//W3C//DTD SVG 1.1//EN"
  "http://www.w3.org/Graphics/SVG/1.1/DTD/svg11.dtd">
<svg xmlns:xlink="http://www.w3.org/1999/xlink" width="457.92pt" height="347.04pt" viewBox="0 0 457.92 347.04" xmlns="http://www.w3.org/2000/svg" version="1.1">
 <metadata>
  <rdf:RDF xmlns:dc="http://purl.org/dc/elements/1.1/" xmlns:cc="http://creativecommons.org/ns#" xmlns:rdf="http://www.w3.org/1999/02/22-rdf-syntax-ns#">
   <cc:Work>
    <dc:type rdf:resource="http://purl.org/dc/dcmitype/StillImage"/>
    <dc:date>2023-11-07T20:59:38.312782</dc:date>
    <dc:format>image/svg+xml</dc:format>
    <dc:creator>
     <cc:Agent>
      <dc:title>Matplotlib v3.8.0, https://matplotlib.org/</dc:title>
     </cc:Agent>
    </dc:creator>
   </cc:Work>
  </rdf:RDF>
 </metadata>
 <defs>
  <style type="text/css">*{stroke-linejoin: round; stroke-linecap: butt}</style>
 </defs>
 <g id="figure_1">
  <g id="patch_1">
   <path d="M 0 347.04 
L 457.92 347.04 
L 457.92 -0 
L 0 -0 
L 0 347.04 
z
" style="fill: none"/>
  </g>
  <g id="axes_1">
   <g id="LineCollection_1">
    <path d="M 29.376 29.376 
L 450.72 29.376 
" clip-path="url(#pff9544cadd)" style="fill: none; stroke: #808080; stroke-width: 1.5"/>
   </g>
   <g id="LineCollection_2">
    <path d="M 29.376 51.552 
L 450.72 51.552 
" clip-path="url(#pff9544cadd)" style="fill: none; stroke: #808080; stroke-width: 1.5"/>
   </g>
   <g id="LineCollection_3">
    <path d="M 29.376 73.728 
L 450.72 73.728 
" clip-path="url(#pff9544cadd)" style="fill: none; stroke: #808080; stroke-width: 1.5"/>
   </g>
   <g id="LineCollection_4">
    <path d="M 29.376 95.904 
L 450.72 95.904 
" clip-path="url(#pff9544cadd)" style="fill: none; stroke: #808080; stroke-width: 1.5"/>
   </g>
   <g id="LineCollection_5">
    <path d="M 29.376 118.08 
L 450.72 118.08 
" clip-path="url(#pff9544cadd)" style="fill: none; stroke: #808080; stroke-width: 1.5"/>
   </g>
   <g id="LineCollection_6">
    <path d="M 29.376 140.256 
L 450.72 140.256 
" clip-path="url(#pff9544cadd)" style="fill: none; stroke: #808080; stroke-width: 1.5"/>
   </g>
   <g id="LineCollection_7">
    <path d="M 29.376 162.432 
L 450.72 162.432 
" clip-path="url(#pff9544cadd)" style="fill: none; stroke: #808080; stroke-width: 1.5"/>
   </g>
   <g id="LineCollection_8">
    <path d="M 29.376 184.608 
L 450.72 184.608 
" clip-path="url(#pff9544cadd)" style="fill: none; stroke: #808080; stroke-width: 1.5"/>
   </g>
   <g id="LineCollection_9">
    <path d="M 29.376 206.784 
L 450.72 206.784 
" clip-path="url(#pff9544cadd)" style="fill: none; stroke: #808080; stroke-width: 1.5"/>
   </g>
   <g id="LineCollection_10">
    <path d="M 29.376 228.96 
L 450.72 228.96 
" clip-path="url(#pff9544cadd)" style="fill: none; stroke: #808080; stroke-width: 1.5"/>
   </g>
   <g id="LineCollection_11">
    <path d="M 29.376 251.136 
L 450.72 251.136 
" clip-path="url(#pff9544cadd)" style="fill: none; stroke: #808080; stroke-width: 1.5"/>
   </g>
   <g id="LineCollection_12">
    <path d="M 29.376 273.312 
L 450.72 273.312 
" clip-path="url(#pff9544cadd)" style="fill: none; stroke: #808080; stroke-width: 1.5"/>
   </g>
   <g id="LineCollection_13">
    <path d="M 29.376 295.488 
L 450.72 295.488 
" clip-path="url(#pff9544cadd)" style="fill: none; stroke: #808080; stroke-width: 1.5"/>
   </g>
   <g id="line2d_1">
    <path d="M 51.552 29.376 
L 51.552 51.552 
" clip-path="url(#pff9544cadd)" style="fill: none; stroke: #000000; stroke-width: 1.5; stroke-linecap: square"/>
   </g>
   <g id="line2d_2">
    <path d="M 51.552 51.552 
L 51.552 73.728 
" clip-path="url(#pff9544cadd)" style="fill: none; stroke: #000000; stroke-width: 1.5; stroke-linecap: square"/>
   </g>
   <g id="line2d_3">
    <path d="M 51.552 73.728 
L 51.552 95.904 
" clip-path="url(#pff9544cadd)" style="fill: none; stroke: #000000; stroke-width: 1.5; stroke-linecap: square"/>
   </g>
   <g id="line2d_4">
    <path d="M 62.64 95.904 
L 62.64 118.08 
" clip-path="url(#pff9544cadd)" style="fill: none; stroke: #000000; stroke-width: 1.5; stroke-linecap: square"/>
   </g>
   <g id="line2d_5">
    <path d="M 62.64 118.08 
L 62.64 140.256 
" clip-path="url(#pff9544cadd)" style="fill: none; stroke: #000000; stroke-width: 1.5; stroke-linecap: square"/>
   </g>
   <g id="line2d_6">
    <path d="M 62.64 140.256 
L 62.64 162.432 
" clip-path="url(#pff9544cadd)" style="fill: none; stroke: #000000; stroke-width: 1.5; stroke-linecap: square"/>
   </g>
   <g id="line2d_7">
    <path d="M 73.728 162.432 
L 73.728 184.608 
" clip-path="url(#pff9544cadd)" style="fill: none; stroke: #000000; stroke-width: 1.5; stroke-linecap: square"/>
   </g>
   <g id="line2d_8">
    <path d="M 73.728 184.608 
L 73.728 206.784 
" clip-path="url(#pff9544cadd)" style="fill: none; stroke: #000000; stroke-width: 1.5; stroke-linecap: square"/>
   </g>
   <g id="line2d_9">
    <path d="M 73.728 206.784 
L 73.728 228.96 
" clip-path="url(#pff9544cadd)" style="fill: none; stroke: #000000; stroke-width: 1.5; stroke-linecap: square"/>
   </g>
   <g id="line2d_10">
    <path d="M 84.816 228.96 
L 84.816 251.136 
" clip-path="url(#pff9544cadd)" style="fill: none; stroke: #000000; stroke-width: 1.5; stroke-linecap: square"/>
   </g>
   <g id="line2d_11">
    <path d="M 84.816 251.136 
L 84.816 273.312 
" clip-path="url(#pff9544cadd)" style="fill: none; stroke: #000000; stroke-width: 1.5; stroke-linecap: square"/>
   </g>
   <g id="line2d_12">
    <path d="M 84.816 273.312 
L 84.816 295.488 
" clip-path="url(#pff9544cadd)" style="fill: none; stroke: #000000; stroke-width: 1.5; stroke-linecap: square"/>
   </g>
   <g id="line2d_13">
    <path d="M 106.992 228.96 
L 106.992 251.136 
" clip-path="url(#pff9544cadd)" style="fill: none; stroke: #000000; stroke-width: 1.5; stroke-linecap: square"/>
   </g>
   <g id="line2d_14">
    <path d="M 106.992 251.136 
L 106.992 273.312 
" clip-path="url(#pff9544cadd)" style="fill: none; stroke: #000000; stroke-width: 1.5; stroke-linecap: square"/>
   </g>
   <g id="line2d_15">
    <path d="M 140.256 162.432 
L 140.256 184.608 
" clip-path="url(#pff9544cadd)" style="fill: none; stroke: #000000; stroke-width: 1.5; stroke-linecap: square"/>
   </g>
   <g id="line2d_16">
    <path d="M 140.256 184.608 
L 140.256 206.784 
" clip-path="url(#pff9544cadd)" style="fill: none; stroke: #000000; stroke-width: 1.5; stroke-linecap: square"/>
   </g>
   <g id="line2d_17">
    <path d="M 140.256 206.784 
L 140.256 228.96 
" clip-path="url(#pff9544cadd)" style="fill: none; stroke: #000000; stroke-width: 1.5; stroke-linecap: square"/>
   </g>
   <g id="line2d_18">
    <path d="M 151.344 95.904 
L 151.344 118.08 
" clip-path="url(#pff9544cadd)" style="fill: none; stroke: #000000; stroke-width: 1.5; stroke-linecap: square"/>
   </g>
   <g id="line2d_19">
    <path d="M 151.344 118.08 
L 151.344 140.256 
" clip-path="url(#pff9544cadd)" style="fill: none; stroke: #000000; stroke-width: 1.5; stroke-linecap: square"/>
   </g>
   <g id="line2d_20">
    <path d="M 151.344 140.256 
L 151.344 162.432 
" clip-path="url(#pff9544cadd)" style="fill: none; stroke: #000000; stroke-width: 1.5; stroke-linecap: square"/>
   </g>
   <g id="line2d_21">
    <path d="M 162.432 29.376 
L 162.432 51.552 
" clip-path="url(#pff9544cadd)" style="fill: none; stroke: #000000; stroke-width: 1.5; stroke-linecap: square"/>
   </g>
   <g id="line2d_22">
    <path d="M 162.432 51.552 
L 162.432 73.728 
" clip-path="url(#pff9544cadd)" style="fill: none; stroke: #000000; stroke-width: 1.5; stroke-linecap: square"/>
   </g>
   <g id="line2d_23">
    <path d="M 162.432 73.728 
L 162.432 95.904 
" clip-path="url(#pff9544cadd)" style="fill: none; stroke: #000000; stroke-width: 1.5; stroke-linecap: square"/>
   </g>
   <g id="patch_2">
    <path d="M 29.376 40.464 
C 32.316572 40.464 35.137102 39.295698 37.2164 37.2164 
C 39.295698 35.137102 40.464 32.316572 40.464 29.376 
C 40.464 26.435428 39.295698 23.614898 37.2164 21.5356 
C 35.137102 19.456302 32.316572 18.288 29.376 18.288 
C 26.435428 18.288 23.614898 19.456302 21.5356 21.5356 
C 19.456302 23.614898 18.288 26.435428 18.288 29.376 
C 18.288 32.316572 19.456302 35.137102 21.5356 37.2164 
C 23.614898 39.295698 26.435428 40.464 29.376 40.464 
z
" clip-path="url(#pff9544cadd)" style="fill: #92a9bd; stroke: #000000; stroke-linejoin: miter"/>
   </g>
   <g id="patch_3">
    <path d="M 29.376 62.64 
C 32.316572 62.64 35.137102 61.471698 37.2164 59.3924 
C 39.295698 57.313102 40.464 54.492572 40.464 51.552 
C 40.464 48.611428 39.295698 45.790898 37.2164 43.7116 
C 35.137102 41.632302 32.316572 40.464 29.376 40.464 
C 26.435428 40.464 23.614898 41.632302 21.5356 43.7116 
C 19.456302 45.790898 18.288 48.611428 18.288 51.552 
C 18.288 54.492572 19.456302 57.313102 21.5356 59.3924 
C 23.614898 61.471698 26.435428 62.64 29.376 62.64 
z
" clip-path="url(#pff9544cadd)" style="fill: #92a9bd; stroke: #000000; stroke-linejoin: miter"/>
   </g>
   <g id="patch_4">
    <path d="M 29.376 84.816 
C 32.316572 84.816 35.137102 83.647698 37.2164 81.5684 
C 39.295698 79.489102 40.464 76.668572 40.464 73.728 
C 40.464 70.787428 39.295698 67.966898 37.2164 65.8876 
C 35.137102 63.808302 32.316572 62.64 29.376 62.64 
C 26.435428 62.64 23.614898 63.808302 21.5356 65.8876 
C 19.456302 67.966898 18.288 70.787428 18.288 73.728 
C 18.288 76.668572 19.456302 79.489102 21.5356 81.5684 
C 23.614898 83.647698 26.435428 84.816 29.376 84.816 
z
" clip-path="url(#pff9544cadd)" style="fill: #92a9bd; stroke: #000000; stroke-linejoin: miter"/>
   </g>
   <g id="patch_5">
    <path d="M 29.376 106.992 
C 32.316572 106.992 35.137102 105.823698 37.2164 103.7444 
C 39.295698 101.665102 40.464 98.844572 40.464 95.904 
C 40.464 92.963428 39.295698 90.142898 37.2164 88.0636 
C 35.137102 85.984302 32.316572 84.816 29.376 84.816 
C 26.435428 84.816 23.614898 85.984302 21.5356 88.0636 
C 19.456302 90.142898 18.288 92.963428 18.288 95.904 
C 18.288 98.844572 19.456302 101.665102 21.5356 103.7444 
C 23.614898 105.823698 26.435428 106.992 29.376 106.992 
z
" clip-path="url(#pff9544cadd)" style="fill: #92a9bd; stroke: #000000; stroke-linejoin: miter"/>
   </g>
   <g id="patch_6">
    <path d="M 29.376 129.168 
C 32.316572 129.168 35.137102 127.999698 37.2164 125.9204 
C 39.295698 123.841102 40.464 121.020572 40.464 118.08 
C 40.464 115.139428 39.295698 112.318898 37.2164 110.2396 
C 35.137102 108.160302 32.316572 106.992 29.376 106.992 
C 26.435428 106.992 23.614898 108.160302 21.5356 110.2396 
C 19.456302 112.318898 18.288 115.139428 18.288 118.08 
C 18.288 121.020572 19.456302 123.841102 21.5356 125.9204 
C 23.614898 127.999698 26.435428 129.168 29.376 129.168 
z
" clip-path="url(#pff9544cadd)" style="fill: #92a9bd; stroke: #000000; stroke-linejoin: miter"/>
   </g>
   <g id="patch_7">
    <path d="M 29.376 151.344 
C 32.316572 151.344 35.137102 150.175698 37.2164 148.0964 
C 39.295698 146.017102 40.464 143.196572 40.464 140.256 
C 40.464 137.315428 39.295698 134.494898 37.2164 132.4156 
C 35.137102 130.336302 32.316572 129.168 29.376 129.168 
C 26.435428 129.168 23.614898 130.336302 21.5356 132.4156 
C 19.456302 134.494898 18.288 137.315428 18.288 140.256 
C 18.288 143.196572 19.456302 146.017102 21.5356 148.0964 
C 23.614898 150.175698 26.435428 151.344 29.376 151.344 
z
" clip-path="url(#pff9544cadd)" style="fill: #92a9bd; stroke: #000000; stroke-linejoin: miter"/>
   </g>
   <g id="patch_8">
    <path d="M 29.376 173.52 
C 32.316572 173.52 35.137102 172.351698 37.2164 170.2724 
C 39.295698 168.193102 40.464 165.372572 40.464 162.432 
C 40.464 159.491428 39.295698 156.670898 37.2164 154.5916 
C 35.137102 152.512302 32.316572 151.344 29.376 151.344 
C 26.435428 151.344 23.614898 152.512302 21.5356 154.5916 
C 19.456302 156.670898 18.288 159.491428 18.288 162.432 
C 18.288 165.372572 19.456302 168.193102 21.5356 170.2724 
C 23.614898 172.351698 26.435428 173.52 29.376 173.52 
z
" clip-path="url(#pff9544cadd)" style="fill: #92a9bd; stroke: #000000; stroke-linejoin: miter"/>
   </g>
   <g id="patch_9">
    <path d="M 29.376 195.696 
C 32.316572 195.696 35.137102 194.527698 37.2164 192.4484 
C 39.295698 190.369102 40.464 187.548572 40.464 184.608 
C 40.464 181.667428 39.295698 178.846898 37.2164 176.7676 
C 35.137102 174.688302 32.316572 173.52 29.376 173.52 
C 26.435428 173.52 23.614898 174.688302 21.5356 176.7676 
C 19.456302 178.846898 18.288 181.667428 18.288 184.608 
C 18.288 187.548572 19.456302 190.369102 21.5356 192.4484 
C 23.614898 194.527698 26.435428 195.696 29.376 195.696 
z
" clip-path="url(#pff9544cadd)" style="fill: #92a9bd; stroke: #000000; stroke-linejoin: miter"/>
   </g>
   <g id="patch_10">
    <path d="M 29.376 217.872 
C 32.316572 217.872 35.137102 216.703698 37.2164 214.6244 
C 39.295698 212.545102 40.464 209.724572 40.464 206.784 
C 40.464 203.843428 39.295698 201.022898 37.2164 198.9436 
C 35.137102 196.864302 32.316572 195.696 29.376 195.696 
C 26.435428 195.696 23.614898 196.864302 21.5356 198.9436 
C 19.456302 201.022898 18.288 203.843428 18.288 206.784 
C 18.288 209.724572 19.456302 212.545102 21.5356 214.6244 
C 23.614898 216.703698 26.435428 217.872 29.376 217.872 
z
" clip-path="url(#pff9544cadd)" style="fill: #92a9bd; stroke: #000000; stroke-linejoin: miter"/>
   </g>
   <g id="patch_11">
    <path d="M 29.376 240.048 
C 32.316572 240.048 35.137102 238.879698 37.2164 236.8004 
C 39.295698 234.721102 40.464 231.900572 40.464 228.96 
C 40.464 226.019428 39.295698 223.198898 37.2164 221.1196 
C 35.137102 219.040302 32.316572 217.872 29.376 217.872 
C 26.435428 217.872 23.614898 219.040302 21.5356 221.1196 
C 19.456302 223.198898 18.288 226.019428 18.288 228.96 
C 18.288 231.900572 19.456302 234.721102 21.5356 236.8004 
C 23.614898 238.879698 26.435428 240.048 29.376 240.048 
z
" clip-path="url(#pff9544cadd)" style="fill: #92a9bd; stroke: #000000; stroke-linejoin: miter"/>
   </g>
   <g id="patch_12">
    <path d="M 29.376 262.224 
C 32.316572 262.224 35.137102 261.055698 37.2164 258.9764 
C 39.295698 256.897102 40.464 254.076572 40.464 251.136 
C 40.464 248.195428 39.295698 245.374898 37.2164 243.2956 
C 35.137102 241.216302 32.316572 240.048 29.376 240.048 
C 26.435428 240.048 23.614898 241.216302 21.5356 243.2956 
C 19.456302 245.374898 18.288 248.195428 18.288 251.136 
C 18.288 254.076572 19.456302 256.897102 21.5356 258.9764 
C 23.614898 261.055698 26.435428 262.224 29.376 262.224 
z
" clip-path="url(#pff9544cadd)" style="fill: #92a9bd; stroke: #000000; stroke-linejoin: miter"/>
   </g>
   <g id="patch_13">
    <path d="M 29.376 284.4 
C 32.316572 284.4 35.137102 283.231698 37.2164 281.1524 
C 39.295698 279.073102 40.464 276.252572 40.464 273.312 
C 40.464 270.371428 39.295698 267.550898 37.2164 265.4716 
C 35.137102 263.392302 32.316572 262.224 29.376 262.224 
C 26.435428 262.224 23.614898 263.392302 21.5356 265.4716 
C 19.456302 267.550898 18.288 270.371428 18.288 273.312 
C 18.288 276.252572 19.456302 279.073102 21.5356 281.1524 
C 23.614898 283.231698 26.435428 284.4 29.376 284.4 
z
" clip-path="url(#pff9544cadd)" style="fill: #92a9bd; stroke: #000000; stroke-linejoin: miter"/>
   </g>
   <g id="patch_14">
    <path d="M 29.376 306.576 
C 32.316572 306.576 35.137102 305.407698 37.2164 303.3284 
C 39.295698 301.249102 40.464 298.428572 40.464 295.488 
C 40.464 292.547428 39.295698 289.726898 37.2164 287.6476 
C 35.137102 285.568302 32.316572 284.4 29.376 284.4 
C 26.435428 284.4 23.614898 285.568302 21.5356 287.6476 
C 19.456302 289.726898 18.288 292.547428 18.288 295.488 
C 18.288 298.428572 19.456302 301.249102 21.5356 303.3284 
C 23.614898 305.407698 26.435428 306.576 29.376 306.576 
z
" clip-path="url(#pff9544cadd)" style="fill: #92a9bd; stroke: #000000; stroke-linejoin: miter"/>
   </g>
   <g id="patch_15">
    <path d="M 51.552 33.8112 
C 52.728229 33.8112 53.856441 33.343879 54.68816 32.51216 
C 55.519879 31.680441 55.9872 30.552229 55.9872 29.376 
C 55.9872 28.199771 55.519879 27.071559 54.68816 26.23984 
C 53.856441 25.408121 52.728229 24.9408 51.552 24.9408 
C 50.375771 24.9408 49.247559 25.408121 48.41584 26.23984 
C 47.584121 27.071559 47.1168 28.199771 47.1168 29.376 
C 47.1168 30.552229 47.584121 31.680441 48.41584 32.51216 
C 49.247559 33.343879 50.375771 33.8112 51.552 33.8112 
z
" clip-path="url(#pff9544cadd)" style="fill: #08306b; stroke: #08306b; stroke-linejoin: miter"/>
   </g>
   <g id="patch_16">
    <path d="M 51.552 55.9872 
C 52.728229 55.9872 53.856441 55.519879 54.68816 54.68816 
C 55.519879 53.856441 55.9872 52.728229 55.9872 51.552 
C 55.9872 50.375771 55.519879 49.247559 54.68816 48.41584 
C 53.856441 47.584121 52.728229 47.1168 51.552 47.1168 
C 50.375771 47.1168 49.247559 47.584121 48.41584 48.41584 
C 47.584121 49.247559 47.1168 50.375771 47.1168 51.552 
C 47.1168 52.728229 47.584121 53.856441 48.41584 54.68816 
C 49.247559 55.519879 50.375771 55.9872 51.552 55.9872 
z
" clip-path="url(#pff9544cadd)" style="fill: #2070b4; stroke: #2070b4; stroke-linejoin: miter"/>
   </g>
   <g id="patch_17">
    <path d="M 51.552 78.1632 
C 52.728229 78.1632 53.856441 77.695879 54.68816 76.86416 
C 55.519879 76.032441 55.9872 74.904229 55.9872 73.728 
C 55.9872 72.551771 55.519879 71.423559 54.68816 70.59184 
C 53.856441 69.760121 52.728229 69.2928 51.552 69.2928 
C 50.375771 69.2928 49.247559 69.760121 48.41584 70.59184 
C 47.584121 71.423559 47.1168 72.551771 47.1168 73.728 
C 47.1168 74.904229 47.584121 76.032441 48.41584 76.86416 
C 49.247559 77.695879 50.375771 78.1632 51.552 78.1632 
z
" clip-path="url(#pff9544cadd)" style="fill: #6aaed6; stroke: #6aaed6; stroke-linejoin: miter"/>
   </g>
   <g id="patch_18">
    <path d="M 51.552 100.3392 
C 52.728229 100.3392 53.856441 99.871879 54.68816 99.04016 
C 55.519879 98.208441 55.9872 97.080229 55.9872 95.904 
C 55.9872 94.727771 55.519879 93.599559 54.68816 92.76784 
C 53.856441 91.936121 52.728229 91.4688 51.552 91.4688 
C 50.375771 91.4688 49.247559 91.936121 48.41584 92.76784 
C 47.584121 93.599559 47.1168 94.727771 47.1168 95.904 
C 47.1168 97.080229 47.584121 98.208441 48.41584 99.04016 
C 49.247559 99.871879 50.375771 100.3392 51.552 100.3392 
z
" clip-path="url(#pff9544cadd)" style="fill: #c6dbef; stroke: #c6dbef; stroke-linejoin: miter"/>
   </g>
   <g id="patch_19">
    <path d="M 62.64 100.3392 
C 63.816229 100.3392 64.944441 99.871879 65.77616 99.04016 
C 66.607879 98.208441 67.0752 97.080229 67.0752 95.904 
C 67.0752 94.727771 66.607879 93.599559 65.77616 92.76784 
C 64.944441 91.936121 63.816229 91.4688 62.64 91.4688 
C 61.463771 91.4688 60.335559 91.936121 59.50384 92.76784 
C 58.672121 93.599559 58.2048 94.727771 58.2048 95.904 
C 58.2048 97.080229 58.672121 98.208441 59.50384 99.04016 
C 60.335559 99.871879 61.463771 100.3392 62.64 100.3392 
z
" clip-path="url(#pff9544cadd)" style="fill: #08306b; stroke: #08306b; stroke-linejoin: miter"/>
   </g>
   <g id="patch_20">
    <path d="M 62.64 122.5152 
C 63.816229 122.5152 64.944441 122.047879 65.77616 121.21616 
C 66.607879 120.384441 67.0752 119.256229 67.0752 118.08 
C 67.0752 116.903771 66.607879 115.775559 65.77616 114.94384 
C 64.944441 114.112121 63.816229 113.6448 62.64 113.6448 
C 61.463771 113.6448 60.335559 114.112121 59.50384 114.94384 
C 58.672121 115.775559 58.2048 116.903771 58.2048 118.08 
C 58.2048 119.256229 58.672121 120.384441 59.50384 121.21616 
C 60.335559 122.047879 61.463771 122.5152 62.64 122.5152 
z
" clip-path="url(#pff9544cadd)" style="fill: #2070b4; stroke: #2070b4; stroke-linejoin: miter"/>
   </g>
   <g id="patch_21">
    <path d="M 62.64 144.6912 
C 63.816229 144.6912 64.944441 144.223879 65.77616 143.39216 
C 66.607879 142.560441 67.0752 141.432229 67.0752 140.256 
C 67.0752 139.079771 66.607879 137.951559 65.77616 137.11984 
C 64.944441 136.288121 63.816229 135.8208 62.64 135.8208 
C 61.463771 135.8208 60.335559 136.288121 59.50384 137.11984 
C 58.672121 137.951559 58.2048 139.079771 58.2048 140.256 
C 58.2048 141.432229 58.672121 142.560441 59.50384 143.39216 
C 60.335559 144.223879 61.463771 144.6912 62.64 144.6912 
z
" clip-path="url(#pff9544cadd)" style="fill: #6aaed6; stroke: #6aaed6; stroke-linejoin: miter"/>
   </g>
   <g id="patch_22">
    <path d="M 62.64 166.8672 
C 63.816229 166.8672 64.944441 166.399879 65.77616 165.56816 
C 66.607879 164.736441 67.0752 163.608229 67.0752 162.432 
C 67.0752 161.255771 66.607879 160.127559 65.77616 159.29584 
C 64.944441 158.464121 63.816229 157.9968 62.64 157.9968 
C 61.463771 157.9968 60.335559 158.464121 59.50384 159.29584 
C 58.672121 160.127559 58.2048 161.255771 58.2048 162.432 
C 58.2048 163.608229 58.672121 164.736441 59.50384 165.56816 
C 60.335559 166.399879 61.463771 166.8672 62.64 166.8672 
z
" clip-path="url(#pff9544cadd)" style="fill: #c6dbef; stroke: #c6dbef; stroke-linejoin: miter"/>
   </g>
   <g id="patch_23">
    <path d="M 73.728 166.8672 
C 74.904229 166.8672 76.032441 166.399879 76.86416 165.56816 
C 77.695879 164.736441 78.1632 163.608229 78.1632 162.432 
C 78.1632 161.255771 77.695879 160.127559 76.86416 159.29584 
C 76.032441 158.464121 74.904229 157.9968 73.728 157.9968 
C 72.551771 157.9968 71.423559 158.464121 70.59184 159.29584 
C 69.760121 160.127559 69.2928 161.255771 69.2928 162.432 
C 69.2928 163.608229 69.760121 164.736441 70.59184 165.56816 
C 71.423559 166.399879 72.551771 166.8672 73.728 166.8672 
z
" clip-path="url(#pff9544cadd)" style="fill: #08306b; stroke: #08306b; stroke-linejoin: miter"/>
   </g>
   <g id="patch_24">
    <path d="M 73.728 189.0432 
C 74.904229 189.0432 76.032441 188.575879 76.86416 187.74416 
C 77.695879 186.912441 78.1632 185.784229 78.1632 184.608 
C 78.1632 183.431771 77.695879 182.303559 76.86416 181.47184 
C 76.032441 180.640121 74.904229 180.1728 73.728 180.1728 
C 72.551771 180.1728 71.423559 180.640121 70.59184 181.47184 
C 69.760121 182.303559 69.2928 183.431771 69.2928 184.608 
C 69.2928 185.784229 69.760121 186.912441 70.59184 187.74416 
C 71.423559 188.575879 72.551771 189.0432 73.728 189.0432 
z
" clip-path="url(#pff9544cadd)" style="fill: #2070b4; stroke: #2070b4; stroke-linejoin: miter"/>
   </g>
   <g id="patch_25">
    <path d="M 73.728 211.2192 
C 74.904229 211.2192 76.032441 210.751879 76.86416 209.92016 
C 77.695879 209.088441 78.1632 207.960229 78.1632 206.784 
C 78.1632 205.607771 77.695879 204.479559 76.86416 203.64784 
C 76.032441 202.816121 74.904229 202.3488 73.728 202.3488 
C 72.551771 202.3488 71.423559 202.816121 70.59184 203.64784 
C 69.760121 204.479559 69.2928 205.607771 69.2928 206.784 
C 69.2928 207.960229 69.760121 209.088441 70.59184 209.92016 
C 71.423559 210.751879 72.551771 211.2192 73.728 211.2192 
z
" clip-path="url(#pff9544cadd)" style="fill: #6aaed6; stroke: #6aaed6; stroke-linejoin: miter"/>
   </g>
   <g id="patch_26">
    <path d="M 73.728 233.3952 
C 74.904229 233.3952 76.032441 232.927879 76.86416 232.09616 
C 77.695879 231.264441 78.1632 230.136229 78.1632 228.96 
C 78.1632 227.783771 77.695879 226.655559 76.86416 225.82384 
C 76.032441 224.992121 74.904229 224.5248 73.728 224.5248 
C 72.551771 224.5248 71.423559 224.992121 70.59184 225.82384 
C 69.760121 226.655559 69.2928 227.783771 69.2928 228.96 
C 69.2928 230.136229 69.760121 231.264441 70.59184 232.09616 
C 71.423559 232.927879 72.551771 233.3952 73.728 233.3952 
z
" clip-path="url(#pff9544cadd)" style="fill: #c6dbef; stroke: #c6dbef; stroke-linejoin: miter"/>
   </g>
   <g id="patch_27">
    <path d="M 84.816 233.3952 
C 85.992229 233.3952 87.120441 232.927879 87.95216 232.09616 
C 88.783879 231.264441 89.2512 230.136229 89.2512 228.96 
C 89.2512 227.783771 88.783879 226.655559 87.95216 225.82384 
C 87.120441 224.992121 85.992229 224.5248 84.816 224.5248 
C 83.639771 224.5248 82.511559 224.992121 81.67984 225.82384 
C 80.848121 226.655559 80.3808 227.783771 80.3808 228.96 
C 80.3808 230.136229 80.848121 231.264441 81.67984 232.09616 
C 82.511559 232.927879 83.639771 233.3952 84.816 233.3952 
z
" clip-path="url(#pff9544cadd)" style="fill: #08306b; stroke: #08306b; stroke-linejoin: miter"/>
   </g>
   <g id="patch_28">
    <path d="M 84.816 255.5712 
C 85.992229 255.5712 87.120441 255.103879 87.95216 254.27216 
C 88.783879 253.440441 89.2512 252.312229 89.2512 251.136 
C 89.2512 249.959771 88.783879 248.831559 87.95216 247.99984 
C 87.120441 247.168121 85.992229 246.7008 84.816 246.7008 
C 83.639771 246.7008 82.511559 247.168121 81.67984 247.99984 
C 80.848121 248.831559 80.3808 249.959771 80.3808 251.136 
C 80.3808 252.312229 80.848121 253.440441 81.67984 254.27216 
C 82.511559 255.103879 83.639771 255.5712 84.816 255.5712 
z
" clip-path="url(#pff9544cadd)" style="fill: #2070b4; stroke: #2070b4; stroke-linejoin: miter"/>
   </g>
   <g id="patch_29">
    <path d="M 84.816 277.7472 
C 85.992229 277.7472 87.120441 277.279879 87.95216 276.44816 
C 88.783879 275.616441 89.2512 274.488229 89.2512 273.312 
C 89.2512 272.135771 88.783879 271.007559 87.95216 270.17584 
C 87.120441 269.344121 85.992229 268.8768 84.816 268.8768 
C 83.639771 268.8768 82.511559 269.344121 81.67984 270.17584 
C 80.848121 271.007559 80.3808 272.135771 80.3808 273.312 
C 80.3808 274.488229 80.848121 275.616441 81.67984 276.44816 
C 82.511559 277.279879 83.639771 277.7472 84.816 277.7472 
z
" clip-path="url(#pff9544cadd)" style="fill: #6aaed6; stroke: #6aaed6; stroke-linejoin: miter"/>
   </g>
   <g id="patch_30">
    <path d="M 84.816 299.9232 
C 85.992229 299.9232 87.120441 299.455879 87.95216 298.62416 
C 88.783879 297.792441 89.2512 296.664229 89.2512 295.488 
C 89.2512 294.311771 88.783879 293.183559 87.95216 292.35184 
C 87.120441 291.520121 85.992229 291.0528 84.816 291.0528 
C 83.639771 291.0528 82.511559 291.520121 81.67984 292.35184 
C 80.848121 293.183559 80.3808 294.311771 80.3808 295.488 
C 80.3808 296.664229 80.848121 297.792441 81.67984 298.62416 
C 82.511559 299.455879 83.639771 299.9232 84.816 299.9232 
z
" clip-path="url(#pff9544cadd)" style="fill: #c6dbef; stroke: #c6dbef; stroke-linejoin: miter"/>
   </g>
   <g id="patch_31">
    <path d="M 106.992 233.3952 
C 108.168229 233.3952 109.296441 232.927879 110.12816 232.09616 
C 110.959879 231.264441 111.4272 230.136229 111.4272 228.96 
C 111.4272 227.783771 110.959879 226.655559 110.12816 225.82384 
C 109.296441 224.992121 108.168229 224.5248 106.992 224.5248 
C 105.815771 224.5248 104.687559 224.992121 103.85584 225.82384 
C 103.024121 226.655559 102.5568 227.783771 102.5568 228.96 
C 102.5568 230.136229 103.024121 231.264441 103.85584 232.09616 
C 104.687559 232.927879 105.815771 233.3952 106.992 233.3952 
z
" clip-path="url(#pff9544cadd)" style="fill: #08306b; stroke: #08306b; stroke-linejoin: miter"/>
   </g>
   <g id="patch_32">
    <path d="M 106.992 255.5712 
C 108.168229 255.5712 109.296441 255.103879 110.12816 254.27216 
C 110.959879 253.440441 111.4272 252.312229 111.4272 251.136 
C 111.4272 249.959771 110.959879 248.831559 110.12816 247.99984 
C 109.296441 247.168121 108.168229 246.7008 106.992 246.7008 
C 105.815771 246.7008 104.687559 247.168121 103.85584 247.99984 
C 103.024121 248.831559 102.5568 249.959771 102.5568 251.136 
C 102.5568 252.312229 103.024121 253.440441 103.85584 254.27216 
C 104.687559 255.103879 105.815771 255.5712 106.992 255.5712 
z
" clip-path="url(#pff9544cadd)" style="fill: #3787c0; stroke: #3787c0; stroke-linejoin: miter"/>
   </g>
   <g id="patch_33">
    <path d="M 106.992 277.7472 
C 108.168229 277.7472 109.296441 277.279879 110.12816 276.44816 
C 110.959879 275.616441 111.4272 274.488229 111.4272 273.312 
C 111.4272 272.135771 110.959879 271.007559 110.12816 270.17584 
C 109.296441 269.344121 108.168229 268.8768 106.992 268.8768 
C 105.815771 268.8768 104.687559 269.344121 103.85584 270.17584 
C 103.024121 271.007559 102.5568 272.135771 102.5568 273.312 
C 102.5568 274.488229 103.024121 275.616441 103.85584 276.44816 
C 104.687559 277.279879 105.815771 277.7472 106.992 277.7472 
z
" clip-path="url(#pff9544cadd)" style="fill: #abd0e6; stroke: #abd0e6; stroke-linejoin: miter"/>
   </g>
   <g id="patch_34">
    <path d="M 129.168 255.5712 
C 130.344229 255.5712 131.472441 255.103879 132.30416 254.27216 
C 133.135879 253.440441 133.6032 252.312229 133.6032 251.136 
C 133.6032 249.959771 133.135879 248.831559 132.30416 247.99984 
C 131.472441 247.168121 130.344229 246.7008 129.168 246.7008 
C 127.991771 246.7008 126.863559 247.168121 126.03184 247.99984 
C 125.200121 248.831559 124.7328 249.959771 124.7328 251.136 
C 124.7328 252.312229 125.200121 253.440441 126.03184 254.27216 
C 126.863559 255.103879 127.991771 255.5712 129.168 255.5712 
z
" clip-path="url(#pff9544cadd)" style="fill: #ff7e79; stroke: #ff7e79; stroke-linejoin: miter"/>
   </g>
   <g id="patch_35">
    <path d="M 129.168 277.7472 
C 130.344229 277.7472 131.472441 277.279879 132.30416 276.44816 
C 133.135879 275.616441 133.6032 274.488229 133.6032 273.312 
C 133.6032 272.135771 133.135879 271.007559 132.30416 270.17584 
C 131.472441 269.344121 130.344229 268.8768 129.168 268.8768 
C 127.991771 268.8768 126.863559 269.344121 126.03184 270.17584 
C 125.200121 271.007559 124.7328 272.135771 124.7328 273.312 
C 124.7328 274.488229 125.200121 275.616441 126.03184 276.44816 
C 126.863559 277.279879 127.991771 277.7472 129.168 277.7472 
z
" clip-path="url(#pff9544cadd)" style="fill: #ff7e79; stroke: #ff7e79; stroke-linejoin: miter"/>
   </g>
   <g id="patch_36">
    <path d="M 129.168 299.9232 
C 130.344229 299.9232 131.472441 299.455879 132.30416 298.62416 
C 133.135879 297.792441 133.6032 296.664229 133.6032 295.488 
C 133.6032 294.311771 133.135879 293.183559 132.30416 292.35184 
C 131.472441 291.520121 130.344229 291.0528 129.168 291.0528 
C 127.991771 291.0528 126.863559 291.520121 126.03184 292.35184 
C 125.200121 293.183559 124.7328 294.311771 124.7328 295.488 
C 124.7328 296.664229 125.200121 297.792441 126.03184 298.62416 
C 126.863559 299.455879 127.991771 299.9232 129.168 299.9232 
z
" clip-path="url(#pff9544cadd)" style="fill: #ff7e79; stroke: #ff7e79; stroke-linejoin: miter"/>
   </g>
   <g id="patch_37">
    <path d="M 140.256 166.8672 
C 141.432229 166.8672 142.560441 166.399879 143.39216 165.56816 
C 144.223879 164.736441 144.6912 163.608229 144.6912 162.432 
C 144.6912 161.255771 144.223879 160.127559 143.39216 159.29584 
C 142.560441 158.464121 141.432229 157.9968 140.256 157.9968 
C 139.079771 157.9968 137.951559 158.464121 137.11984 159.29584 
C 136.288121 160.127559 135.8208 161.255771 135.8208 162.432 
C 135.8208 163.608229 136.288121 164.736441 137.11984 165.56816 
C 137.951559 166.399879 139.079771 166.8672 140.256 166.8672 
z
" clip-path="url(#pff9544cadd)" style="fill: #08306b; stroke: #08306b; stroke-linejoin: miter"/>
   </g>
   <g id="patch_38">
    <path d="M 140.256 189.0432 
C 141.432229 189.0432 142.560441 188.575879 143.39216 187.74416 
C 144.223879 186.912441 144.6912 185.784229 144.6912 184.608 
C 144.6912 183.431771 144.223879 182.303559 143.39216 181.47184 
C 142.560441 180.640121 141.432229 180.1728 140.256 180.1728 
C 139.079771 180.1728 137.951559 180.640121 137.11984 181.47184 
C 136.288121 182.303559 135.8208 183.431771 135.8208 184.608 
C 135.8208 185.784229 136.288121 186.912441 137.11984 187.74416 
C 137.951559 188.575879 139.079771 189.0432 140.256 189.0432 
z
" clip-path="url(#pff9544cadd)" style="fill: #2070b4; stroke: #2070b4; stroke-linejoin: miter"/>
   </g>
   <g id="patch_39">
    <path d="M 140.256 211.2192 
C 141.432229 211.2192 142.560441 210.751879 143.39216 209.92016 
C 144.223879 209.088441 144.6912 207.960229 144.6912 206.784 
C 144.6912 205.607771 144.223879 204.479559 143.39216 203.64784 
C 142.560441 202.816121 141.432229 202.3488 140.256 202.3488 
C 139.079771 202.3488 137.951559 202.816121 137.11984 203.64784 
C 136.288121 204.479559 135.8208 205.607771 135.8208 206.784 
C 135.8208 207.960229 136.288121 209.088441 137.11984 209.92016 
C 137.951559 210.751879 139.079771 211.2192 140.256 211.2192 
z
" clip-path="url(#pff9544cadd)" style="fill: #6aaed6; stroke: #6aaed6; stroke-linejoin: miter"/>
   </g>
   <g id="patch_40">
    <path d="M 140.256 233.3952 
C 141.432229 233.3952 142.560441 232.927879 143.39216 232.09616 
C 144.223879 231.264441 144.6912 230.136229 144.6912 228.96 
C 144.6912 227.783771 144.223879 226.655559 143.39216 225.82384 
C 142.560441 224.992121 141.432229 224.5248 140.256 224.5248 
C 139.079771 224.5248 137.951559 224.992121 137.11984 225.82384 
C 136.288121 226.655559 135.8208 227.783771 135.8208 228.96 
C 135.8208 230.136229 136.288121 231.264441 137.11984 232.09616 
C 137.951559 232.927879 139.079771 233.3952 140.256 233.3952 
z
" clip-path="url(#pff9544cadd)" style="fill: #c6dbef; stroke: #c6dbef; stroke-linejoin: miter"/>
   </g>
   <g id="patch_41">
    <path d="M 151.344 100.3392 
C 152.520229 100.3392 153.648441 99.871879 154.48016 99.04016 
C 155.311879 98.208441 155.7792 97.080229 155.7792 95.904 
C 155.7792 94.727771 155.311879 93.599559 154.48016 92.76784 
C 153.648441 91.936121 152.520229 91.4688 151.344 91.4688 
C 150.167771 91.4688 149.039559 91.936121 148.20784 92.76784 
C 147.376121 93.599559 146.9088 94.727771 146.9088 95.904 
C 146.9088 97.080229 147.376121 98.208441 148.20784 99.04016 
C 149.039559 99.871879 150.167771 100.3392 151.344 100.3392 
z
" clip-path="url(#pff9544cadd)" style="fill: #08306b; stroke: #08306b; stroke-linejoin: miter"/>
   </g>
   <g id="patch_42">
    <path d="M 151.344 122.5152 
C 152.520229 122.5152 153.648441 122.047879 154.48016 121.21616 
C 155.311879 120.384441 155.7792 119.256229 155.7792 118.08 
C 155.7792 116.903771 155.311879 115.775559 154.48016 114.94384 
C 153.648441 114.112121 152.520229 113.6448 151.344 113.6448 
C 150.167771 113.6448 149.039559 114.112121 148.20784 114.94384 
C 147.376121 115.775559 146.9088 116.903771 146.9088 118.08 
C 146.9088 119.256229 147.376121 120.384441 148.20784 121.21616 
C 149.039559 122.047879 150.167771 122.5152 151.344 122.5152 
z
" clip-path="url(#pff9544cadd)" style="fill: #2070b4; stroke: #2070b4; stroke-linejoin: miter"/>
   </g>
   <g id="patch_43">
    <path d="M 151.344 144.6912 
C 152.520229 144.6912 153.648441 144.223879 154.48016 143.39216 
C 155.311879 142.560441 155.7792 141.432229 155.7792 140.256 
C 155.7792 139.079771 155.311879 137.951559 154.48016 137.11984 
C 153.648441 136.288121 152.520229 135.8208 151.344 135.8208 
C 150.167771 135.8208 149.039559 136.288121 148.20784 137.11984 
C 147.376121 137.951559 146.9088 139.079771 146.9088 140.256 
C 146.9088 141.432229 147.376121 142.560441 148.20784 143.39216 
C 149.039559 144.223879 150.167771 144.6912 151.344 144.6912 
z
" clip-path="url(#pff9544cadd)" style="fill: #6aaed6; stroke: #6aaed6; stroke-linejoin: miter"/>
   </g>
   <g id="patch_44">
    <path d="M 151.344 166.8672 
C 152.520229 166.8672 153.648441 166.399879 154.48016 165.56816 
C 155.311879 164.736441 155.7792 163.608229 155.7792 162.432 
C 155.7792 161.255771 155.311879 160.127559 154.48016 159.29584 
C 153.648441 158.464121 152.520229 157.9968 151.344 157.9968 
C 150.167771 157.9968 149.039559 158.464121 148.20784 159.29584 
C 147.376121 160.127559 146.9088 161.255771 146.9088 162.432 
C 146.9088 163.608229 147.376121 164.736441 148.20784 165.56816 
C 149.039559 166.399879 150.167771 166.8672 151.344 166.8672 
z
" clip-path="url(#pff9544cadd)" style="fill: #c6dbef; stroke: #c6dbef; stroke-linejoin: miter"/>
   </g>
   <g id="patch_45">
    <path d="M 162.432 33.8112 
C 163.608229 33.8112 164.736441 33.343879 165.56816 32.51216 
C 166.399879 31.680441 166.8672 30.552229 166.8672 29.376 
C 166.8672 28.199771 166.399879 27.071559 165.56816 26.23984 
C 164.736441 25.408121 163.608229 24.9408 162.432 24.9408 
C 161.255771 24.9408 160.127559 25.408121 159.29584 26.23984 
C 158.464121 27.071559 157.9968 28.199771 157.9968 29.376 
C 157.9968 30.552229 158.464121 31.680441 159.29584 32.51216 
C 160.127559 33.343879 161.255771 33.8112 162.432 33.8112 
z
" clip-path="url(#pff9544cadd)" style="fill: #08306b; stroke: #08306b; stroke-linejoin: miter"/>
   </g>
   <g id="patch_46">
    <path d="M 162.432 55.9872 
C 163.608229 55.9872 164.736441 55.519879 165.56816 54.68816 
C 166.399879 53.856441 166.8672 52.728229 166.8672 51.552 
C 166.8672 50.375771 166.399879 49.247559 165.56816 48.41584 
C 164.736441 47.584121 163.608229 47.1168 162.432 47.1168 
C 161.255771 47.1168 160.127559 47.584121 159.29584 48.41584 
C 158.464121 49.247559 157.9968 50.375771 157.9968 51.552 
C 157.9968 52.728229 158.464121 53.856441 159.29584 54.68816 
C 160.127559 55.519879 161.255771 55.9872 162.432 55.9872 
z
" clip-path="url(#pff9544cadd)" style="fill: #2070b4; stroke: #2070b4; stroke-linejoin: miter"/>
   </g>
   <g id="patch_47">
    <path d="M 162.432 78.1632 
C 163.608229 78.1632 164.736441 77.695879 165.56816 76.86416 
C 166.399879 76.032441 166.8672 74.904229 166.8672 73.728 
C 166.8672 72.551771 166.399879 71.423559 165.56816 70.59184 
C 164.736441 69.760121 163.608229 69.2928 162.432 69.2928 
C 161.255771 69.2928 160.127559 69.760121 159.29584 70.59184 
C 158.464121 71.423559 157.9968 72.551771 157.9968 73.728 
C 157.9968 74.904229 158.464121 76.032441 159.29584 76.86416 
C 160.127559 77.695879 161.255771 78.1632 162.432 78.1632 
z
" clip-path="url(#pff9544cadd)" style="fill: #6aaed6; stroke: #6aaed6; stroke-linejoin: miter"/>
   </g>
   <g id="patch_48">
    <path d="M 162.432 100.3392 
C 163.608229 100.3392 164.736441 99.871879 165.56816 99.04016 
C 166.399879 98.208441 166.8672 97.080229 166.8672 95.904 
C 166.8672 94.727771 166.399879 93.599559 165.56816 92.76784 
C 164.736441 91.936121 163.608229 91.4688 162.432 91.4688 
C 161.255771 91.4688 160.127559 91.936121 159.29584 92.76784 
C 158.464121 93.599559 157.9968 94.727771 157.9968 95.904 
C 157.9968 97.080229 158.464121 98.208441 159.29584 99.04016 
C 160.127559 99.871879 161.255771 100.3392 162.432 100.3392 
z
" clip-path="url(#pff9544cadd)" style="fill: #c6dbef; stroke: #c6dbef; stroke-linejoin: miter"/>
   </g>
   <g id="patch_49">
    <path d="M 184.608 255.5712 
C 185.784229 255.5712 186.912441 255.103879 187.74416 254.27216 
C 188.575879 253.440441 189.0432 252.312229 189.0432 251.136 
C 189.0432 249.959771 188.575879 248.831559 187.74416 247.99984 
C 186.912441 247.168121 185.784229 246.7008 184.608 246.7008 
C 183.431771 246.7008 182.303559 247.168121 181.47184 247.99984 
C 180.640121 248.831559 180.1728 249.959771 180.1728 251.136 
C 180.1728 252.312229 180.640121 253.440441 181.47184 254.27216 
C 182.303559 255.103879 183.431771 255.5712 184.608 255.5712 
z
" clip-path="url(#pff9544cadd)" style="fill: #008000; stroke: #008000; stroke-linejoin: miter"/>
   </g>
   <g id="patch_50">
    <path d="M 184.608 277.7472 
C 185.784229 277.7472 186.912441 277.279879 187.74416 276.44816 
C 188.575879 275.616441 189.0432 274.488229 189.0432 273.312 
C 189.0432 272.135771 188.575879 271.007559 187.74416 270.17584 
C 186.912441 269.344121 185.784229 268.8768 184.608 268.8768 
C 183.431771 268.8768 182.303559 269.344121 181.47184 270.17584 
C 180.640121 271.007559 180.1728 272.135771 180.1728 273.312 
C 180.1728 274.488229 180.640121 275.616441 181.47184 276.44816 
C 182.303559 277.279879 183.431771 277.7472 184.608 277.7472 
z
" clip-path="url(#pff9544cadd)" style="fill: #008000; stroke: #008000; stroke-linejoin: miter"/>
   </g>
   <g id="patch_51">
    <path d="M 184.608 299.9232 
C 185.784229 299.9232 186.912441 299.455879 187.74416 298.62416 
C 188.575879 297.792441 189.0432 296.664229 189.0432 295.488 
C 189.0432 294.311771 188.575879 293.183559 187.74416 292.35184 
C 186.912441 291.520121 185.784229 291.0528 184.608 291.0528 
C 183.431771 291.0528 182.303559 291.520121 181.47184 292.35184 
C 180.640121 293.183559 180.1728 294.311771 180.1728 295.488 
C 180.1728 296.664229 180.640121 297.792441 181.47184 298.62416 
C 182.303559 299.455879 183.431771 299.9232 184.608 299.9232 
z
" clip-path="url(#pff9544cadd)" style="fill: #008000; stroke: #008000; stroke-linejoin: miter"/>
   </g>
   <g id="text_1">
    <!-- 0 -->
    <g transform="translate(26.19475 32.135375) scale(0.1 -0.1)">
     <defs>
      <path id="DejaVuSans-30" d="M 2034 4250 
Q 1547 4250 1301 3770 
Q 1056 3291 1056 2328 
Q 1056 1369 1301 889 
Q 1547 409 2034 409 
Q 2525 409 2770 889 
Q 3016 1369 3016 2328 
Q 3016 3291 2770 3770 
Q 2525 4250 2034 4250 
z
M 2034 4750 
Q 2819 4750 3233 4129 
Q 3647 3509 3647 2328 
Q 3647 1150 3233 529 
Q 2819 -91 2034 -91 
Q 1250 -91 836 529 
Q 422 1150 422 2328 
Q 422 3509 836 4129 
Q 1250 4750 2034 4750 
z
" transform="scale(0.015625)"/>
     </defs>
     <use xlink:href="#DejaVuSans-30"/>
    </g>
   </g>
   <g id="text_2">
    <!-- 1 -->
    <g transform="translate(26.19475 54.311375) scale(0.1 -0.1)">
     <defs>
      <path id="DejaVuSans-31" d="M 794 531 
L 1825 531 
L 1825 4091 
L 703 3866 
L 703 4441 
L 1819 4666 
L 2450 4666 
L 2450 531 
L 3481 531 
L 3481 0 
L 794 0 
L 794 531 
z
" transform="scale(0.015625)"/>
     </defs>
     <use xlink:href="#DejaVuSans-31"/>
    </g>
   </g>
   <g id="text_3">
    <!-- 2 -->
    <g transform="translate(26.19475 76.487375) scale(0.1 -0.1)">
     <defs>
      <path id="DejaVuSans-32" d="M 1228 531 
L 3431 531 
L 3431 0 
L 469 0 
L 469 531 
Q 828 903 1448 1529 
Q 2069 2156 2228 2338 
Q 2531 2678 2651 2914 
Q 2772 3150 2772 3378 
Q 2772 3750 2511 3984 
Q 2250 4219 1831 4219 
Q 1534 4219 1204 4116 
Q 875 4013 500 3803 
L 500 4441 
Q 881 4594 1212 4672 
Q 1544 4750 1819 4750 
Q 2544 4750 2975 4387 
Q 3406 4025 3406 3419 
Q 3406 3131 3298 2873 
Q 3191 2616 2906 2266 
Q 2828 2175 2409 1742 
Q 1991 1309 1228 531 
z
" transform="scale(0.015625)"/>
     </defs>
     <use xlink:href="#DejaVuSans-32"/>
    </g>
   </g>
   <g id="text_4">
    <!-- 3 -->
    <g transform="translate(26.19475 98.663375) scale(0.1 -0.1)">
     <defs>
      <path id="DejaVuSans-33" d="M 2597 2516 
Q 3050 2419 3304 2112 
Q 3559 1806 3559 1356 
Q 3559 666 3084 287 
Q 2609 -91 1734 -91 
Q 1441 -91 1130 -33 
Q 819 25 488 141 
L 488 750 
Q 750 597 1062 519 
Q 1375 441 1716 441 
Q 2309 441 2620 675 
Q 2931 909 2931 1356 
Q 2931 1769 2642 2001 
Q 2353 2234 1838 2234 
L 1294 2234 
L 1294 2753 
L 1863 2753 
Q 2328 2753 2575 2939 
Q 2822 3125 2822 3475 
Q 2822 3834 2567 4026 
Q 2313 4219 1838 4219 
Q 1578 4219 1281 4162 
Q 984 4106 628 3988 
L 628 4550 
Q 988 4650 1302 4700 
Q 1616 4750 1894 4750 
Q 2613 4750 3031 4423 
Q 3450 4097 3450 3541 
Q 3450 3153 3228 2886 
Q 3006 2619 2597 2516 
z
" transform="scale(0.015625)"/>
     </defs>
     <use xlink:href="#DejaVuSans-33"/>
    </g>
   </g>
   <g id="text_5">
    <!-- 4 -->
    <g transform="translate(26.19475 120.839375) scale(0.1 -0.1)">
     <defs>
      <path id="DejaVuSans-34" d="M 2419 4116 
L 825 1625 
L 2419 1625 
L 2419 4116 
z
M 2253 4666 
L 3047 4666 
L 3047 1625 
L 3713 1625 
L 3713 1100 
L 3047 1100 
L 3047 0 
L 2419 0 
L 2419 1100 
L 313 1100 
L 313 1709 
L 2253 4666 
z
" transform="scale(0.015625)"/>
     </defs>
     <use xlink:href="#DejaVuSans-34"/>
    </g>
   </g>
   <g id="text_6">
    <!-- 5 -->
    <g transform="translate(26.19475 143.015375) scale(0.1 -0.1)">
     <defs>
      <path id="DejaVuSans-35" d="M 691 4666 
L 3169 4666 
L 3169 4134 
L 1269 4134 
L 1269 2991 
Q 1406 3038 1543 3061 
Q 1681 3084 1819 3084 
Q 2600 3084 3056 2656 
Q 3513 2228 3513 1497 
Q 3513 744 3044 326 
Q 2575 -91 1722 -91 
Q 1428 -91 1123 -41 
Q 819 9 494 109 
L 494 744 
Q 775 591 1075 516 
Q 1375 441 1709 441 
Q 2250 441 2565 725 
Q 2881 1009 2881 1497 
Q 2881 1984 2565 2268 
Q 2250 2553 1709 2553 
Q 1456 2553 1204 2497 
Q 953 2441 691 2322 
L 691 4666 
z
" transform="scale(0.015625)"/>
     </defs>
     <use xlink:href="#DejaVuSans-35"/>
    </g>
   </g>
   <g id="text_7">
    <!-- 6 -->
    <g transform="translate(26.19475 165.191375) scale(0.1 -0.1)">
     <defs>
      <path id="DejaVuSans-36" d="M 2113 2584 
Q 1688 2584 1439 2293 
Q 1191 2003 1191 1497 
Q 1191 994 1439 701 
Q 1688 409 2113 409 
Q 2538 409 2786 701 
Q 3034 994 3034 1497 
Q 3034 2003 2786 2293 
Q 2538 2584 2113 2584 
z
M 3366 4563 
L 3366 3988 
Q 3128 4100 2886 4159 
Q 2644 4219 2406 4219 
Q 1781 4219 1451 3797 
Q 1122 3375 1075 2522 
Q 1259 2794 1537 2939 
Q 1816 3084 2150 3084 
Q 2853 3084 3261 2657 
Q 3669 2231 3669 1497 
Q 3669 778 3244 343 
Q 2819 -91 2113 -91 
Q 1303 -91 875 529 
Q 447 1150 447 2328 
Q 447 3434 972 4092 
Q 1497 4750 2381 4750 
Q 2619 4750 2861 4703 
Q 3103 4656 3366 4563 
z
" transform="scale(0.015625)"/>
     </defs>
     <use xlink:href="#DejaVuSans-36"/>
    </g>
   </g>
   <g id="text_8">
    <!-- 7 -->
    <g transform="translate(26.19475 187.367375) scale(0.1 -0.1)">
     <defs>
      <path id="DejaVuSans-37" d="M 525 4666 
L 3525 4666 
L 3525 4397 
L 1831 0 
L 1172 0 
L 2766 4134 
L 525 4134 
L 525 4666 
z
" transform="scale(0.015625)"/>
     </defs>
     <use xlink:href="#DejaVuSans-37"/>
    </g>
   </g>
   <g id="text_9">
    <!-- 8 -->
    <g transform="translate(26.19475 209.543375) scale(0.1 -0.1)">
     <defs>
      <path id="DejaVuSans-38" d="M 2034 2216 
Q 1584 2216 1326 1975 
Q 1069 1734 1069 1313 
Q 1069 891 1326 650 
Q 1584 409 2034 409 
Q 2484 409 2743 651 
Q 3003 894 3003 1313 
Q 3003 1734 2745 1975 
Q 2488 2216 2034 2216 
z
M 1403 2484 
Q 997 2584 770 2862 
Q 544 3141 544 3541 
Q 544 4100 942 4425 
Q 1341 4750 2034 4750 
Q 2731 4750 3128 4425 
Q 3525 4100 3525 3541 
Q 3525 3141 3298 2862 
Q 3072 2584 2669 2484 
Q 3125 2378 3379 2068 
Q 3634 1759 3634 1313 
Q 3634 634 3220 271 
Q 2806 -91 2034 -91 
Q 1263 -91 848 271 
Q 434 634 434 1313 
Q 434 1759 690 2068 
Q 947 2378 1403 2484 
z
M 1172 3481 
Q 1172 3119 1398 2916 
Q 1625 2713 2034 2713 
Q 2441 2713 2670 2916 
Q 2900 3119 2900 3481 
Q 2900 3844 2670 4047 
Q 2441 4250 2034 4250 
Q 1625 4250 1398 4047 
Q 1172 3844 1172 3481 
z
" transform="scale(0.015625)"/>
     </defs>
     <use xlink:href="#DejaVuSans-38"/>
    </g>
   </g>
   <g id="text_10">
    <!-- 9 -->
    <g transform="translate(26.19475 231.719375) scale(0.1 -0.1)">
     <defs>
      <path id="DejaVuSans-39" d="M 703 97 
L 703 672 
Q 941 559 1184 500 
Q 1428 441 1663 441 
Q 2288 441 2617 861 
Q 2947 1281 2994 2138 
Q 2813 1869 2534 1725 
Q 2256 1581 1919 1581 
Q 1219 1581 811 2004 
Q 403 2428 403 3163 
Q 403 3881 828 4315 
Q 1253 4750 1959 4750 
Q 2769 4750 3195 4129 
Q 3622 3509 3622 2328 
Q 3622 1225 3098 567 
Q 2575 -91 1691 -91 
Q 1453 -91 1209 -44 
Q 966 3 703 97 
z
M 1959 2075 
Q 2384 2075 2632 2365 
Q 2881 2656 2881 3163 
Q 2881 3666 2632 3958 
Q 2384 4250 1959 4250 
Q 1534 4250 1286 3958 
Q 1038 3666 1038 3163 
Q 1038 2656 1286 2365 
Q 1534 2075 1959 2075 
z
" transform="scale(0.015625)"/>
     </defs>
     <use xlink:href="#DejaVuSans-39"/>
    </g>
   </g>
   <g id="text_11">
    <!-- 10 -->
    <g transform="translate(23.0135 253.895375) scale(0.1 -0.1)">
     <use xlink:href="#DejaVuSans-31"/>
     <use xlink:href="#DejaVuSans-30" x="63.623047"/>
    </g>
   </g>
   <g id="text_12">
    <!-- 11 -->
    <g transform="translate(23.0135 276.071375) scale(0.1 -0.1)">
     <use xlink:href="#DejaVuSans-31"/>
     <use xlink:href="#DejaVuSans-31" x="63.623047"/>
    </g>
   </g>
   <g id="text_13">
    <!-- 12 -->
    <g transform="translate(23.0135 298.247375) scale(0.1 -0.1)">
     <use xlink:href="#DejaVuSans-31"/>
     <use xlink:href="#DejaVuSans-32" x="63.623047"/>
    </g>
   </g>
   <g id="text_14">
    <!-- cry -->
    <g transform="translate(46.207812 24.248538) rotate(-30) scale(0.1 -0.1)">
     <defs>
      <path id="DejaVuSans-63" d="M 3122 3366 
L 3122 2828 
Q 2878 2963 2633 3030 
Q 2388 3097 2138 3097 
Q 1578 3097 1268 2742 
Q 959 2388 959 1747 
Q 959 1106 1268 751 
Q 1578 397 2138 397 
Q 2388 397 2633 464 
Q 2878 531 3122 666 
L 3122 134 
Q 2881 22 2623 -34 
Q 2366 -91 2075 -91 
Q 1284 -91 818 406 
Q 353 903 353 1747 
Q 353 2603 823 3093 
Q 1294 3584 2113 3584 
Q 2378 3584 2631 3529 
Q 2884 3475 3122 3366 
z
" transform="scale(0.015625)"/>
      <path id="DejaVuSans-72" d="M 2631 2963 
Q 2534 3019 2420 3045 
Q 2306 3072 2169 3072 
Q 1681 3072 1420 2755 
Q 1159 2438 1159 1844 
L 1159 0 
L 581 0 
L 581 3500 
L 1159 3500 
L 1159 2956 
Q 1341 3275 1631 3429 
Q 1922 3584 2338 3584 
Q 2397 3584 2469 3576 
Q 2541 3569 2628 3553 
L 2631 2963 
z
" transform="scale(0.015625)"/>
      <path id="DejaVuSans-79" d="M 2059 -325 
Q 1816 -950 1584 -1140 
Q 1353 -1331 966 -1331 
L 506 -1331 
L 506 -850 
L 844 -850 
Q 1081 -850 1212 -737 
Q 1344 -625 1503 -206 
L 1606 56 
L 191 3500 
L 800 3500 
L 1894 763 
L 2988 3500 
L 3597 3500 
L 2059 -325 
z
" transform="scale(0.015625)"/>
     </defs>
     <use xlink:href="#DejaVuSans-63"/>
     <use xlink:href="#DejaVuSans-72" x="54.980469"/>
     <use xlink:href="#DejaVuSans-79" x="96.09375"/>
    </g>
   </g>
   <g id="text_15">
    <!-- cry -->
    <g transform="translate(57.295812 90.776538) rotate(-30) scale(0.1 -0.1)">
     <use xlink:href="#DejaVuSans-63"/>
     <use xlink:href="#DejaVuSans-72" x="54.980469"/>
     <use xlink:href="#DejaVuSans-79" x="96.09375"/>
    </g>
   </g>
   <g id="text_16">
    <!-- cry -->
    <g transform="translate(68.383812 157.304538) rotate(-30) scale(0.1 -0.1)">
     <use xlink:href="#DejaVuSans-63"/>
     <use xlink:href="#DejaVuSans-72" x="54.980469"/>
     <use xlink:href="#DejaVuSans-79" x="96.09375"/>
    </g>
   </g>
   <g id="text_17">
    <!-- cry -->
    <g transform="translate(79.471812 223.832538) rotate(-30) scale(0.1 -0.1)">
     <use xlink:href="#DejaVuSans-63"/>
     <use xlink:href="#DejaVuSans-72" x="54.980469"/>
     <use xlink:href="#DejaVuSans-79" x="96.09375"/>
    </g>
   </g>
   <g id="text_18">
    <!-- cns -->
    <g transform="translate(100.990851 223.832538) rotate(-30) scale(0.1 -0.1)">
     <defs>
      <path id="DejaVuSans-6e" d="M 3513 2113 
L 3513 0 
L 2938 0 
L 2938 2094 
Q 2938 2591 2744 2837 
Q 2550 3084 2163 3084 
Q 1697 3084 1428 2787 
Q 1159 2491 1159 1978 
L 1159 0 
L 581 0 
L 581 3500 
L 1159 3500 
L 1159 2956 
Q 1366 3272 1645 3428 
Q 1925 3584 2291 3584 
Q 2894 3584 3203 3211 
Q 3513 2838 3513 2113 
z
" transform="scale(0.015625)"/>
      <path id="DejaVuSans-73" d="M 2834 3397 
L 2834 2853 
Q 2591 2978 2328 3040 
Q 2066 3103 1784 3103 
Q 1356 3103 1142 2972 
Q 928 2841 928 2578 
Q 928 2378 1081 2264 
Q 1234 2150 1697 2047 
L 1894 2003 
Q 2506 1872 2764 1633 
Q 3022 1394 3022 966 
Q 3022 478 2636 193 
Q 2250 -91 1575 -91 
Q 1294 -91 989 -36 
Q 684 19 347 128 
L 347 722 
Q 666 556 975 473 
Q 1284 391 1588 391 
Q 1994 391 2212 530 
Q 2431 669 2431 922 
Q 2431 1156 2273 1281 
Q 2116 1406 1581 1522 
L 1381 1569 
Q 847 1681 609 1914 
Q 372 2147 372 2553 
Q 372 3047 722 3315 
Q 1072 3584 1716 3584 
Q 2034 3584 2315 3537 
Q 2597 3491 2834 3397 
z
" transform="scale(0.015625)"/>
     </defs>
     <use xlink:href="#DejaVuSans-63"/>
     <use xlink:href="#DejaVuSans-6e" x="54.980469"/>
     <use xlink:href="#DejaVuSans-73" x="118.359375"/>
    </g>
   </g>
   <g id="text_19">
    <!-- crs -->
    <g transform="translate(135.218981 157.304538) rotate(-30) scale(0.1 -0.1)">
     <use xlink:href="#DejaVuSans-63"/>
     <use xlink:href="#DejaVuSans-72" x="54.980469"/>
     <use xlink:href="#DejaVuSans-73" x="96.09375"/>
    </g>
   </g>
   <g id="text_20">
    <!-- crs -->
    <g transform="translate(146.306981 90.776538) rotate(-30) scale(0.1 -0.1)">
     <use xlink:href="#DejaVuSans-63"/>
     <use xlink:href="#DejaVuSans-72" x="54.980469"/>
     <use xlink:href="#DejaVuSans-73" x="96.09375"/>
    </g>
   </g>
   <g id="text_21">
    <!-- crs -->
    <g transform="translate(157.394981 24.248538) rotate(-30) scale(0.1 -0.1)">
     <use xlink:href="#DejaVuSans-63"/>
     <use xlink:href="#DejaVuSans-72" x="54.980469"/>
     <use xlink:href="#DejaVuSans-73" x="96.09375"/>
    </g>
   </g>
  </g>
 </g>
 <defs>
  <clipPath id="pff9544cadd">
   <rect x="7.2" y="7.2" width="443.52" height="332.64"/>
  </clipPath>
 </defs>
</svg>
