<?xml version="1.0" encoding="utf-8" standalone="no"?>
<!DOCTYPE svg PUBLIC "-//W3C//DTD SVG 1.1//EN"
  "http://www.w3.org/Graphics/SVG/1.1/DTD/svg11.dtd">
<svg xmlns:xlink="http://www.w3.org/1999/xlink" width="568.8pt" height="347.04pt" viewBox="0 0 568.8 347.04" xmlns="http://www.w3.org/2000/svg" version="1.1">
 <metadata>
  <rdf:RDF xmlns:dc="http://purl.org/dc/elements/1.1/" xmlns:cc="http://creativecommons.org/ns#" xmlns:rdf="http://www.w3.org/1999/02/22-rdf-syntax-ns#">
   <cc:Work>
    <dc:type rdf:resource="http://purl.org/dc/dcmitype/StillImage"/>
    <dc:date>2023-11-07T20:09:42.727512</dc:date>
    <dc:format>image/svg+xml</dc:format>
    <dc:creator>
     <cc:Agent>
      <dc:title>Matplotlib v3.8.0, https://matplotlib.org/</dc:title>
     </cc:Agent>
    </dc:creator>
   </cc:Work>
  </rdf:RDF>
 </metadata>
 <defs>
  <style type="text/css">*{stroke-linejoin: round; stroke-linecap: butt}</style>
 </defs>
 <g id="figure_1">
  <g id="patch_1">
   <path d="M 0 347.04 
L 568.8 347.04 
L 568.8 -0 
L 0 -0 
L 0 347.04 
z
" style="fill: none"/>
  </g>
  <g id="axes_1">
   <g id="LineCollection_1">
    <path d="M 34.92 34.92 
L 561.6 34.92 
" clip-path="url(#pdcf63021da)" style="fill: none; stroke: #808080; stroke-width: 1.5"/>
   </g>
   <g id="LineCollection_2">
    <path d="M 34.92 62.64 
L 561.6 62.64 
" clip-path="url(#pdcf63021da)" style="fill: none; stroke: #808080; stroke-width: 1.5"/>
   </g>
   <g id="LineCollection_3">
    <path d="M 34.92 90.36 
L 561.6 90.36 
" clip-path="url(#pdcf63021da)" style="fill: none; stroke: #808080; stroke-width: 1.5"/>
   </g>
   <g id="LineCollection_4">
    <path d="M 34.92 118.08 
L 561.6 118.08 
" clip-path="url(#pdcf63021da)" style="fill: none; stroke: #808080; stroke-width: 1.5"/>
   </g>
   <g id="LineCollection_5">
    <path d="M 34.92 145.8 
L 561.6 145.8 
" clip-path="url(#pdcf63021da)" style="fill: none; stroke: #808080; stroke-width: 1.5"/>
   </g>
   <g id="LineCollection_6">
    <path d="M 34.92 173.52 
L 561.6 173.52 
" clip-path="url(#pdcf63021da)" style="fill: none; stroke: #808080; stroke-width: 1.5"/>
   </g>
   <g id="LineCollection_7">
    <path d="M 34.92 201.24 
L 561.6 201.24 
" clip-path="url(#pdcf63021da)" style="fill: none; stroke: #808080; stroke-width: 1.5"/>
   </g>
   <g id="LineCollection_8">
    <path d="M 34.92 228.96 
L 561.6 228.96 
" clip-path="url(#pdcf63021da)" style="fill: none; stroke: #808080; stroke-width: 1.5"/>
   </g>
   <g id="LineCollection_9">
    <path d="M 34.92 256.68 
L 561.6 256.68 
" clip-path="url(#pdcf63021da)" style="fill: none; stroke: #808080; stroke-width: 1.5"/>
   </g>
   <g id="LineCollection_10">
    <path d="M 34.92 284.4 
L 561.6 284.4 
" clip-path="url(#pdcf63021da)" style="fill: none; stroke: #808080; stroke-width: 1.5"/>
   </g>
   <g id="line2d_1">
    <path d="M 62.64 34.92 
L 62.64 62.64 
" clip-path="url(#pdcf63021da)" style="fill: none; stroke: #000000; stroke-width: 1.5; stroke-linecap: square"/>
   </g>
   <g id="line2d_2">
    <path d="M 62.64 62.64 
L 62.64 90.36 
" clip-path="url(#pdcf63021da)" style="fill: none; stroke: #000000; stroke-width: 1.5; stroke-linecap: square"/>
   </g>
   <g id="line2d_3">
    <path d="M 62.64 90.36 
L 62.64 118.08 
" clip-path="url(#pdcf63021da)" style="fill: none; stroke: #000000; stroke-width: 1.5; stroke-linecap: square"/>
   </g>
   <g id="line2d_4">
    <path d="M 76.5 118.08 
L 76.5 145.8 
" clip-path="url(#pdcf63021da)" style="fill: none; stroke: #000000; stroke-width: 1.5; stroke-linecap: square"/>
   </g>
   <g id="line2d_5">
    <path d="M 76.5 145.8 
L 76.5 173.52 
" clip-path="url(#pdcf63021da)" style="fill: none; stroke: #000000; stroke-width: 1.5; stroke-linecap: square"/>
   </g>
   <g id="line2d_6">
    <path d="M 76.5 173.52 
L 76.5 201.24 
" clip-path="url(#pdcf63021da)" style="fill: none; stroke: #000000; stroke-width: 1.5; stroke-linecap: square"/>
   </g>
   <g id="line2d_7">
    <path d="M 90.36 201.24 
L 90.36 228.96 
" clip-path="url(#pdcf63021da)" style="fill: none; stroke: #000000; stroke-width: 1.5; stroke-linecap: square"/>
   </g>
   <g id="line2d_8">
    <path d="M 90.36 228.96 
L 90.36 256.68 
" clip-path="url(#pdcf63021da)" style="fill: none; stroke: #000000; stroke-width: 1.5; stroke-linecap: square"/>
   </g>
   <g id="line2d_9">
    <path d="M 90.36 256.68 
L 90.36 284.4 
" clip-path="url(#pdcf63021da)" style="fill: none; stroke: #000000; stroke-width: 1.5; stroke-linecap: square"/>
   </g>
   <g id="patch_2">
    <path d="M 34.92 46.008 
C 37.860572 46.008 40.681102 44.839698 42.7604 42.7604 
C 44.839698 40.681102 46.008 37.860572 46.008 34.92 
C 46.008 31.979428 44.839698 29.158898 42.7604 27.0796 
C 40.681102 25.000302 37.860572 23.832 34.92 23.832 
C 31.979428 23.832 29.158898 25.000302 27.0796 27.0796 
C 25.000302 29.158898 23.832 31.979428 23.832 34.92 
C 23.832 37.860572 25.000302 40.681102 27.0796 42.7604 
C 29.158898 44.839698 31.979428 46.008 34.92 46.008 
z
" clip-path="url(#pdcf63021da)" style="fill: #92a9bd; stroke: #000000; stroke-linejoin: miter"/>
   </g>
   <g id="patch_3">
    <path d="M 34.92 73.728 
C 37.860572 73.728 40.681102 72.559698 42.7604 70.4804 
C 44.839698 68.401102 46.008 65.580572 46.008 62.64 
C 46.008 59.699428 44.839698 56.878898 42.7604 54.7996 
C 40.681102 52.720302 37.860572 51.552 34.92 51.552 
C 31.979428 51.552 29.158898 52.720302 27.0796 54.7996 
C 25.000302 56.878898 23.832 59.699428 23.832 62.64 
C 23.832 65.580572 25.000302 68.401102 27.0796 70.4804 
C 29.158898 72.559698 31.979428 73.728 34.92 73.728 
z
" clip-path="url(#pdcf63021da)" style="fill: #92a9bd; stroke: #000000; stroke-linejoin: miter"/>
   </g>
   <g id="patch_4">
    <path d="M 34.92 101.448 
C 37.860572 101.448 40.681102 100.279698 42.7604 98.2004 
C 44.839698 96.121102 46.008 93.300572 46.008 90.36 
C 46.008 87.419428 44.839698 84.598898 42.7604 82.5196 
C 40.681102 80.440302 37.860572 79.272 34.92 79.272 
C 31.979428 79.272 29.158898 80.440302 27.0796 82.5196 
C 25.000302 84.598898 23.832 87.419428 23.832 90.36 
C 23.832 93.300572 25.000302 96.121102 27.0796 98.2004 
C 29.158898 100.279698 31.979428 101.448 34.92 101.448 
z
" clip-path="url(#pdcf63021da)" style="fill: #92a9bd; stroke: #000000; stroke-linejoin: miter"/>
   </g>
   <g id="patch_5">
    <path d="M 34.92 129.168 
C 37.860572 129.168 40.681102 127.999698 42.7604 125.9204 
C 44.839698 123.841102 46.008 121.020572 46.008 118.08 
C 46.008 115.139428 44.839698 112.318898 42.7604 110.2396 
C 40.681102 108.160302 37.860572 106.992 34.92 106.992 
C 31.979428 106.992 29.158898 108.160302 27.0796 110.2396 
C 25.000302 112.318898 23.832 115.139428 23.832 118.08 
C 23.832 121.020572 25.000302 123.841102 27.0796 125.9204 
C 29.158898 127.999698 31.979428 129.168 34.92 129.168 
z
" clip-path="url(#pdcf63021da)" style="fill: #92a9bd; stroke: #000000; stroke-linejoin: miter"/>
   </g>
   <g id="patch_6">
    <path d="M 34.92 156.888 
C 37.860572 156.888 40.681102 155.719698 42.7604 153.6404 
C 44.839698 151.561102 46.008 148.740572 46.008 145.8 
C 46.008 142.859428 44.839698 140.038898 42.7604 137.9596 
C 40.681102 135.880302 37.860572 134.712 34.92 134.712 
C 31.979428 134.712 29.158898 135.880302 27.0796 137.9596 
C 25.000302 140.038898 23.832 142.859428 23.832 145.8 
C 23.832 148.740572 25.000302 151.561102 27.0796 153.6404 
C 29.158898 155.719698 31.979428 156.888 34.92 156.888 
z
" clip-path="url(#pdcf63021da)" style="fill: #92a9bd; stroke: #000000; stroke-linejoin: miter"/>
   </g>
   <g id="patch_7">
    <path d="M 34.92 184.608 
C 37.860572 184.608 40.681102 183.439698 42.7604 181.3604 
C 44.839698 179.281102 46.008 176.460572 46.008 173.52 
C 46.008 170.579428 44.839698 167.758898 42.7604 165.6796 
C 40.681102 163.600302 37.860572 162.432 34.92 162.432 
C 31.979428 162.432 29.158898 163.600302 27.0796 165.6796 
C 25.000302 167.758898 23.832 170.579428 23.832 173.52 
C 23.832 176.460572 25.000302 179.281102 27.0796 181.3604 
C 29.158898 183.439698 31.979428 184.608 34.92 184.608 
z
" clip-path="url(#pdcf63021da)" style="fill: #92a9bd; stroke: #000000; stroke-linejoin: miter"/>
   </g>
   <g id="patch_8">
    <path d="M 34.92 212.328 
C 37.860572 212.328 40.681102 211.159698 42.7604 209.0804 
C 44.839698 207.001102 46.008 204.180572 46.008 201.24 
C 46.008 198.299428 44.839698 195.478898 42.7604 193.3996 
C 40.681102 191.320302 37.860572 190.152 34.92 190.152 
C 31.979428 190.152 29.158898 191.320302 27.0796 193.3996 
C 25.000302 195.478898 23.832 198.299428 23.832 201.24 
C 23.832 204.180572 25.000302 207.001102 27.0796 209.0804 
C 29.158898 211.159698 31.979428 212.328 34.92 212.328 
z
" clip-path="url(#pdcf63021da)" style="fill: #92a9bd; stroke: #000000; stroke-linejoin: miter"/>
   </g>
   <g id="patch_9">
    <path d="M 34.92 240.048 
C 37.860572 240.048 40.681102 238.879698 42.7604 236.8004 
C 44.839698 234.721102 46.008 231.900572 46.008 228.96 
C 46.008 226.019428 44.839698 223.198898 42.7604 221.1196 
C 40.681102 219.040302 37.860572 217.872 34.92 217.872 
C 31.979428 217.872 29.158898 219.040302 27.0796 221.1196 
C 25.000302 223.198898 23.832 226.019428 23.832 228.96 
C 23.832 231.900572 25.000302 234.721102 27.0796 236.8004 
C 29.158898 238.879698 31.979428 240.048 34.92 240.048 
z
" clip-path="url(#pdcf63021da)" style="fill: #92a9bd; stroke: #000000; stroke-linejoin: miter"/>
   </g>
   <g id="patch_10">
    <path d="M 34.92 267.768 
C 37.860572 267.768 40.681102 266.599698 42.7604 264.5204 
C 44.839698 262.441102 46.008 259.620572 46.008 256.68 
C 46.008 253.739428 44.839698 250.918898 42.7604 248.8396 
C 40.681102 246.760302 37.860572 245.592 34.92 245.592 
C 31.979428 245.592 29.158898 246.760302 27.0796 248.8396 
C 25.000302 250.918898 23.832 253.739428 23.832 256.68 
C 23.832 259.620572 25.000302 262.441102 27.0796 264.5204 
C 29.158898 266.599698 31.979428 267.768 34.92 267.768 
z
" clip-path="url(#pdcf63021da)" style="fill: #92a9bd; stroke: #000000; stroke-linejoin: miter"/>
   </g>
   <g id="patch_11">
    <path d="M 34.92 295.488 
C 37.860572 295.488 40.681102 294.319698 42.7604 292.2404 
C 44.839698 290.161102 46.008 287.340572 46.008 284.4 
C 46.008 281.459428 44.839698 278.638898 42.7604 276.5596 
C 40.681102 274.480302 37.860572 273.312 34.92 273.312 
C 31.979428 273.312 29.158898 274.480302 27.0796 276.5596 
C 25.000302 278.638898 23.832 281.459428 23.832 284.4 
C 23.832 287.340572 25.000302 290.161102 27.0796 292.2404 
C 29.158898 294.319698 31.979428 295.488 34.92 295.488 
z
" clip-path="url(#pdcf63021da)" style="fill: #92a9bd; stroke: #000000; stroke-linejoin: miter"/>
   </g>
   <g id="patch_12">
    <path d="M 62.64 40.464 
C 64.110286 40.464 65.520551 39.879849 66.5602 38.8402 
C 67.599849 37.800551 68.184 36.390286 68.184 34.92 
C 68.184 33.449714 67.599849 32.039449 66.5602 30.9998 
C 65.520551 29.960151 64.110286 29.376 62.64 29.376 
C 61.169714 29.376 59.759449 29.960151 58.7198 30.9998 
C 57.680151 32.039449 57.096 33.449714 57.096 34.92 
C 57.096 36.390286 57.680151 37.800551 58.7198 38.8402 
C 59.759449 39.879849 61.169714 40.464 62.64 40.464 
z
" clip-path="url(#pdcf63021da)" style="fill: #08306b; stroke: #08306b; stroke-linejoin: miter"/>
   </g>
   <g id="patch_13">
    <path d="M 62.64 68.184 
C 64.110286 68.184 65.520551 67.599849 66.5602 66.5602 
C 67.599849 65.520551 68.184 64.110286 68.184 62.64 
C 68.184 61.169714 67.599849 59.759449 66.5602 58.7198 
C 65.520551 57.680151 64.110286 57.096 62.64 57.096 
C 61.169714 57.096 59.759449 57.680151 58.7198 58.7198 
C 57.680151 59.759449 57.096 61.169714 57.096 62.64 
C 57.096 64.110286 57.680151 65.520551 58.7198 66.5602 
C 59.759449 67.599849 61.169714 68.184 62.64 68.184 
z
" clip-path="url(#pdcf63021da)" style="fill: #2070b4; stroke: #2070b4; stroke-linejoin: miter"/>
   </g>
   <g id="patch_14">
    <path d="M 62.64 95.904 
C 64.110286 95.904 65.520551 95.319849 66.5602 94.2802 
C 67.599849 93.240551 68.184 91.830286 68.184 90.36 
C 68.184 88.889714 67.599849 87.479449 66.5602 86.4398 
C 65.520551 85.400151 64.110286 84.816 62.64 84.816 
C 61.169714 84.816 59.759449 85.400151 58.7198 86.4398 
C 57.680151 87.479449 57.096 88.889714 57.096 90.36 
C 57.096 91.830286 57.680151 93.240551 58.7198 94.2802 
C 59.759449 95.319849 61.169714 95.904 62.64 95.904 
z
" clip-path="url(#pdcf63021da)" style="fill: #6aaed6; stroke: #6aaed6; stroke-linejoin: miter"/>
   </g>
   <g id="patch_15">
    <path d="M 62.64 123.624 
C 64.110286 123.624 65.520551 123.039849 66.5602 122.0002 
C 67.599849 120.960551 68.184 119.550286 68.184 118.08 
C 68.184 116.609714 67.599849 115.199449 66.5602 114.1598 
C 65.520551 113.120151 64.110286 112.536 62.64 112.536 
C 61.169714 112.536 59.759449 113.120151 58.7198 114.1598 
C 57.680151 115.199449 57.096 116.609714 57.096 118.08 
C 57.096 119.550286 57.680151 120.960551 58.7198 122.0002 
C 59.759449 123.039849 61.169714 123.624 62.64 123.624 
z
" clip-path="url(#pdcf63021da)" style="fill: #c6dbef; stroke: #c6dbef; stroke-linejoin: miter"/>
   </g>
   <g id="patch_16">
    <path d="M 76.5 123.624 
C 77.970286 123.624 79.380551 123.039849 80.4202 122.0002 
C 81.459849 120.960551 82.044 119.550286 82.044 118.08 
C 82.044 116.609714 81.459849 115.199449 80.4202 114.1598 
C 79.380551 113.120151 77.970286 112.536 76.5 112.536 
C 75.029714 112.536 73.619449 113.120151 72.5798 114.1598 
C 71.540151 115.199449 70.956 116.609714 70.956 118.08 
C 70.956 119.550286 71.540151 120.960551 72.5798 122.0002 
C 73.619449 123.039849 75.029714 123.624 76.5 123.624 
z
" clip-path="url(#pdcf63021da)" style="fill: #08306b; stroke: #08306b; stroke-linejoin: miter"/>
   </g>
   <g id="patch_17">
    <path d="M 76.5 151.344 
C 77.970286 151.344 79.380551 150.759849 80.4202 149.7202 
C 81.459849 148.680551 82.044 147.270286 82.044 145.8 
C 82.044 144.329714 81.459849 142.919449 80.4202 141.8798 
C 79.380551 140.840151 77.970286 140.256 76.5 140.256 
C 75.029714 140.256 73.619449 140.840151 72.5798 141.8798 
C 71.540151 142.919449 70.956 144.329714 70.956 145.8 
C 70.956 147.270286 71.540151 148.680551 72.5798 149.7202 
C 73.619449 150.759849 75.029714 151.344 76.5 151.344 
z
" clip-path="url(#pdcf63021da)" style="fill: #2070b4; stroke: #2070b4; stroke-linejoin: miter"/>
   </g>
   <g id="patch_18">
    <path d="M 76.5 179.064 
C 77.970286 179.064 79.380551 178.479849 80.4202 177.4402 
C 81.459849 176.400551 82.044 174.990286 82.044 173.52 
C 82.044 172.049714 81.459849 170.639449 80.4202 169.5998 
C 79.380551 168.560151 77.970286 167.976 76.5 167.976 
C 75.029714 167.976 73.619449 168.560151 72.5798 169.5998 
C 71.540151 170.639449 70.956 172.049714 70.956 173.52 
C 70.956 174.990286 71.540151 176.400551 72.5798 177.4402 
C 73.619449 178.479849 75.029714 179.064 76.5 179.064 
z
" clip-path="url(#pdcf63021da)" style="fill: #6aaed6; stroke: #6aaed6; stroke-linejoin: miter"/>
   </g>
   <g id="patch_19">
    <path d="M 76.5 206.784 
C 77.970286 206.784 79.380551 206.199849 80.4202 205.1602 
C 81.459849 204.120551 82.044 202.710286 82.044 201.24 
C 82.044 199.769714 81.459849 198.359449 80.4202 197.3198 
C 79.380551 196.280151 77.970286 195.696 76.5 195.696 
C 75.029714 195.696 73.619449 196.280151 72.5798 197.3198 
C 71.540151 198.359449 70.956 199.769714 70.956 201.24 
C 70.956 202.710286 71.540151 204.120551 72.5798 205.1602 
C 73.619449 206.199849 75.029714 206.784 76.5 206.784 
z
" clip-path="url(#pdcf63021da)" style="fill: #c6dbef; stroke: #c6dbef; stroke-linejoin: miter"/>
   </g>
   <g id="patch_20">
    <path d="M 90.36 206.784 
C 91.830286 206.784 93.240551 206.199849 94.2802 205.1602 
C 95.319849 204.120551 95.904 202.710286 95.904 201.24 
C 95.904 199.769714 95.319849 198.359449 94.2802 197.3198 
C 93.240551 196.280151 91.830286 195.696 90.36 195.696 
C 88.889714 195.696 87.479449 196.280151 86.4398 197.3198 
C 85.400151 198.359449 84.816 199.769714 84.816 201.24 
C 84.816 202.710286 85.400151 204.120551 86.4398 205.1602 
C 87.479449 206.199849 88.889714 206.784 90.36 206.784 
z
" clip-path="url(#pdcf63021da)" style="fill: #08306b; stroke: #08306b; stroke-linejoin: miter"/>
   </g>
   <g id="patch_21">
    <path d="M 90.36 234.504 
C 91.830286 234.504 93.240551 233.919849 94.2802 232.8802 
C 95.319849 231.840551 95.904 230.430286 95.904 228.96 
C 95.904 227.489714 95.319849 226.079449 94.2802 225.0398 
C 93.240551 224.000151 91.830286 223.416 90.36 223.416 
C 88.889714 223.416 87.479449 224.000151 86.4398 225.0398 
C 85.400151 226.079449 84.816 227.489714 84.816 228.96 
C 84.816 230.430286 85.400151 231.840551 86.4398 232.8802 
C 87.479449 233.919849 88.889714 234.504 90.36 234.504 
z
" clip-path="url(#pdcf63021da)" style="fill: #2070b4; stroke: #2070b4; stroke-linejoin: miter"/>
   </g>
   <g id="patch_22">
    <path d="M 90.36 262.224 
C 91.830286 262.224 93.240551 261.639849 94.2802 260.6002 
C 95.319849 259.560551 95.904 258.150286 95.904 256.68 
C 95.904 255.209714 95.319849 253.799449 94.2802 252.7598 
C 93.240551 251.720151 91.830286 251.136 90.36 251.136 
C 88.889714 251.136 87.479449 251.720151 86.4398 252.7598 
C 85.400151 253.799449 84.816 255.209714 84.816 256.68 
C 84.816 258.150286 85.400151 259.560551 86.4398 260.6002 
C 87.479449 261.639849 88.889714 262.224 90.36 262.224 
z
" clip-path="url(#pdcf63021da)" style="fill: #6aaed6; stroke: #6aaed6; stroke-linejoin: miter"/>
   </g>
   <g id="patch_23">
    <path d="M 90.36 289.944 
C 91.830286 289.944 93.240551 289.359849 94.2802 288.3202 
C 95.319849 287.280551 95.904 285.870286 95.904 284.4 
C 95.904 282.929714 95.319849 281.519449 94.2802 280.4798 
C 93.240551 279.440151 91.830286 278.856 90.36 278.856 
C 88.889714 278.856 87.479449 279.440151 86.4398 280.4798 
C 85.400151 281.519449 84.816 282.929714 84.816 284.4 
C 84.816 285.870286 85.400151 287.280551 86.4398 288.3202 
C 87.479449 289.359849 88.889714 289.944 90.36 289.944 
z
" clip-path="url(#pdcf63021da)" style="fill: #c6dbef; stroke: #c6dbef; stroke-linejoin: miter"/>
   </g>
   <g id="text_1">
    <!-- 0 -->
    <g transform="translate(31.73875 37.679375) scale(0.1 -0.1)">
     <defs>
      <path id="DejaVuSans-30" d="M 2034 4250 
Q 1547 4250 1301 3770 
Q 1056 3291 1056 2328 
Q 1056 1369 1301 889 
Q 1547 409 2034 409 
Q 2525 409 2770 889 
Q 3016 1369 3016 2328 
Q 3016 3291 2770 3770 
Q 2525 4250 2034 4250 
z
M 2034 4750 
Q 2819 4750 3233 4129 
Q 3647 3509 3647 2328 
Q 3647 1150 3233 529 
Q 2819 -91 2034 -91 
Q 1250 -91 836 529 
Q 422 1150 422 2328 
Q 422 3509 836 4129 
Q 1250 4750 2034 4750 
z
" transform="scale(0.015625)"/>
     </defs>
     <use xlink:href="#DejaVuSans-30"/>
    </g>
   </g>
   <g id="text_2">
    <!-- 1 -->
    <g transform="translate(31.73875 65.399375) scale(0.1 -0.1)">
     <defs>
      <path id="DejaVuSans-31" d="M 794 531 
L 1825 531 
L 1825 4091 
L 703 3866 
L 703 4441 
L 1819 4666 
L 2450 4666 
L 2450 531 
L 3481 531 
L 3481 0 
L 794 0 
L 794 531 
z
" transform="scale(0.015625)"/>
     </defs>
     <use xlink:href="#DejaVuSans-31"/>
    </g>
   </g>
   <g id="text_3">
    <!-- 2 -->
    <g transform="translate(31.73875 93.119375) scale(0.1 -0.1)">
     <defs>
      <path id="DejaVuSans-32" d="M 1228 531 
L 3431 531 
L 3431 0 
L 469 0 
L 469 531 
Q 828 903 1448 1529 
Q 2069 2156 2228 2338 
Q 2531 2678 2651 2914 
Q 2772 3150 2772 3378 
Q 2772 3750 2511 3984 
Q 2250 4219 1831 4219 
Q 1534 4219 1204 4116 
Q 875 4013 500 3803 
L 500 4441 
Q 881 4594 1212 4672 
Q 1544 4750 1819 4750 
Q 2544 4750 2975 4387 
Q 3406 4025 3406 3419 
Q 3406 3131 3298 2873 
Q 3191 2616 2906 2266 
Q 2828 2175 2409 1742 
Q 1991 1309 1228 531 
z
" transform="scale(0.015625)"/>
     </defs>
     <use xlink:href="#DejaVuSans-32"/>
    </g>
   </g>
   <g id="text_4">
    <!-- 3 -->
    <g transform="translate(31.73875 120.839375) scale(0.1 -0.1)">
     <defs>
      <path id="DejaVuSans-33" d="M 2597 2516 
Q 3050 2419 3304 2112 
Q 3559 1806 3559 1356 
Q 3559 666 3084 287 
Q 2609 -91 1734 -91 
Q 1441 -91 1130 -33 
Q 819 25 488 141 
L 488 750 
Q 750 597 1062 519 
Q 1375 441 1716 441 
Q 2309 441 2620 675 
Q 2931 909 2931 1356 
Q 2931 1769 2642 2001 
Q 2353 2234 1838 2234 
L 1294 2234 
L 1294 2753 
L 1863 2753 
Q 2328 2753 2575 2939 
Q 2822 3125 2822 3475 
Q 2822 3834 2567 4026 
Q 2313 4219 1838 4219 
Q 1578 4219 1281 4162 
Q 984 4106 628 3988 
L 628 4550 
Q 988 4650 1302 4700 
Q 1616 4750 1894 4750 
Q 2613 4750 3031 4423 
Q 3450 4097 3450 3541 
Q 3450 3153 3228 2886 
Q 3006 2619 2597 2516 
z
" transform="scale(0.015625)"/>
     </defs>
     <use xlink:href="#DejaVuSans-33"/>
    </g>
   </g>
   <g id="text_5">
    <!-- 4 -->
    <g transform="translate(31.73875 148.559375) scale(0.1 -0.1)">
     <defs>
      <path id="DejaVuSans-34" d="M 2419 4116 
L 825 1625 
L 2419 1625 
L 2419 4116 
z
M 2253 4666 
L 3047 4666 
L 3047 1625 
L 3713 1625 
L 3713 1100 
L 3047 1100 
L 3047 0 
L 2419 0 
L 2419 1100 
L 313 1100 
L 313 1709 
L 2253 4666 
z
" transform="scale(0.015625)"/>
     </defs>
     <use xlink:href="#DejaVuSans-34"/>
    </g>
   </g>
   <g id="text_6">
    <!-- 5 -->
    <g transform="translate(31.73875 176.279375) scale(0.1 -0.1)">
     <defs>
      <path id="DejaVuSans-35" d="M 691 4666 
L 3169 4666 
L 3169 4134 
L 1269 4134 
L 1269 2991 
Q 1406 3038 1543 3061 
Q 1681 3084 1819 3084 
Q 2600 3084 3056 2656 
Q 3513 2228 3513 1497 
Q 3513 744 3044 326 
Q 2575 -91 1722 -91 
Q 1428 -91 1123 -41 
Q 819 9 494 109 
L 494 744 
Q 775 591 1075 516 
Q 1375 441 1709 441 
Q 2250 441 2565 725 
Q 2881 1009 2881 1497 
Q 2881 1984 2565 2268 
Q 2250 2553 1709 2553 
Q 1456 2553 1204 2497 
Q 953 2441 691 2322 
L 691 4666 
z
" transform="scale(0.015625)"/>
     </defs>
     <use xlink:href="#DejaVuSans-35"/>
    </g>
   </g>
   <g id="text_7">
    <!-- 6 -->
    <g transform="translate(31.73875 203.999375) scale(0.1 -0.1)">
     <defs>
      <path id="DejaVuSans-36" d="M 2113 2584 
Q 1688 2584 1439 2293 
Q 1191 2003 1191 1497 
Q 1191 994 1439 701 
Q 1688 409 2113 409 
Q 2538 409 2786 701 
Q 3034 994 3034 1497 
Q 3034 2003 2786 2293 
Q 2538 2584 2113 2584 
z
M 3366 4563 
L 3366 3988 
Q 3128 4100 2886 4159 
Q 2644 4219 2406 4219 
Q 1781 4219 1451 3797 
Q 1122 3375 1075 2522 
Q 1259 2794 1537 2939 
Q 1816 3084 2150 3084 
Q 2853 3084 3261 2657 
Q 3669 2231 3669 1497 
Q 3669 778 3244 343 
Q 2819 -91 2113 -91 
Q 1303 -91 875 529 
Q 447 1150 447 2328 
Q 447 3434 972 4092 
Q 1497 4750 2381 4750 
Q 2619 4750 2861 4703 
Q 3103 4656 3366 4563 
z
" transform="scale(0.015625)"/>
     </defs>
     <use xlink:href="#DejaVuSans-36"/>
    </g>
   </g>
   <g id="text_8">
    <!-- 7 -->
    <g transform="translate(31.73875 231.719375) scale(0.1 -0.1)">
     <defs>
      <path id="DejaVuSans-37" d="M 525 4666 
L 3525 4666 
L 3525 4397 
L 1831 0 
L 1172 0 
L 2766 4134 
L 525 4134 
L 525 4666 
z
" transform="scale(0.015625)"/>
     </defs>
     <use xlink:href="#DejaVuSans-37"/>
    </g>
   </g>
   <g id="text_9">
    <!-- 8 -->
    <g transform="translate(31.73875 259.439375) scale(0.1 -0.1)">
     <defs>
      <path id="DejaVuSans-38" d="M 2034 2216 
Q 1584 2216 1326 1975 
Q 1069 1734 1069 1313 
Q 1069 891 1326 650 
Q 1584 409 2034 409 
Q 2484 409 2743 651 
Q 3003 894 3003 1313 
Q 3003 1734 2745 1975 
Q 2488 2216 2034 2216 
z
M 1403 2484 
Q 997 2584 770 2862 
Q 544 3141 544 3541 
Q 544 4100 942 4425 
Q 1341 4750 2034 4750 
Q 2731 4750 3128 4425 
Q 3525 4100 3525 3541 
Q 3525 3141 3298 2862 
Q 3072 2584 2669 2484 
Q 3125 2378 3379 2068 
Q 3634 1759 3634 1313 
Q 3634 634 3220 271 
Q 2806 -91 2034 -91 
Q 1263 -91 848 271 
Q 434 634 434 1313 
Q 434 1759 690 2068 
Q 947 2378 1403 2484 
z
M 1172 3481 
Q 1172 3119 1398 2916 
Q 1625 2713 2034 2713 
Q 2441 2713 2670 2916 
Q 2900 3119 2900 3481 
Q 2900 3844 2670 4047 
Q 2441 4250 2034 4250 
Q 1625 4250 1398 4047 
Q 1172 3844 1172 3481 
z
" transform="scale(0.015625)"/>
     </defs>
     <use xlink:href="#DejaVuSans-38"/>
    </g>
   </g>
   <g id="text_10">
    <!-- 9 -->
    <g transform="translate(31.73875 287.159375) scale(0.1 -0.1)">
     <defs>
      <path id="DejaVuSans-39" d="M 703 97 
L 703 672 
Q 941 559 1184 500 
Q 1428 441 1663 441 
Q 2288 441 2617 861 
Q 2947 1281 2994 2138 
Q 2813 1869 2534 1725 
Q 2256 1581 1919 1581 
Q 1219 1581 811 2004 
Q 403 2428 403 3163 
Q 403 3881 828 4315 
Q 1253 4750 1959 4750 
Q 2769 4750 3195 4129 
Q 3622 3509 3622 2328 
Q 3622 1225 3098 567 
Q 2575 -91 1691 -91 
Q 1453 -91 1209 -44 
Q 966 3 703 97 
z
M 1959 2075 
Q 2384 2075 2632 2365 
Q 2881 2656 2881 3163 
Q 2881 3666 2632 3958 
Q 2384 4250 1959 4250 
Q 1534 4250 1286 3958 
Q 1038 3666 1038 3163 
Q 1038 2656 1286 2365 
Q 1534 2075 1959 2075 
z
" transform="scale(0.015625)"/>
     </defs>
     <use xlink:href="#DejaVuSans-39"/>
    </g>
   </g>
   <g id="text_11">
    <!-- cry -->
    <g transform="translate(57.295812 28.960938) rotate(-30) scale(0.1 -0.1)">
     <defs>
      <path id="DejaVuSans-63" d="M 3122 3366 
L 3122 2828 
Q 2878 2963 2633 3030 
Q 2388 3097 2138 3097 
Q 1578 3097 1268 2742 
Q 959 2388 959 1747 
Q 959 1106 1268 751 
Q 1578 397 2138 397 
Q 2388 397 2633 464 
Q 2878 531 3122 666 
L 3122 134 
Q 2881 22 2623 -34 
Q 2366 -91 2075 -91 
Q 1284 -91 818 406 
Q 353 903 353 1747 
Q 353 2603 823 3093 
Q 1294 3584 2113 3584 
Q 2378 3584 2631 3529 
Q 2884 3475 3122 3366 
z
" transform="scale(0.015625)"/>
      <path id="DejaVuSans-72" d="M 2631 2963 
Q 2534 3019 2420 3045 
Q 2306 3072 2169 3072 
Q 1681 3072 1420 2755 
Q 1159 2438 1159 1844 
L 1159 0 
L 581 0 
L 581 3500 
L 1159 3500 
L 1159 2956 
Q 1341 3275 1631 3429 
Q 1922 3584 2338 3584 
Q 2397 3584 2469 3576 
Q 2541 3569 2628 3553 
L 2631 2963 
z
" transform="scale(0.015625)"/>
      <path id="DejaVuSans-79" d="M 2059 -325 
Q 1816 -950 1584 -1140 
Q 1353 -1331 966 -1331 
L 506 -1331 
L 506 -850 
L 844 -850 
Q 1081 -850 1212 -737 
Q 1344 -625 1503 -206 
L 1606 56 
L 191 3500 
L 800 3500 
L 1894 763 
L 2988 3500 
L 3597 3500 
L 2059 -325 
z
" transform="scale(0.015625)"/>
     </defs>
     <use xlink:href="#DejaVuSans-63"/>
     <use xlink:href="#DejaVuSans-72" x="54.980469"/>
     <use xlink:href="#DejaVuSans-79" x="96.09375"/>
    </g>
   </g>
   <g id="text_12">
    <!-- cry -->
    <g transform="translate(71.155812 112.120938) rotate(-30) scale(0.1 -0.1)">
     <use xlink:href="#DejaVuSans-63"/>
     <use xlink:href="#DejaVuSans-72" x="54.980469"/>
     <use xlink:href="#DejaVuSans-79" x="96.09375"/>
    </g>
   </g>
   <g id="text_13">
    <!-- cry -->
    <g transform="translate(85.015812 195.280938) rotate(-30) scale(0.1 -0.1)">
     <use xlink:href="#DejaVuSans-63"/>
     <use xlink:href="#DejaVuSans-72" x="54.980469"/>
     <use xlink:href="#DejaVuSans-79" x="96.09375"/>
    </g>
   </g>
  </g>
 </g>
 <defs>
  <clipPath id="pdcf63021da">
   <rect x="7.2" y="7.2" width="554.4" height="332.64"/>
  </clipPath>
 </defs>
</svg>
