<?xml version="1.0" encoding="utf-8" standalone="no"?>
<!DOCTYPE svg PUBLIC "-//W3C//DTD SVG 1.1//EN"
  "http://www.w3.org/Graphics/SVG/1.1/DTD/svg11.dtd">
<svg xmlns:xlink="http://www.w3.org/1999/xlink" width="572.4pt" height="181.8pt" viewBox="0 0 572.4 181.8" xmlns="http://www.w3.org/2000/svg" version="1.1">
 <metadata>
  <rdf:RDF xmlns:dc="http://purl.org/dc/elements/1.1/" xmlns:cc="http://creativecommons.org/ns#" xmlns:rdf="http://www.w3.org/1999/02/22-rdf-syntax-ns#">
   <cc:Work>
    <dc:type rdf:resource="http://purl.org/dc/dcmitype/StillImage"/>
    <dc:date>2023-11-07T20:03:18.802620</dc:date>
    <dc:format>image/svg+xml</dc:format>
    <dc:creator>
     <cc:Agent>
      <dc:title>Matplotlib v3.8.0, https://matplotlib.org/</dc:title>
     </cc:Agent>
    </dc:creator>
   </cc:Work>
  </rdf:RDF>
 </metadata>
 <defs>
  <style type="text/css">*{stroke-linejoin: round; stroke-linecap: butt}</style>
 </defs>
 <g id="figure_1">
  <g id="patch_1">
   <path d="M 0 181.8 
L 572.4 181.8 
L 572.4 -0 
L 0 -0 
L 0 181.8 
z
" style="fill: none"/>
  </g>
  <g id="axes_1">
   <g id="LineCollection_1">
    <path d="M 35.1 35.1 
L 565.2 35.1 
" clip-path="url(#pe48eb5b7ed)" style="fill: none; stroke: #808080; stroke-width: 1.5"/>
   </g>
   <g id="LineCollection_2">
    <path d="M 35.1 63 
L 565.2 63 
" clip-path="url(#pe48eb5b7ed)" style="fill: none; stroke: #808080; stroke-width: 1.5"/>
   </g>
   <g id="LineCollection_3">
    <path d="M 35.1 90.9 
L 565.2 90.9 
" clip-path="url(#pe48eb5b7ed)" style="fill: none; stroke: #808080; stroke-width: 1.5"/>
   </g>
   <g id="LineCollection_4">
    <path d="M 35.1 118.8 
L 565.2 118.8 
" clip-path="url(#pe48eb5b7ed)" style="fill: none; stroke: #808080; stroke-width: 1.5"/>
   </g>
   <g id="line2d_1">
    <path d="M 63 63 
L 63 90.9 
" clip-path="url(#pe48eb5b7ed)" style="fill: none; stroke: #000000; stroke-width: 1.5; stroke-linecap: square"/>
   </g>
   <g id="line2d_2">
    <path d="M 63 90.9 
L 63 118.8 
" clip-path="url(#pe48eb5b7ed)" style="fill: none; stroke: #000000; stroke-width: 1.5; stroke-linecap: square"/>
   </g>
   <g id="line2d_3">
    <path d="M 90.9 63 
L 90.9 90.9 
" clip-path="url(#pe48eb5b7ed)" style="fill: none; stroke: #000000; stroke-width: 1.5; stroke-linecap: square"/>
   </g>
   <g id="line2d_4">
    <path d="M 118.8 35.1 
L 118.8 90.9 
" clip-path="url(#pe48eb5b7ed)" style="fill: none; stroke: #000000; stroke-width: 1.5; stroke-linecap: square"/>
   </g>
   <g id="line2d_5">
    <path d="M 118.8 90.9 
L 118.8 118.8 
" clip-path="url(#pe48eb5b7ed)" style="fill: none; stroke: #000000; stroke-width: 1.5; stroke-linecap: square"/>
   </g>
   <g id="patch_2">
    <path d="M 35.1 46.26 
C 38.059667 46.26 40.898511 45.084112 42.991312 42.991312 
C 45.084112 40.898511 46.26 38.059667 46.26 35.1 
C 46.26 32.140333 45.084112 29.301489 42.991312 27.208688 
C 40.898511 25.115888 38.059667 23.94 35.1 23.94 
C 32.140333 23.94 29.301489 25.115888 27.208688 27.208688 
C 25.115888 29.301489 23.94 32.140333 23.94 35.1 
C 23.94 38.059667 25.115888 40.898511 27.208688 42.991312 
C 29.301489 45.084112 32.140333 46.26 35.1 46.26 
z
" clip-path="url(#pe48eb5b7ed)" style="fill: #92a9bd; stroke: #000000; stroke-linejoin: miter"/>
   </g>
   <g id="patch_3">
    <path d="M 35.1 74.16 
C 38.059667 74.16 40.898511 72.984112 42.991312 70.891312 
C 45.084112 68.798511 46.26 65.959667 46.26 63 
C 46.26 60.040333 45.084112 57.201489 42.991312 55.108688 
C 40.898511 53.015888 38.059667 51.84 35.1 51.84 
C 32.140333 51.84 29.301489 53.015888 27.208688 55.108688 
C 25.115888 57.201489 23.94 60.040333 23.94 63 
C 23.94 65.959667 25.115888 68.798511 27.208688 70.891312 
C 29.301489 72.984112 32.140333 74.16 35.1 74.16 
z
" clip-path="url(#pe48eb5b7ed)" style="fill: #92a9bd; stroke: #000000; stroke-linejoin: miter"/>
   </g>
   <g id="patch_4">
    <path d="M 35.1 102.06 
C 38.059667 102.06 40.898511 100.884112 42.991312 98.791312 
C 45.084112 96.698511 46.26 93.859667 46.26 90.9 
C 46.26 87.940333 45.084112 85.101489 42.991312 83.008688 
C 40.898511 80.915888 38.059667 79.74 35.1 79.74 
C 32.140333 79.74 29.301489 80.915888 27.208688 83.008688 
C 25.115888 85.101489 23.94 87.940333 23.94 90.9 
C 23.94 93.859667 25.115888 96.698511 27.208688 98.791312 
C 29.301489 100.884112 32.140333 102.06 35.1 102.06 
z
" clip-path="url(#pe48eb5b7ed)" style="fill: #92a9bd; stroke: #000000; stroke-linejoin: miter"/>
   </g>
   <g id="patch_5">
    <path d="M 35.1 129.96 
C 38.059667 129.96 40.898511 128.784112 42.991312 126.691312 
C 45.084112 124.598511 46.26 121.759667 46.26 118.8 
C 46.26 115.840333 45.084112 113.001489 42.991312 110.908688 
C 40.898511 108.815888 38.059667 107.64 35.1 107.64 
C 32.140333 107.64 29.301489 108.815888 27.208688 110.908688 
C 25.115888 113.001489 23.94 115.840333 23.94 118.8 
C 23.94 121.759667 25.115888 124.598511 27.208688 126.691312 
C 29.301489 128.784112 32.140333 129.96 35.1 129.96 
z
" clip-path="url(#pe48eb5b7ed)" style="fill: #92a9bd; stroke: #000000; stroke-linejoin: miter"/>
   </g>
   <g id="patch_6">
    <path d="M 63 68.58 
C 64.479833 68.58 65.899256 67.992056 66.945656 66.945656 
C 67.992056 65.899256 68.58 64.479833 68.58 63 
C 68.58 61.520167 67.992056 60.100744 66.945656 59.054344 
C 65.899256 58.007944 64.479833 57.42 63 57.42 
C 61.520167 57.42 60.100744 58.007944 59.054344 59.054344 
C 58.007944 60.100744 57.42 61.520167 57.42 63 
C 57.42 64.479833 58.007944 65.899256 59.054344 66.945656 
C 60.100744 67.992056 61.520167 68.58 63 68.58 
z
" clip-path="url(#pe48eb5b7ed)" style="fill: #08306b; stroke: #08306b; stroke-linejoin: miter"/>
   </g>
   <g id="patch_7">
    <path d="M 63 96.48 
C 64.479833 96.48 65.899256 95.892056 66.945656 94.845656 
C 67.992056 93.799256 68.58 92.379833 68.58 90.9 
C 68.58 89.420167 67.992056 88.000744 66.945656 86.954344 
C 65.899256 85.907944 64.479833 85.32 63 85.32 
C 61.520167 85.32 60.100744 85.907944 59.054344 86.954344 
C 58.007944 88.000744 57.42 89.420167 57.42 90.9 
C 57.42 92.379833 58.007944 93.799256 59.054344 94.845656 
C 60.100744 95.892056 61.520167 96.48 63 96.48 
z
" clip-path="url(#pe48eb5b7ed)" style="fill: #3787c0; stroke: #3787c0; stroke-linejoin: miter"/>
   </g>
   <g id="patch_8">
    <path d="M 63 124.38 
C 64.479833 124.38 65.899256 123.792056 66.945656 122.745656 
C 67.992056 121.699256 68.58 120.279833 68.58 118.8 
C 68.58 117.320167 67.992056 115.900744 66.945656 114.854344 
C 65.899256 113.807944 64.479833 113.22 63 113.22 
C 61.520167 113.22 60.100744 113.807944 59.054344 114.854344 
C 58.007944 115.900744 57.42 117.320167 57.42 118.8 
C 57.42 120.279833 58.007944 121.699256 59.054344 122.745656 
C 60.100744 123.792056 61.520167 124.38 63 124.38 
z
" clip-path="url(#pe48eb5b7ed)" style="fill: #abd0e6; stroke: #abd0e6; stroke-linejoin: miter"/>
   </g>
   <g id="patch_9">
    <path d="M 90.9 68.58 
C 92.379833 68.58 93.799256 67.992056 94.845656 66.945656 
C 95.892056 65.899256 96.48 64.479833 96.48 63 
C 96.48 61.520167 95.892056 60.100744 94.845656 59.054344 
C 93.799256 58.007944 92.379833 57.42 90.9 57.42 
C 89.420167 57.42 88.000744 58.007944 86.954344 59.054344 
C 85.907944 60.100744 85.32 61.520167 85.32 63 
C 85.32 64.479833 85.907944 65.899256 86.954344 66.945656 
C 88.000744 67.992056 89.420167 68.58 90.9 68.58 
z
" clip-path="url(#pe48eb5b7ed)" style="fill: #08306b; stroke: #08306b; stroke-linejoin: miter"/>
   </g>
   <g id="patch_10">
    <path d="M 90.9 96.48 
C 92.379833 96.48 93.799256 95.892056 94.845656 94.845656 
C 95.892056 93.799256 96.48 92.379833 96.48 90.9 
C 96.48 89.420167 95.892056 88.000744 94.845656 86.954344 
C 93.799256 85.907944 92.379833 85.32 90.9 85.32 
C 89.420167 85.32 88.000744 85.907944 86.954344 86.954344 
C 85.907944 88.000744 85.32 89.420167 85.32 90.9 
C 85.32 92.379833 85.907944 93.799256 86.954344 94.845656 
C 88.000744 95.892056 89.420167 96.48 90.9 96.48 
z
" clip-path="url(#pe48eb5b7ed)" style="fill: #6aaed6; stroke: #6aaed6; stroke-linejoin: miter"/>
   </g>
   <g id="patch_11">
    <path d="M 118.8 40.68 
C 120.279833 40.68 121.699256 40.092056 122.745656 39.045656 
C 123.792056 37.999256 124.38 36.579833 124.38 35.1 
C 124.38 33.620167 123.792056 32.200744 122.745656 31.154344 
C 121.699256 30.107944 120.279833 29.52 118.8 29.52 
C 117.320167 29.52 115.900744 30.107944 114.854344 31.154344 
C 113.807944 32.200744 113.22 33.620167 113.22 35.1 
C 113.22 36.579833 113.807944 37.999256 114.854344 39.045656 
C 115.900744 40.092056 117.320167 40.68 118.8 40.68 
z
" clip-path="url(#pe48eb5b7ed)" style="fill: #08306b; stroke: #08306b; stroke-linejoin: miter"/>
   </g>
   <g id="patch_12">
    <path d="M 118.8 96.48 
C 120.279833 96.48 121.699256 95.892056 122.745656 94.845656 
C 123.792056 93.799256 124.38 92.379833 124.38 90.9 
C 124.38 89.420167 123.792056 88.000744 122.745656 86.954344 
C 121.699256 85.907944 120.279833 85.32 118.8 85.32 
C 117.320167 85.32 115.900744 85.907944 114.854344 86.954344 
C 113.807944 88.000744 113.22 89.420167 113.22 90.9 
C 113.22 92.379833 113.807944 93.799256 114.854344 94.845656 
C 115.900744 95.892056 117.320167 96.48 118.8 96.48 
z
" clip-path="url(#pe48eb5b7ed)" style="fill: #3787c0; stroke: #3787c0; stroke-linejoin: miter"/>
   </g>
   <g id="patch_13">
    <path d="M 118.8 124.38 
C 120.279833 124.38 121.699256 123.792056 122.745656 122.745656 
C 123.792056 121.699256 124.38 120.279833 124.38 118.8 
C 124.38 117.320167 123.792056 115.900744 122.745656 114.854344 
C 121.699256 113.807944 120.279833 113.22 118.8 113.22 
C 117.320167 113.22 115.900744 113.807944 114.854344 114.854344 
C 113.807944 115.900744 113.22 117.320167 113.22 118.8 
C 113.22 120.279833 113.807944 121.699256 114.854344 122.745656 
C 115.900744 123.792056 117.320167 124.38 118.8 124.38 
z
" clip-path="url(#pe48eb5b7ed)" style="fill: #abd0e6; stroke: #abd0e6; stroke-linejoin: miter"/>
   </g>
   <g id="text_1">
    <!-- 0 -->
    <g transform="translate(31.91875 37.859375) scale(0.1 -0.1)">
     <defs>
      <path id="DejaVuSans-30" d="M 2034 4250 
Q 1547 4250 1301 3770 
Q 1056 3291 1056 2328 
Q 1056 1369 1301 889 
Q 1547 409 2034 409 
Q 2525 409 2770 889 
Q 3016 1369 3016 2328 
Q 3016 3291 2770 3770 
Q 2525 4250 2034 4250 
z
M 2034 4750 
Q 2819 4750 3233 4129 
Q 3647 3509 3647 2328 
Q 3647 1150 3233 529 
Q 2819 -91 2034 -91 
Q 1250 -91 836 529 
Q 422 1150 422 2328 
Q 422 3509 836 4129 
Q 1250 4750 2034 4750 
z
" transform="scale(0.015625)"/>
     </defs>
     <use xlink:href="#DejaVuSans-30"/>
    </g>
   </g>
   <g id="text_2">
    <!-- 1 -->
    <g transform="translate(31.91875 65.759375) scale(0.1 -0.1)">
     <defs>
      <path id="DejaVuSans-31" d="M 794 531 
L 1825 531 
L 1825 4091 
L 703 3866 
L 703 4441 
L 1819 4666 
L 2450 4666 
L 2450 531 
L 3481 531 
L 3481 0 
L 794 0 
L 794 531 
z
" transform="scale(0.015625)"/>
     </defs>
     <use xlink:href="#DejaVuSans-31"/>
    </g>
   </g>
   <g id="text_3">
    <!-- 2 -->
    <g transform="translate(31.91875 93.659375) scale(0.1 -0.1)">
     <defs>
      <path id="DejaVuSans-32" d="M 1228 531 
L 3431 531 
L 3431 0 
L 469 0 
L 469 531 
Q 828 903 1448 1529 
Q 2069 2156 2228 2338 
Q 2531 2678 2651 2914 
Q 2772 3150 2772 3378 
Q 2772 3750 2511 3984 
Q 2250 4219 1831 4219 
Q 1534 4219 1204 4116 
Q 875 4013 500 3803 
L 500 4441 
Q 881 4594 1212 4672 
Q 1544 4750 1819 4750 
Q 2544 4750 2975 4387 
Q 3406 4025 3406 3419 
Q 3406 3131 3298 2873 
Q 3191 2616 2906 2266 
Q 2828 2175 2409 1742 
Q 1991 1309 1228 531 
z
" transform="scale(0.015625)"/>
     </defs>
     <use xlink:href="#DejaVuSans-32"/>
    </g>
   </g>
   <g id="text_4">
    <!-- 3 -->
    <g transform="translate(31.91875 121.559375) scale(0.1 -0.1)">
     <defs>
      <path id="DejaVuSans-33" d="M 2597 2516 
Q 3050 2419 3304 2112 
Q 3559 1806 3559 1356 
Q 3559 666 3084 287 
Q 2609 -91 1734 -91 
Q 1441 -91 1130 -33 
Q 819 25 488 141 
L 488 750 
Q 750 597 1062 519 
Q 1375 441 1716 441 
Q 2309 441 2620 675 
Q 2931 909 2931 1356 
Q 2931 1769 2642 2001 
Q 2353 2234 1838 2234 
L 1294 2234 
L 1294 2753 
L 1863 2753 
Q 2328 2753 2575 2939 
Q 2822 3125 2822 3475 
Q 2822 3834 2567 4026 
Q 2313 4219 1838 4219 
Q 1578 4219 1281 4162 
Q 984 4106 628 3988 
L 628 4550 
Q 988 4650 1302 4700 
Q 1616 4750 1894 4750 
Q 2613 4750 3031 4423 
Q 3450 4097 3450 3541 
Q 3450 3153 3228 2886 
Q 3006 2619 2597 2516 
z
" transform="scale(0.015625)"/>
     </defs>
     <use xlink:href="#DejaVuSans-33"/>
    </g>
   </g>
   <g id="text_5">
    <!-- toffoli -->
    <g transform="translate(51.928543 57.013938) rotate(-30) scale(0.1 -0.1)">
     <defs>
      <path id="DejaVuSans-74" d="M 1172 4494 
L 1172 3500 
L 2356 3500 
L 2356 3053 
L 1172 3053 
L 1172 1153 
Q 1172 725 1289 603 
Q 1406 481 1766 481 
L 2356 481 
L 2356 0 
L 1766 0 
Q 1100 0 847 248 
Q 594 497 594 1153 
L 594 3053 
L 172 3053 
L 172 3500 
L 594 3500 
L 594 4494 
L 1172 4494 
z
" transform="scale(0.015625)"/>
      <path id="DejaVuSans-6f" d="M 1959 3097 
Q 1497 3097 1228 2736 
Q 959 2375 959 1747 
Q 959 1119 1226 758 
Q 1494 397 1959 397 
Q 2419 397 2687 759 
Q 2956 1122 2956 1747 
Q 2956 2369 2687 2733 
Q 2419 3097 1959 3097 
z
M 1959 3584 
Q 2709 3584 3137 3096 
Q 3566 2609 3566 1747 
Q 3566 888 3137 398 
Q 2709 -91 1959 -91 
Q 1206 -91 779 398 
Q 353 888 353 1747 
Q 353 2609 779 3096 
Q 1206 3584 1959 3584 
z
" transform="scale(0.015625)"/>
      <path id="DejaVuSans-66" d="M 2375 4863 
L 2375 4384 
L 1825 4384 
Q 1516 4384 1395 4259 
Q 1275 4134 1275 3809 
L 1275 3500 
L 2222 3500 
L 2222 3053 
L 1275 3053 
L 1275 0 
L 697 0 
L 697 3053 
L 147 3053 
L 147 3500 
L 697 3500 
L 697 3744 
Q 697 4328 969 4595 
Q 1241 4863 1831 4863 
L 2375 4863 
z
" transform="scale(0.015625)"/>
      <path id="DejaVuSans-6c" d="M 603 4863 
L 1178 4863 
L 1178 0 
L 603 0 
L 603 4863 
z
" transform="scale(0.015625)"/>
      <path id="DejaVuSans-69" d="M 603 3500 
L 1178 3500 
L 1178 0 
L 603 0 
L 603 3500 
z
M 603 4863 
L 1178 4863 
L 1178 4134 
L 603 4134 
L 603 4863 
z
" transform="scale(0.015625)"/>
     </defs>
     <use xlink:href="#DejaVuSans-74"/>
     <use xlink:href="#DejaVuSans-6f" x="39.208984"/>
     <use xlink:href="#DejaVuSans-66" x="100.390625"/>
     <use xlink:href="#DejaVuSans-66" x="135.595703"/>
     <use xlink:href="#DejaVuSans-6f" x="170.800781"/>
     <use xlink:href="#DejaVuSans-6c" x="231.982422"/>
     <use xlink:href="#DejaVuSans-69" x="259.765625"/>
    </g>
   </g>
   <g id="text_6">
    <!-- cnot -->
    <g transform="translate(82.807535 57.013938) rotate(-30) scale(0.1 -0.1)">
     <defs>
      <path id="DejaVuSans-63" d="M 3122 3366 
L 3122 2828 
Q 2878 2963 2633 3030 
Q 2388 3097 2138 3097 
Q 1578 3097 1268 2742 
Q 959 2388 959 1747 
Q 959 1106 1268 751 
Q 1578 397 2138 397 
Q 2388 397 2633 464 
Q 2878 531 3122 666 
L 3122 134 
Q 2881 22 2623 -34 
Q 2366 -91 2075 -91 
Q 1284 -91 818 406 
Q 353 903 353 1747 
Q 353 2603 823 3093 
Q 1294 3584 2113 3584 
Q 2378 3584 2631 3529 
Q 2884 3475 3122 3366 
z
" transform="scale(0.015625)"/>
      <path id="DejaVuSans-6e" d="M 3513 2113 
L 3513 0 
L 2938 0 
L 2938 2094 
Q 2938 2591 2744 2837 
Q 2550 3084 2163 3084 
Q 1697 3084 1428 2787 
Q 1159 2491 1159 1978 
L 1159 0 
L 581 0 
L 581 3500 
L 1159 3500 
L 1159 2956 
Q 1366 3272 1645 3428 
Q 1925 3584 2291 3584 
Q 2894 3584 3203 3211 
Q 3513 2838 3513 2113 
z
" transform="scale(0.015625)"/>
     </defs>
     <use xlink:href="#DejaVuSans-63"/>
     <use xlink:href="#DejaVuSans-6e" x="54.980469"/>
     <use xlink:href="#DejaVuSans-6f" x="118.359375"/>
     <use xlink:href="#DejaVuSans-74" x="179.541016"/>
    </g>
   </g>
   <g id="text_7">
    <!-- toffoli -->
    <g transform="translate(107.728543 29.113938) rotate(-30) scale(0.1 -0.1)">
     <use xlink:href="#DejaVuSans-74"/>
     <use xlink:href="#DejaVuSans-6f" x="39.208984"/>
     <use xlink:href="#DejaVuSans-66" x="100.390625"/>
     <use xlink:href="#DejaVuSans-66" x="135.595703"/>
     <use xlink:href="#DejaVuSans-6f" x="170.800781"/>
     <use xlink:href="#DejaVuSans-6c" x="231.982422"/>
     <use xlink:href="#DejaVuSans-69" x="259.765625"/>
    </g>
   </g>
  </g>
 </g>
 <defs>
  <clipPath id="pe48eb5b7ed">
   <rect x="7.2" y="7.2" width="558" height="167.4"/>
  </clipPath>
 </defs>
</svg>
