<?xml version="1.0" encoding="utf-8" standalone="no"?>
<!DOCTYPE svg PUBLIC "-//W3C//DTD SVG 1.1//EN"
  "http://www.w3.org/Graphics/SVG/1.1/DTD/svg11.dtd">
<svg xmlns:xlink="http://www.w3.org/1999/xlink" width="384pt" height="347.04pt" viewBox="0 0 384 347.04" xmlns="http://www.w3.org/2000/svg" version="1.1">
 <metadata>
  <rdf:RDF xmlns:dc="http://purl.org/dc/elements/1.1/" xmlns:cc="http://creativecommons.org/ns#" xmlns:rdf="http://www.w3.org/1999/02/22-rdf-syntax-ns#">
   <cc:Work>
    <dc:type rdf:resource="http://purl.org/dc/dcmitype/StillImage"/>
    <dc:date>2023-11-08T00:07:48.807804</dc:date>
    <dc:format>image/svg+xml</dc:format>
    <dc:creator>
     <cc:Agent>
      <dc:title>Matplotlib v3.5.1, https://matplotlib.org/</dc:title>
     </cc:Agent>
    </dc:creator>
   </cc:Work>
  </rdf:RDF>
 </metadata>
 <defs>
  <style type="text/css">*{stroke-linejoin: round; stroke-linecap: butt}</style>
 </defs>
 <g id="figure_1">
  <g id="patch_1">
   <path d="M 0 347.04 
L 384 347.04 
L 384 -0 
L 0 -0 
L 0 347.04 
z
" style="fill: none"/>
  </g>
  <g id="axes_1">
   <g id="LineCollection_1">
    <path d="M 25.68 25.68 
L 376.8 25.68 
" clip-path="url(#p43ccf3ca6b)" style="fill: none; stroke: #808080; stroke-width: 1.5"/>
   </g>
   <g id="LineCollection_2">
    <path d="M 25.68 44.16 
L 376.8 44.16 
" clip-path="url(#p43ccf3ca6b)" style="fill: none; stroke: #808080; stroke-width: 1.5"/>
   </g>
   <g id="LineCollection_3">
    <path d="M 25.68 62.64 
L 376.8 62.64 
" clip-path="url(#p43ccf3ca6b)" style="fill: none; stroke: #808080; stroke-width: 1.5"/>
   </g>
   <g id="LineCollection_4">
    <path d="M 25.68 81.12 
L 376.8 81.12 
" clip-path="url(#p43ccf3ca6b)" style="fill: none; stroke: #808080; stroke-width: 1.5"/>
   </g>
   <g id="LineCollection_5">
    <path d="M 25.68 99.6 
L 376.8 99.6 
" clip-path="url(#p43ccf3ca6b)" style="fill: none; stroke: #808080; stroke-width: 1.5"/>
   </g>
   <g id="LineCollection_6">
    <path d="M 25.68 118.08 
L 376.8 118.08 
" clip-path="url(#p43ccf3ca6b)" style="fill: none; stroke: #808080; stroke-width: 1.5"/>
   </g>
   <g id="LineCollection_7">
    <path d="M 25.68 136.56 
L 376.8 136.56 
" clip-path="url(#p43ccf3ca6b)" style="fill: none; stroke: #808080; stroke-width: 1.5"/>
   </g>
   <g id="LineCollection_8">
    <path d="M 25.68 155.04 
L 376.8 155.04 
" clip-path="url(#p43ccf3ca6b)" style="fill: none; stroke: #808080; stroke-width: 1.5"/>
   </g>
   <g id="LineCollection_9">
    <path d="M 25.68 173.52 
L 376.8 173.52 
" clip-path="url(#p43ccf3ca6b)" style="fill: none; stroke: #808080; stroke-width: 1.5"/>
   </g>
   <g id="LineCollection_10">
    <path d="M 25.68 192 
L 376.8 192 
" clip-path="url(#p43ccf3ca6b)" style="fill: none; stroke: #808080; stroke-width: 1.5"/>
   </g>
   <g id="LineCollection_11">
    <path d="M 25.68 210.48 
L 376.8 210.48 
" clip-path="url(#p43ccf3ca6b)" style="fill: none; stroke: #808080; stroke-width: 1.5"/>
   </g>
   <g id="LineCollection_12">
    <path d="M 25.68 228.96 
L 376.8 228.96 
" clip-path="url(#p43ccf3ca6b)" style="fill: none; stroke: #808080; stroke-width: 1.5"/>
   </g>
   <g id="LineCollection_13">
    <path d="M 25.68 247.44 
L 376.8 247.44 
" clip-path="url(#p43ccf3ca6b)" style="fill: none; stroke: #808080; stroke-width: 1.5"/>
   </g>
   <g id="LineCollection_14">
    <path d="M 25.68 265.92 
L 376.8 265.92 
" clip-path="url(#p43ccf3ca6b)" style="fill: none; stroke: #808080; stroke-width: 1.5"/>
   </g>
   <g id="LineCollection_15">
    <path d="M 25.68 284.4 
L 376.8 284.4 
" clip-path="url(#p43ccf3ca6b)" style="fill: none; stroke: #808080; stroke-width: 1.5"/>
   </g>
   <g id="LineCollection_16">
    <path d="M 25.68 302.88 
L 376.8 302.88 
" clip-path="url(#p43ccf3ca6b)" style="fill: none; stroke: #808080; stroke-width: 1.5"/>
   </g>
   <g id="line2d_1">
    <path d="M 44.16 284.4 
L 44.16 302.88 
" clip-path="url(#p43ccf3ca6b)" style="fill: none; stroke: #000000; stroke-width: 1.5; stroke-linecap: square"/>
   </g>
   <g id="line2d_2">
    <path d="M 62.64 247.44 
L 62.64 265.92 
" clip-path="url(#p43ccf3ca6b)" style="fill: none; stroke: #000000; stroke-width: 1.5; stroke-linecap: square"/>
   </g>
   <g id="line2d_3">
    <path d="M 62.64 265.92 
L 62.64 284.4 
" clip-path="url(#p43ccf3ca6b)" style="fill: none; stroke: #000000; stroke-width: 1.5; stroke-linecap: square"/>
   </g>
   <g id="line2d_4">
    <path d="M 71.88 210.48 
L 71.88 228.96 
" clip-path="url(#p43ccf3ca6b)" style="fill: none; stroke: #000000; stroke-width: 1.5; stroke-linecap: square"/>
   </g>
   <g id="line2d_5">
    <path d="M 71.88 228.96 
L 71.88 247.44 
" clip-path="url(#p43ccf3ca6b)" style="fill: none; stroke: #000000; stroke-width: 1.5; stroke-linecap: square"/>
   </g>
   <g id="line2d_6">
    <path d="M 81.12 173.52 
L 81.12 192 
" clip-path="url(#p43ccf3ca6b)" style="fill: none; stroke: #000000; stroke-width: 1.5; stroke-linecap: square"/>
   </g>
   <g id="line2d_7">
    <path d="M 81.12 192 
L 81.12 210.48 
" clip-path="url(#p43ccf3ca6b)" style="fill: none; stroke: #000000; stroke-width: 1.5; stroke-linecap: square"/>
   </g>
   <g id="line2d_8">
    <path d="M 90.36 136.56 
L 90.36 155.04 
" clip-path="url(#p43ccf3ca6b)" style="fill: none; stroke: #000000; stroke-width: 1.5; stroke-linecap: square"/>
   </g>
   <g id="line2d_9">
    <path d="M 90.36 155.04 
L 90.36 173.52 
" clip-path="url(#p43ccf3ca6b)" style="fill: none; stroke: #000000; stroke-width: 1.5; stroke-linecap: square"/>
   </g>
   <g id="line2d_10">
    <path d="M 99.6 99.6 
L 99.6 118.08 
" clip-path="url(#p43ccf3ca6b)" style="fill: none; stroke: #000000; stroke-width: 1.5; stroke-linecap: square"/>
   </g>
   <g id="line2d_11">
    <path d="M 99.6 118.08 
L 99.6 136.56 
" clip-path="url(#p43ccf3ca6b)" style="fill: none; stroke: #000000; stroke-width: 1.5; stroke-linecap: square"/>
   </g>
   <g id="line2d_12">
    <path d="M 108.84 62.64 
L 108.84 81.12 
" clip-path="url(#p43ccf3ca6b)" style="fill: none; stroke: #000000; stroke-width: 1.5; stroke-linecap: square"/>
   </g>
   <g id="line2d_13">
    <path d="M 108.84 81.12 
L 108.84 99.6 
" clip-path="url(#p43ccf3ca6b)" style="fill: none; stroke: #000000; stroke-width: 1.5; stroke-linecap: square"/>
   </g>
   <g id="line2d_14">
    <path d="M 118.08 25.68 
L 118.08 44.16 
" clip-path="url(#p43ccf3ca6b)" style="fill: none; stroke: #000000; stroke-width: 1.5; stroke-linecap: square"/>
   </g>
   <g id="line2d_15">
    <path d="M 118.08 44.16 
L 118.08 62.64 
" clip-path="url(#p43ccf3ca6b)" style="fill: none; stroke: #000000; stroke-width: 1.5; stroke-linecap: square"/>
   </g>
   <g id="patch_2">
    <path d="M 25.68 34.92 
C 28.130477 34.92 30.480918 33.946415 32.213667 32.213667 
C 33.946415 30.480918 34.92 28.130477 34.92 25.68 
C 34.92 23.229523 33.946415 20.879082 32.213667 19.146333 
C 30.480918 17.413585 28.130477 16.44 25.68 16.44 
C 23.229523 16.44 20.879082 17.413585 19.146333 19.146333 
C 17.413585 20.879082 16.44 23.229523 16.44 25.68 
C 16.44 28.130477 17.413585 30.480918 19.146333 32.213667 
C 20.879082 33.946415 23.229523 34.92 25.68 34.92 
z
" clip-path="url(#p43ccf3ca6b)" style="fill: #92a9bd; stroke: #000000; stroke-linejoin: miter"/>
   </g>
   <g id="patch_3">
    <path d="M 25.68 53.4 
C 28.130477 53.4 30.480918 52.426415 32.213667 50.693667 
C 33.946415 48.960918 34.92 46.610477 34.92 44.16 
C 34.92 41.709523 33.946415 39.359082 32.213667 37.626333 
C 30.480918 35.893585 28.130477 34.92 25.68 34.92 
C 23.229523 34.92 20.879082 35.893585 19.146333 37.626333 
C 17.413585 39.359082 16.44 41.709523 16.44 44.16 
C 16.44 46.610477 17.413585 48.960918 19.146333 50.693667 
C 20.879082 52.426415 23.229523 53.4 25.68 53.4 
z
" clip-path="url(#p43ccf3ca6b)" style="fill: #92a9bd; stroke: #000000; stroke-linejoin: miter"/>
   </g>
   <g id="patch_4">
    <path d="M 25.68 71.88 
C 28.130477 71.88 30.480918 70.906415 32.213667 69.173667 
C 33.946415 67.440918 34.92 65.090477 34.92 62.64 
C 34.92 60.189523 33.946415 57.839082 32.213667 56.106333 
C 30.480918 54.373585 28.130477 53.4 25.68 53.4 
C 23.229523 53.4 20.879082 54.373585 19.146333 56.106333 
C 17.413585 57.839082 16.44 60.189523 16.44 62.64 
C 16.44 65.090477 17.413585 67.440918 19.146333 69.173667 
C 20.879082 70.906415 23.229523 71.88 25.68 71.88 
z
" clip-path="url(#p43ccf3ca6b)" style="fill: #92a9bd; stroke: #000000; stroke-linejoin: miter"/>
   </g>
   <g id="patch_5">
    <path d="M 25.68 90.36 
C 28.130477 90.36 30.480918 89.386415 32.213667 87.653667 
C 33.946415 85.920918 34.92 83.570477 34.92 81.12 
C 34.92 78.669523 33.946415 76.319082 32.213667 74.586333 
C 30.480918 72.853585 28.130477 71.88 25.68 71.88 
C 23.229523 71.88 20.879082 72.853585 19.146333 74.586333 
C 17.413585 76.319082 16.44 78.669523 16.44 81.12 
C 16.44 83.570477 17.413585 85.920918 19.146333 87.653667 
C 20.879082 89.386415 23.229523 90.36 25.68 90.36 
z
" clip-path="url(#p43ccf3ca6b)" style="fill: #92a9bd; stroke: #000000; stroke-linejoin: miter"/>
   </g>
   <g id="patch_6">
    <path d="M 25.68 108.84 
C 28.130477 108.84 30.480918 107.866415 32.213667 106.133667 
C 33.946415 104.400918 34.92 102.050477 34.92 99.6 
C 34.92 97.149523 33.946415 94.799082 32.213667 93.066333 
C 30.480918 91.333585 28.130477 90.36 25.68 90.36 
C 23.229523 90.36 20.879082 91.333585 19.146333 93.066333 
C 17.413585 94.799082 16.44 97.149523 16.44 99.6 
C 16.44 102.050477 17.413585 104.400918 19.146333 106.133667 
C 20.879082 107.866415 23.229523 108.84 25.68 108.84 
z
" clip-path="url(#p43ccf3ca6b)" style="fill: #92a9bd; stroke: #000000; stroke-linejoin: miter"/>
   </g>
   <g id="patch_7">
    <path d="M 25.68 127.32 
C 28.130477 127.32 30.480918 126.346415 32.213667 124.613667 
C 33.946415 122.880918 34.92 120.530477 34.92 118.08 
C 34.92 115.629523 33.946415 113.279082 32.213667 111.546333 
C 30.480918 109.813585 28.130477 108.84 25.68 108.84 
C 23.229523 108.84 20.879082 109.813585 19.146333 111.546333 
C 17.413585 113.279082 16.44 115.629523 16.44 118.08 
C 16.44 120.530477 17.413585 122.880918 19.146333 124.613667 
C 20.879082 126.346415 23.229523 127.32 25.68 127.32 
z
" clip-path="url(#p43ccf3ca6b)" style="fill: #92a9bd; stroke: #000000; stroke-linejoin: miter"/>
   </g>
   <g id="patch_8">
    <path d="M 25.68 145.8 
C 28.130477 145.8 30.480918 144.826415 32.213667 143.093667 
C 33.946415 141.360918 34.92 139.010477 34.92 136.56 
C 34.92 134.109523 33.946415 131.759082 32.213667 130.026333 
C 30.480918 128.293585 28.130477 127.32 25.68 127.32 
C 23.229523 127.32 20.879082 128.293585 19.146333 130.026333 
C 17.413585 131.759082 16.44 134.109523 16.44 136.56 
C 16.44 139.010477 17.413585 141.360918 19.146333 143.093667 
C 20.879082 144.826415 23.229523 145.8 25.68 145.8 
z
" clip-path="url(#p43ccf3ca6b)" style="fill: #92a9bd; stroke: #000000; stroke-linejoin: miter"/>
   </g>
   <g id="patch_9">
    <path d="M 25.68 164.28 
C 28.130477 164.28 30.480918 163.306415 32.213667 161.573667 
C 33.946415 159.840918 34.92 157.490477 34.92 155.04 
C 34.92 152.589523 33.946415 150.239082 32.213667 148.506333 
C 30.480918 146.773585 28.130477 145.8 25.68 145.8 
C 23.229523 145.8 20.879082 146.773585 19.146333 148.506333 
C 17.413585 150.239082 16.44 152.589523 16.44 155.04 
C 16.44 157.490477 17.413585 159.840918 19.146333 161.573667 
C 20.879082 163.306415 23.229523 164.28 25.68 164.28 
z
" clip-path="url(#p43ccf3ca6b)" style="fill: #92a9bd; stroke: #000000; stroke-linejoin: miter"/>
   </g>
   <g id="patch_10">
    <path d="M 25.68 182.76 
C 28.130477 182.76 30.480918 181.786415 32.213667 180.053667 
C 33.946415 178.320918 34.92 175.970477 34.92 173.52 
C 34.92 171.069523 33.946415 168.719082 32.213667 166.986333 
C 30.480918 165.253585 28.130477 164.28 25.68 164.28 
C 23.229523 164.28 20.879082 165.253585 19.146333 166.986333 
C 17.413585 168.719082 16.44 171.069523 16.44 173.52 
C 16.44 175.970477 17.413585 178.320918 19.146333 180.053667 
C 20.879082 181.786415 23.229523 182.76 25.68 182.76 
z
" clip-path="url(#p43ccf3ca6b)" style="fill: #92a9bd; stroke: #000000; stroke-linejoin: miter"/>
   </g>
   <g id="patch_11">
    <path d="M 25.68 201.24 
C 28.130477 201.24 30.480918 200.266415 32.213667 198.533667 
C 33.946415 196.800918 34.92 194.450477 34.92 192 
C 34.92 189.549523 33.946415 187.199082 32.213667 185.466333 
C 30.480918 183.733585 28.130477 182.76 25.68 182.76 
C 23.229523 182.76 20.879082 183.733585 19.146333 185.466333 
C 17.413585 187.199082 16.44 189.549523 16.44 192 
C 16.44 194.450477 17.413585 196.800918 19.146333 198.533667 
C 20.879082 200.266415 23.229523 201.24 25.68 201.24 
z
" clip-path="url(#p43ccf3ca6b)" style="fill: #92a9bd; stroke: #000000; stroke-linejoin: miter"/>
   </g>
   <g id="patch_12">
    <path d="M 25.68 219.72 
C 28.130477 219.72 30.480918 218.746415 32.213667 217.013667 
C 33.946415 215.280918 34.92 212.930477 34.92 210.48 
C 34.92 208.029523 33.946415 205.679082 32.213667 203.946333 
C 30.480918 202.213585 28.130477 201.24 25.68 201.24 
C 23.229523 201.24 20.879082 202.213585 19.146333 203.946333 
C 17.413585 205.679082 16.44 208.029523 16.44 210.48 
C 16.44 212.930477 17.413585 215.280918 19.146333 217.013667 
C 20.879082 218.746415 23.229523 219.72 25.68 219.72 
z
" clip-path="url(#p43ccf3ca6b)" style="fill: #92a9bd; stroke: #000000; stroke-linejoin: miter"/>
   </g>
   <g id="patch_13">
    <path d="M 25.68 238.2 
C 28.130477 238.2 30.480918 237.226415 32.213667 235.493667 
C 33.946415 233.760918 34.92 231.410477 34.92 228.96 
C 34.92 226.509523 33.946415 224.159082 32.213667 222.426333 
C 30.480918 220.693585 28.130477 219.72 25.68 219.72 
C 23.229523 219.72 20.879082 220.693585 19.146333 222.426333 
C 17.413585 224.159082 16.44 226.509523 16.44 228.96 
C 16.44 231.410477 17.413585 233.760918 19.146333 235.493667 
C 20.879082 237.226415 23.229523 238.2 25.68 238.2 
z
" clip-path="url(#p43ccf3ca6b)" style="fill: #92a9bd; stroke: #000000; stroke-linejoin: miter"/>
   </g>
   <g id="patch_14">
    <path d="M 25.68 256.68 
C 28.130477 256.68 30.480918 255.706415 32.213667 253.973667 
C 33.946415 252.240918 34.92 249.890477 34.92 247.44 
C 34.92 244.989523 33.946415 242.639082 32.213667 240.906333 
C 30.480918 239.173585 28.130477 238.2 25.68 238.2 
C 23.229523 238.2 20.879082 239.173585 19.146333 240.906333 
C 17.413585 242.639082 16.44 244.989523 16.44 247.44 
C 16.44 249.890477 17.413585 252.240918 19.146333 253.973667 
C 20.879082 255.706415 23.229523 256.68 25.68 256.68 
z
" clip-path="url(#p43ccf3ca6b)" style="fill: #92a9bd; stroke: #000000; stroke-linejoin: miter"/>
   </g>
   <g id="patch_15">
    <path d="M 25.68 275.16 
C 28.130477 275.16 30.480918 274.186415 32.213667 272.453667 
C 33.946415 270.720918 34.92 268.370477 34.92 265.92 
C 34.92 263.469523 33.946415 261.119082 32.213667 259.386333 
C 30.480918 257.653585 28.130477 256.68 25.68 256.68 
C 23.229523 256.68 20.879082 257.653585 19.146333 259.386333 
C 17.413585 261.119082 16.44 263.469523 16.44 265.92 
C 16.44 268.370477 17.413585 270.720918 19.146333 272.453667 
C 20.879082 274.186415 23.229523 275.16 25.68 275.16 
z
" clip-path="url(#p43ccf3ca6b)" style="fill: #92a9bd; stroke: #000000; stroke-linejoin: miter"/>
   </g>
   <g id="patch_16">
    <path d="M 25.68 293.64 
C 28.130477 293.64 30.480918 292.666415 32.213667 290.933667 
C 33.946415 289.200918 34.92 286.850477 34.92 284.4 
C 34.92 281.949523 33.946415 279.599082 32.213667 277.866333 
C 30.480918 276.133585 28.130477 275.16 25.68 275.16 
C 23.229523 275.16 20.879082 276.133585 19.146333 277.866333 
C 17.413585 279.599082 16.44 281.949523 16.44 284.4 
C 16.44 286.850477 17.413585 289.200918 19.146333 290.933667 
C 20.879082 292.666415 23.229523 293.64 25.68 293.64 
z
" clip-path="url(#p43ccf3ca6b)" style="fill: #92a9bd; stroke: #000000; stroke-linejoin: miter"/>
   </g>
   <g id="patch_17">
    <path d="M 25.68 312.12 
C 28.130477 312.12 30.480918 311.146415 32.213667 309.413667 
C 33.946415 307.680918 34.92 305.330477 34.92 302.88 
C 34.92 300.429523 33.946415 298.079082 32.213667 296.346333 
C 30.480918 294.613585 28.130477 293.64 25.68 293.64 
C 23.229523 293.64 20.879082 294.613585 19.146333 296.346333 
C 17.413585 298.079082 16.44 300.429523 16.44 302.88 
C 16.44 305.330477 17.413585 307.680918 19.146333 309.413667 
C 20.879082 311.146415 23.229523 312.12 25.68 312.12 
z
" clip-path="url(#p43ccf3ca6b)" style="fill: #92a9bd; stroke: #000000; stroke-linejoin: miter"/>
   </g>
   <g id="patch_18">
    <path d="M 44.16 288.096 
C 45.140191 288.096 46.080367 287.706566 46.773467 287.013467 
C 47.466566 286.320367 47.856 285.380191 47.856 284.4 
C 47.856 283.419809 47.466566 282.479633 46.773467 281.786533 
C 46.080367 281.093434 45.140191 280.704 44.16 280.704 
C 43.179809 280.704 42.239633 281.093434 41.546533 281.786533 
C 40.853434 282.479633 40.464 283.419809 40.464 284.4 
C 40.464 285.380191 40.853434 286.320367 41.546533 287.013467 
C 42.239633 287.706566 43.179809 288.096 44.16 288.096 
z
" clip-path="url(#p43ccf3ca6b)" style="fill: #08306b; stroke: #08306b; stroke-linejoin: miter"/>
   </g>
   <g id="patch_19">
    <path d="M 44.16 306.576 
C 45.140191 306.576 46.080367 306.186566 46.773467 305.493467 
C 47.466566 304.800367 47.856 303.860191 47.856 302.88 
C 47.856 301.899809 47.466566 300.959633 46.773467 300.266533 
C 46.080367 299.573434 45.140191 299.184 44.16 299.184 
C 43.179809 299.184 42.239633 299.573434 41.546533 300.266533 
C 40.853434 300.959633 40.464 301.899809 40.464 302.88 
C 40.464 303.860191 40.853434 304.800367 41.546533 305.493467 
C 42.239633 306.186566 43.179809 306.576 44.16 306.576 
z
" clip-path="url(#p43ccf3ca6b)" style="fill: #6aaed6; stroke: #6aaed6; stroke-linejoin: miter"/>
   </g>
   <g id="patch_20">
    <path d="M 62.64 251.136 
C 63.620191 251.136 64.560367 250.746566 65.253467 250.053467 
C 65.946566 249.360367 66.336 248.420191 66.336 247.44 
C 66.336 246.459809 65.946566 245.519633 65.253467 244.826533 
C 64.560367 244.133434 63.620191 243.744 62.64 243.744 
C 61.659809 243.744 60.719633 244.133434 60.026533 244.826533 
C 59.333434 245.519633 58.944 246.459809 58.944 247.44 
C 58.944 248.420191 59.333434 249.360367 60.026533 250.053467 
C 60.719633 250.746566 61.659809 251.136 62.64 251.136 
z
" clip-path="url(#p43ccf3ca6b)" style="fill: #08306b; stroke: #08306b; stroke-linejoin: miter"/>
   </g>
   <g id="patch_21">
    <path d="M 62.64 269.616 
C 63.620191 269.616 64.560367 269.226566 65.253467 268.533467 
C 65.946566 267.840367 66.336 266.900191 66.336 265.92 
C 66.336 264.939809 65.946566 263.999633 65.253467 263.306533 
C 64.560367 262.613434 63.620191 262.224 62.64 262.224 
C 61.659809 262.224 60.719633 262.613434 60.026533 263.306533 
C 59.333434 263.999633 58.944 264.939809 58.944 265.92 
C 58.944 266.900191 59.333434 267.840367 60.026533 268.533467 
C 60.719633 269.226566 61.659809 269.616 62.64 269.616 
z
" clip-path="url(#p43ccf3ca6b)" style="fill: #3787c0; stroke: #3787c0; stroke-linejoin: miter"/>
   </g>
   <g id="patch_22">
    <path d="M 62.64 288.096 
C 63.620191 288.096 64.560367 287.706566 65.253467 287.013467 
C 65.946566 286.320367 66.336 285.380191 66.336 284.4 
C 66.336 283.419809 65.946566 282.479633 65.253467 281.786533 
C 64.560367 281.093434 63.620191 280.704 62.64 280.704 
C 61.659809 280.704 60.719633 281.093434 60.026533 281.786533 
C 59.333434 282.479633 58.944 283.419809 58.944 284.4 
C 58.944 285.380191 59.333434 286.320367 60.026533 287.013467 
C 60.719633 287.706566 61.659809 288.096 62.64 288.096 
z
" clip-path="url(#p43ccf3ca6b)" style="fill: #abd0e6; stroke: #abd0e6; stroke-linejoin: miter"/>
   </g>
   <g id="patch_23">
    <path d="M 71.88 214.176 
C 72.860191 214.176 73.800367 213.786566 74.493467 213.093467 
C 75.186566 212.400367 75.576 211.460191 75.576 210.48 
C 75.576 209.499809 75.186566 208.559633 74.493467 207.866533 
C 73.800367 207.173434 72.860191 206.784 71.88 206.784 
C 70.899809 206.784 69.959633 207.173434 69.266533 207.866533 
C 68.573434 208.559633 68.184 209.499809 68.184 210.48 
C 68.184 211.460191 68.573434 212.400367 69.266533 213.093467 
C 69.959633 213.786566 70.899809 214.176 71.88 214.176 
z
" clip-path="url(#p43ccf3ca6b)" style="fill: #08306b; stroke: #08306b; stroke-linejoin: miter"/>
   </g>
   <g id="patch_24">
    <path d="M 71.88 232.656 
C 72.860191 232.656 73.800367 232.266566 74.493467 231.573467 
C 75.186566 230.880367 75.576 229.940191 75.576 228.96 
C 75.576 227.979809 75.186566 227.039633 74.493467 226.346533 
C 73.800367 225.653434 72.860191 225.264 71.88 225.264 
C 70.899809 225.264 69.959633 225.653434 69.266533 226.346533 
C 68.573434 227.039633 68.184 227.979809 68.184 228.96 
C 68.184 229.940191 68.573434 230.880367 69.266533 231.573467 
C 69.959633 232.266566 70.899809 232.656 71.88 232.656 
z
" clip-path="url(#p43ccf3ca6b)" style="fill: #3787c0; stroke: #3787c0; stroke-linejoin: miter"/>
   </g>
   <g id="patch_25">
    <path d="M 71.88 251.136 
C 72.860191 251.136 73.800367 250.746566 74.493467 250.053467 
C 75.186566 249.360367 75.576 248.420191 75.576 247.44 
C 75.576 246.459809 75.186566 245.519633 74.493467 244.826533 
C 73.800367 244.133434 72.860191 243.744 71.88 243.744 
C 70.899809 243.744 69.959633 244.133434 69.266533 244.826533 
C 68.573434 245.519633 68.184 246.459809 68.184 247.44 
C 68.184 248.420191 68.573434 249.360367 69.266533 250.053467 
C 69.959633 250.746566 70.899809 251.136 71.88 251.136 
z
" clip-path="url(#p43ccf3ca6b)" style="fill: #abd0e6; stroke: #abd0e6; stroke-linejoin: miter"/>
   </g>
   <g id="patch_26">
    <path d="M 81.12 177.216 
C 82.100191 177.216 83.040367 176.826566 83.733467 176.133467 
C 84.426566 175.440367 84.816 174.500191 84.816 173.52 
C 84.816 172.539809 84.426566 171.599633 83.733467 170.906533 
C 83.040367 170.213434 82.100191 169.824 81.12 169.824 
C 80.139809 169.824 79.199633 170.213434 78.506533 170.906533 
C 77.813434 171.599633 77.424 172.539809 77.424 173.52 
C 77.424 174.500191 77.813434 175.440367 78.506533 176.133467 
C 79.199633 176.826566 80.139809 177.216 81.12 177.216 
z
" clip-path="url(#p43ccf3ca6b)" style="fill: #08306b; stroke: #08306b; stroke-linejoin: miter"/>
   </g>
   <g id="patch_27">
    <path d="M 81.12 195.696 
C 82.100191 195.696 83.040367 195.306566 83.733467 194.613467 
C 84.426566 193.920367 84.816 192.980191 84.816 192 
C 84.816 191.019809 84.426566 190.079633 83.733467 189.386533 
C 83.040367 188.693434 82.100191 188.304 81.12 188.304 
C 80.139809 188.304 79.199633 188.693434 78.506533 189.386533 
C 77.813434 190.079633 77.424 191.019809 77.424 192 
C 77.424 192.980191 77.813434 193.920367 78.506533 194.613467 
C 79.199633 195.306566 80.139809 195.696 81.12 195.696 
z
" clip-path="url(#p43ccf3ca6b)" style="fill: #3787c0; stroke: #3787c0; stroke-linejoin: miter"/>
   </g>
   <g id="patch_28">
    <path d="M 81.12 214.176 
C 82.100191 214.176 83.040367 213.786566 83.733467 213.093467 
C 84.426566 212.400367 84.816 211.460191 84.816 210.48 
C 84.816 209.499809 84.426566 208.559633 83.733467 207.866533 
C 83.040367 207.173434 82.100191 206.784 81.12 206.784 
C 80.139809 206.784 79.199633 207.173434 78.506533 207.866533 
C 77.813434 208.559633 77.424 209.499809 77.424 210.48 
C 77.424 211.460191 77.813434 212.400367 78.506533 213.093467 
C 79.199633 213.786566 80.139809 214.176 81.12 214.176 
z
" clip-path="url(#p43ccf3ca6b)" style="fill: #abd0e6; stroke: #abd0e6; stroke-linejoin: miter"/>
   </g>
   <g id="patch_29">
    <path d="M 90.36 140.256 
C 91.340191 140.256 92.280367 139.866566 92.973467 139.173467 
C 93.666566 138.480367 94.056 137.540191 94.056 136.56 
C 94.056 135.579809 93.666566 134.639633 92.973467 133.946533 
C 92.280367 133.253434 91.340191 132.864 90.36 132.864 
C 89.379809 132.864 88.439633 133.253434 87.746533 133.946533 
C 87.053434 134.639633 86.664 135.579809 86.664 136.56 
C 86.664 137.540191 87.053434 138.480367 87.746533 139.173467 
C 88.439633 139.866566 89.379809 140.256 90.36 140.256 
z
" clip-path="url(#p43ccf3ca6b)" style="fill: #08306b; stroke: #08306b; stroke-linejoin: miter"/>
   </g>
   <g id="patch_30">
    <path d="M 90.36 158.736 
C 91.340191 158.736 92.280367 158.346566 92.973467 157.653467 
C 93.666566 156.960367 94.056 156.020191 94.056 155.04 
C 94.056 154.059809 93.666566 153.119633 92.973467 152.426533 
C 92.280367 151.733434 91.340191 151.344 90.36 151.344 
C 89.379809 151.344 88.439633 151.733434 87.746533 152.426533 
C 87.053434 153.119633 86.664 154.059809 86.664 155.04 
C 86.664 156.020191 87.053434 156.960367 87.746533 157.653467 
C 88.439633 158.346566 89.379809 158.736 90.36 158.736 
z
" clip-path="url(#p43ccf3ca6b)" style="fill: #3787c0; stroke: #3787c0; stroke-linejoin: miter"/>
   </g>
   <g id="patch_31">
    <path d="M 90.36 177.216 
C 91.340191 177.216 92.280367 176.826566 92.973467 176.133467 
C 93.666566 175.440367 94.056 174.500191 94.056 173.52 
C 94.056 172.539809 93.666566 171.599633 92.973467 170.906533 
C 92.280367 170.213434 91.340191 169.824 90.36 169.824 
C 89.379809 169.824 88.439633 170.213434 87.746533 170.906533 
C 87.053434 171.599633 86.664 172.539809 86.664 173.52 
C 86.664 174.500191 87.053434 175.440367 87.746533 176.133467 
C 88.439633 176.826566 89.379809 177.216 90.36 177.216 
z
" clip-path="url(#p43ccf3ca6b)" style="fill: #abd0e6; stroke: #abd0e6; stroke-linejoin: miter"/>
   </g>
   <g id="patch_32">
    <path d="M 99.6 103.296 
C 100.580191 103.296 101.520367 102.906566 102.213467 102.213467 
C 102.906566 101.520367 103.296 100.580191 103.296 99.6 
C 103.296 98.619809 102.906566 97.679633 102.213467 96.986533 
C 101.520367 96.293434 100.580191 95.904 99.6 95.904 
C 98.619809 95.904 97.679633 96.293434 96.986533 96.986533 
C 96.293434 97.679633 95.904 98.619809 95.904 99.6 
C 95.904 100.580191 96.293434 101.520367 96.986533 102.213467 
C 97.679633 102.906566 98.619809 103.296 99.6 103.296 
z
" clip-path="url(#p43ccf3ca6b)" style="fill: #08306b; stroke: #08306b; stroke-linejoin: miter"/>
   </g>
   <g id="patch_33">
    <path d="M 99.6 121.776 
C 100.580191 121.776 101.520367 121.386566 102.213467 120.693467 
C 102.906566 120.000367 103.296 119.060191 103.296 118.08 
C 103.296 117.099809 102.906566 116.159633 102.213467 115.466533 
C 101.520367 114.773434 100.580191 114.384 99.6 114.384 
C 98.619809 114.384 97.679633 114.773434 96.986533 115.466533 
C 96.293434 116.159633 95.904 117.099809 95.904 118.08 
C 95.904 119.060191 96.293434 120.000367 96.986533 120.693467 
C 97.679633 121.386566 98.619809 121.776 99.6 121.776 
z
" clip-path="url(#p43ccf3ca6b)" style="fill: #3787c0; stroke: #3787c0; stroke-linejoin: miter"/>
   </g>
   <g id="patch_34">
    <path d="M 99.6 140.256 
C 100.580191 140.256 101.520367 139.866566 102.213467 139.173467 
C 102.906566 138.480367 103.296 137.540191 103.296 136.56 
C 103.296 135.579809 102.906566 134.639633 102.213467 133.946533 
C 101.520367 133.253434 100.580191 132.864 99.6 132.864 
C 98.619809 132.864 97.679633 133.253434 96.986533 133.946533 
C 96.293434 134.639633 95.904 135.579809 95.904 136.56 
C 95.904 137.540191 96.293434 138.480367 96.986533 139.173467 
C 97.679633 139.866566 98.619809 140.256 99.6 140.256 
z
" clip-path="url(#p43ccf3ca6b)" style="fill: #abd0e6; stroke: #abd0e6; stroke-linejoin: miter"/>
   </g>
   <g id="patch_35">
    <path d="M 108.84 66.336 
C 109.820191 66.336 110.760367 65.946566 111.453467 65.253467 
C 112.146566 64.560367 112.536 63.620191 112.536 62.64 
C 112.536 61.659809 112.146566 60.719633 111.453467 60.026533 
C 110.760367 59.333434 109.820191 58.944 108.84 58.944 
C 107.859809 58.944 106.919633 59.333434 106.226533 60.026533 
C 105.533434 60.719633 105.144 61.659809 105.144 62.64 
C 105.144 63.620191 105.533434 64.560367 106.226533 65.253467 
C 106.919633 65.946566 107.859809 66.336 108.84 66.336 
z
" clip-path="url(#p43ccf3ca6b)" style="fill: #08306b; stroke: #08306b; stroke-linejoin: miter"/>
   </g>
   <g id="patch_36">
    <path d="M 108.84 84.816 
C 109.820191 84.816 110.760367 84.426566 111.453467 83.733467 
C 112.146566 83.040367 112.536 82.100191 112.536 81.12 
C 112.536 80.139809 112.146566 79.199633 111.453467 78.506533 
C 110.760367 77.813434 109.820191 77.424 108.84 77.424 
C 107.859809 77.424 106.919633 77.813434 106.226533 78.506533 
C 105.533434 79.199633 105.144 80.139809 105.144 81.12 
C 105.144 82.100191 105.533434 83.040367 106.226533 83.733467 
C 106.919633 84.426566 107.859809 84.816 108.84 84.816 
z
" clip-path="url(#p43ccf3ca6b)" style="fill: #3787c0; stroke: #3787c0; stroke-linejoin: miter"/>
   </g>
   <g id="patch_37">
    <path d="M 108.84 103.296 
C 109.820191 103.296 110.760367 102.906566 111.453467 102.213467 
C 112.146566 101.520367 112.536 100.580191 112.536 99.6 
C 112.536 98.619809 112.146566 97.679633 111.453467 96.986533 
C 110.760367 96.293434 109.820191 95.904 108.84 95.904 
C 107.859809 95.904 106.919633 96.293434 106.226533 96.986533 
C 105.533434 97.679633 105.144 98.619809 105.144 99.6 
C 105.144 100.580191 105.533434 101.520367 106.226533 102.213467 
C 106.919633 102.906566 107.859809 103.296 108.84 103.296 
z
" clip-path="url(#p43ccf3ca6b)" style="fill: #abd0e6; stroke: #abd0e6; stroke-linejoin: miter"/>
   </g>
   <g id="patch_38">
    <path d="M 118.08 29.376 
C 119.060191 29.376 120.000367 28.986566 120.693467 28.293467 
C 121.386566 27.600367 121.776 26.660191 121.776 25.68 
C 121.776 24.699809 121.386566 23.759633 120.693467 23.066533 
C 120.000367 22.373434 119.060191 21.984 118.08 21.984 
C 117.099809 21.984 116.159633 22.373434 115.466533 23.066533 
C 114.773434 23.759633 114.384 24.699809 114.384 25.68 
C 114.384 26.660191 114.773434 27.600367 115.466533 28.293467 
C 116.159633 28.986566 117.099809 29.376 118.08 29.376 
z
" clip-path="url(#p43ccf3ca6b)" style="fill: #08306b; stroke: #08306b; stroke-linejoin: miter"/>
   </g>
   <g id="patch_39">
    <path d="M 118.08 47.856 
C 119.060191 47.856 120.000367 47.466566 120.693467 46.773467 
C 121.386566 46.080367 121.776 45.140191 121.776 44.16 
C 121.776 43.179809 121.386566 42.239633 120.693467 41.546533 
C 120.000367 40.853434 119.060191 40.464 118.08 40.464 
C 117.099809 40.464 116.159633 40.853434 115.466533 41.546533 
C 114.773434 42.239633 114.384 43.179809 114.384 44.16 
C 114.384 45.140191 114.773434 46.080367 115.466533 46.773467 
C 116.159633 47.466566 117.099809 47.856 118.08 47.856 
z
" clip-path="url(#p43ccf3ca6b)" style="fill: #3787c0; stroke: #3787c0; stroke-linejoin: miter"/>
   </g>
   <g id="patch_40">
    <path d="M 118.08 66.336 
C 119.060191 66.336 120.000367 65.946566 120.693467 65.253467 
C 121.386566 64.560367 121.776 63.620191 121.776 62.64 
C 121.776 61.659809 121.386566 60.719633 120.693467 60.026533 
C 120.000367 59.333434 119.060191 58.944 118.08 58.944 
C 117.099809 58.944 116.159633 59.333434 115.466533 60.026533 
C 114.773434 60.719633 114.384 61.659809 114.384 62.64 
C 114.384 63.620191 114.773434 64.560367 115.466533 65.253467 
C 116.159633 65.946566 117.099809 66.336 118.08 66.336 
z
" clip-path="url(#p43ccf3ca6b)" style="fill: #abd0e6; stroke: #abd0e6; stroke-linejoin: miter"/>
   </g>
   <g id="text_1">
    <!-- 0 -->
    <g transform="translate(22.49875 28.439375)scale(0.1 -0.1)">
     <defs>
      <path id="DejaVuSans-30" d="M 2034 4250 
Q 1547 4250 1301 3770 
Q 1056 3291 1056 2328 
Q 1056 1369 1301 889 
Q 1547 409 2034 409 
Q 2525 409 2770 889 
Q 3016 1369 3016 2328 
Q 3016 3291 2770 3770 
Q 2525 4250 2034 4250 
z
M 2034 4750 
Q 2819 4750 3233 4129 
Q 3647 3509 3647 2328 
Q 3647 1150 3233 529 
Q 2819 -91 2034 -91 
Q 1250 -91 836 529 
Q 422 1150 422 2328 
Q 422 3509 836 4129 
Q 1250 4750 2034 4750 
z
" transform="scale(0.015625)"/>
     </defs>
     <use xlink:href="#DejaVuSans-30"/>
    </g>
   </g>
   <g id="text_2">
    <!-- 1 -->
    <g transform="translate(22.49875 46.919375)scale(0.1 -0.1)">
     <defs>
      <path id="DejaVuSans-31" d="M 794 531 
L 1825 531 
L 1825 4091 
L 703 3866 
L 703 4441 
L 1819 4666 
L 2450 4666 
L 2450 531 
L 3481 531 
L 3481 0 
L 794 0 
L 794 531 
z
" transform="scale(0.015625)"/>
     </defs>
     <use xlink:href="#DejaVuSans-31"/>
    </g>
   </g>
   <g id="text_3">
    <!-- 2 -->
    <g transform="translate(22.49875 65.399375)scale(0.1 -0.1)">
     <defs>
      <path id="DejaVuSans-32" d="M 1228 531 
L 3431 531 
L 3431 0 
L 469 0 
L 469 531 
Q 828 903 1448 1529 
Q 2069 2156 2228 2338 
Q 2531 2678 2651 2914 
Q 2772 3150 2772 3378 
Q 2772 3750 2511 3984 
Q 2250 4219 1831 4219 
Q 1534 4219 1204 4116 
Q 875 4013 500 3803 
L 500 4441 
Q 881 4594 1212 4672 
Q 1544 4750 1819 4750 
Q 2544 4750 2975 4387 
Q 3406 4025 3406 3419 
Q 3406 3131 3298 2873 
Q 3191 2616 2906 2266 
Q 2828 2175 2409 1742 
Q 1991 1309 1228 531 
z
" transform="scale(0.015625)"/>
     </defs>
     <use xlink:href="#DejaVuSans-32"/>
    </g>
   </g>
   <g id="text_4">
    <!-- 3 -->
    <g transform="translate(22.49875 83.879375)scale(0.1 -0.1)">
     <defs>
      <path id="DejaVuSans-33" d="M 2597 2516 
Q 3050 2419 3304 2112 
Q 3559 1806 3559 1356 
Q 3559 666 3084 287 
Q 2609 -91 1734 -91 
Q 1441 -91 1130 -33 
Q 819 25 488 141 
L 488 750 
Q 750 597 1062 519 
Q 1375 441 1716 441 
Q 2309 441 2620 675 
Q 2931 909 2931 1356 
Q 2931 1769 2642 2001 
Q 2353 2234 1838 2234 
L 1294 2234 
L 1294 2753 
L 1863 2753 
Q 2328 2753 2575 2939 
Q 2822 3125 2822 3475 
Q 2822 3834 2567 4026 
Q 2313 4219 1838 4219 
Q 1578 4219 1281 4162 
Q 984 4106 628 3988 
L 628 4550 
Q 988 4650 1302 4700 
Q 1616 4750 1894 4750 
Q 2613 4750 3031 4423 
Q 3450 4097 3450 3541 
Q 3450 3153 3228 2886 
Q 3006 2619 2597 2516 
z
" transform="scale(0.015625)"/>
     </defs>
     <use xlink:href="#DejaVuSans-33"/>
    </g>
   </g>
   <g id="text_5">
    <!-- 4 -->
    <g transform="translate(22.49875 102.359375)scale(0.1 -0.1)">
     <defs>
      <path id="DejaVuSans-34" d="M 2419 4116 
L 825 1625 
L 2419 1625 
L 2419 4116 
z
M 2253 4666 
L 3047 4666 
L 3047 1625 
L 3713 1625 
L 3713 1100 
L 3047 1100 
L 3047 0 
L 2419 0 
L 2419 1100 
L 313 1100 
L 313 1709 
L 2253 4666 
z
" transform="scale(0.015625)"/>
     </defs>
     <use xlink:href="#DejaVuSans-34"/>
    </g>
   </g>
   <g id="text_6">
    <!-- 5 -->
    <g transform="translate(22.49875 120.839375)scale(0.1 -0.1)">
     <defs>
      <path id="DejaVuSans-35" d="M 691 4666 
L 3169 4666 
L 3169 4134 
L 1269 4134 
L 1269 2991 
Q 1406 3038 1543 3061 
Q 1681 3084 1819 3084 
Q 2600 3084 3056 2656 
Q 3513 2228 3513 1497 
Q 3513 744 3044 326 
Q 2575 -91 1722 -91 
Q 1428 -91 1123 -41 
Q 819 9 494 109 
L 494 744 
Q 775 591 1075 516 
Q 1375 441 1709 441 
Q 2250 441 2565 725 
Q 2881 1009 2881 1497 
Q 2881 1984 2565 2268 
Q 2250 2553 1709 2553 
Q 1456 2553 1204 2497 
Q 953 2441 691 2322 
L 691 4666 
z
" transform="scale(0.015625)"/>
     </defs>
     <use xlink:href="#DejaVuSans-35"/>
    </g>
   </g>
   <g id="text_7">
    <!-- 6 -->
    <g transform="translate(22.49875 139.319375)scale(0.1 -0.1)">
     <defs>
      <path id="DejaVuSans-36" d="M 2113 2584 
Q 1688 2584 1439 2293 
Q 1191 2003 1191 1497 
Q 1191 994 1439 701 
Q 1688 409 2113 409 
Q 2538 409 2786 701 
Q 3034 994 3034 1497 
Q 3034 2003 2786 2293 
Q 2538 2584 2113 2584 
z
M 3366 4563 
L 3366 3988 
Q 3128 4100 2886 4159 
Q 2644 4219 2406 4219 
Q 1781 4219 1451 3797 
Q 1122 3375 1075 2522 
Q 1259 2794 1537 2939 
Q 1816 3084 2150 3084 
Q 2853 3084 3261 2657 
Q 3669 2231 3669 1497 
Q 3669 778 3244 343 
Q 2819 -91 2113 -91 
Q 1303 -91 875 529 
Q 447 1150 447 2328 
Q 447 3434 972 4092 
Q 1497 4750 2381 4750 
Q 2619 4750 2861 4703 
Q 3103 4656 3366 4563 
z
" transform="scale(0.015625)"/>
     </defs>
     <use xlink:href="#DejaVuSans-36"/>
    </g>
   </g>
   <g id="text_8">
    <!-- 7 -->
    <g transform="translate(22.49875 157.799375)scale(0.1 -0.1)">
     <defs>
      <path id="DejaVuSans-37" d="M 525 4666 
L 3525 4666 
L 3525 4397 
L 1831 0 
L 1172 0 
L 2766 4134 
L 525 4134 
L 525 4666 
z
" transform="scale(0.015625)"/>
     </defs>
     <use xlink:href="#DejaVuSans-37"/>
    </g>
   </g>
   <g id="text_9">
    <!-- 8 -->
    <g transform="translate(22.49875 176.279375)scale(0.1 -0.1)">
     <defs>
      <path id="DejaVuSans-38" d="M 2034 2216 
Q 1584 2216 1326 1975 
Q 1069 1734 1069 1313 
Q 1069 891 1326 650 
Q 1584 409 2034 409 
Q 2484 409 2743 651 
Q 3003 894 3003 1313 
Q 3003 1734 2745 1975 
Q 2488 2216 2034 2216 
z
M 1403 2484 
Q 997 2584 770 2862 
Q 544 3141 544 3541 
Q 544 4100 942 4425 
Q 1341 4750 2034 4750 
Q 2731 4750 3128 4425 
Q 3525 4100 3525 3541 
Q 3525 3141 3298 2862 
Q 3072 2584 2669 2484 
Q 3125 2378 3379 2068 
Q 3634 1759 3634 1313 
Q 3634 634 3220 271 
Q 2806 -91 2034 -91 
Q 1263 -91 848 271 
Q 434 634 434 1313 
Q 434 1759 690 2068 
Q 947 2378 1403 2484 
z
M 1172 3481 
Q 1172 3119 1398 2916 
Q 1625 2713 2034 2713 
Q 2441 2713 2670 2916 
Q 2900 3119 2900 3481 
Q 2900 3844 2670 4047 
Q 2441 4250 2034 4250 
Q 1625 4250 1398 4047 
Q 1172 3844 1172 3481 
z
" transform="scale(0.015625)"/>
     </defs>
     <use xlink:href="#DejaVuSans-38"/>
    </g>
   </g>
   <g id="text_10">
    <!-- 9 -->
    <g transform="translate(22.49875 194.759375)scale(0.1 -0.1)">
     <defs>
      <path id="DejaVuSans-39" d="M 703 97 
L 703 672 
Q 941 559 1184 500 
Q 1428 441 1663 441 
Q 2288 441 2617 861 
Q 2947 1281 2994 2138 
Q 2813 1869 2534 1725 
Q 2256 1581 1919 1581 
Q 1219 1581 811 2004 
Q 403 2428 403 3163 
Q 403 3881 828 4315 
Q 1253 4750 1959 4750 
Q 2769 4750 3195 4129 
Q 3622 3509 3622 2328 
Q 3622 1225 3098 567 
Q 2575 -91 1691 -91 
Q 1453 -91 1209 -44 
Q 966 3 703 97 
z
M 1959 2075 
Q 2384 2075 2632 2365 
Q 2881 2656 2881 3163 
Q 2881 3666 2632 3958 
Q 2384 4250 1959 4250 
Q 1534 4250 1286 3958 
Q 1038 3666 1038 3163 
Q 1038 2656 1286 2365 
Q 1534 2075 1959 2075 
z
" transform="scale(0.015625)"/>
     </defs>
     <use xlink:href="#DejaVuSans-39"/>
    </g>
   </g>
   <g id="text_11">
    <!-- 10 -->
    <g transform="translate(19.3175 213.239375)scale(0.1 -0.1)">
     <use xlink:href="#DejaVuSans-31"/>
     <use xlink:href="#DejaVuSans-30" x="63.623047"/>
    </g>
   </g>
   <g id="text_12">
    <!-- 11 -->
    <g transform="translate(19.3175 231.719375)scale(0.1 -0.1)">
     <use xlink:href="#DejaVuSans-31"/>
     <use xlink:href="#DejaVuSans-31" x="63.623047"/>
    </g>
   </g>
   <g id="text_13">
    <!-- 12 -->
    <g transform="translate(19.3175 250.199375)scale(0.1 -0.1)">
     <use xlink:href="#DejaVuSans-31"/>
     <use xlink:href="#DejaVuSans-32" x="63.623047"/>
    </g>
   </g>
   <g id="text_14">
    <!-- 13 -->
    <g transform="translate(19.3175 268.679375)scale(0.1 -0.1)">
     <use xlink:href="#DejaVuSans-31"/>
     <use xlink:href="#DejaVuSans-33" x="63.623047"/>
    </g>
   </g>
   <g id="text_15">
    <!-- 14 -->
    <g transform="translate(19.3175 287.159375)scale(0.1 -0.1)">
     <use xlink:href="#DejaVuSans-31"/>
     <use xlink:href="#DejaVuSans-34" x="63.623047"/>
    </g>
   </g>
   <g id="text_16">
    <!-- 15 -->
    <g transform="translate(19.3175 305.639375)scale(0.1 -0.1)">
     <use xlink:href="#DejaVuSans-31"/>
     <use xlink:href="#DejaVuSans-35" x="63.623047"/>
    </g>
   </g>
  </g>
 </g>
 <defs>
  <clipPath id="p43ccf3ca6b">
   <rect x="7.2" y="7.2" width="369.6" height="332.64"/>
  </clipPath>
 </defs>
</svg>
