<?xml version="1.0" encoding="utf-8" standalone="no"?>
<!DOCTYPE svg PUBLIC "-//W3C//DTD SVG 1.1//EN"
  "http://www.w3.org/Graphics/SVG/1.1/DTD/svg11.dtd">
<svg xmlns:xlink="http://www.w3.org/1999/xlink" width="572.4pt" height="293.4pt" viewBox="0 0 572.4 293.4" xmlns="http://www.w3.org/2000/svg" version="1.1">
 <metadata>
  <rdf:RDF xmlns:dc="http://purl.org/dc/elements/1.1/" xmlns:cc="http://creativecommons.org/ns#" xmlns:rdf="http://www.w3.org/1999/02/22-rdf-syntax-ns#">
   <cc:Work>
    <dc:type rdf:resource="http://purl.org/dc/dcmitype/StillImage"/>
    <dc:date>2023-11-07T20:13:37.573545</dc:date>
    <dc:format>image/svg+xml</dc:format>
    <dc:creator>
     <cc:Agent>
      <dc:title>Matplotlib v3.8.0, https://matplotlib.org/</dc:title>
     </cc:Agent>
    </dc:creator>
   </cc:Work>
  </rdf:RDF>
 </metadata>
 <defs>
  <style type="text/css">*{stroke-linejoin: round; stroke-linecap: butt}</style>
 </defs>
 <g id="figure_1">
  <g id="patch_1">
   <path d="M 0 293.4 
L 572.4 293.4 
L 572.4 0 
L 0 0 
L 0 293.4 
z
" style="fill: none"/>
  </g>
  <g id="axes_1">
   <g id="LineCollection_1">
    <path d="M 35.1 35.1 
L 565.2 35.1 
" clip-path="url(#pcfdb6fbd9b)" style="fill: none; stroke: #808080; stroke-width: 1.5"/>
   </g>
   <g id="LineCollection_2">
    <path d="M 35.1 63 
L 565.2 63 
" clip-path="url(#pcfdb6fbd9b)" style="fill: none; stroke: #808080; stroke-width: 1.5"/>
   </g>
   <g id="LineCollection_3">
    <path d="M 35.1 90.9 
L 565.2 90.9 
" clip-path="url(#pcfdb6fbd9b)" style="fill: none; stroke: #808080; stroke-width: 1.5"/>
   </g>
   <g id="LineCollection_4">
    <path d="M 35.1 118.8 
L 565.2 118.8 
" clip-path="url(#pcfdb6fbd9b)" style="fill: none; stroke: #808080; stroke-width: 1.5"/>
   </g>
   <g id="LineCollection_5">
    <path d="M 35.1 146.7 
L 565.2 146.7 
" clip-path="url(#pcfdb6fbd9b)" style="fill: none; stroke: #808080; stroke-width: 1.5"/>
   </g>
   <g id="LineCollection_6">
    <path d="M 35.1 174.6 
L 565.2 174.6 
" clip-path="url(#pcfdb6fbd9b)" style="fill: none; stroke: #808080; stroke-width: 1.5"/>
   </g>
   <g id="LineCollection_7">
    <path d="M 35.1 202.5 
L 565.2 202.5 
" clip-path="url(#pcfdb6fbd9b)" style="fill: none; stroke: #808080; stroke-width: 1.5"/>
   </g>
   <g id="LineCollection_8">
    <path d="M 35.1 230.4 
L 565.2 230.4 
" clip-path="url(#pcfdb6fbd9b)" style="fill: none; stroke: #808080; stroke-width: 1.5"/>
   </g>
   <g id="line2d_1">
    <path d="M 63 146.7 
L 63 174.6 
" clip-path="url(#pcfdb6fbd9b)" style="fill: none; stroke: #000000; stroke-width: 1.5; stroke-linecap: square"/>
   </g>
   <g id="line2d_2">
    <path d="M 63 174.6 
L 63 202.5 
" clip-path="url(#pcfdb6fbd9b)" style="fill: none; stroke: #000000; stroke-width: 1.5; stroke-linecap: square"/>
   </g>
   <g id="patch_2">
    <path d="M 35.1 46.26 
C 38.059667 46.26 40.898511 45.084112 42.991312 42.991312 
C 45.084112 40.898511 46.26 38.059667 46.26 35.1 
C 46.26 32.140333 45.084112 29.301489 42.991312 27.208688 
C 40.898511 25.115888 38.059667 23.94 35.1 23.94 
C 32.140333 23.94 29.301489 25.115888 27.208688 27.208688 
C 25.115888 29.301489 23.94 32.140333 23.94 35.1 
C 23.94 38.059667 25.115888 40.898511 27.208688 42.991312 
C 29.301489 45.084112 32.140333 46.26 35.1 46.26 
z
" clip-path="url(#pcfdb6fbd9b)" style="fill: #92a9bd; stroke: #000000; stroke-linejoin: miter"/>
   </g>
   <g id="patch_3">
    <path d="M 35.1 74.16 
C 38.059667 74.16 40.898511 72.984112 42.991312 70.891312 
C 45.084112 68.798511 46.26 65.959667 46.26 63 
C 46.26 60.040333 45.084112 57.201489 42.991312 55.108688 
C 40.898511 53.015888 38.059667 51.84 35.1 51.84 
C 32.140333 51.84 29.301489 53.015888 27.208688 55.108688 
C 25.115888 57.201489 23.94 60.040333 23.94 63 
C 23.94 65.959667 25.115888 68.798511 27.208688 70.891312 
C 29.301489 72.984112 32.140333 74.16 35.1 74.16 
z
" clip-path="url(#pcfdb6fbd9b)" style="fill: #92a9bd; stroke: #000000; stroke-linejoin: miter"/>
   </g>
   <g id="patch_4">
    <path d="M 35.1 102.06 
C 38.059667 102.06 40.898511 100.884112 42.991312 98.791312 
C 45.084112 96.698511 46.26 93.859667 46.26 90.9 
C 46.26 87.940333 45.084112 85.101489 42.991312 83.008688 
C 40.898511 80.915888 38.059667 79.74 35.1 79.74 
C 32.140333 79.74 29.301489 80.915888 27.208688 83.008688 
C 25.115888 85.101489 23.94 87.940333 23.94 90.9 
C 23.94 93.859667 25.115888 96.698511 27.208688 98.791312 
C 29.301489 100.884112 32.140333 102.06 35.1 102.06 
z
" clip-path="url(#pcfdb6fbd9b)" style="fill: #92a9bd; stroke: #000000; stroke-linejoin: miter"/>
   </g>
   <g id="patch_5">
    <path d="M 35.1 129.96 
C 38.059667 129.96 40.898511 128.784112 42.991312 126.691312 
C 45.084112 124.598511 46.26 121.759667 46.26 118.8 
C 46.26 115.840333 45.084112 113.001489 42.991312 110.908688 
C 40.898511 108.815888 38.059667 107.64 35.1 107.64 
C 32.140333 107.64 29.301489 108.815888 27.208688 110.908688 
C 25.115888 113.001489 23.94 115.840333 23.94 118.8 
C 23.94 121.759667 25.115888 124.598511 27.208688 126.691312 
C 29.301489 128.784112 32.140333 129.96 35.1 129.96 
z
" clip-path="url(#pcfdb6fbd9b)" style="fill: #92a9bd; stroke: #000000; stroke-linejoin: miter"/>
   </g>
   <g id="patch_6">
    <path d="M 35.1 157.86 
C 38.059667 157.86 40.898511 156.684112 42.991312 154.591312 
C 45.084112 152.498511 46.26 149.659667 46.26 146.7 
C 46.26 143.740333 45.084112 140.901489 42.991312 138.808688 
C 40.898511 136.715888 38.059667 135.54 35.1 135.54 
C 32.140333 135.54 29.301489 136.715888 27.208688 138.808688 
C 25.115888 140.901489 23.94 143.740333 23.94 146.7 
C 23.94 149.659667 25.115888 152.498511 27.208688 154.591312 
C 29.301489 156.684112 32.140333 157.86 35.1 157.86 
z
" clip-path="url(#pcfdb6fbd9b)" style="fill: #92a9bd; stroke: #000000; stroke-linejoin: miter"/>
   </g>
   <g id="patch_7">
    <path d="M 35.1 185.76 
C 38.059667 185.76 40.898511 184.584112 42.991312 182.491312 
C 45.084112 180.398511 46.26 177.559667 46.26 174.6 
C 46.26 171.640333 45.084112 168.801489 42.991312 166.708688 
C 40.898511 164.615888 38.059667 163.44 35.1 163.44 
C 32.140333 163.44 29.301489 164.615888 27.208688 166.708688 
C 25.115888 168.801489 23.94 171.640333 23.94 174.6 
C 23.94 177.559667 25.115888 180.398511 27.208688 182.491312 
C 29.301489 184.584112 32.140333 185.76 35.1 185.76 
z
" clip-path="url(#pcfdb6fbd9b)" style="fill: #92a9bd; stroke: #000000; stroke-linejoin: miter"/>
   </g>
   <g id="patch_8">
    <path d="M 35.1 213.66 
C 38.059667 213.66 40.898511 212.484112 42.991312 210.391312 
C 45.084112 208.298511 46.26 205.459667 46.26 202.5 
C 46.26 199.540333 45.084112 196.701489 42.991312 194.608688 
C 40.898511 192.515888 38.059667 191.34 35.1 191.34 
C 32.140333 191.34 29.301489 192.515888 27.208688 194.608688 
C 25.115888 196.701489 23.94 199.540333 23.94 202.5 
C 23.94 205.459667 25.115888 208.298511 27.208688 210.391312 
C 29.301489 212.484112 32.140333 213.66 35.1 213.66 
z
" clip-path="url(#pcfdb6fbd9b)" style="fill: #92a9bd; stroke: #000000; stroke-linejoin: miter"/>
   </g>
   <g id="patch_9">
    <path d="M 35.1 241.56 
C 38.059667 241.56 40.898511 240.384112 42.991312 238.291312 
C 45.084112 236.198511 46.26 233.359667 46.26 230.4 
C 46.26 227.440333 45.084112 224.601489 42.991312 222.508688 
C 40.898511 220.415888 38.059667 219.24 35.1 219.24 
C 32.140333 219.24 29.301489 220.415888 27.208688 222.508688 
C 25.115888 224.601489 23.94 227.440333 23.94 230.4 
C 23.94 233.359667 25.115888 236.198511 27.208688 238.291312 
C 29.301489 240.384112 32.140333 241.56 35.1 241.56 
z
" clip-path="url(#pcfdb6fbd9b)" style="fill: #92a9bd; stroke: #000000; stroke-linejoin: miter"/>
   </g>
   <g id="patch_10">
    <path d="M 63 152.28 
C 64.479833 152.28 65.899256 151.692056 66.945656 150.645656 
C 67.992056 149.599256 68.58 148.179833 68.58 146.7 
C 68.58 145.220167 67.992056 143.800744 66.945656 142.754344 
C 65.899256 141.707944 64.479833 141.12 63 141.12 
C 61.520167 141.12 60.100744 141.707944 59.054344 142.754344 
C 58.007944 143.800744 57.42 145.220167 57.42 146.7 
C 57.42 148.179833 58.007944 149.599256 59.054344 150.645656 
C 60.100744 151.692056 61.520167 152.28 63 152.28 
z
" clip-path="url(#pcfdb6fbd9b)" style="fill: #08306b; stroke: #08306b; stroke-linejoin: miter"/>
   </g>
   <g id="patch_11">
    <path d="M 63 180.18 
C 64.479833 180.18 65.899256 179.592056 66.945656 178.545656 
C 67.992056 177.499256 68.58 176.079833 68.58 174.6 
C 68.58 173.120167 67.992056 171.700744 66.945656 170.654344 
C 65.899256 169.607944 64.479833 169.02 63 169.02 
C 61.520167 169.02 60.100744 169.607944 59.054344 170.654344 
C 58.007944 171.700744 57.42 173.120167 57.42 174.6 
C 57.42 176.079833 58.007944 177.499256 59.054344 178.545656 
C 60.100744 179.592056 61.520167 180.18 63 180.18 
z
" clip-path="url(#pcfdb6fbd9b)" style="fill: #3787c0; stroke: #3787c0; stroke-linejoin: miter"/>
   </g>
   <g id="patch_12">
    <path d="M 63 208.08 
C 64.479833 208.08 65.899256 207.492056 66.945656 206.445656 
C 67.992056 205.399256 68.58 203.979833 68.58 202.5 
C 68.58 201.020167 67.992056 199.600744 66.945656 198.554344 
C 65.899256 197.507944 64.479833 196.92 63 196.92 
C 61.520167 196.92 60.100744 197.507944 59.054344 198.554344 
C 58.007944 199.600744 57.42 201.020167 57.42 202.5 
C 57.42 203.979833 58.007944 205.399256 59.054344 206.445656 
C 60.100744 207.492056 61.520167 208.08 63 208.08 
z
" clip-path="url(#pcfdb6fbd9b)" style="fill: #abd0e6; stroke: #abd0e6; stroke-linejoin: miter"/>
   </g>
   <g id="text_1">
    <!-- 0 -->
    <g transform="translate(31.91875 37.859375) scale(0.1 -0.1)">
     <defs>
      <path id="DejaVuSans-30" d="M 2034 4250 
Q 1547 4250 1301 3770 
Q 1056 3291 1056 2328 
Q 1056 1369 1301 889 
Q 1547 409 2034 409 
Q 2525 409 2770 889 
Q 3016 1369 3016 2328 
Q 3016 3291 2770 3770 
Q 2525 4250 2034 4250 
z
M 2034 4750 
Q 2819 4750 3233 4129 
Q 3647 3509 3647 2328 
Q 3647 1150 3233 529 
Q 2819 -91 2034 -91 
Q 1250 -91 836 529 
Q 422 1150 422 2328 
Q 422 3509 836 4129 
Q 1250 4750 2034 4750 
z
" transform="scale(0.015625)"/>
     </defs>
     <use xlink:href="#DejaVuSans-30"/>
    </g>
   </g>
   <g id="text_2">
    <!-- 1 -->
    <g transform="translate(31.91875 65.759375) scale(0.1 -0.1)">
     <defs>
      <path id="DejaVuSans-31" d="M 794 531 
L 1825 531 
L 1825 4091 
L 703 3866 
L 703 4441 
L 1819 4666 
L 2450 4666 
L 2450 531 
L 3481 531 
L 3481 0 
L 794 0 
L 794 531 
z
" transform="scale(0.015625)"/>
     </defs>
     <use xlink:href="#DejaVuSans-31"/>
    </g>
   </g>
   <g id="text_3">
    <!-- 2 -->
    <g transform="translate(31.91875 93.659375) scale(0.1 -0.1)">
     <defs>
      <path id="DejaVuSans-32" d="M 1228 531 
L 3431 531 
L 3431 0 
L 469 0 
L 469 531 
Q 828 903 1448 1529 
Q 2069 2156 2228 2338 
Q 2531 2678 2651 2914 
Q 2772 3150 2772 3378 
Q 2772 3750 2511 3984 
Q 2250 4219 1831 4219 
Q 1534 4219 1204 4116 
Q 875 4013 500 3803 
L 500 4441 
Q 881 4594 1212 4672 
Q 1544 4750 1819 4750 
Q 2544 4750 2975 4387 
Q 3406 4025 3406 3419 
Q 3406 3131 3298 2873 
Q 3191 2616 2906 2266 
Q 2828 2175 2409 1742 
Q 1991 1309 1228 531 
z
" transform="scale(0.015625)"/>
     </defs>
     <use xlink:href="#DejaVuSans-32"/>
    </g>
   </g>
   <g id="text_4">
    <!-- 3 -->
    <g transform="translate(31.91875 121.559375) scale(0.1 -0.1)">
     <defs>
      <path id="DejaVuSans-33" d="M 2597 2516 
Q 3050 2419 3304 2112 
Q 3559 1806 3559 1356 
Q 3559 666 3084 287 
Q 2609 -91 1734 -91 
Q 1441 -91 1130 -33 
Q 819 25 488 141 
L 488 750 
Q 750 597 1062 519 
Q 1375 441 1716 441 
Q 2309 441 2620 675 
Q 2931 909 2931 1356 
Q 2931 1769 2642 2001 
Q 2353 2234 1838 2234 
L 1294 2234 
L 1294 2753 
L 1863 2753 
Q 2328 2753 2575 2939 
Q 2822 3125 2822 3475 
Q 2822 3834 2567 4026 
Q 2313 4219 1838 4219 
Q 1578 4219 1281 4162 
Q 984 4106 628 3988 
L 628 4550 
Q 988 4650 1302 4700 
Q 1616 4750 1894 4750 
Q 2613 4750 3031 4423 
Q 3450 4097 3450 3541 
Q 3450 3153 3228 2886 
Q 3006 2619 2597 2516 
z
" transform="scale(0.015625)"/>
     </defs>
     <use xlink:href="#DejaVuSans-33"/>
    </g>
   </g>
   <g id="text_5">
    <!-- 4 -->
    <g transform="translate(31.91875 149.459375) scale(0.1 -0.1)">
     <defs>
      <path id="DejaVuSans-34" d="M 2419 4116 
L 825 1625 
L 2419 1625 
L 2419 4116 
z
M 2253 4666 
L 3047 4666 
L 3047 1625 
L 3713 1625 
L 3713 1100 
L 3047 1100 
L 3047 0 
L 2419 0 
L 2419 1100 
L 313 1100 
L 313 1709 
L 2253 4666 
z
" transform="scale(0.015625)"/>
     </defs>
     <use xlink:href="#DejaVuSans-34"/>
    </g>
   </g>
   <g id="text_6">
    <!-- 5 -->
    <g transform="translate(31.91875 177.359375) scale(0.1 -0.1)">
     <defs>
      <path id="DejaVuSans-35" d="M 691 4666 
L 3169 4666 
L 3169 4134 
L 1269 4134 
L 1269 2991 
Q 1406 3038 1543 3061 
Q 1681 3084 1819 3084 
Q 2600 3084 3056 2656 
Q 3513 2228 3513 1497 
Q 3513 744 3044 326 
Q 2575 -91 1722 -91 
Q 1428 -91 1123 -41 
Q 819 9 494 109 
L 494 744 
Q 775 591 1075 516 
Q 1375 441 1709 441 
Q 2250 441 2565 725 
Q 2881 1009 2881 1497 
Q 2881 1984 2565 2268 
Q 2250 2553 1709 2553 
Q 1456 2553 1204 2497 
Q 953 2441 691 2322 
L 691 4666 
z
" transform="scale(0.015625)"/>
     </defs>
     <use xlink:href="#DejaVuSans-35"/>
    </g>
   </g>
   <g id="text_7">
    <!-- 6 -->
    <g transform="translate(31.91875 205.259375) scale(0.1 -0.1)">
     <defs>
      <path id="DejaVuSans-36" d="M 2113 2584 
Q 1688 2584 1439 2293 
Q 1191 2003 1191 1497 
Q 1191 994 1439 701 
Q 1688 409 2113 409 
Q 2538 409 2786 701 
Q 3034 994 3034 1497 
Q 3034 2003 2786 2293 
Q 2538 2584 2113 2584 
z
M 3366 4563 
L 3366 3988 
Q 3128 4100 2886 4159 
Q 2644 4219 2406 4219 
Q 1781 4219 1451 3797 
Q 1122 3375 1075 2522 
Q 1259 2794 1537 2939 
Q 1816 3084 2150 3084 
Q 2853 3084 3261 2657 
Q 3669 2231 3669 1497 
Q 3669 778 3244 343 
Q 2819 -91 2113 -91 
Q 1303 -91 875 529 
Q 447 1150 447 2328 
Q 447 3434 972 4092 
Q 1497 4750 2381 4750 
Q 2619 4750 2861 4703 
Q 3103 4656 3366 4563 
z
" transform="scale(0.015625)"/>
     </defs>
     <use xlink:href="#DejaVuSans-36"/>
    </g>
   </g>
   <g id="text_8">
    <!-- 7 -->
    <g transform="translate(31.91875 233.159375) scale(0.1 -0.1)">
     <defs>
      <path id="DejaVuSans-37" d="M 525 4666 
L 3525 4666 
L 3525 4397 
L 1831 0 
L 1172 0 
L 2766 4134 
L 525 4134 
L 525 4666 
z
" transform="scale(0.015625)"/>
     </defs>
     <use xlink:href="#DejaVuSans-37"/>
    </g>
   </g>
   <g id="text_9">
    <!-- cns -->
    <g transform="translate(56.998851 140.713938) rotate(-30) scale(0.1 -0.1)">
     <defs>
      <path id="DejaVuSans-63" d="M 3122 3366 
L 3122 2828 
Q 2878 2963 2633 3030 
Q 2388 3097 2138 3097 
Q 1578 3097 1268 2742 
Q 959 2388 959 1747 
Q 959 1106 1268 751 
Q 1578 397 2138 397 
Q 2388 397 2633 464 
Q 2878 531 3122 666 
L 3122 134 
Q 2881 22 2623 -34 
Q 2366 -91 2075 -91 
Q 1284 -91 818 406 
Q 353 903 353 1747 
Q 353 2603 823 3093 
Q 1294 3584 2113 3584 
Q 2378 3584 2631 3529 
Q 2884 3475 3122 3366 
z
" transform="scale(0.015625)"/>
      <path id="DejaVuSans-6e" d="M 3513 2113 
L 3513 0 
L 2938 0 
L 2938 2094 
Q 2938 2591 2744 2837 
Q 2550 3084 2163 3084 
Q 1697 3084 1428 2787 
Q 1159 2491 1159 1978 
L 1159 0 
L 581 0 
L 581 3500 
L 1159 3500 
L 1159 2956 
Q 1366 3272 1645 3428 
Q 1925 3584 2291 3584 
Q 2894 3584 3203 3211 
Q 3513 2838 3513 2113 
z
" transform="scale(0.015625)"/>
      <path id="DejaVuSans-73" d="M 2834 3397 
L 2834 2853 
Q 2591 2978 2328 3040 
Q 2066 3103 1784 3103 
Q 1356 3103 1142 2972 
Q 928 2841 928 2578 
Q 928 2378 1081 2264 
Q 1234 2150 1697 2047 
L 1894 2003 
Q 2506 1872 2764 1633 
Q 3022 1394 3022 966 
Q 3022 478 2636 193 
Q 2250 -91 1575 -91 
Q 1294 -91 989 -36 
Q 684 19 347 128 
L 347 722 
Q 666 556 975 473 
Q 1284 391 1588 391 
Q 1994 391 2212 530 
Q 2431 669 2431 922 
Q 2431 1156 2273 1281 
Q 2116 1406 1581 1522 
L 1381 1569 
Q 847 1681 609 1914 
Q 372 2147 372 2553 
Q 372 3047 722 3315 
Q 1072 3584 1716 3584 
Q 2034 3584 2315 3537 
Q 2597 3491 2834 3397 
z
" transform="scale(0.015625)"/>
     </defs>
     <use xlink:href="#DejaVuSans-63"/>
     <use xlink:href="#DejaVuSans-6e" x="54.980469"/>
     <use xlink:href="#DejaVuSans-73" x="118.359375"/>
    </g>
   </g>
  </g>
 </g>
 <defs>
  <clipPath id="pcfdb6fbd9b">
   <rect x="7.2" y="7.2" width="558" height="279"/>
  </clipPath>
 </defs>
</svg>
