<?xml version="1.0" encoding="utf-8" standalone="no"?>
<!DOCTYPE svg PUBLIC "-//W3C//DTD SVG 1.1//EN"
  "http://www.w3.org/Graphics/SVG/1.1/DTD/svg11.dtd">
<svg xmlns:xlink="http://www.w3.org/1999/xlink" width="489.6pt" height="347.04pt" viewBox="0 0 489.6 347.04" xmlns="http://www.w3.org/2000/svg" version="1.1">
 <metadata>
  <rdf:RDF xmlns:dc="http://purl.org/dc/elements/1.1/" xmlns:cc="http://creativecommons.org/ns#" xmlns:rdf="http://www.w3.org/1999/02/22-rdf-syntax-ns#">
   <cc:Work>
    <dc:type rdf:resource="http://purl.org/dc/dcmitype/StillImage"/>
    <dc:date>2023-11-08T12:20:02.476054</dc:date>
    <dc:format>image/svg+xml</dc:format>
    <dc:creator>
     <cc:Agent>
      <dc:title>Matplotlib v3.8.1, https://matplotlib.org/</dc:title>
     </cc:Agent>
    </dc:creator>
   </cc:Work>
  </rdf:RDF>
 </metadata>
 <defs>
  <style type="text/css">*{stroke-linejoin: round; stroke-linecap: butt}</style>
 </defs>
 <g id="figure_1">
  <g id="patch_1">
   <path d="M 0 347.04 
L 489.6 347.04 
L 489.6 -0 
L 0 -0 
L 0 347.04 
z
" style="fill: none"/>
  </g>
  <g id="axes_1">
   <g id="LineCollection_1">
    <path d="M 54.72 54.72 
L 482.4 54.72 
" clip-path="url(#p75e231e80d)" style="fill: none; stroke: #808080; stroke-width: 1.5"/>
   </g>
   <g id="LineCollection_2">
    <path d="M 54.72 102.24 
L 482.4 102.24 
" clip-path="url(#p75e231e80d)" style="fill: none; stroke: #808080; stroke-width: 1.5"/>
   </g>
   <g id="LineCollection_3">
    <path d="M 54.72 149.76 
L 482.4 149.76 
" clip-path="url(#p75e231e80d)" style="fill: none; stroke: #808080; stroke-width: 1.5"/>
   </g>
   <g id="LineCollection_4">
    <path d="M 54.72 197.28 
L 482.4 197.28 
" clip-path="url(#p75e231e80d)" style="fill: none; stroke: #808080; stroke-width: 1.5"/>
   </g>
   <g id="LineCollection_5">
    <path d="M 54.72 244.8 
L 482.4 244.8 
" clip-path="url(#p75e231e80d)" style="fill: none; stroke: #808080; stroke-width: 1.5"/>
   </g>
   <g id="line2d_1">
    <path d="M 102.24 54.72 
L 102.24 102.24 
" clip-path="url(#p75e231e80d)" style="fill: none; stroke: #000000; stroke-width: 1.5; stroke-linecap: square"/>
   </g>
   <g id="line2d_2">
    <path d="M 126 102.24 
L 126 149.76 
" clip-path="url(#p75e231e80d)" style="fill: none; stroke: #000000; stroke-width: 1.5; stroke-linecap: square"/>
   </g>
   <g id="line2d_3">
    <path d="M 149.76 149.76 
L 149.76 197.28 
" clip-path="url(#p75e231e80d)" style="fill: none; stroke: #000000; stroke-width: 1.5; stroke-linecap: square"/>
   </g>
   <g id="line2d_4">
    <path d="M 173.52 197.28 
L 173.52 244.8 
" clip-path="url(#p75e231e80d)" style="fill: none; stroke: #000000; stroke-width: 1.5; stroke-linecap: square"/>
   </g>
   <g id="line2d_5">
    <path d="M 197.28 244.8 
L 197.28 54.72 
" clip-path="url(#p75e231e80d)" style="fill: none; stroke: #000000; stroke-width: 1.5; stroke-linecap: square"/>
   </g>
   <g id="patch_2">
    <path d="M 54.72 78.48 
C 61.021226 78.48 67.065218 75.976497 71.520857 71.520857 
C 75.976497 67.065218 78.48 61.021226 78.48 54.72 
C 78.48 48.418774 75.976497 42.374782 71.520857 37.919143 
C 67.065218 33.463503 61.021226 30.96 54.72 30.96 
C 48.418774 30.96 42.374782 33.463503 37.919143 37.919143 
C 33.463503 42.374782 30.96 48.418774 30.96 54.72 
C 30.96 61.021226 33.463503 67.065218 37.919143 71.520857 
C 42.374782 75.976497 48.418774 78.48 54.72 78.48 
z
" clip-path="url(#p75e231e80d)" style="fill: #92a9bd; stroke: #000000; stroke-linejoin: miter"/>
   </g>
   <g id="patch_3">
    <path d="M 54.72 126 
C 61.021226 126 67.065218 123.496497 71.520857 119.040857 
C 75.976497 114.585218 78.48 108.541226 78.48 102.24 
C 78.48 95.938774 75.976497 89.894782 71.520857 85.439143 
C 67.065218 80.983503 61.021226 78.48 54.72 78.48 
C 48.418774 78.48 42.374782 80.983503 37.919143 85.439143 
C 33.463503 89.894782 30.96 95.938774 30.96 102.24 
C 30.96 108.541226 33.463503 114.585218 37.919143 119.040857 
C 42.374782 123.496497 48.418774 126 54.72 126 
z
" clip-path="url(#p75e231e80d)" style="fill: #92a9bd; stroke: #000000; stroke-linejoin: miter"/>
   </g>
   <g id="patch_4">
    <path d="M 54.72 173.52 
C 61.021226 173.52 67.065218 171.016497 71.520857 166.560857 
C 75.976497 162.105218 78.48 156.061226 78.48 149.76 
C 78.48 143.458774 75.976497 137.414782 71.520857 132.959143 
C 67.065218 128.503503 61.021226 126 54.72 126 
C 48.418774 126 42.374782 128.503503 37.919143 132.959143 
C 33.463503 137.414782 30.96 143.458774 30.96 149.76 
C 30.96 156.061226 33.463503 162.105218 37.919143 166.560857 
C 42.374782 171.016497 48.418774 173.52 54.72 173.52 
z
" clip-path="url(#p75e231e80d)" style="fill: #92a9bd; stroke: #000000; stroke-linejoin: miter"/>
   </g>
   <g id="patch_5">
    <path d="M 54.72 221.04 
C 61.021226 221.04 67.065218 218.536497 71.520857 214.080857 
C 75.976497 209.625218 78.48 203.581226 78.48 197.28 
C 78.48 190.978774 75.976497 184.934782 71.520857 180.479143 
C 67.065218 176.023503 61.021226 173.52 54.72 173.52 
C 48.418774 173.52 42.374782 176.023503 37.919143 180.479143 
C 33.463503 184.934782 30.96 190.978774 30.96 197.28 
C 30.96 203.581226 33.463503 209.625218 37.919143 214.080857 
C 42.374782 218.536497 48.418774 221.04 54.72 221.04 
z
" clip-path="url(#p75e231e80d)" style="fill: #92a9bd; stroke: #000000; stroke-linejoin: miter"/>
   </g>
   <g id="patch_6">
    <path d="M 54.72 268.56 
C 61.021226 268.56 67.065218 266.056497 71.520857 261.600857 
C 75.976497 257.145218 78.48 251.101226 78.48 244.8 
C 78.48 238.498774 75.976497 232.454782 71.520857 227.999143 
C 67.065218 223.543503 61.021226 221.04 54.72 221.04 
C 48.418774 221.04 42.374782 223.543503 37.919143 227.999143 
C 33.463503 232.454782 30.96 238.498774 30.96 244.8 
C 30.96 251.101226 33.463503 257.145218 37.919143 261.600857 
C 42.374782 266.056497 48.418774 268.56 54.72 268.56 
z
" clip-path="url(#p75e231e80d)" style="fill: #92a9bd; stroke: #000000; stroke-linejoin: miter"/>
   </g>
   <g id="patch_7">
    <path d="M 102.24 64.224 
C 104.76049 64.224 107.178087 63.222599 108.960343 61.440343 
C 110.742599 59.658087 111.744 57.24049 111.744 54.72 
C 111.744 52.19951 110.742599 49.781913 108.960343 47.999657 
C 107.178087 46.217401 104.76049 45.216 102.24 45.216 
C 99.71951 45.216 97.301913 46.217401 95.519657 47.999657 
C 93.737401 49.781913 92.736 52.19951 92.736 54.72 
C 92.736 57.24049 93.737401 59.658087 95.519657 61.440343 
C 97.301913 63.222599 99.71951 64.224 102.24 64.224 
z
" clip-path="url(#p75e231e80d)" style="fill: #08306b; stroke: #08306b; stroke-linejoin: miter"/>
   </g>
   <g id="patch_8">
    <path d="M 102.24 111.744 
C 104.76049 111.744 107.178087 110.742599 108.960343 108.960343 
C 110.742599 107.178087 111.744 104.76049 111.744 102.24 
C 111.744 99.71951 110.742599 97.301913 108.960343 95.519657 
C 107.178087 93.737401 104.76049 92.736 102.24 92.736 
C 99.71951 92.736 97.301913 93.737401 95.519657 95.519657 
C 93.737401 97.301913 92.736 99.71951 92.736 102.24 
C 92.736 104.76049 93.737401 107.178087 95.519657 108.960343 
C 97.301913 110.742599 99.71951 111.744 102.24 111.744 
z
" clip-path="url(#p75e231e80d)" style="fill: #6aaed6; stroke: #6aaed6; stroke-linejoin: miter"/>
   </g>
   <g id="patch_9">
    <path d="M 126 111.744 
C 128.52049 111.744 130.938087 110.742599 132.720343 108.960343 
C 134.502599 107.178087 135.504 104.76049 135.504 102.24 
C 135.504 99.71951 134.502599 97.301913 132.720343 95.519657 
C 130.938087 93.737401 128.52049 92.736 126 92.736 
C 123.47951 92.736 121.061913 93.737401 119.279657 95.519657 
C 117.497401 97.301913 116.496 99.71951 116.496 102.24 
C 116.496 104.76049 117.497401 107.178087 119.279657 108.960343 
C 121.061913 110.742599 123.47951 111.744 126 111.744 
z
" clip-path="url(#p75e231e80d)" style="fill: #08306b; stroke: #08306b; stroke-linejoin: miter"/>
   </g>
   <g id="patch_10">
    <path d="M 126 159.264 
C 128.52049 159.264 130.938087 158.262599 132.720343 156.480343 
C 134.502599 154.698087 135.504 152.28049 135.504 149.76 
C 135.504 147.23951 134.502599 144.821913 132.720343 143.039657 
C 130.938087 141.257401 128.52049 140.256 126 140.256 
C 123.47951 140.256 121.061913 141.257401 119.279657 143.039657 
C 117.497401 144.821913 116.496 147.23951 116.496 149.76 
C 116.496 152.28049 117.497401 154.698087 119.279657 156.480343 
C 121.061913 158.262599 123.47951 159.264 126 159.264 
z
" clip-path="url(#p75e231e80d)" style="fill: #6aaed6; stroke: #6aaed6; stroke-linejoin: miter"/>
   </g>
   <g id="patch_11">
    <path d="M 149.76 159.264 
C 152.28049 159.264 154.698087 158.262599 156.480343 156.480343 
C 158.262599 154.698087 159.264 152.28049 159.264 149.76 
C 159.264 147.23951 158.262599 144.821913 156.480343 143.039657 
C 154.698087 141.257401 152.28049 140.256 149.76 140.256 
C 147.23951 140.256 144.821913 141.257401 143.039657 143.039657 
C 141.257401 144.821913 140.256 147.23951 140.256 149.76 
C 140.256 152.28049 141.257401 154.698087 143.039657 156.480343 
C 144.821913 158.262599 147.23951 159.264 149.76 159.264 
z
" clip-path="url(#p75e231e80d)" style="fill: #08306b; stroke: #08306b; stroke-linejoin: miter"/>
   </g>
   <g id="patch_12">
    <path d="M 149.76 206.784 
C 152.28049 206.784 154.698087 205.782599 156.480343 204.000343 
C 158.262599 202.218087 159.264 199.80049 159.264 197.28 
C 159.264 194.75951 158.262599 192.341913 156.480343 190.559657 
C 154.698087 188.777401 152.28049 187.776 149.76 187.776 
C 147.23951 187.776 144.821913 188.777401 143.039657 190.559657 
C 141.257401 192.341913 140.256 194.75951 140.256 197.28 
C 140.256 199.80049 141.257401 202.218087 143.039657 204.000343 
C 144.821913 205.782599 147.23951 206.784 149.76 206.784 
z
" clip-path="url(#p75e231e80d)" style="fill: #6aaed6; stroke: #6aaed6; stroke-linejoin: miter"/>
   </g>
   <g id="patch_13">
    <path d="M 173.52 206.784 
C 176.04049 206.784 178.458087 205.782599 180.240343 204.000343 
C 182.022599 202.218087 183.024 199.80049 183.024 197.28 
C 183.024 194.75951 182.022599 192.341913 180.240343 190.559657 
C 178.458087 188.777401 176.04049 187.776 173.52 187.776 
C 170.99951 187.776 168.581913 188.777401 166.799657 190.559657 
C 165.017401 192.341913 164.016 194.75951 164.016 197.28 
C 164.016 199.80049 165.017401 202.218087 166.799657 204.000343 
C 168.581913 205.782599 170.99951 206.784 173.52 206.784 
z
" clip-path="url(#p75e231e80d)" style="fill: #08306b; stroke: #08306b; stroke-linejoin: miter"/>
   </g>
   <g id="patch_14">
    <path d="M 173.52 254.304 
C 176.04049 254.304 178.458087 253.302599 180.240343 251.520343 
C 182.022599 249.738087 183.024 247.32049 183.024 244.8 
C 183.024 242.27951 182.022599 239.861913 180.240343 238.079657 
C 178.458087 236.297401 176.04049 235.296 173.52 235.296 
C 170.99951 235.296 168.581913 236.297401 166.799657 238.079657 
C 165.017401 239.861913 164.016 242.27951 164.016 244.8 
C 164.016 247.32049 165.017401 249.738087 166.799657 251.520343 
C 168.581913 253.302599 170.99951 254.304 173.52 254.304 
z
" clip-path="url(#p75e231e80d)" style="fill: #6aaed6; stroke: #6aaed6; stroke-linejoin: miter"/>
   </g>
   <g id="patch_15">
    <path d="M 197.28 254.304 
C 199.80049 254.304 202.218087 253.302599 204.000343 251.520343 
C 205.782599 249.738087 206.784 247.32049 206.784 244.8 
C 206.784 242.27951 205.782599 239.861913 204.000343 238.079657 
C 202.218087 236.297401 199.80049 235.296 197.28 235.296 
C 194.75951 235.296 192.341913 236.297401 190.559657 238.079657 
C 188.777401 239.861913 187.776 242.27951 187.776 244.8 
C 187.776 247.32049 188.777401 249.738087 190.559657 251.520343 
C 192.341913 253.302599 194.75951 254.304 197.28 254.304 
z
" clip-path="url(#p75e231e80d)" style="fill: #08306b; stroke: #08306b; stroke-linejoin: miter"/>
   </g>
   <g id="patch_16">
    <path d="M 197.28 64.224 
C 199.80049 64.224 202.218087 63.222599 204.000343 61.440343 
C 205.782599 59.658087 206.784 57.24049 206.784 54.72 
C 206.784 52.19951 205.782599 49.781913 204.000343 47.999657 
C 202.218087 46.217401 199.80049 45.216 197.28 45.216 
C 194.75951 45.216 192.341913 46.217401 190.559657 47.999657 
C 188.777401 49.781913 187.776 52.19951 187.776 54.72 
C 187.776 57.24049 188.777401 59.658087 190.559657 61.440343 
C 192.341913 63.222599 194.75951 64.224 197.28 64.224 
z
" clip-path="url(#p75e231e80d)" style="fill: #6aaed6; stroke: #6aaed6; stroke-linejoin: miter"/>
   </g>
   <g id="text_1">
    <!-- 0 -->
    <g transform="translate(51.53875 57.479375) scale(0.1 -0.1)">
     <defs>
      <path id="DejaVuSans-30" d="M 2034 4250 
Q 1547 4250 1301 3770 
Q 1056 3291 1056 2328 
Q 1056 1369 1301 889 
Q 1547 409 2034 409 
Q 2525 409 2770 889 
Q 3016 1369 3016 2328 
Q 3016 3291 2770 3770 
Q 2525 4250 2034 4250 
z
M 2034 4750 
Q 2819 4750 3233 4129 
Q 3647 3509 3647 2328 
Q 3647 1150 3233 529 
Q 2819 -91 2034 -91 
Q 1250 -91 836 529 
Q 422 1150 422 2328 
Q 422 3509 836 4129 
Q 1250 4750 2034 4750 
z
" transform="scale(0.015625)"/>
     </defs>
     <use xlink:href="#DejaVuSans-30"/>
    </g>
   </g>
   <g id="text_2">
    <!-- 1 -->
    <g transform="translate(51.53875 104.999375) scale(0.1 -0.1)">
     <defs>
      <path id="DejaVuSans-31" d="M 794 531 
L 1825 531 
L 1825 4091 
L 703 3866 
L 703 4441 
L 1819 4666 
L 2450 4666 
L 2450 531 
L 3481 531 
L 3481 0 
L 794 0 
L 794 531 
z
" transform="scale(0.015625)"/>
     </defs>
     <use xlink:href="#DejaVuSans-31"/>
    </g>
   </g>
   <g id="text_3">
    <!-- 2 -->
    <g transform="translate(51.53875 152.519375) scale(0.1 -0.1)">
     <defs>
      <path id="DejaVuSans-32" d="M 1228 531 
L 3431 531 
L 3431 0 
L 469 0 
L 469 531 
Q 828 903 1448 1529 
Q 2069 2156 2228 2338 
Q 2531 2678 2651 2914 
Q 2772 3150 2772 3378 
Q 2772 3750 2511 3984 
Q 2250 4219 1831 4219 
Q 1534 4219 1204 4116 
Q 875 4013 500 3803 
L 500 4441 
Q 881 4594 1212 4672 
Q 1544 4750 1819 4750 
Q 2544 4750 2975 4387 
Q 3406 4025 3406 3419 
Q 3406 3131 3298 2873 
Q 3191 2616 2906 2266 
Q 2828 2175 2409 1742 
Q 1991 1309 1228 531 
z
" transform="scale(0.015625)"/>
     </defs>
     <use xlink:href="#DejaVuSans-32"/>
    </g>
   </g>
   <g id="text_4">
    <!-- 3 -->
    <g transform="translate(51.53875 200.039375) scale(0.1 -0.1)">
     <defs>
      <path id="DejaVuSans-33" d="M 2597 2516 
Q 3050 2419 3304 2112 
Q 3559 1806 3559 1356 
Q 3559 666 3084 287 
Q 2609 -91 1734 -91 
Q 1441 -91 1130 -33 
Q 819 25 488 141 
L 488 750 
Q 750 597 1062 519 
Q 1375 441 1716 441 
Q 2309 441 2620 675 
Q 2931 909 2931 1356 
Q 2931 1769 2642 2001 
Q 2353 2234 1838 2234 
L 1294 2234 
L 1294 2753 
L 1863 2753 
Q 2328 2753 2575 2939 
Q 2822 3125 2822 3475 
Q 2822 3834 2567 4026 
Q 2313 4219 1838 4219 
Q 1578 4219 1281 4162 
Q 984 4106 628 3988 
L 628 4550 
Q 988 4650 1302 4700 
Q 1616 4750 1894 4750 
Q 2613 4750 3031 4423 
Q 3450 4097 3450 3541 
Q 3450 3153 3228 2886 
Q 3006 2619 2597 2516 
z
" transform="scale(0.015625)"/>
     </defs>
     <use xlink:href="#DejaVuSans-33"/>
    </g>
   </g>
   <g id="text_5">
    <!-- 4 -->
    <g transform="translate(51.53875 247.559375) scale(0.1 -0.1)">
     <defs>
      <path id="DejaVuSans-34" d="M 2419 4116 
L 825 1625 
L 2419 1625 
L 2419 4116 
z
M 2253 4666 
L 3047 4666 
L 3047 1625 
L 3713 1625 
L 3713 1100 
L 3047 1100 
L 3047 0 
L 2419 0 
L 2419 1100 
L 313 1100 
L 313 1709 
L 2253 4666 
z
" transform="scale(0.015625)"/>
     </defs>
     <use xlink:href="#DejaVuSans-34"/>
    </g>
   </g>
  </g>
 </g>
 <defs>
  <clipPath id="p75e231e80d">
   <rect x="7.2" y="7.2" width="475.2" height="332.64"/>
  </clipPath>
 </defs>
</svg>
