<?xml version="1.0" encoding="utf-8" standalone="no"?>
<!DOCTYPE svg PUBLIC "-//W3C//DTD SVG 1.1//EN"
  "http://www.w3.org/Graphics/SVG/1.1/DTD/svg11.dtd">
<svg xmlns:xlink="http://www.w3.org/1999/xlink" width="280.8pt" height="280.8pt" viewBox="0 0 280.8 280.8" xmlns="http://www.w3.org/2000/svg" version="1.1">
 <metadata>
  <rdf:RDF xmlns:dc="http://purl.org/dc/elements/1.1/" xmlns:cc="http://creativecommons.org/ns#" xmlns:rdf="http://www.w3.org/1999/02/22-rdf-syntax-ns#">
   <cc:Work>
    <dc:type rdf:resource="http://purl.org/dc/dcmitype/StillImage"/>
    <dc:date>2023-11-08T12:20:24.848326</dc:date>
    <dc:format>image/svg+xml</dc:format>
    <dc:creator>
     <cc:Agent>
      <dc:title>Matplotlib v3.8.1, https://matplotlib.org/</dc:title>
     </cc:Agent>
    </dc:creator>
   </cc:Work>
  </rdf:RDF>
 </metadata>
 <defs>
  <style type="text/css">*{stroke-linejoin: round; stroke-linecap: butt}</style>
 </defs>
 <g id="figure_1">
  <g id="patch_1">
   <path d="M 0 280.8 
L 280.8 280.8 
L 280.8 0 
L 0 0 
L 0 280.8 
z
" style="fill: none"/>
  </g>
  <g id="axes_1">
   <g id="patch_2">
    <path d="M 241.309091 148.472727 
C 243.450003 148.472727 245.503518 147.622134 247.017371 146.10828 
C 248.531225 144.594427 249.381818 142.540912 249.381818 140.4 
C 249.381818 138.259088 248.531225 136.205573 247.017371 134.69172 
C 245.503518 133.177866 243.450003 132.327273 241.309091 132.327273 
C 239.168179 132.327273 237.114664 133.177866 235.600811 134.69172 
C 234.086957 136.205573 233.236364 138.259088 233.236364 140.4 
C 233.236364 142.540912 234.086957 144.594427 235.600811 146.10828 
C 237.114664 147.622134 239.168179 148.472727 241.309091 148.472727 
z
" clip-path="url(#pe2b37f582b)" style="fill: #ff7e79; stroke: #000000; stroke-width: 1.5; stroke-linejoin: miter"/>
   </g>
   <g id="patch_3">
    <path d="M 211.753502 77.119225 
C 213.894415 77.119225 215.947929 76.268631 217.461783 74.754778 
C 218.975636 73.240924 219.82623 71.18741 219.82623 69.046498 
C 219.82623 66.905585 218.975636 64.852071 217.461783 63.338217 
C 215.947929 61.824364 213.894415 60.97377 211.753502 60.97377 
C 209.61259 60.97377 207.559076 61.824364 206.045222 63.338217 
C 204.531369 64.852071 203.680775 66.905585 203.680775 69.046498 
C 203.680775 71.18741 204.531369 73.240924 206.045222 74.754778 
C 207.559076 76.268631 209.61259 77.119225 211.753502 77.119225 
z
" clip-path="url(#pe2b37f582b)" style="fill: #ff7e79; stroke: #000000; stroke-width: 1.5; stroke-linejoin: miter"/>
   </g>
   <g id="patch_4">
    <path d="M 140.4 47.563636 
C 142.540912 47.563636 144.594427 46.713043 146.10828 45.199189 
C 147.622134 43.685336 148.472727 41.631821 148.472727 39.490909 
C 148.472727 37.349997 147.622134 35.296482 146.10828 33.782629 
C 144.594427 32.268775 142.540912 31.418182 140.4 31.418182 
C 138.259088 31.418182 136.205573 32.268775 134.69172 33.782629 
C 133.177866 35.296482 132.327273 37.349997 132.327273 39.490909 
C 132.327273 41.631821 133.177866 43.685336 134.69172 45.199189 
C 136.205573 46.713043 138.259088 47.563636 140.4 47.563636 
z
" clip-path="url(#pe2b37f582b)" style="fill: #ff7e79; stroke: #000000; stroke-width: 1.5; stroke-linejoin: miter"/>
   </g>
   <g id="patch_5">
    <path d="M 69.046498 77.119225 
C 71.18741 77.119225 73.240924 76.268631 74.754778 74.754778 
C 76.268631 73.240924 77.119225 71.18741 77.119225 69.046498 
C 77.119225 66.905585 76.268631 64.852071 74.754778 63.338217 
C 73.240924 61.824364 71.18741 60.97377 69.046498 60.97377 
C 66.905585 60.97377 64.852071 61.824364 63.338217 63.338217 
C 61.824364 64.852071 60.97377 66.905585 60.97377 69.046498 
C 60.97377 71.18741 61.824364 73.240924 63.338217 74.754778 
C 64.852071 76.268631 66.905585 77.119225 69.046498 77.119225 
z
" clip-path="url(#pe2b37f582b)" style="fill: #ff7e79; stroke: #000000; stroke-width: 1.5; stroke-linejoin: miter"/>
   </g>
   <g id="patch_6">
    <path d="M 39.490909 152.509091 
C 42.702278 152.509091 45.782549 151.233201 48.053329 148.96242 
C 50.32411 146.69164 51.6 143.611368 51.6 140.4 
C 51.6 137.188632 50.32411 134.10836 48.053329 131.83758 
C 45.782549 129.566799 42.702278 128.290909 39.490909 128.290909 
C 36.279541 128.290909 33.199269 129.566799 30.928489 131.83758 
C 28.657708 134.10836 27.381818 137.188632 27.381818 140.4 
C 27.381818 143.611368 28.657708 146.69164 30.928489 148.96242 
C 33.199269 151.233201 36.279541 152.509091 39.490909 152.509091 
z
" clip-path="url(#pe2b37f582b)" style="fill: #ff7e79; stroke: #000000; stroke-width: 1.5; stroke-linejoin: miter"/>
   </g>
   <g id="patch_7">
    <path d="M 69.046498 223.862593 
C 72.257866 223.862593 75.338137 222.586703 77.608918 220.315923 
C 79.879698 218.045142 81.155588 214.964871 81.155588 211.753502 
C 81.155588 208.542134 79.879698 205.461863 77.608918 203.191082 
C 75.338137 200.920302 72.257866 199.644412 69.046498 199.644412 
C 65.835129 199.644412 62.754858 200.920302 60.484077 203.191082 
C 58.213297 205.461863 56.937407 208.542134 56.937407 211.753502 
C 56.937407 214.964871 58.213297 218.045142 60.484077 220.315923 
C 62.754858 222.586703 65.835129 223.862593 69.046498 223.862593 
z
" clip-path="url(#pe2b37f582b)" style="fill: #ff7e79; stroke: #000000; stroke-width: 1.5; stroke-linejoin: miter"/>
   </g>
   <g id="patch_8">
    <path d="M 140.4 253.418182 
C 143.611368 253.418182 146.69164 252.142292 148.96242 249.871511 
C 151.233201 247.600731 152.509091 244.520459 152.509091 241.309091 
C 152.509091 238.097722 151.233201 235.017451 148.96242 232.746671 
C 146.69164 230.47589 143.611368 229.2 140.4 229.2 
C 137.188632 229.2 134.10836 230.47589 131.83758 232.746671 
C 129.566799 235.017451 128.290909 238.097722 128.290909 241.309091 
C 128.290909 244.520459 129.566799 247.600731 131.83758 249.871511 
C 134.10836 252.142292 137.188632 253.418182 140.4 253.418182 
z
" clip-path="url(#pe2b37f582b)" style="fill: #ff7e79; stroke: #000000; stroke-width: 1.5; stroke-linejoin: miter"/>
   </g>
   <g id="patch_9">
    <path d="M 211.753502 223.862593 
C 214.964871 223.862593 218.045142 222.586703 220.315923 220.315923 
C 222.586703 218.045142 223.862593 214.964871 223.862593 211.753502 
C 223.862593 208.542134 222.586703 205.461863 220.315923 203.191082 
C 218.045142 200.920302 214.964871 199.644412 211.753502 199.644412 
C 208.542134 199.644412 205.461863 200.920302 203.191082 203.191082 
C 200.920302 205.461863 199.644412 208.542134 199.644412 211.753502 
C 199.644412 214.964871 200.920302 218.045142 203.191082 220.315923 
C 205.461863 222.586703 208.542134 223.862593 211.753502 223.862593 
z
" clip-path="url(#pe2b37f582b)" style="fill: #ff7e79; stroke: #000000; stroke-width: 1.5; stroke-linejoin: miter"/>
   </g>
   <g id="text_1">
    <!-- 0 -->
    <g transform="translate(236.537216 144.539062) scale(0.15 -0.15)">
     <defs>
      <path id="DejaVuSans-30" d="M 2034 4250 
Q 1547 4250 1301 3770 
Q 1056 3291 1056 2328 
Q 1056 1369 1301 889 
Q 1547 409 2034 409 
Q 2525 409 2770 889 
Q 3016 1369 3016 2328 
Q 3016 3291 2770 3770 
Q 2525 4250 2034 4250 
z
M 2034 4750 
Q 2819 4750 3233 4129 
Q 3647 3509 3647 2328 
Q 3647 1150 3233 529 
Q 2819 -91 2034 -91 
Q 1250 -91 836 529 
Q 422 1150 422 2328 
Q 422 3509 836 4129 
Q 1250 4750 2034 4750 
z
" transform="scale(0.015625)"/>
     </defs>
     <use xlink:href="#DejaVuSans-30"/>
    </g>
   </g>
   <g id="text_2">
    <!-- 1 -->
    <g transform="translate(206.981627 73.18556) scale(0.15 -0.15)">
     <defs>
      <path id="DejaVuSans-31" d="M 794 531 
L 1825 531 
L 1825 4091 
L 703 3866 
L 703 4441 
L 1819 4666 
L 2450 4666 
L 2450 531 
L 3481 531 
L 3481 0 
L 794 0 
L 794 531 
z
" transform="scale(0.015625)"/>
     </defs>
     <use xlink:href="#DejaVuSans-31"/>
    </g>
   </g>
   <g id="text_3">
    <!-- 2 -->
    <g transform="translate(135.628125 43.629972) scale(0.15 -0.15)">
     <defs>
      <path id="DejaVuSans-32" d="M 1228 531 
L 3431 531 
L 3431 0 
L 469 0 
L 469 531 
Q 828 903 1448 1529 
Q 2069 2156 2228 2338 
Q 2531 2678 2651 2914 
Q 2772 3150 2772 3378 
Q 2772 3750 2511 3984 
Q 2250 4219 1831 4219 
Q 1534 4219 1204 4116 
Q 875 4013 500 3803 
L 500 4441 
Q 881 4594 1212 4672 
Q 1544 4750 1819 4750 
Q 2544 4750 2975 4387 
Q 3406 4025 3406 3419 
Q 3406 3131 3298 2873 
Q 3191 2616 2906 2266 
Q 2828 2175 2409 1742 
Q 1991 1309 1228 531 
z
" transform="scale(0.015625)"/>
     </defs>
     <use xlink:href="#DejaVuSans-32"/>
    </g>
   </g>
   <g id="text_4">
    <!-- 3 -->
    <g transform="translate(64.274623 73.18556) scale(0.15 -0.15)">
     <defs>
      <path id="DejaVuSans-33" d="M 2597 2516 
Q 3050 2419 3304 2112 
Q 3559 1806 3559 1356 
Q 3559 666 3084 287 
Q 2609 -91 1734 -91 
Q 1441 -91 1130 -33 
Q 819 25 488 141 
L 488 750 
Q 750 597 1062 519 
Q 1375 441 1716 441 
Q 2309 441 2620 675 
Q 2931 909 2931 1356 
Q 2931 1769 2642 2001 
Q 2353 2234 1838 2234 
L 1294 2234 
L 1294 2753 
L 1863 2753 
Q 2328 2753 2575 2939 
Q 2822 3125 2822 3475 
Q 2822 3834 2567 4026 
Q 2313 4219 1838 4219 
Q 1578 4219 1281 4162 
Q 984 4106 628 3988 
L 628 4550 
Q 988 4650 1302 4700 
Q 1616 4750 1894 4750 
Q 2613 4750 3031 4423 
Q 3450 4097 3450 3541 
Q 3450 3153 3228 2886 
Q 3006 2619 2597 2516 
z
" transform="scale(0.015625)"/>
     </defs>
     <use xlink:href="#DejaVuSans-33"/>
    </g>
   </g>
   <g id="text_5">
    <!-- 4 -->
    <g transform="translate(34.719034 144.539062) scale(0.15 -0.15)">
     <defs>
      <path id="DejaVuSans-34" d="M 2419 4116 
L 825 1625 
L 2419 1625 
L 2419 4116 
z
M 2253 4666 
L 3047 4666 
L 3047 1625 
L 3713 1625 
L 3713 1100 
L 3047 1100 
L 3047 0 
L 2419 0 
L 2419 1100 
L 313 1100 
L 313 1709 
L 2253 4666 
z
" transform="scale(0.015625)"/>
     </defs>
     <use xlink:href="#DejaVuSans-34"/>
    </g>
   </g>
   <g id="text_6">
    <!-- 5 -->
    <g transform="translate(64.274623 215.892565) scale(0.15 -0.15)">
     <defs>
      <path id="DejaVuSans-35" d="M 691 4666 
L 3169 4666 
L 3169 4134 
L 1269 4134 
L 1269 2991 
Q 1406 3038 1543 3061 
Q 1681 3084 1819 3084 
Q 2600 3084 3056 2656 
Q 3513 2228 3513 1497 
Q 3513 744 3044 326 
Q 2575 -91 1722 -91 
Q 1428 -91 1123 -41 
Q 819 9 494 109 
L 494 744 
Q 775 591 1075 516 
Q 1375 441 1709 441 
Q 2250 441 2565 725 
Q 2881 1009 2881 1497 
Q 2881 1984 2565 2268 
Q 2250 2553 1709 2553 
Q 1456 2553 1204 2497 
Q 953 2441 691 2322 
L 691 4666 
z
" transform="scale(0.015625)"/>
     </defs>
     <use xlink:href="#DejaVuSans-35"/>
    </g>
   </g>
   <g id="text_7">
    <!-- 6 -->
    <g transform="translate(135.628125 245.448153) scale(0.15 -0.15)">
     <defs>
      <path id="DejaVuSans-36" d="M 2113 2584 
Q 1688 2584 1439 2293 
Q 1191 2003 1191 1497 
Q 1191 994 1439 701 
Q 1688 409 2113 409 
Q 2538 409 2786 701 
Q 3034 994 3034 1497 
Q 3034 2003 2786 2293 
Q 2538 2584 2113 2584 
z
M 3366 4563 
L 3366 3988 
Q 3128 4100 2886 4159 
Q 2644 4219 2406 4219 
Q 1781 4219 1451 3797 
Q 1122 3375 1075 2522 
Q 1259 2794 1537 2939 
Q 1816 3084 2150 3084 
Q 2853 3084 3261 2657 
Q 3669 2231 3669 1497 
Q 3669 778 3244 343 
Q 2819 -91 2113 -91 
Q 1303 -91 875 529 
Q 447 1150 447 2328 
Q 447 3434 972 4092 
Q 1497 4750 2381 4750 
Q 2619 4750 2861 4703 
Q 3103 4656 3366 4563 
z
" transform="scale(0.015625)"/>
     </defs>
     <use xlink:href="#DejaVuSans-36"/>
    </g>
   </g>
   <g id="text_8">
    <!-- 7 -->
    <g transform="translate(206.981627 215.892565) scale(0.15 -0.15)">
     <defs>
      <path id="DejaVuSans-37" d="M 525 4666 
L 3525 4666 
L 3525 4397 
L 1831 0 
L 1172 0 
L 2766 4134 
L 525 4134 
L 525 4666 
z
" transform="scale(0.015625)"/>
     </defs>
     <use xlink:href="#DejaVuSans-37"/>
    </g>
   </g>
  </g>
 </g>
 <defs>
  <clipPath id="pe2b37f582b">
   <rect x="7.2" y="7.2" width="266.4" height="266.4"/>
  </clipPath>
 </defs>
</svg>
