<?xml version="1.0" encoding="utf-8" standalone="no"?>
<!DOCTYPE svg PUBLIC "-//W3C//DTD SVG 1.1//EN"
  "http://www.w3.org/Graphics/SVG/1.1/DTD/svg11.dtd">
<svg xmlns:xlink="http://www.w3.org/1999/xlink" width="915.451985pt" height="403.773595pt" viewBox="0 0 915.451985 403.773595" xmlns="http://www.w3.org/2000/svg" version="1.1">
 <metadata>
  <rdf:RDF xmlns:dc="http://purl.org/dc/elements/1.1/" xmlns:cc="http://creativecommons.org/ns#" xmlns:rdf="http://www.w3.org/1999/02/22-rdf-syntax-ns#">
   <cc:Work>
    <dc:type rdf:resource="http://purl.org/dc/dcmitype/StillImage"/>
    <dc:date>2023-11-08T12:20:27.510296</dc:date>
    <dc:format>image/svg+xml</dc:format>
    <dc:creator>
     <cc:Agent>
      <dc:title>Matplotlib v3.8.1, https://matplotlib.org/</dc:title>
     </cc:Agent>
    </dc:creator>
   </cc:Work>
  </rdf:RDF>
 </metadata>
 <defs>
  <style type="text/css">*{stroke-linejoin: round; stroke-linecap: butt}</style>
 </defs>
 <g id="figure_1">
  <g id="patch_1">
   <path d="M 0 403.773595 
L 915.451985 403.773595 
L 915.451985 0 
L 0 0 
L 0 403.773595 
z
" style="fill: none"/>
  </g>
  <g id="axes_1">
   <g id="line2d_1">
    <path d="M 64.609196 44.2832 
L 903.616585 44.2832 
" clip-path="url(#p47d5793ad6)" style="fill: none; stroke: #000000; stroke-width: 2; stroke-linecap: square"/>
   </g>
   <g id="line2d_2">
    <path d="M 64.609196 90.637199 
L 903.616585 90.637199 
" clip-path="url(#p47d5793ad6)" style="fill: none; stroke: #000000; stroke-width: 2; stroke-linecap: square"/>
   </g>
   <g id="line2d_3">
    <path d="M 64.609196 136.991198 
L 903.616585 136.991198 
" clip-path="url(#p47d5793ad6)" style="fill: none; stroke: #000000; stroke-width: 2; stroke-linecap: square"/>
   </g>
   <g id="line2d_4">
    <path d="M 64.609196 183.345198 
L 903.616585 183.345198 
" clip-path="url(#p47d5793ad6)" style="fill: none; stroke: #000000; stroke-width: 2; stroke-linecap: square"/>
   </g>
   <g id="line2d_5">
    <path d="M 64.609196 229.699197 
L 903.616585 229.699197 
" clip-path="url(#p47d5793ad6)" style="fill: none; stroke: #000000; stroke-width: 2; stroke-linecap: square"/>
   </g>
   <g id="line2d_6">
    <path d="M 64.609196 276.053196 
L 903.616585 276.053196 
" clip-path="url(#p47d5793ad6)" style="fill: none; stroke: #000000; stroke-width: 2; stroke-linecap: square"/>
   </g>
   <g id="line2d_7">
    <path d="M 64.609196 322.407196 
L 903.616585 322.407196 
" clip-path="url(#p47d5793ad6)" style="fill: none; stroke: #000000; stroke-width: 2; stroke-linecap: square"/>
   </g>
   <g id="line2d_8">
    <path d="M 64.609196 368.761195 
L 903.616585 368.761195 
" clip-path="url(#p47d5793ad6)" style="fill: none; stroke: #000000; stroke-width: 2; stroke-linecap: square"/>
   </g>
   <g id="patch_2">
    <path d="M 59.973797 21.1062 
L -1 21.1062 
M 59.973797 404.773595 
L 59.973797 21.1062 
" clip-path="url(#p47d5793ad6)" style="fill: none"/>
   </g>
   <g id="line2d_9">
    <path d="M 89.640356 90.637199 
L 89.640356 44.2832 
" clip-path="url(#p47d5793ad6)" style="fill: none; stroke: #bb8bff; stroke-width: 2; stroke-linecap: square"/>
   </g>
   <g id="line2d_10">
    <path d="M 135.994356 136.991198 
L 135.994356 90.637199 
" clip-path="url(#p47d5793ad6)" style="fill: none; stroke: #bb8bff; stroke-width: 2; stroke-linecap: square"/>
   </g>
   <g id="line2d_11">
    <path d="M 182.348355 183.345198 
L 182.348355 136.991198 
" clip-path="url(#p47d5793ad6)" style="fill: none; stroke: #bb8bff; stroke-width: 2; stroke-linecap: square"/>
   </g>
   <g id="line2d_12">
    <path d="M 228.702354 229.699197 
L 228.702354 183.345198 
" clip-path="url(#p47d5793ad6)" style="fill: none; stroke: #bb8bff; stroke-width: 2; stroke-linecap: square"/>
   </g>
   <g id="line2d_13">
    <path d="M 275.056354 276.053196 
L 275.056354 229.699197 
" clip-path="url(#p47d5793ad6)" style="fill: none; stroke: #bb8bff; stroke-width: 2; stroke-linecap: square"/>
   </g>
   <g id="line2d_14">
    <path d="M 321.410353 322.407196 
L 321.410353 276.053196 
" clip-path="url(#p47d5793ad6)" style="fill: none; stroke: #bb8bff; stroke-width: 2; stroke-linecap: square"/>
   </g>
   <g id="line2d_15">
    <path d="M 367.764352 368.761195 
L 367.764352 322.407196 
" clip-path="url(#p47d5793ad6)" style="fill: none; stroke: #bb8bff; stroke-width: 2; stroke-linecap: square"/>
   </g>
   <g id="line2d_16">
    <path d="M 414.118352 368.761195 
L 414.118352 44.2832 
" clip-path="url(#p47d5793ad6)" style="fill: none; stroke: #bb8bff; stroke-width: 2; stroke-linecap: square"/>
   </g>
   <g id="line2d_17">
    <path d="M 506.826351 229.699197 
L 506.826351 44.2832 
" clip-path="url(#p47d5793ad6)" style="fill: none; stroke: #6fa4ff; stroke-width: 2; stroke-linecap: square"/>
   </g>
   <g id="line2d_18">
    <path d="M 553.18035 276.053196 
L 553.18035 90.637199 
" clip-path="url(#p47d5793ad6)" style="fill: none; stroke: #6fa4ff; stroke-width: 2; stroke-linecap: square"/>
   </g>
   <g id="line2d_19">
    <path d="M 599.534349 322.407196 
L 599.534349 136.991198 
" clip-path="url(#p47d5793ad6)" style="fill: none; stroke: #6fa4ff; stroke-width: 2; stroke-linecap: square"/>
   </g>
   <g id="line2d_20">
    <path d="M 645.888349 368.761195 
L 645.888349 183.345198 
" clip-path="url(#p47d5793ad6)" style="fill: none; stroke: #6fa4ff; stroke-width: 2; stroke-linecap: square"/>
   </g>
   <g id="line2d_21">
    <path d="M 738.596348 90.637199 
L 738.596348 44.2832 
" clip-path="url(#p47d5793ad6)" style="fill: none; stroke: #bb8bff; stroke-width: 2; stroke-linecap: square"/>
   </g>
   <g id="line2d_22">
    <path d="M 784.950347 136.991198 
L 784.950347 90.637199 
" clip-path="url(#p47d5793ad6)" style="fill: none; stroke: #bb8bff; stroke-width: 2; stroke-linecap: square"/>
   </g>
   <g id="line2d_23">
    <path d="M 831.304346 183.345198 
L 831.304346 136.991198 
" clip-path="url(#p47d5793ad6)" style="fill: none; stroke: #bb8bff; stroke-width: 2; stroke-linecap: square"/>
   </g>
   <g id="line2d_24">
    <path d="M 877.658346 183.345198 
L 877.658346 44.2832 
" clip-path="url(#p47d5793ad6)" style="fill: none; stroke: #bb8bff; stroke-width: 2; stroke-linecap: square"/>
   </g>
   <g id="patch_3">
    <path d="M 451.433321 67.460199 
L 469.511381 67.460199 
L 469.511381 21.1062 
L 451.433321 21.1062 
z
" clip-path="url(#p47d5793ad6)" style="fill: #bdbdbd; opacity: 0.6"/>
   </g>
   <g id="patch_4">
    <path d="M 451.433321 113.814199 
L 469.511381 113.814199 
L 469.511381 67.460199 
L 451.433321 67.460199 
z
" clip-path="url(#p47d5793ad6)" style="fill: #bdbdbd; opacity: 0.6"/>
   </g>
   <g id="patch_5">
    <path d="M 451.433321 160.168198 
L 469.511381 160.168198 
L 469.511381 113.814199 
L 451.433321 113.814199 
z
" clip-path="url(#p47d5793ad6)" style="fill: #bdbdbd; opacity: 0.6"/>
   </g>
   <g id="patch_6">
    <path d="M 451.433321 206.522197 
L 469.511381 206.522197 
L 469.511381 160.168198 
L 451.433321 160.168198 
z
" clip-path="url(#p47d5793ad6)" style="fill: #bdbdbd; opacity: 0.6"/>
   </g>
   <g id="patch_7">
    <path d="M 451.433321 252.876197 
L 469.511381 252.876197 
L 469.511381 206.522197 
L 451.433321 206.522197 
z
" clip-path="url(#p47d5793ad6)" style="fill: #bdbdbd; opacity: 0.6"/>
   </g>
   <g id="patch_8">
    <path d="M 451.433321 299.230196 
L 469.511381 299.230196 
L 469.511381 252.876197 
L 451.433321 252.876197 
z
" clip-path="url(#p47d5793ad6)" style="fill: #bdbdbd; opacity: 0.6"/>
   </g>
   <g id="patch_9">
    <path d="M 451.433321 345.584196 
L 469.511381 345.584196 
L 469.511381 299.230196 
L 451.433321 299.230196 
z
" clip-path="url(#p47d5793ad6)" style="fill: #bdbdbd; opacity: 0.6"/>
   </g>
   <g id="patch_10">
    <path d="M 451.433321 391.938195 
L 469.511381 391.938195 
L 469.511381 345.584196 
L 451.433321 345.584196 
z
" clip-path="url(#p47d5793ad6)" style="fill: #bdbdbd; opacity: 0.6"/>
   </g>
   <g id="patch_11">
    <path d="M 683.203318 67.460199 
L 701.281378 67.460199 
L 701.281378 21.1062 
L 683.203318 21.1062 
z
" clip-path="url(#p47d5793ad6)" style="fill: #bdbdbd; opacity: 0.6"/>
   </g>
   <g id="patch_12">
    <path d="M 683.203318 113.814199 
L 701.281378 113.814199 
L 701.281378 67.460199 
L 683.203318 67.460199 
z
" clip-path="url(#p47d5793ad6)" style="fill: #bdbdbd; opacity: 0.6"/>
   </g>
   <g id="patch_13">
    <path d="M 683.203318 160.168198 
L 701.281378 160.168198 
L 701.281378 113.814199 
L 683.203318 113.814199 
z
" clip-path="url(#p47d5793ad6)" style="fill: #bdbdbd; opacity: 0.6"/>
   </g>
   <g id="patch_14">
    <path d="M 683.203318 206.522197 
L 701.281378 206.522197 
L 701.281378 160.168198 
L 683.203318 160.168198 
z
" clip-path="url(#p47d5793ad6)" style="fill: #bdbdbd; opacity: 0.6"/>
   </g>
   <g id="patch_15">
    <path d="M 683.203318 252.876197 
L 701.281378 252.876197 
L 701.281378 206.522197 
L 683.203318 206.522197 
z
" clip-path="url(#p47d5793ad6)" style="fill: #bdbdbd; opacity: 0.6"/>
   </g>
   <g id="patch_16">
    <path d="M 683.203318 299.230196 
L 701.281378 299.230196 
L 701.281378 252.876197 
L 683.203318 252.876197 
z
" clip-path="url(#p47d5793ad6)" style="fill: #bdbdbd; opacity: 0.6"/>
   </g>
   <g id="patch_17">
    <path d="M 683.203318 345.584196 
L 701.281378 345.584196 
L 701.281378 299.230196 
L 683.203318 299.230196 
z
" clip-path="url(#p47d5793ad6)" style="fill: #bdbdbd; opacity: 0.6"/>
   </g>
   <g id="patch_18">
    <path d="M 683.203318 391.938195 
L 701.281378 391.938195 
L 701.281378 345.584196 
L 683.203318 345.584196 
z
" clip-path="url(#p47d5793ad6)" style="fill: #bdbdbd; opacity: 0.6"/>
   </g>
   <g id="patch_19">
    <path d="M 89.640356 48.802714 
C 90.838946 48.802714 91.988605 48.32651 92.836136 47.478979 
C 93.683666 46.631448 94.159871 45.481789 94.159871 44.2832 
C 94.159871 43.08461 93.683666 41.934951 92.836136 41.08742 
C 91.988605 40.239889 90.838946 39.763685 89.640356 39.763685 
C 88.441767 39.763685 87.292107 40.239889 86.444576 41.08742 
C 85.597046 41.934951 85.120841 43.08461 85.120841 44.2832 
C 85.120841 45.481789 85.597046 46.631448 86.444576 47.478979 
C 87.292107 48.32651 88.441767 48.802714 89.640356 48.802714 
z
" clip-path="url(#p47d5793ad6)" style="fill: #bb8bff; stroke: #bb8bff; stroke-width: 1.5; stroke-linejoin: miter"/>
   </g>
   <g id="patch_20">
    <path d="M 74.575306 105.702249 
L 104.705406 105.702249 
L 104.705406 75.572149 
L 74.575306 75.572149 
z
" clip-path="url(#p47d5793ad6)" style="fill: #bb8bff; stroke: #bb8bff; stroke-width: 1.5; stroke-linejoin: miter"/>
   </g>
   <g id="patch_21">
    <path d="M 135.994356 95.156714 
C 137.192945 95.156714 138.342605 94.680509 139.190135 93.832979 
C 140.037666 92.985448 140.51387 91.835788 140.51387 90.637199 
C 140.51387 89.43861 140.037666 88.28895 139.190135 87.441419 
C 138.342605 86.593889 137.192945 86.117684 135.994356 86.117684 
C 134.795766 86.117684 133.646107 86.593889 132.798576 87.441419 
C 131.951045 88.28895 131.474841 89.43861 131.474841 90.637199 
C 131.474841 91.835788 131.951045 92.985448 132.798576 93.832979 
C 133.646107 94.680509 134.795766 95.156714 135.994356 95.156714 
z
" clip-path="url(#p47d5793ad6)" style="fill: #bb8bff; stroke: #bb8bff; stroke-width: 1.5; stroke-linejoin: miter"/>
   </g>
   <g id="patch_22">
    <path d="M 120.929306 152.056248 
L 151.059405 152.056248 
L 151.059405 121.926148 
L 120.929306 121.926148 
z
" clip-path="url(#p47d5793ad6)" style="fill: #bb8bff; stroke: #bb8bff; stroke-width: 1.5; stroke-linejoin: miter"/>
   </g>
   <g id="patch_23">
    <path d="M 182.348355 141.510713 
C 183.546944 141.510713 184.696604 141.034509 185.544135 140.186978 
C 186.391665 139.339447 186.86787 138.189788 186.86787 136.991198 
C 186.86787 135.792609 186.391665 134.642949 185.544135 133.795419 
C 184.696604 132.947888 183.546944 132.471683 182.348355 132.471683 
C 181.149766 132.471683 180.000106 132.947888 179.152575 133.795419 
C 178.305045 134.642949 177.82884 135.792609 177.82884 136.991198 
C 177.82884 138.189788 178.305045 139.339447 179.152575 140.186978 
C 180.000106 141.034509 181.149766 141.510713 182.348355 141.510713 
z
" clip-path="url(#p47d5793ad6)" style="fill: #bb8bff; stroke: #bb8bff; stroke-width: 1.5; stroke-linejoin: miter"/>
   </g>
   <g id="patch_24">
    <path d="M 167.283305 198.410247 
L 197.413405 198.410247 
L 197.413405 168.280148 
L 167.283305 168.280148 
z
" clip-path="url(#p47d5793ad6)" style="fill: #bb8bff; stroke: #bb8bff; stroke-width: 1.5; stroke-linejoin: miter"/>
   </g>
   <g id="patch_25">
    <path d="M 228.702354 187.864713 
C 229.900944 187.864713 231.050603 187.388508 231.898134 186.540977 
C 232.745665 185.693447 233.221869 184.543787 233.221869 183.345198 
C 233.221869 182.146608 232.745665 180.996949 231.898134 180.149418 
C 231.050603 179.301887 229.900944 178.825683 228.702354 178.825683 
C 227.503765 178.825683 226.354105 179.301887 225.506575 180.149418 
C 224.659044 180.996949 224.182839 182.146608 224.182839 183.345198 
C 224.182839 184.543787 224.659044 185.693447 225.506575 186.540977 
C 226.354105 187.388508 227.503765 187.864713 228.702354 187.864713 
z
" clip-path="url(#p47d5793ad6)" style="fill: #bb8bff; stroke: #bb8bff; stroke-width: 1.5; stroke-linejoin: miter"/>
   </g>
   <g id="patch_26">
    <path d="M 213.637304 244.764247 
L 243.767404 244.764247 
L 243.767404 214.634147 
L 213.637304 214.634147 
z
" clip-path="url(#p47d5793ad6)" style="fill: #bb8bff; stroke: #bb8bff; stroke-width: 1.5; stroke-linejoin: miter"/>
   </g>
   <g id="patch_27">
    <path d="M 275.056354 234.218712 
C 276.254943 234.218712 277.404603 233.742507 278.252133 232.894977 
C 279.099664 232.047446 279.575869 230.897786 279.575869 229.699197 
C 279.575869 228.500608 279.099664 227.350948 278.252133 226.503417 
C 277.404603 225.655887 276.254943 225.179682 275.056354 225.179682 
C 273.857764 225.179682 272.708105 225.655887 271.860574 226.503417 
C 271.013043 227.350948 270.536839 228.500608 270.536839 229.699197 
C 270.536839 230.897786 271.013043 232.047446 271.860574 232.894977 
C 272.708105 233.742507 273.857764 234.218712 275.056354 234.218712 
z
" clip-path="url(#p47d5793ad6)" style="fill: #bb8bff; stroke: #bb8bff; stroke-width: 1.5; stroke-linejoin: miter"/>
   </g>
   <g id="patch_28">
    <path d="M 259.991304 291.118246 
L 290.121403 291.118246 
L 290.121403 260.988147 
L 259.991304 260.988147 
z
" clip-path="url(#p47d5793ad6)" style="fill: #bb8bff; stroke: #bb8bff; stroke-width: 1.5; stroke-linejoin: miter"/>
   </g>
   <g id="patch_29">
    <path d="M 321.410353 280.572711 
C 322.608942 280.572711 323.758602 280.096507 324.606133 279.248976 
C 325.453663 278.401445 325.929868 277.251786 325.929868 276.053196 
C 325.929868 274.854607 325.453663 273.704947 324.606133 272.857417 
C 323.758602 272.009886 322.608942 271.533681 321.410353 271.533681 
C 320.211764 271.533681 319.062104 272.009886 318.214573 272.857417 
C 317.367043 273.704947 316.890838 274.854607 316.890838 276.053196 
C 316.890838 277.251786 317.367043 278.401445 318.214573 279.248976 
C 319.062104 280.096507 320.211764 280.572711 321.410353 280.572711 
z
" clip-path="url(#p47d5793ad6)" style="fill: #bb8bff; stroke: #bb8bff; stroke-width: 1.5; stroke-linejoin: miter"/>
   </g>
   <g id="patch_30">
    <path d="M 306.345303 337.472246 
L 336.475403 337.472246 
L 336.475403 307.342146 
L 306.345303 307.342146 
z
" clip-path="url(#p47d5793ad6)" style="fill: #bb8bff; stroke: #bb8bff; stroke-width: 1.5; stroke-linejoin: miter"/>
   </g>
   <g id="patch_31">
    <path d="M 367.764352 326.926711 
C 368.962942 326.926711 370.112601 326.450506 370.960132 325.602975 
C 371.807663 324.755445 372.283867 323.605785 372.283867 322.407196 
C 372.283867 321.208606 371.807663 320.058947 370.960132 319.211416 
C 370.112601 318.363885 368.962942 317.887681 367.764352 317.887681 
C 366.565763 317.887681 365.416103 318.363885 364.568573 319.211416 
C 363.721042 320.058947 363.244837 321.208606 363.244837 322.407196 
C 363.244837 323.605785 363.721042 324.755445 364.568573 325.602975 
C 365.416103 326.450506 366.565763 326.926711 367.764352 326.926711 
z
" clip-path="url(#p47d5793ad6)" style="fill: #bb8bff; stroke: #bb8bff; stroke-width: 1.5; stroke-linejoin: miter"/>
   </g>
   <g id="patch_32">
    <path d="M 352.699303 383.826245 
L 382.829402 383.826245 
L 382.829402 353.696145 
L 352.699303 353.696145 
z
" clip-path="url(#p47d5793ad6)" style="fill: #bb8bff; stroke: #bb8bff; stroke-width: 1.5; stroke-linejoin: miter"/>
   </g>
   <g id="patch_33">
    <path d="M 414.118352 373.28071 
C 415.316941 373.28071 416.466601 372.804506 417.314131 371.956975 
C 418.161662 371.109444 418.637867 369.959785 418.637867 368.761195 
C 418.637867 367.562606 418.161662 366.412946 417.314131 365.565416 
C 416.466601 364.717885 415.316941 364.24168 414.118352 364.24168 
C 412.919762 364.24168 411.770103 364.717885 410.922572 365.565416 
C 410.075041 366.412946 409.598837 367.562606 409.598837 368.761195 
C 409.598837 369.959785 410.075041 371.109444 410.922572 371.956975 
C 411.770103 372.804506 412.919762 373.28071 414.118352 373.28071 
z
" clip-path="url(#p47d5793ad6)" style="fill: #bb8bff; stroke: #bb8bff; stroke-width: 1.5; stroke-linejoin: miter"/>
   </g>
   <g id="patch_34">
    <path d="M 399.053302 59.348249 
L 429.183402 59.348249 
L 429.183402 29.21815 
L 399.053302 29.21815 
z
" clip-path="url(#p47d5793ad6)" style="fill: #bb8bff; stroke: #bb8bff; stroke-width: 1.5; stroke-linejoin: miter"/>
   </g>
   <g id="patch_35">
    <path d="M 506.826351 234.218712 
C 508.02494 234.218712 509.1746 233.742507 510.02213 232.894977 
C 510.869661 232.047446 511.345866 230.897786 511.345866 229.699197 
C 511.345866 228.500608 510.869661 227.350948 510.02213 226.503417 
C 509.1746 225.655887 508.02494 225.179682 506.826351 225.179682 
C 505.627761 225.179682 504.478102 225.655887 503.630571 226.503417 
C 502.78304 227.350948 502.306836 228.500608 502.306836 229.699197 
C 502.306836 230.897786 502.78304 232.047446 503.630571 232.894977 
C 504.478102 233.742507 505.627761 234.218712 506.826351 234.218712 
z
" clip-path="url(#p47d5793ad6)" style="fill: #6fa4ff; stroke: #6fa4ff; stroke-width: 1.5; stroke-linejoin: miter"/>
   </g>
   <g id="patch_36">
    <path d="M 506.826351 54.828734 
C 509.623059 54.828734 512.305598 53.71759 514.28317 51.740019 
C 516.260741 49.762447 517.371885 47.079908 517.371885 44.2832 
C 517.371885 41.486491 516.260741 38.803952 514.28317 36.82638 
C 512.305598 34.848809 509.623059 33.737665 506.826351 33.737665 
C 504.029642 33.737665 501.347103 34.848809 499.369531 36.82638 
C 497.39196 38.803952 496.280816 41.486491 496.280816 44.2832 
C 496.280816 47.079908 497.39196 49.762447 499.369531 51.740019 
C 501.347103 53.71759 504.029642 54.828734 506.826351 54.828734 
z
" clip-path="url(#p47d5793ad6)" style="fill: #6fa4ff; stroke: #6fa4ff; stroke-width: 2; stroke-linejoin: miter"/>
   </g>
   <g id="patch_37">
    <path d="M 553.18035 280.572711 
C 554.378939 280.572711 555.528599 280.096507 556.37613 279.248976 
C 557.22366 278.401445 557.699865 277.251786 557.699865 276.053196 
C 557.699865 274.854607 557.22366 273.704947 556.37613 272.857417 
C 555.528599 272.009886 554.378939 271.533681 553.18035 271.533681 
C 551.981761 271.533681 550.832101 272.009886 549.98457 272.857417 
C 549.13704 273.704947 548.660835 274.854607 548.660835 276.053196 
C 548.660835 277.251786 549.13704 278.401445 549.98457 279.248976 
C 550.832101 280.096507 551.981761 280.572711 553.18035 280.572711 
z
" clip-path="url(#p47d5793ad6)" style="fill: #6fa4ff; stroke: #6fa4ff; stroke-width: 1.5; stroke-linejoin: miter"/>
   </g>
   <g id="patch_38">
    <path d="M 553.18035 101.182734 
C 555.977059 101.182734 558.659598 100.07159 560.637169 98.094018 
C 562.614741 96.116447 563.725885 93.433907 563.725885 90.637199 
C 563.725885 87.84049 562.614741 85.157951 560.637169 83.18038 
C 558.659598 81.202808 555.977059 80.091664 553.18035 80.091664 
C 550.383641 80.091664 547.701102 81.202808 545.723531 83.18038 
C 543.745959 85.157951 542.634815 87.84049 542.634815 90.637199 
C 542.634815 93.433907 543.745959 96.116447 545.723531 98.094018 
C 547.701102 100.07159 550.383641 101.182734 553.18035 101.182734 
z
" clip-path="url(#p47d5793ad6)" style="fill: #6fa4ff; stroke: #6fa4ff; stroke-width: 2; stroke-linejoin: miter"/>
   </g>
   <g id="patch_39">
    <path d="M 599.534349 326.926711 
C 600.732939 326.926711 601.882598 326.450506 602.730129 325.602975 
C 603.57766 324.755445 604.053864 323.605785 604.053864 322.407196 
C 604.053864 321.208606 603.57766 320.058947 602.730129 319.211416 
C 601.882598 318.363885 600.732939 317.887681 599.534349 317.887681 
C 598.33576 317.887681 597.1861 318.363885 596.33857 319.211416 
C 595.491039 320.058947 595.014834 321.208606 595.014834 322.407196 
C 595.014834 323.605785 595.491039 324.755445 596.33857 325.602975 
C 597.1861 326.450506 598.33576 326.926711 599.534349 326.926711 
z
" clip-path="url(#p47d5793ad6)" style="fill: #6fa4ff; stroke: #6fa4ff; stroke-width: 1.5; stroke-linejoin: miter"/>
   </g>
   <g id="patch_40">
    <path d="M 599.534349 147.536733 
C 602.331058 147.536733 605.013597 146.425589 606.991169 144.448017 
C 608.96874 142.470446 610.079884 139.787907 610.079884 136.991198 
C 610.079884 134.19449 608.96874 131.511951 606.991169 129.534379 
C 605.013597 127.556807 602.331058 126.445663 599.534349 126.445663 
C 596.737641 126.445663 594.055102 127.556807 592.07753 129.534379 
C 590.099959 131.511951 588.988814 134.19449 588.988814 136.991198 
C 588.988814 139.787907 590.099959 142.470446 592.07753 144.448017 
C 594.055102 146.425589 596.737641 147.536733 599.534349 147.536733 
z
" clip-path="url(#p47d5793ad6)" style="fill: #6fa4ff; stroke: #6fa4ff; stroke-width: 2; stroke-linejoin: miter"/>
   </g>
   <g id="patch_41">
    <path d="M 645.888349 373.28071 
C 647.086938 373.28071 648.236598 372.804506 649.084128 371.956975 
C 649.931659 371.109444 650.407864 369.959785 650.407864 368.761195 
C 650.407864 367.562606 649.931659 366.412946 649.084128 365.565416 
C 648.236598 364.717885 647.086938 364.24168 645.888349 364.24168 
C 644.689759 364.24168 643.5401 364.717885 642.692569 365.565416 
C 641.845038 366.412946 641.368834 367.562606 641.368834 368.761195 
C 641.368834 369.959785 641.845038 371.109444 642.692569 371.956975 
C 643.5401 372.804506 644.689759 373.28071 645.888349 373.28071 
z
" clip-path="url(#p47d5793ad6)" style="fill: #6fa4ff; stroke: #6fa4ff; stroke-width: 1.5; stroke-linejoin: miter"/>
   </g>
   <g id="patch_42">
    <path d="M 645.888349 193.890733 
C 648.685057 193.890733 651.367596 192.779588 653.345168 190.802017 
C 655.32274 188.824445 656.433884 186.141906 656.433884 183.345198 
C 656.433884 180.548489 655.32274 177.86595 653.345168 175.888378 
C 651.367596 173.910807 648.685057 172.799663 645.888349 172.799663 
C 643.09164 172.799663 640.409101 173.910807 638.43153 175.888378 
C 636.453958 177.86595 635.342814 180.548489 635.342814 183.345198 
C 635.342814 186.141906 636.453958 188.824445 638.43153 190.802017 
C 640.409101 192.779588 643.09164 193.890733 645.888349 193.890733 
z
" clip-path="url(#p47d5793ad6)" style="fill: #6fa4ff; stroke: #6fa4ff; stroke-width: 2; stroke-linejoin: miter"/>
   </g>
   <g id="patch_43">
    <path d="M 738.596348 48.802714 
C 739.794937 48.802714 740.944596 48.32651 741.792127 47.478979 
C 742.639658 46.631448 743.115862 45.481789 743.115862 44.2832 
C 743.115862 43.08461 742.639658 41.934951 741.792127 41.08742 
C 740.944596 40.239889 739.794937 39.763685 738.596348 39.763685 
C 737.397758 39.763685 736.248099 40.239889 735.400568 41.08742 
C 734.553037 41.934951 734.076833 43.08461 734.076833 44.2832 
C 734.076833 45.481789 734.553037 46.631448 735.400568 47.478979 
C 736.248099 48.32651 737.397758 48.802714 738.596348 48.802714 
z
" clip-path="url(#p47d5793ad6)" style="fill: #bb8bff; stroke: #bb8bff; stroke-width: 1.5; stroke-linejoin: miter"/>
   </g>
   <g id="patch_44">
    <path d="M 723.531298 105.702249 
L 753.661397 105.702249 
L 753.661397 75.572149 
L 723.531298 75.572149 
z
" clip-path="url(#p47d5793ad6)" style="fill: #bb8bff; stroke: #bb8bff; stroke-width: 1.5; stroke-linejoin: miter"/>
   </g>
   <g id="patch_45">
    <path d="M 784.950347 95.156714 
C 786.148936 95.156714 787.298596 94.680509 788.146127 93.832979 
C 788.993657 92.985448 789.469862 91.835788 789.469862 90.637199 
C 789.469862 89.43861 788.993657 88.28895 788.146127 87.441419 
C 787.298596 86.593889 786.148936 86.117684 784.950347 86.117684 
C 783.751758 86.117684 782.602098 86.593889 781.754567 87.441419 
C 780.907037 88.28895 780.430832 89.43861 780.430832 90.637199 
C 780.430832 91.835788 780.907037 92.985448 781.754567 93.832979 
C 782.602098 94.680509 783.751758 95.156714 784.950347 95.156714 
z
" clip-path="url(#p47d5793ad6)" style="fill: #bb8bff; stroke: #bb8bff; stroke-width: 1.5; stroke-linejoin: miter"/>
   </g>
   <g id="patch_46">
    <path d="M 769.885297 152.056248 
L 800.015397 152.056248 
L 800.015397 121.926148 
L 769.885297 121.926148 
z
" clip-path="url(#p47d5793ad6)" style="fill: #bb8bff; stroke: #bb8bff; stroke-width: 1.5; stroke-linejoin: miter"/>
   </g>
   <g id="patch_47">
    <path d="M 831.304346 141.510713 
C 832.502936 141.510713 833.652595 141.034509 834.500126 140.186978 
C 835.347657 139.339447 835.823861 138.189788 835.823861 136.991198 
C 835.823861 135.792609 835.347657 134.642949 834.500126 133.795419 
C 833.652595 132.947888 832.502936 132.471683 831.304346 132.471683 
C 830.105757 132.471683 828.956097 132.947888 828.108567 133.795419 
C 827.261036 134.642949 826.784831 135.792609 826.784831 136.991198 
C 826.784831 138.189788 827.261036 139.339447 828.108567 140.186978 
C 828.956097 141.034509 830.105757 141.510713 831.304346 141.510713 
z
" clip-path="url(#p47d5793ad6)" style="fill: #bb8bff; stroke: #bb8bff; stroke-width: 1.5; stroke-linejoin: miter"/>
   </g>
   <g id="patch_48">
    <path d="M 816.239296 198.410247 
L 846.369396 198.410247 
L 846.369396 168.280148 
L 816.239296 168.280148 
z
" clip-path="url(#p47d5793ad6)" style="fill: #bb8bff; stroke: #bb8bff; stroke-width: 1.5; stroke-linejoin: miter"/>
   </g>
   <g id="patch_49">
    <path d="M 877.658346 187.864713 
C 878.856935 187.864713 880.006595 187.388508 880.854125 186.540977 
C 881.701656 185.693447 882.177861 184.543787 882.177861 183.345198 
C 882.177861 182.146608 881.701656 180.996949 880.854125 180.149418 
C 880.006595 179.301887 878.856935 178.825683 877.658346 178.825683 
C 876.459756 178.825683 875.310097 179.301887 874.462566 180.149418 
C 873.615035 180.996949 873.138831 182.146608 873.138831 183.345198 
C 873.138831 184.543787 873.615035 185.693447 874.462566 186.540977 
C 875.310097 187.388508 876.459756 187.864713 877.658346 187.864713 
z
" clip-path="url(#p47d5793ad6)" style="fill: #bb8bff; stroke: #bb8bff; stroke-width: 1.5; stroke-linejoin: miter"/>
   </g>
   <g id="patch_50">
    <path d="M 862.593296 59.348249 
L 892.723395 59.348249 
L 892.723395 29.21815 
L 862.593296 29.21815 
z
" clip-path="url(#p47d5793ad6)" style="fill: #bb8bff; stroke: #bb8bff; stroke-width: 1.5; stroke-linejoin: miter"/>
   </g>
   <g id="line2d_25">
    <path d="M 506.826351 50.309219 
L 506.826351 38.25718 
" clip-path="url(#p47d5793ad6)" style="fill: none; stroke: #ffffff; stroke-width: 2; stroke-linecap: square"/>
   </g>
   <g id="line2d_26">
    <path d="M 500.800331 44.2832 
L 512.852371 44.2832 
" clip-path="url(#p47d5793ad6)" style="fill: none; stroke: #ffffff; stroke-width: 2; stroke-linecap: square"/>
   </g>
   <g id="line2d_27">
    <path d="M 553.18035 96.663219 
L 553.18035 84.611179 
" clip-path="url(#p47d5793ad6)" style="fill: none; stroke: #ffffff; stroke-width: 2; stroke-linecap: square"/>
   </g>
   <g id="line2d_28">
    <path d="M 547.15433 90.637199 
L 559.20637 90.637199 
" clip-path="url(#p47d5793ad6)" style="fill: none; stroke: #ffffff; stroke-width: 2; stroke-linecap: square"/>
   </g>
   <g id="line2d_29">
    <path d="M 599.534349 143.017218 
L 599.534349 130.965178 
" clip-path="url(#p47d5793ad6)" style="fill: none; stroke: #ffffff; stroke-width: 2; stroke-linecap: square"/>
   </g>
   <g id="line2d_30">
    <path d="M 593.508329 136.991198 
L 605.560369 136.991198 
" clip-path="url(#p47d5793ad6)" style="fill: none; stroke: #ffffff; stroke-width: 2; stroke-linecap: square"/>
   </g>
   <g id="line2d_31">
    <path d="M 645.888349 189.371218 
L 645.888349 177.319178 
" clip-path="url(#p47d5793ad6)" style="fill: none; stroke: #ffffff; stroke-width: 2; stroke-linecap: square"/>
   </g>
   <g id="line2d_32">
    <path d="M 639.862329 183.345198 
L 651.914369 183.345198 
" clip-path="url(#p47d5793ad6)" style="fill: none; stroke: #ffffff; stroke-width: 2; stroke-linecap: square"/>
   </g>
   <g id="text_1">
    <g clip-path="url(#p47d5793ad6)">
     <!-- ${q0}$ -->
     <g transform="translate(34.538397 48.734176) scale(0.1625 -0.1625)">
      <defs>
       <path id="DejaVuSans-Oblique-71" d="M 2669 525 
Q 2438 222 2123 65 
Q 1809 -91 1428 -91 
Q 897 -91 595 267 
Q 294 625 294 1253 
Q 294 1759 480 2231 
Q 666 2703 1013 3078 
Q 1238 3322 1530 3453 
Q 1822 3584 2144 3584 
Q 2531 3584 2781 3431 
Q 3031 3278 3144 2969 
L 3244 3494 
L 3822 3494 
L 2888 -1319 
L 2309 -1319 
L 2669 525 
z
M 891 1338 
Q 891 875 1084 633 
Q 1278 391 1644 391 
Q 2188 391 2572 911 
Q 2956 1431 2956 2175 
Q 2956 2625 2757 2864 
Q 2559 3103 2188 3103 
Q 1916 3103 1684 2976 
Q 1453 2850 1281 2606 
Q 1100 2350 995 2006 
Q 891 1663 891 1338 
z
" transform="scale(0.015625)"/>
       <path id="DejaVuSans-30" d="M 2034 4250 
Q 1547 4250 1301 3770 
Q 1056 3291 1056 2328 
Q 1056 1369 1301 889 
Q 1547 409 2034 409 
Q 2525 409 2770 889 
Q 3016 1369 3016 2328 
Q 3016 3291 2770 3770 
Q 2525 4250 2034 4250 
z
M 2034 4750 
Q 2819 4750 3233 4129 
Q 3647 3509 3647 2328 
Q 3647 1150 3233 529 
Q 2819 -91 2034 -91 
Q 1250 -91 836 529 
Q 422 1150 422 2328 
Q 422 3509 836 4129 
Q 1250 4750 2034 4750 
z
" transform="scale(0.015625)"/>
      </defs>
      <use xlink:href="#DejaVuSans-Oblique-71" transform="translate(0 0.78125)"/>
      <use xlink:href="#DejaVuSans-30" transform="translate(63.476562 0.78125)"/>
     </g>
    </g>
   </g>
   <g id="text_2">
    <g clip-path="url(#p47d5793ad6)">
     <!-- ${q1}$ -->
     <g transform="translate(34.538397 95.088175) scale(0.1625 -0.1625)">
      <defs>
       <path id="DejaVuSans-31" d="M 794 531 
L 1825 531 
L 1825 4091 
L 703 3866 
L 703 4441 
L 1819 4666 
L 2450 4666 
L 2450 531 
L 3481 531 
L 3481 0 
L 794 0 
L 794 531 
z
" transform="scale(0.015625)"/>
      </defs>
      <use xlink:href="#DejaVuSans-Oblique-71" transform="translate(0 0.09375)"/>
      <use xlink:href="#DejaVuSans-31" transform="translate(63.476562 0.09375)"/>
     </g>
    </g>
   </g>
   <g id="text_3">
    <g clip-path="url(#p47d5793ad6)">
     <!-- ${q2}$ -->
     <g transform="translate(34.538397 141.442175) scale(0.1625 -0.1625)">
      <defs>
       <path id="DejaVuSans-32" d="M 1228 531 
L 3431 531 
L 3431 0 
L 469 0 
L 469 531 
Q 828 903 1448 1529 
Q 2069 2156 2228 2338 
Q 2531 2678 2651 2914 
Q 2772 3150 2772 3378 
Q 2772 3750 2511 3984 
Q 2250 4219 1831 4219 
Q 1534 4219 1204 4116 
Q 875 4013 500 3803 
L 500 4441 
Q 881 4594 1212 4672 
Q 1544 4750 1819 4750 
Q 2544 4750 2975 4387 
Q 3406 4025 3406 3419 
Q 3406 3131 3298 2873 
Q 3191 2616 2906 2266 
Q 2828 2175 2409 1742 
Q 1991 1309 1228 531 
z
" transform="scale(0.015625)"/>
      </defs>
      <use xlink:href="#DejaVuSans-Oblique-71" transform="translate(0 0.78125)"/>
      <use xlink:href="#DejaVuSans-32" transform="translate(63.476562 0.78125)"/>
     </g>
    </g>
   </g>
   <g id="text_4">
    <g clip-path="url(#p47d5793ad6)">
     <!-- ${q3}$ -->
     <g transform="translate(34.538397 187.796174) scale(0.1625 -0.1625)">
      <defs>
       <path id="DejaVuSans-33" d="M 2597 2516 
Q 3050 2419 3304 2112 
Q 3559 1806 3559 1356 
Q 3559 666 3084 287 
Q 2609 -91 1734 -91 
Q 1441 -91 1130 -33 
Q 819 25 488 141 
L 488 750 
Q 750 597 1062 519 
Q 1375 441 1716 441 
Q 2309 441 2620 675 
Q 2931 909 2931 1356 
Q 2931 1769 2642 2001 
Q 2353 2234 1838 2234 
L 1294 2234 
L 1294 2753 
L 1863 2753 
Q 2328 2753 2575 2939 
Q 2822 3125 2822 3475 
Q 2822 3834 2567 4026 
Q 2313 4219 1838 4219 
Q 1578 4219 1281 4162 
Q 984 4106 628 3988 
L 628 4550 
Q 988 4650 1302 4700 
Q 1616 4750 1894 4750 
Q 2613 4750 3031 4423 
Q 3450 4097 3450 3541 
Q 3450 3153 3228 2886 
Q 3006 2619 2597 2516 
z
" transform="scale(0.015625)"/>
      </defs>
      <use xlink:href="#DejaVuSans-Oblique-71" transform="translate(0 0.78125)"/>
      <use xlink:href="#DejaVuSans-33" transform="translate(63.476562 0.78125)"/>
     </g>
    </g>
   </g>
   <g id="text_5">
    <g clip-path="url(#p47d5793ad6)">
     <!-- ${q4}$ -->
     <g transform="translate(34.538397 234.150174) scale(0.1625 -0.1625)">
      <defs>
       <path id="DejaVuSans-34" d="M 2419 4116 
L 825 1625 
L 2419 1625 
L 2419 4116 
z
M 2253 4666 
L 3047 4666 
L 3047 1625 
L 3713 1625 
L 3713 1100 
L 3047 1100 
L 3047 0 
L 2419 0 
L 2419 1100 
L 313 1100 
L 313 1709 
L 2253 4666 
z
" transform="scale(0.015625)"/>
      </defs>
      <use xlink:href="#DejaVuSans-Oblique-71" transform="translate(0 0.09375)"/>
      <use xlink:href="#DejaVuSans-34" transform="translate(63.476562 0.09375)"/>
     </g>
    </g>
   </g>
   <g id="text_6">
    <g clip-path="url(#p47d5793ad6)">
     <!-- ${q5}$ -->
     <g transform="translate(34.538397 280.504173) scale(0.1625 -0.1625)">
      <defs>
       <path id="DejaVuSans-35" d="M 691 4666 
L 3169 4666 
L 3169 4134 
L 1269 4134 
L 1269 2991 
Q 1406 3038 1543 3061 
Q 1681 3084 1819 3084 
Q 2600 3084 3056 2656 
Q 3513 2228 3513 1497 
Q 3513 744 3044 326 
Q 2575 -91 1722 -91 
Q 1428 -91 1123 -41 
Q 819 9 494 109 
L 494 744 
Q 775 591 1075 516 
Q 1375 441 1709 441 
Q 2250 441 2565 725 
Q 2881 1009 2881 1497 
Q 2881 1984 2565 2268 
Q 2250 2553 1709 2553 
Q 1456 2553 1204 2497 
Q 953 2441 691 2322 
L 691 4666 
z
" transform="scale(0.015625)"/>
      </defs>
      <use xlink:href="#DejaVuSans-Oblique-71" transform="translate(0 0.09375)"/>
      <use xlink:href="#DejaVuSans-35" transform="translate(63.476562 0.09375)"/>
     </g>
    </g>
   </g>
   <g id="text_7">
    <g clip-path="url(#p47d5793ad6)">
     <!-- ${q6}$ -->
     <g transform="translate(34.538397 326.858172) scale(0.1625 -0.1625)">
      <defs>
       <path id="DejaVuSans-36" d="M 2113 2584 
Q 1688 2584 1439 2293 
Q 1191 2003 1191 1497 
Q 1191 994 1439 701 
Q 1688 409 2113 409 
Q 2538 409 2786 701 
Q 3034 994 3034 1497 
Q 3034 2003 2786 2293 
Q 2538 2584 2113 2584 
z
M 3366 4563 
L 3366 3988 
Q 3128 4100 2886 4159 
Q 2644 4219 2406 4219 
Q 1781 4219 1451 3797 
Q 1122 3375 1075 2522 
Q 1259 2794 1537 2939 
Q 1816 3084 2150 3084 
Q 2853 3084 3261 2657 
Q 3669 2231 3669 1497 
Q 3669 778 3244 343 
Q 2819 -91 2113 -91 
Q 1303 -91 875 529 
Q 447 1150 447 2328 
Q 447 3434 972 4092 
Q 1497 4750 2381 4750 
Q 2619 4750 2861 4703 
Q 3103 4656 3366 4563 
z
" transform="scale(0.015625)"/>
      </defs>
      <use xlink:href="#DejaVuSans-Oblique-71" transform="translate(0 0.78125)"/>
      <use xlink:href="#DejaVuSans-36" transform="translate(63.476562 0.78125)"/>
     </g>
    </g>
   </g>
   <g id="text_8">
    <g clip-path="url(#p47d5793ad6)">
     <!-- ${q7}$ -->
     <g transform="translate(34.538397 373.212172) scale(0.1625 -0.1625)">
      <defs>
       <path id="DejaVuSans-37" d="M 525 4666 
L 3525 4666 
L 3525 4397 
L 1831 0 
L 1172 0 
L 2766 4134 
L 525 4134 
L 525 4666 
z
" transform="scale(0.015625)"/>
      </defs>
      <use xlink:href="#DejaVuSans-Oblique-71" transform="translate(0 0.09375)"/>
      <use xlink:href="#DejaVuSans-37" transform="translate(63.476562 0.09375)"/>
     </g>
    </g>
   </g>
   <g id="text_9">
    <g clip-path="url(#p47d5793ad6)">
     <!-- x_0 -->
     <g transform="translate(82.727856 101.701854) scale(0.08 -0.08)">
      <defs>
       <path id="DejaVuSans-78" d="M 3513 3500 
L 2247 1797 
L 3578 0 
L 2900 0 
L 1881 1375 
L 863 0 
L 184 0 
L 1544 1831 
L 300 3500 
L 978 3500 
L 1906 2253 
L 2834 3500 
L 3513 3500 
z
" transform="scale(0.015625)"/>
       <path id="DejaVuSans-5f" d="M 3263 -1063 
L 3263 -1509 
L -63 -1509 
L -63 -1063 
L 3263 -1063 
z
" transform="scale(0.015625)"/>
      </defs>
      <use xlink:href="#DejaVuSans-78"/>
      <use xlink:href="#DejaVuSans-5f" x="59.179688"/>
      <use xlink:href="#DejaVuSans-30" x="109.179688"/>
     </g>
    </g>
   </g>
   <g id="text_10">
    <g clip-path="url(#p47d5793ad6)">
     <!-- $\mathrm{R_Z}$ -->
     <g transform="translate(81.710356 89.704871) scale(0.13 -0.13)">
      <defs>
       <path id="DejaVuSans-52" d="M 2841 2188 
Q 3044 2119 3236 1894 
Q 3428 1669 3622 1275 
L 4263 0 
L 3584 0 
L 2988 1197 
Q 2756 1666 2539 1819 
Q 2322 1972 1947 1972 
L 1259 1972 
L 1259 0 
L 628 0 
L 628 4666 
L 2053 4666 
Q 2853 4666 3247 4331 
Q 3641 3997 3641 3322 
Q 3641 2881 3436 2590 
Q 3231 2300 2841 2188 
z
M 1259 4147 
L 1259 2491 
L 2053 2491 
Q 2509 2491 2742 2702 
Q 2975 2913 2975 3322 
Q 2975 3731 2742 3939 
Q 2509 4147 2053 4147 
L 1259 4147 
z
" transform="scale(0.015625)"/>
       <path id="DejaVuSans-5a" d="M 359 4666 
L 4025 4666 
L 4025 4184 
L 1075 531 
L 4097 531 
L 4097 0 
L 288 0 
L 288 481 
L 3238 4134 
L 359 4134 
L 359 4666 
z
" transform="scale(0.015625)"/>
      </defs>
      <use xlink:href="#DejaVuSans-52" transform="translate(0 0.09375)"/>
      <use xlink:href="#DejaVuSans-5a" transform="translate(70.439453 -16.3125) scale(0.7)"/>
     </g>
    </g>
   </g>
   <g id="text_11">
    <g clip-path="url(#p47d5793ad6)">
     <!-- x_0 -->
     <g transform="translate(129.081856 148.055853) scale(0.08 -0.08)">
      <use xlink:href="#DejaVuSans-78"/>
      <use xlink:href="#DejaVuSans-5f" x="59.179688"/>
      <use xlink:href="#DejaVuSans-30" x="109.179688"/>
     </g>
    </g>
   </g>
   <g id="text_12">
    <g clip-path="url(#p47d5793ad6)">
     <!-- $\mathrm{R_Z}$ -->
     <g transform="translate(128.064356 136.058871) scale(0.13 -0.13)">
      <use xlink:href="#DejaVuSans-52" transform="translate(0 0.09375)"/>
      <use xlink:href="#DejaVuSans-5a" transform="translate(70.439453 -16.3125) scale(0.7)"/>
     </g>
    </g>
   </g>
   <g id="text_13">
    <g clip-path="url(#p47d5793ad6)">
     <!-- x_0 -->
     <g transform="translate(175.435855 194.409853) scale(0.08 -0.08)">
      <use xlink:href="#DejaVuSans-78"/>
      <use xlink:href="#DejaVuSans-5f" x="59.179688"/>
      <use xlink:href="#DejaVuSans-30" x="109.179688"/>
     </g>
    </g>
   </g>
   <g id="text_14">
    <g clip-path="url(#p47d5793ad6)">
     <!-- $\mathrm{R_Z}$ -->
     <g transform="translate(174.418355 182.41287) scale(0.13 -0.13)">
      <use xlink:href="#DejaVuSans-52" transform="translate(0 0.09375)"/>
      <use xlink:href="#DejaVuSans-5a" transform="translate(70.439453 -16.3125) scale(0.7)"/>
     </g>
    </g>
   </g>
   <g id="text_15">
    <g clip-path="url(#p47d5793ad6)">
     <!-- x_0 -->
     <g transform="translate(221.789854 240.763852) scale(0.08 -0.08)">
      <use xlink:href="#DejaVuSans-78"/>
      <use xlink:href="#DejaVuSans-5f" x="59.179688"/>
      <use xlink:href="#DejaVuSans-30" x="109.179688"/>
     </g>
    </g>
   </g>
   <g id="text_16">
    <g clip-path="url(#p47d5793ad6)">
     <!-- $\mathrm{R_Z}$ -->
     <g transform="translate(220.772354 228.76687) scale(0.13 -0.13)">
      <use xlink:href="#DejaVuSans-52" transform="translate(0 0.09375)"/>
      <use xlink:href="#DejaVuSans-5a" transform="translate(70.439453 -16.3125) scale(0.7)"/>
     </g>
    </g>
   </g>
   <g id="text_17">
    <g clip-path="url(#p47d5793ad6)">
     <!-- x_0 -->
     <g transform="translate(268.143854 287.117851) scale(0.08 -0.08)">
      <use xlink:href="#DejaVuSans-78"/>
      <use xlink:href="#DejaVuSans-5f" x="59.179688"/>
      <use xlink:href="#DejaVuSans-30" x="109.179688"/>
     </g>
    </g>
   </g>
   <g id="text_18">
    <g clip-path="url(#p47d5793ad6)">
     <!-- $\mathrm{R_Z}$ -->
     <g transform="translate(267.126354 275.120869) scale(0.13 -0.13)">
      <use xlink:href="#DejaVuSans-52" transform="translate(0 0.09375)"/>
      <use xlink:href="#DejaVuSans-5a" transform="translate(70.439453 -16.3125) scale(0.7)"/>
     </g>
    </g>
   </g>
   <g id="text_19">
    <g clip-path="url(#p47d5793ad6)">
     <!-- x_0 -->
     <g transform="translate(314.497853 333.471851) scale(0.08 -0.08)">
      <use xlink:href="#DejaVuSans-78"/>
      <use xlink:href="#DejaVuSans-5f" x="59.179688"/>
      <use xlink:href="#DejaVuSans-30" x="109.179688"/>
     </g>
    </g>
   </g>
   <g id="text_20">
    <g clip-path="url(#p47d5793ad6)">
     <!-- $\mathrm{R_Z}$ -->
     <g transform="translate(313.480353 321.474868) scale(0.13 -0.13)">
      <use xlink:href="#DejaVuSans-52" transform="translate(0 0.09375)"/>
      <use xlink:href="#DejaVuSans-5a" transform="translate(70.439453 -16.3125) scale(0.7)"/>
     </g>
    </g>
   </g>
   <g id="text_21">
    <g clip-path="url(#p47d5793ad6)">
     <!-- x_0 -->
     <g transform="translate(360.851852 379.82585) scale(0.08 -0.08)">
      <use xlink:href="#DejaVuSans-78"/>
      <use xlink:href="#DejaVuSans-5f" x="59.179688"/>
      <use xlink:href="#DejaVuSans-30" x="109.179688"/>
     </g>
    </g>
   </g>
   <g id="text_22">
    <g clip-path="url(#p47d5793ad6)">
     <!-- $\mathrm{R_Z}$ -->
     <g transform="translate(359.834352 367.828868) scale(0.13 -0.13)">
      <use xlink:href="#DejaVuSans-52" transform="translate(0 0.09375)"/>
      <use xlink:href="#DejaVuSans-5a" transform="translate(70.439453 -16.3125) scale(0.7)"/>
     </g>
    </g>
   </g>
   <g id="text_23">
    <g clip-path="url(#p47d5793ad6)">
     <!-- x_0 -->
     <g transform="translate(407.205852 55.347854) scale(0.08 -0.08)">
      <use xlink:href="#DejaVuSans-78"/>
      <use xlink:href="#DejaVuSans-5f" x="59.179688"/>
      <use xlink:href="#DejaVuSans-30" x="109.179688"/>
     </g>
    </g>
   </g>
   <g id="text_24">
    <g clip-path="url(#p47d5793ad6)">
     <!-- $\mathrm{R_Z}$ -->
     <g transform="translate(406.188352 43.350872) scale(0.13 -0.13)">
      <use xlink:href="#DejaVuSans-52" transform="translate(0 0.09375)"/>
      <use xlink:href="#DejaVuSans-5a" transform="translate(70.439453 -16.3125) scale(0.7)"/>
     </g>
    </g>
   </g>
   <g id="line2d_33">
    <path d="M 460.472351 21.1062 
L 460.472351 67.460199 
" clip-path="url(#p47d5793ad6)" style="fill: none; stroke-dasharray: 3.7,1.6; stroke-dashoffset: 0; stroke: #000000"/>
   </g>
   <g id="line2d_34">
    <path d="M 460.472351 67.460199 
L 460.472351 113.814199 
" clip-path="url(#p47d5793ad6)" style="fill: none; stroke-dasharray: 3.7,1.6; stroke-dashoffset: 0; stroke: #000000"/>
   </g>
   <g id="line2d_35">
    <path d="M 460.472351 113.814199 
L 460.472351 160.168198 
" clip-path="url(#p47d5793ad6)" style="fill: none; stroke-dasharray: 3.7,1.6; stroke-dashoffset: 0; stroke: #000000"/>
   </g>
   <g id="line2d_36">
    <path d="M 460.472351 160.168198 
L 460.472351 206.522197 
" clip-path="url(#p47d5793ad6)" style="fill: none; stroke-dasharray: 3.7,1.6; stroke-dashoffset: 0; stroke: #000000"/>
   </g>
   <g id="line2d_37">
    <path d="M 460.472351 206.522197 
L 460.472351 252.876197 
" clip-path="url(#p47d5793ad6)" style="fill: none; stroke-dasharray: 3.7,1.6; stroke-dashoffset: 0; stroke: #000000"/>
   </g>
   <g id="line2d_38">
    <path d="M 460.472351 252.876197 
L 460.472351 299.230196 
" clip-path="url(#p47d5793ad6)" style="fill: none; stroke-dasharray: 3.7,1.6; stroke-dashoffset: 0; stroke: #000000"/>
   </g>
   <g id="line2d_39">
    <path d="M 460.472351 299.230196 
L 460.472351 345.584196 
" clip-path="url(#p47d5793ad6)" style="fill: none; stroke-dasharray: 3.7,1.6; stroke-dashoffset: 0; stroke: #000000"/>
   </g>
   <g id="line2d_40">
    <path d="M 460.472351 345.584196 
L 460.472351 391.938195 
" clip-path="url(#p47d5793ad6)" style="fill: none; stroke-dasharray: 3.7,1.6; stroke-dashoffset: 0; stroke: #000000"/>
   </g>
   <g id="line2d_41">
    <path d="M 692.242348 21.1062 
L 692.242348 67.460199 
" clip-path="url(#p47d5793ad6)" style="fill: none; stroke-dasharray: 3.7,1.6; stroke-dashoffset: 0; stroke: #000000"/>
   </g>
   <g id="line2d_42">
    <path d="M 692.242348 67.460199 
L 692.242348 113.814199 
" clip-path="url(#p47d5793ad6)" style="fill: none; stroke-dasharray: 3.7,1.6; stroke-dashoffset: 0; stroke: #000000"/>
   </g>
   <g id="line2d_43">
    <path d="M 692.242348 113.814199 
L 692.242348 160.168198 
" clip-path="url(#p47d5793ad6)" style="fill: none; stroke-dasharray: 3.7,1.6; stroke-dashoffset: 0; stroke: #000000"/>
   </g>
   <g id="line2d_44">
    <path d="M 692.242348 160.168198 
L 692.242348 206.522197 
" clip-path="url(#p47d5793ad6)" style="fill: none; stroke-dasharray: 3.7,1.6; stroke-dashoffset: 0; stroke: #000000"/>
   </g>
   <g id="line2d_45">
    <path d="M 692.242348 206.522197 
L 692.242348 252.876197 
" clip-path="url(#p47d5793ad6)" style="fill: none; stroke-dasharray: 3.7,1.6; stroke-dashoffset: 0; stroke: #000000"/>
   </g>
   <g id="line2d_46">
    <path d="M 692.242348 252.876197 
L 692.242348 299.230196 
" clip-path="url(#p47d5793ad6)" style="fill: none; stroke-dasharray: 3.7,1.6; stroke-dashoffset: 0; stroke: #000000"/>
   </g>
   <g id="line2d_47">
    <path d="M 692.242348 299.230196 
L 692.242348 345.584196 
" clip-path="url(#p47d5793ad6)" style="fill: none; stroke-dasharray: 3.7,1.6; stroke-dashoffset: 0; stroke: #000000"/>
   </g>
   <g id="line2d_48">
    <path d="M 692.242348 345.584196 
L 692.242348 391.938195 
" clip-path="url(#p47d5793ad6)" style="fill: none; stroke-dasharray: 3.7,1.6; stroke-dashoffset: 0; stroke: #000000"/>
   </g>
   <g id="text_25">
    <g clip-path="url(#p47d5793ad6)">
     <!-- x_1 -->
     <g transform="translate(731.683848 101.661229) scale(0.08 -0.08)">
      <use xlink:href="#DejaVuSans-78"/>
      <use xlink:href="#DejaVuSans-5f" x="59.179688"/>
      <use xlink:href="#DejaVuSans-31" x="109.179688"/>
     </g>
    </g>
   </g>
   <g id="text_26">
    <g clip-path="url(#p47d5793ad6)">
     <!-- $\mathrm{R_Z}$ -->
     <g transform="translate(730.666348 89.704871) scale(0.13 -0.13)">
      <use xlink:href="#DejaVuSans-52" transform="translate(0 0.09375)"/>
      <use xlink:href="#DejaVuSans-5a" transform="translate(70.439453 -16.3125) scale(0.7)"/>
     </g>
    </g>
   </g>
   <g id="text_27">
    <g clip-path="url(#p47d5793ad6)">
     <!-- x_1 -->
     <g transform="translate(778.037847 148.015228) scale(0.08 -0.08)">
      <use xlink:href="#DejaVuSans-78"/>
      <use xlink:href="#DejaVuSans-5f" x="59.179688"/>
      <use xlink:href="#DejaVuSans-31" x="109.179688"/>
     </g>
    </g>
   </g>
   <g id="text_28">
    <g clip-path="url(#p47d5793ad6)">
     <!-- $\mathrm{R_Z}$ -->
     <g transform="translate(777.020347 136.058871) scale(0.13 -0.13)">
      <use xlink:href="#DejaVuSans-52" transform="translate(0 0.09375)"/>
      <use xlink:href="#DejaVuSans-5a" transform="translate(70.439453 -16.3125) scale(0.7)"/>
     </g>
    </g>
   </g>
   <g id="text_29">
    <g clip-path="url(#p47d5793ad6)">
     <!-- x_1 -->
     <g transform="translate(824.391846 194.369228) scale(0.08 -0.08)">
      <use xlink:href="#DejaVuSans-78"/>
      <use xlink:href="#DejaVuSans-5f" x="59.179688"/>
      <use xlink:href="#DejaVuSans-31" x="109.179688"/>
     </g>
    </g>
   </g>
   <g id="text_30">
    <g clip-path="url(#p47d5793ad6)">
     <!-- $\mathrm{R_Z}$ -->
     <g transform="translate(823.374346 182.41287) scale(0.13 -0.13)">
      <use xlink:href="#DejaVuSans-52" transform="translate(0 0.09375)"/>
      <use xlink:href="#DejaVuSans-5a" transform="translate(70.439453 -16.3125) scale(0.7)"/>
     </g>
    </g>
   </g>
   <g id="text_31">
    <g clip-path="url(#p47d5793ad6)">
     <!-- x_1 -->
     <g transform="translate(870.745846 55.307229) scale(0.08 -0.08)">
      <use xlink:href="#DejaVuSans-78"/>
      <use xlink:href="#DejaVuSans-5f" x="59.179688"/>
      <use xlink:href="#DejaVuSans-31" x="109.179688"/>
     </g>
    </g>
   </g>
   <g id="text_32">
    <g clip-path="url(#p47d5793ad6)">
     <!-- $\mathrm{R_Z}$ -->
     <g transform="translate(869.728346 43.350872) scale(0.13 -0.13)">
      <use xlink:href="#DejaVuSans-52" transform="translate(0 0.09375)"/>
      <use xlink:href="#DejaVuSans-5a" transform="translate(70.439453 -16.3125) scale(0.7)"/>
     </g>
    </g>
   </g>
  </g>
 </g>
 <defs>
  <clipPath id="p47d5793ad6">
   <rect x="7.2" y="7.2" width="901.051985" height="389.373595"/>
  </clipPath>
 </defs>
</svg>
