<?xml version="1.0" encoding="utf-8" standalone="no"?>
<!DOCTYPE svg PUBLIC "-//W3C//DTD SVG 1.1//EN"
  "http://www.w3.org/Graphics/SVG/1.1/DTD/svg11.dtd">
<svg xmlns:xlink="http://www.w3.org/1999/xlink" width="1100.867983pt" height="403.773595pt" viewBox="0 0 1100.867983 403.773595" xmlns="http://www.w3.org/2000/svg" version="1.1">
 <metadata>
  <rdf:RDF xmlns:dc="http://purl.org/dc/elements/1.1/" xmlns:cc="http://creativecommons.org/ns#" xmlns:rdf="http://www.w3.org/1999/02/22-rdf-syntax-ns#">
   <cc:Work>
    <dc:type rdf:resource="http://purl.org/dc/dcmitype/StillImage"/>
    <dc:date>2023-11-08T12:20:30.222959</dc:date>
    <dc:format>image/svg+xml</dc:format>
    <dc:creator>
     <cc:Agent>
      <dc:title>Matplotlib v3.8.1, https://matplotlib.org/</dc:title>
     </cc:Agent>
    </dc:creator>
   </cc:Work>
  </rdf:RDF>
 </metadata>
 <defs>
  <style type="text/css">*{stroke-linejoin: round; stroke-linecap: butt}</style>
 </defs>
 <g id="figure_1">
  <g id="patch_1">
   <path d="M 0 403.773595 
L 1100.867983 403.773595 
L 1100.867983 0 
L 0 0 
L 0 403.773595 
z
" style="fill: none"/>
  </g>
  <g id="axes_1">
   <g id="line2d_1">
    <path d="M 64.609196 44.2832 
L 1089.032583 44.2832 
" clip-path="url(#p66f6b4d650)" style="fill: none; stroke: #000000; stroke-width: 2; stroke-linecap: square"/>
   </g>
   <g id="line2d_2">
    <path d="M 64.609196 90.637199 
L 1089.032583 90.637199 
" clip-path="url(#p66f6b4d650)" style="fill: none; stroke: #000000; stroke-width: 2; stroke-linecap: square"/>
   </g>
   <g id="line2d_3">
    <path d="M 64.609196 136.991198 
L 1089.032583 136.991198 
" clip-path="url(#p66f6b4d650)" style="fill: none; stroke: #000000; stroke-width: 2; stroke-linecap: square"/>
   </g>
   <g id="line2d_4">
    <path d="M 64.609196 183.345198 
L 1089.032583 183.345198 
" clip-path="url(#p66f6b4d650)" style="fill: none; stroke: #000000; stroke-width: 2; stroke-linecap: square"/>
   </g>
   <g id="line2d_5">
    <path d="M 64.609196 229.699197 
L 1089.032583 229.699197 
" clip-path="url(#p66f6b4d650)" style="fill: none; stroke: #000000; stroke-width: 2; stroke-linecap: square"/>
   </g>
   <g id="line2d_6">
    <path d="M 64.609196 276.053196 
L 1089.032583 276.053196 
" clip-path="url(#p66f6b4d650)" style="fill: none; stroke: #000000; stroke-width: 2; stroke-linecap: square"/>
   </g>
   <g id="line2d_7">
    <path d="M 64.609196 322.407196 
L 1089.032583 322.407196 
" clip-path="url(#p66f6b4d650)" style="fill: none; stroke: #000000; stroke-width: 2; stroke-linecap: square"/>
   </g>
   <g id="line2d_8">
    <path d="M 64.609196 368.761195 
L 1089.032583 368.761195 
" clip-path="url(#p66f6b4d650)" style="fill: none; stroke: #000000; stroke-width: 2; stroke-linecap: square"/>
   </g>
   <g id="patch_2">
    <path d="M 59.973797 21.1062 
L -1 21.1062 
M 59.973797 404.773595 
L 59.973797 21.1062 
" clip-path="url(#p66f6b4d650)" style="fill: none"/>
   </g>
   <g id="line2d_9">
    <path d="M 89.640356 90.637199 
L 89.640356 44.2832 
" clip-path="url(#p66f6b4d650)" style="fill: none; stroke: #bb8bff; stroke-width: 2; stroke-linecap: square"/>
   </g>
   <g id="line2d_10">
    <path d="M 135.994356 136.991198 
L 135.994356 90.637199 
" clip-path="url(#p66f6b4d650)" style="fill: none; stroke: #bb8bff; stroke-width: 2; stroke-linecap: square"/>
   </g>
   <g id="line2d_11">
    <path d="M 182.348355 183.345198 
L 182.348355 136.991198 
" clip-path="url(#p66f6b4d650)" style="fill: none; stroke: #bb8bff; stroke-width: 2; stroke-linecap: square"/>
   </g>
   <g id="line2d_12">
    <path d="M 228.702354 229.699197 
L 228.702354 183.345198 
" clip-path="url(#p66f6b4d650)" style="fill: none; stroke: #bb8bff; stroke-width: 2; stroke-linecap: square"/>
   </g>
   <g id="line2d_13">
    <path d="M 275.056354 276.053196 
L 275.056354 229.699197 
" clip-path="url(#p66f6b4d650)" style="fill: none; stroke: #bb8bff; stroke-width: 2; stroke-linecap: square"/>
   </g>
   <g id="line2d_14">
    <path d="M 321.410353 322.407196 
L 321.410353 276.053196 
" clip-path="url(#p66f6b4d650)" style="fill: none; stroke: #bb8bff; stroke-width: 2; stroke-linecap: square"/>
   </g>
   <g id="line2d_15">
    <path d="M 367.764352 368.761195 
L 367.764352 322.407196 
" clip-path="url(#p66f6b4d650)" style="fill: none; stroke: #bb8bff; stroke-width: 2; stroke-linecap: square"/>
   </g>
   <g id="line2d_16">
    <path d="M 414.118352 368.761195 
L 414.118352 44.2832 
" clip-path="url(#p66f6b4d650)" style="fill: none; stroke: #bb8bff; stroke-width: 2; stroke-linecap: square"/>
   </g>
   <g id="line2d_17">
    <path d="M 506.826351 136.991198 
L 506.826351 44.2832 
" clip-path="url(#p66f6b4d650)" style="fill: none; stroke: #6fa4ff; stroke-width: 2; stroke-linecap: square"/>
   </g>
   <g id="line2d_18">
    <path d="M 506.826351 322.407196 
L 506.826351 229.699197 
" clip-path="url(#p66f6b4d650)" style="fill: none; stroke: #6fa4ff; stroke-width: 2; stroke-linecap: square"/>
   </g>
   <g id="line2d_19">
    <path d="M 553.18035 183.345198 
L 553.18035 90.637199 
" clip-path="url(#p66f6b4d650)" style="fill: none; stroke: #6fa4ff; stroke-width: 2; stroke-linecap: square"/>
   </g>
   <g id="line2d_20">
    <path d="M 553.18035 368.761195 
L 553.18035 276.053196 
" clip-path="url(#p66f6b4d650)" style="fill: none; stroke: #6fa4ff; stroke-width: 2; stroke-linecap: square"/>
   </g>
   <g id="line2d_21">
    <path d="M 645.888349 90.637199 
L 645.888349 44.2832 
" clip-path="url(#p66f6b4d650)" style="fill: none; stroke: #bb8bff; stroke-width: 2; stroke-linecap: square"/>
   </g>
   <g id="line2d_22">
    <path d="M 692.242348 322.407196 
L 692.242348 90.637199 
" clip-path="url(#p66f6b4d650)" style="fill: none; stroke: #bb8bff; stroke-width: 2; stroke-linecap: square"/>
   </g>
   <g id="line2d_23">
    <path d="M 738.596348 368.761195 
L 738.596348 322.407196 
" clip-path="url(#p66f6b4d650)" style="fill: none; stroke: #bb8bff; stroke-width: 2; stroke-linecap: square"/>
   </g>
   <g id="line2d_24">
    <path d="M 784.950347 368.761195 
L 784.950347 44.2832 
" clip-path="url(#p66f6b4d650)" style="fill: none; stroke: #bb8bff; stroke-width: 2; stroke-linecap: square"/>
   </g>
   <g id="line2d_25">
    <path d="M 877.658346 90.637199 
L 877.658346 44.2832 
" clip-path="url(#p66f6b4d650)" style="fill: none; stroke: #6fa4ff; stroke-width: 2; stroke-linecap: square"/>
   </g>
   <g id="line2d_26">
    <path d="M 877.658346 368.761195 
L 877.658346 322.407196 
" clip-path="url(#p66f6b4d650)" style="fill: none; stroke: #6fa4ff; stroke-width: 2; stroke-linecap: square"/>
   </g>
   <g id="line2d_27">
    <path d="M 970.366344 368.761195 
L 970.366344 44.2832 
" clip-path="url(#p66f6b4d650)" style="fill: none; stroke: #bb8bff; stroke-width: 2; stroke-linecap: square"/>
   </g>
   <g id="line2d_28">
    <path d="M 1063.074343 368.761195 
L 1063.074343 44.2832 
" clip-path="url(#p66f6b4d650)" style="fill: none; stroke: #6fa4ff; stroke-width: 2; stroke-linecap: square"/>
   </g>
   <g id="patch_3">
    <path d="M 451.433321 67.460199 
L 469.511381 67.460199 
L 469.511381 21.1062 
L 451.433321 21.1062 
z
" clip-path="url(#p66f6b4d650)" style="fill: #bdbdbd; opacity: 0.6"/>
   </g>
   <g id="patch_4">
    <path d="M 451.433321 113.814199 
L 469.511381 113.814199 
L 469.511381 67.460199 
L 451.433321 67.460199 
z
" clip-path="url(#p66f6b4d650)" style="fill: #bdbdbd; opacity: 0.6"/>
   </g>
   <g id="patch_5">
    <path d="M 451.433321 160.168198 
L 469.511381 160.168198 
L 469.511381 113.814199 
L 451.433321 113.814199 
z
" clip-path="url(#p66f6b4d650)" style="fill: #bdbdbd; opacity: 0.6"/>
   </g>
   <g id="patch_6">
    <path d="M 451.433321 206.522197 
L 469.511381 206.522197 
L 469.511381 160.168198 
L 451.433321 160.168198 
z
" clip-path="url(#p66f6b4d650)" style="fill: #bdbdbd; opacity: 0.6"/>
   </g>
   <g id="patch_7">
    <path d="M 451.433321 252.876197 
L 469.511381 252.876197 
L 469.511381 206.522197 
L 451.433321 206.522197 
z
" clip-path="url(#p66f6b4d650)" style="fill: #bdbdbd; opacity: 0.6"/>
   </g>
   <g id="patch_8">
    <path d="M 451.433321 299.230196 
L 469.511381 299.230196 
L 469.511381 252.876197 
L 451.433321 252.876197 
z
" clip-path="url(#p66f6b4d650)" style="fill: #bdbdbd; opacity: 0.6"/>
   </g>
   <g id="patch_9">
    <path d="M 451.433321 345.584196 
L 469.511381 345.584196 
L 469.511381 299.230196 
L 451.433321 299.230196 
z
" clip-path="url(#p66f6b4d650)" style="fill: #bdbdbd; opacity: 0.6"/>
   </g>
   <g id="patch_10">
    <path d="M 451.433321 391.938195 
L 469.511381 391.938195 
L 469.511381 345.584196 
L 451.433321 345.584196 
z
" clip-path="url(#p66f6b4d650)" style="fill: #bdbdbd; opacity: 0.6"/>
   </g>
   <g id="patch_11">
    <path d="M 590.495319 67.460199 
L 608.573379 67.460199 
L 608.573379 21.1062 
L 590.495319 21.1062 
z
" clip-path="url(#p66f6b4d650)" style="fill: #bdbdbd; opacity: 0.6"/>
   </g>
   <g id="patch_12">
    <path d="M 590.495319 113.814199 
L 608.573379 113.814199 
L 608.573379 67.460199 
L 590.495319 67.460199 
z
" clip-path="url(#p66f6b4d650)" style="fill: #bdbdbd; opacity: 0.6"/>
   </g>
   <g id="patch_13">
    <path d="M 590.495319 160.168198 
L 608.573379 160.168198 
L 608.573379 113.814199 
L 590.495319 113.814199 
z
" clip-path="url(#p66f6b4d650)" style="fill: #bdbdbd; opacity: 0.6"/>
   </g>
   <g id="patch_14">
    <path d="M 590.495319 206.522197 
L 608.573379 206.522197 
L 608.573379 160.168198 
L 590.495319 160.168198 
z
" clip-path="url(#p66f6b4d650)" style="fill: #bdbdbd; opacity: 0.6"/>
   </g>
   <g id="patch_15">
    <path d="M 590.495319 252.876197 
L 608.573379 252.876197 
L 608.573379 206.522197 
L 590.495319 206.522197 
z
" clip-path="url(#p66f6b4d650)" style="fill: #bdbdbd; opacity: 0.6"/>
   </g>
   <g id="patch_16">
    <path d="M 590.495319 299.230196 
L 608.573379 299.230196 
L 608.573379 252.876197 
L 590.495319 252.876197 
z
" clip-path="url(#p66f6b4d650)" style="fill: #bdbdbd; opacity: 0.6"/>
   </g>
   <g id="patch_17">
    <path d="M 590.495319 345.584196 
L 608.573379 345.584196 
L 608.573379 299.230196 
L 590.495319 299.230196 
z
" clip-path="url(#p66f6b4d650)" style="fill: #bdbdbd; opacity: 0.6"/>
   </g>
   <g id="patch_18">
    <path d="M 590.495319 391.938195 
L 608.573379 391.938195 
L 608.573379 345.584196 
L 590.495319 345.584196 
z
" clip-path="url(#p66f6b4d650)" style="fill: #bdbdbd; opacity: 0.6"/>
   </g>
   <g id="patch_19">
    <path d="M 822.265316 67.460199 
L 840.343376 67.460199 
L 840.343376 21.1062 
L 822.265316 21.1062 
z
" clip-path="url(#p66f6b4d650)" style="fill: #bdbdbd; opacity: 0.6"/>
   </g>
   <g id="patch_20">
    <path d="M 822.265316 113.814199 
L 840.343376 113.814199 
L 840.343376 67.460199 
L 822.265316 67.460199 
z
" clip-path="url(#p66f6b4d650)" style="fill: #bdbdbd; opacity: 0.6"/>
   </g>
   <g id="patch_21">
    <path d="M 822.265316 160.168198 
L 840.343376 160.168198 
L 840.343376 113.814199 
L 822.265316 113.814199 
z
" clip-path="url(#p66f6b4d650)" style="fill: #bdbdbd; opacity: 0.6"/>
   </g>
   <g id="patch_22">
    <path d="M 822.265316 206.522197 
L 840.343376 206.522197 
L 840.343376 160.168198 
L 822.265316 160.168198 
z
" clip-path="url(#p66f6b4d650)" style="fill: #bdbdbd; opacity: 0.6"/>
   </g>
   <g id="patch_23">
    <path d="M 822.265316 252.876197 
L 840.343376 252.876197 
L 840.343376 206.522197 
L 822.265316 206.522197 
z
" clip-path="url(#p66f6b4d650)" style="fill: #bdbdbd; opacity: 0.6"/>
   </g>
   <g id="patch_24">
    <path d="M 822.265316 299.230196 
L 840.343376 299.230196 
L 840.343376 252.876197 
L 822.265316 252.876197 
z
" clip-path="url(#p66f6b4d650)" style="fill: #bdbdbd; opacity: 0.6"/>
   </g>
   <g id="patch_25">
    <path d="M 822.265316 345.584196 
L 840.343376 345.584196 
L 840.343376 299.230196 
L 822.265316 299.230196 
z
" clip-path="url(#p66f6b4d650)" style="fill: #bdbdbd; opacity: 0.6"/>
   </g>
   <g id="patch_26">
    <path d="M 822.265316 391.938195 
L 840.343376 391.938195 
L 840.343376 345.584196 
L 822.265316 345.584196 
z
" clip-path="url(#p66f6b4d650)" style="fill: #bdbdbd; opacity: 0.6"/>
   </g>
   <g id="patch_27">
    <path d="M 914.973315 67.460199 
L 933.051375 67.460199 
L 933.051375 21.1062 
L 914.973315 21.1062 
z
" clip-path="url(#p66f6b4d650)" style="fill: #bdbdbd; opacity: 0.6"/>
   </g>
   <g id="patch_28">
    <path d="M 914.973315 113.814199 
L 933.051375 113.814199 
L 933.051375 67.460199 
L 914.973315 67.460199 
z
" clip-path="url(#p66f6b4d650)" style="fill: #bdbdbd; opacity: 0.6"/>
   </g>
   <g id="patch_29">
    <path d="M 914.973315 160.168198 
L 933.051375 160.168198 
L 933.051375 113.814199 
L 914.973315 113.814199 
z
" clip-path="url(#p66f6b4d650)" style="fill: #bdbdbd; opacity: 0.6"/>
   </g>
   <g id="patch_30">
    <path d="M 914.973315 206.522197 
L 933.051375 206.522197 
L 933.051375 160.168198 
L 914.973315 160.168198 
z
" clip-path="url(#p66f6b4d650)" style="fill: #bdbdbd; opacity: 0.6"/>
   </g>
   <g id="patch_31">
    <path d="M 914.973315 252.876197 
L 933.051375 252.876197 
L 933.051375 206.522197 
L 914.973315 206.522197 
z
" clip-path="url(#p66f6b4d650)" style="fill: #bdbdbd; opacity: 0.6"/>
   </g>
   <g id="patch_32">
    <path d="M 914.973315 299.230196 
L 933.051375 299.230196 
L 933.051375 252.876197 
L 914.973315 252.876197 
z
" clip-path="url(#p66f6b4d650)" style="fill: #bdbdbd; opacity: 0.6"/>
   </g>
   <g id="patch_33">
    <path d="M 914.973315 345.584196 
L 933.051375 345.584196 
L 933.051375 299.230196 
L 914.973315 299.230196 
z
" clip-path="url(#p66f6b4d650)" style="fill: #bdbdbd; opacity: 0.6"/>
   </g>
   <g id="patch_34">
    <path d="M 914.973315 391.938195 
L 933.051375 391.938195 
L 933.051375 345.584196 
L 914.973315 345.584196 
z
" clip-path="url(#p66f6b4d650)" style="fill: #bdbdbd; opacity: 0.6"/>
   </g>
   <g id="patch_35">
    <path d="M 1007.681314 67.460199 
L 1025.759374 67.460199 
L 1025.759374 21.1062 
L 1007.681314 21.1062 
z
" clip-path="url(#p66f6b4d650)" style="fill: #bdbdbd; opacity: 0.6"/>
   </g>
   <g id="patch_36">
    <path d="M 1007.681314 113.814199 
L 1025.759374 113.814199 
L 1025.759374 67.460199 
L 1007.681314 67.460199 
z
" clip-path="url(#p66f6b4d650)" style="fill: #bdbdbd; opacity: 0.6"/>
   </g>
   <g id="patch_37">
    <path d="M 1007.681314 160.168198 
L 1025.759374 160.168198 
L 1025.759374 113.814199 
L 1007.681314 113.814199 
z
" clip-path="url(#p66f6b4d650)" style="fill: #bdbdbd; opacity: 0.6"/>
   </g>
   <g id="patch_38">
    <path d="M 1007.681314 206.522197 
L 1025.759374 206.522197 
L 1025.759374 160.168198 
L 1007.681314 160.168198 
z
" clip-path="url(#p66f6b4d650)" style="fill: #bdbdbd; opacity: 0.6"/>
   </g>
   <g id="patch_39">
    <path d="M 1007.681314 252.876197 
L 1025.759374 252.876197 
L 1025.759374 206.522197 
L 1007.681314 206.522197 
z
" clip-path="url(#p66f6b4d650)" style="fill: #bdbdbd; opacity: 0.6"/>
   </g>
   <g id="patch_40">
    <path d="M 1007.681314 299.230196 
L 1025.759374 299.230196 
L 1025.759374 252.876197 
L 1007.681314 252.876197 
z
" clip-path="url(#p66f6b4d650)" style="fill: #bdbdbd; opacity: 0.6"/>
   </g>
   <g id="patch_41">
    <path d="M 1007.681314 345.584196 
L 1025.759374 345.584196 
L 1025.759374 299.230196 
L 1007.681314 299.230196 
z
" clip-path="url(#p66f6b4d650)" style="fill: #bdbdbd; opacity: 0.6"/>
   </g>
   <g id="patch_42">
    <path d="M 1007.681314 391.938195 
L 1025.759374 391.938195 
L 1025.759374 345.584196 
L 1007.681314 345.584196 
z
" clip-path="url(#p66f6b4d650)" style="fill: #bdbdbd; opacity: 0.6"/>
   </g>
   <g id="patch_43">
    <path d="M 89.640356 48.802714 
C 90.838946 48.802714 91.988605 48.32651 92.836136 47.478979 
C 93.683666 46.631448 94.159871 45.481789 94.159871 44.2832 
C 94.159871 43.08461 93.683666 41.934951 92.836136 41.08742 
C 91.988605 40.239889 90.838946 39.763685 89.640356 39.763685 
C 88.441767 39.763685 87.292107 40.239889 86.444576 41.08742 
C 85.597046 41.934951 85.120841 43.08461 85.120841 44.2832 
C 85.120841 45.481789 85.597046 46.631448 86.444576 47.478979 
C 87.292107 48.32651 88.441767 48.802714 89.640356 48.802714 
z
" clip-path="url(#p66f6b4d650)" style="fill: #bb8bff; stroke: #bb8bff; stroke-width: 1.5; stroke-linejoin: miter"/>
   </g>
   <g id="patch_44">
    <path d="M 74.575306 105.702249 
L 104.705406 105.702249 
L 104.705406 75.572149 
L 74.575306 75.572149 
z
" clip-path="url(#p66f6b4d650)" style="fill: #bb8bff; stroke: #bb8bff; stroke-width: 1.5; stroke-linejoin: miter"/>
   </g>
   <g id="patch_45">
    <path d="M 135.994356 95.156714 
C 137.192945 95.156714 138.342605 94.680509 139.190135 93.832979 
C 140.037666 92.985448 140.51387 91.835788 140.51387 90.637199 
C 140.51387 89.43861 140.037666 88.28895 139.190135 87.441419 
C 138.342605 86.593889 137.192945 86.117684 135.994356 86.117684 
C 134.795766 86.117684 133.646107 86.593889 132.798576 87.441419 
C 131.951045 88.28895 131.474841 89.43861 131.474841 90.637199 
C 131.474841 91.835788 131.951045 92.985448 132.798576 93.832979 
C 133.646107 94.680509 134.795766 95.156714 135.994356 95.156714 
z
" clip-path="url(#p66f6b4d650)" style="fill: #bb8bff; stroke: #bb8bff; stroke-width: 1.5; stroke-linejoin: miter"/>
   </g>
   <g id="patch_46">
    <path d="M 120.929306 152.056248 
L 151.059405 152.056248 
L 151.059405 121.926148 
L 120.929306 121.926148 
z
" clip-path="url(#p66f6b4d650)" style="fill: #bb8bff; stroke: #bb8bff; stroke-width: 1.5; stroke-linejoin: miter"/>
   </g>
   <g id="patch_47">
    <path d="M 182.348355 141.510713 
C 183.546944 141.510713 184.696604 141.034509 185.544135 140.186978 
C 186.391665 139.339447 186.86787 138.189788 186.86787 136.991198 
C 186.86787 135.792609 186.391665 134.642949 185.544135 133.795419 
C 184.696604 132.947888 183.546944 132.471683 182.348355 132.471683 
C 181.149766 132.471683 180.000106 132.947888 179.152575 133.795419 
C 178.305045 134.642949 177.82884 135.792609 177.82884 136.991198 
C 177.82884 138.189788 178.305045 139.339447 179.152575 140.186978 
C 180.000106 141.034509 181.149766 141.510713 182.348355 141.510713 
z
" clip-path="url(#p66f6b4d650)" style="fill: #bb8bff; stroke: #bb8bff; stroke-width: 1.5; stroke-linejoin: miter"/>
   </g>
   <g id="patch_48">
    <path d="M 167.283305 198.410247 
L 197.413405 198.410247 
L 197.413405 168.280148 
L 167.283305 168.280148 
z
" clip-path="url(#p66f6b4d650)" style="fill: #bb8bff; stroke: #bb8bff; stroke-width: 1.5; stroke-linejoin: miter"/>
   </g>
   <g id="patch_49">
    <path d="M 228.702354 187.864713 
C 229.900944 187.864713 231.050603 187.388508 231.898134 186.540977 
C 232.745665 185.693447 233.221869 184.543787 233.221869 183.345198 
C 233.221869 182.146608 232.745665 180.996949 231.898134 180.149418 
C 231.050603 179.301887 229.900944 178.825683 228.702354 178.825683 
C 227.503765 178.825683 226.354105 179.301887 225.506575 180.149418 
C 224.659044 180.996949 224.182839 182.146608 224.182839 183.345198 
C 224.182839 184.543787 224.659044 185.693447 225.506575 186.540977 
C 226.354105 187.388508 227.503765 187.864713 228.702354 187.864713 
z
" clip-path="url(#p66f6b4d650)" style="fill: #bb8bff; stroke: #bb8bff; stroke-width: 1.5; stroke-linejoin: miter"/>
   </g>
   <g id="patch_50">
    <path d="M 213.637304 244.764247 
L 243.767404 244.764247 
L 243.767404 214.634147 
L 213.637304 214.634147 
z
" clip-path="url(#p66f6b4d650)" style="fill: #bb8bff; stroke: #bb8bff; stroke-width: 1.5; stroke-linejoin: miter"/>
   </g>
   <g id="patch_51">
    <path d="M 275.056354 234.218712 
C 276.254943 234.218712 277.404603 233.742507 278.252133 232.894977 
C 279.099664 232.047446 279.575869 230.897786 279.575869 229.699197 
C 279.575869 228.500608 279.099664 227.350948 278.252133 226.503417 
C 277.404603 225.655887 276.254943 225.179682 275.056354 225.179682 
C 273.857764 225.179682 272.708105 225.655887 271.860574 226.503417 
C 271.013043 227.350948 270.536839 228.500608 270.536839 229.699197 
C 270.536839 230.897786 271.013043 232.047446 271.860574 232.894977 
C 272.708105 233.742507 273.857764 234.218712 275.056354 234.218712 
z
" clip-path="url(#p66f6b4d650)" style="fill: #bb8bff; stroke: #bb8bff; stroke-width: 1.5; stroke-linejoin: miter"/>
   </g>
   <g id="patch_52">
    <path d="M 259.991304 291.118246 
L 290.121403 291.118246 
L 290.121403 260.988147 
L 259.991304 260.988147 
z
" clip-path="url(#p66f6b4d650)" style="fill: #bb8bff; stroke: #bb8bff; stroke-width: 1.5; stroke-linejoin: miter"/>
   </g>
   <g id="patch_53">
    <path d="M 321.410353 280.572711 
C 322.608942 280.572711 323.758602 280.096507 324.606133 279.248976 
C 325.453663 278.401445 325.929868 277.251786 325.929868 276.053196 
C 325.929868 274.854607 325.453663 273.704947 324.606133 272.857417 
C 323.758602 272.009886 322.608942 271.533681 321.410353 271.533681 
C 320.211764 271.533681 319.062104 272.009886 318.214573 272.857417 
C 317.367043 273.704947 316.890838 274.854607 316.890838 276.053196 
C 316.890838 277.251786 317.367043 278.401445 318.214573 279.248976 
C 319.062104 280.096507 320.211764 280.572711 321.410353 280.572711 
z
" clip-path="url(#p66f6b4d650)" style="fill: #bb8bff; stroke: #bb8bff; stroke-width: 1.5; stroke-linejoin: miter"/>
   </g>
   <g id="patch_54">
    <path d="M 306.345303 337.472246 
L 336.475403 337.472246 
L 336.475403 307.342146 
L 306.345303 307.342146 
z
" clip-path="url(#p66f6b4d650)" style="fill: #bb8bff; stroke: #bb8bff; stroke-width: 1.5; stroke-linejoin: miter"/>
   </g>
   <g id="patch_55">
    <path d="M 367.764352 326.926711 
C 368.962942 326.926711 370.112601 326.450506 370.960132 325.602975 
C 371.807663 324.755445 372.283867 323.605785 372.283867 322.407196 
C 372.283867 321.208606 371.807663 320.058947 370.960132 319.211416 
C 370.112601 318.363885 368.962942 317.887681 367.764352 317.887681 
C 366.565763 317.887681 365.416103 318.363885 364.568573 319.211416 
C 363.721042 320.058947 363.244837 321.208606 363.244837 322.407196 
C 363.244837 323.605785 363.721042 324.755445 364.568573 325.602975 
C 365.416103 326.450506 366.565763 326.926711 367.764352 326.926711 
z
" clip-path="url(#p66f6b4d650)" style="fill: #bb8bff; stroke: #bb8bff; stroke-width: 1.5; stroke-linejoin: miter"/>
   </g>
   <g id="patch_56">
    <path d="M 352.699303 383.826245 
L 382.829402 383.826245 
L 382.829402 353.696145 
L 352.699303 353.696145 
z
" clip-path="url(#p66f6b4d650)" style="fill: #bb8bff; stroke: #bb8bff; stroke-width: 1.5; stroke-linejoin: miter"/>
   </g>
   <g id="patch_57">
    <path d="M 414.118352 373.28071 
C 415.316941 373.28071 416.466601 372.804506 417.314131 371.956975 
C 418.161662 371.109444 418.637867 369.959785 418.637867 368.761195 
C 418.637867 367.562606 418.161662 366.412946 417.314131 365.565416 
C 416.466601 364.717885 415.316941 364.24168 414.118352 364.24168 
C 412.919762 364.24168 411.770103 364.717885 410.922572 365.565416 
C 410.075041 366.412946 409.598837 367.562606 409.598837 368.761195 
C 409.598837 369.959785 410.075041 371.109444 410.922572 371.956975 
C 411.770103 372.804506 412.919762 373.28071 414.118352 373.28071 
z
" clip-path="url(#p66f6b4d650)" style="fill: #bb8bff; stroke: #bb8bff; stroke-width: 1.5; stroke-linejoin: miter"/>
   </g>
   <g id="patch_58">
    <path d="M 399.053302 59.348249 
L 429.183402 59.348249 
L 429.183402 29.21815 
L 399.053302 29.21815 
z
" clip-path="url(#p66f6b4d650)" style="fill: #bb8bff; stroke: #bb8bff; stroke-width: 1.5; stroke-linejoin: miter"/>
   </g>
   <g id="patch_59">
    <path d="M 506.826351 141.510713 
C 508.02494 141.510713 509.1746 141.034509 510.02213 140.186978 
C 510.869661 139.339447 511.345866 138.189788 511.345866 136.991198 
C 511.345866 135.792609 510.869661 134.642949 510.02213 133.795419 
C 509.1746 132.947888 508.02494 132.471683 506.826351 132.471683 
C 505.627761 132.471683 504.478102 132.947888 503.630571 133.795419 
C 502.78304 134.642949 502.306836 135.792609 502.306836 136.991198 
C 502.306836 138.189788 502.78304 139.339447 503.630571 140.186978 
C 504.478102 141.034509 505.627761 141.510713 506.826351 141.510713 
z
" clip-path="url(#p66f6b4d650)" style="fill: #6fa4ff; stroke: #6fa4ff; stroke-width: 1.5; stroke-linejoin: miter"/>
   </g>
   <g id="patch_60">
    <path d="M 506.826351 54.828734 
C 509.623059 54.828734 512.305598 53.71759 514.28317 51.740019 
C 516.260741 49.762447 517.371885 47.079908 517.371885 44.2832 
C 517.371885 41.486491 516.260741 38.803952 514.28317 36.82638 
C 512.305598 34.848809 509.623059 33.737665 506.826351 33.737665 
C 504.029642 33.737665 501.347103 34.848809 499.369531 36.82638 
C 497.39196 38.803952 496.280816 41.486491 496.280816 44.2832 
C 496.280816 47.079908 497.39196 49.762447 499.369531 51.740019 
C 501.347103 53.71759 504.029642 54.828734 506.826351 54.828734 
z
" clip-path="url(#p66f6b4d650)" style="fill: #6fa4ff; stroke: #6fa4ff; stroke-width: 2; stroke-linejoin: miter"/>
   </g>
   <g id="patch_61">
    <path d="M 506.826351 234.218712 
C 508.02494 234.218712 509.1746 233.742507 510.02213 232.894977 
C 510.869661 232.047446 511.345866 230.897786 511.345866 229.699197 
C 511.345866 228.500608 510.869661 227.350948 510.02213 226.503417 
C 509.1746 225.655887 508.02494 225.179682 506.826351 225.179682 
C 505.627761 225.179682 504.478102 225.655887 503.630571 226.503417 
C 502.78304 227.350948 502.306836 228.500608 502.306836 229.699197 
C 502.306836 230.897786 502.78304 232.047446 503.630571 232.894977 
C 504.478102 233.742507 505.627761 234.218712 506.826351 234.218712 
z
" clip-path="url(#p66f6b4d650)" style="fill: #6fa4ff; stroke: #6fa4ff; stroke-width: 1.5; stroke-linejoin: miter"/>
   </g>
   <g id="patch_62">
    <path d="M 506.826351 332.952731 
C 509.623059 332.952731 512.305598 331.841587 514.28317 329.864015 
C 516.260741 327.886443 517.371885 325.203904 517.371885 322.407196 
C 517.371885 319.610487 516.260741 316.927948 514.28317 314.950377 
C 512.305598 312.972805 509.623059 311.861661 506.826351 311.861661 
C 504.029642 311.861661 501.347103 312.972805 499.369531 314.950377 
C 497.39196 316.927948 496.280816 319.610487 496.280816 322.407196 
C 496.280816 325.203904 497.39196 327.886443 499.369531 329.864015 
C 501.347103 331.841587 504.029642 332.952731 506.826351 332.952731 
z
" clip-path="url(#p66f6b4d650)" style="fill: #6fa4ff; stroke: #6fa4ff; stroke-width: 2; stroke-linejoin: miter"/>
   </g>
   <g id="patch_63">
    <path d="M 553.18035 187.864713 
C 554.378939 187.864713 555.528599 187.388508 556.37613 186.540977 
C 557.22366 185.693447 557.699865 184.543787 557.699865 183.345198 
C 557.699865 182.146608 557.22366 180.996949 556.37613 180.149418 
C 555.528599 179.301887 554.378939 178.825683 553.18035 178.825683 
C 551.981761 178.825683 550.832101 179.301887 549.98457 180.149418 
C 549.13704 180.996949 548.660835 182.146608 548.660835 183.345198 
C 548.660835 184.543787 549.13704 185.693447 549.98457 186.540977 
C 550.832101 187.388508 551.981761 187.864713 553.18035 187.864713 
z
" clip-path="url(#p66f6b4d650)" style="fill: #6fa4ff; stroke: #6fa4ff; stroke-width: 1.5; stroke-linejoin: miter"/>
   </g>
   <g id="patch_64">
    <path d="M 553.18035 101.182734 
C 555.977059 101.182734 558.659598 100.07159 560.637169 98.094018 
C 562.614741 96.116447 563.725885 93.433907 563.725885 90.637199 
C 563.725885 87.84049 562.614741 85.157951 560.637169 83.18038 
C 558.659598 81.202808 555.977059 80.091664 553.18035 80.091664 
C 550.383641 80.091664 547.701102 81.202808 545.723531 83.18038 
C 543.745959 85.157951 542.634815 87.84049 542.634815 90.637199 
C 542.634815 93.433907 543.745959 96.116447 545.723531 98.094018 
C 547.701102 100.07159 550.383641 101.182734 553.18035 101.182734 
z
" clip-path="url(#p66f6b4d650)" style="fill: #6fa4ff; stroke: #6fa4ff; stroke-width: 2; stroke-linejoin: miter"/>
   </g>
   <g id="patch_65">
    <path d="M 553.18035 280.572711 
C 554.378939 280.572711 555.528599 280.096507 556.37613 279.248976 
C 557.22366 278.401445 557.699865 277.251786 557.699865 276.053196 
C 557.699865 274.854607 557.22366 273.704947 556.37613 272.857417 
C 555.528599 272.009886 554.378939 271.533681 553.18035 271.533681 
C 551.981761 271.533681 550.832101 272.009886 549.98457 272.857417 
C 549.13704 273.704947 548.660835 274.854607 548.660835 276.053196 
C 548.660835 277.251786 549.13704 278.401445 549.98457 279.248976 
C 550.832101 280.096507 551.981761 280.572711 553.18035 280.572711 
z
" clip-path="url(#p66f6b4d650)" style="fill: #6fa4ff; stroke: #6fa4ff; stroke-width: 1.5; stroke-linejoin: miter"/>
   </g>
   <g id="patch_66">
    <path d="M 553.18035 379.30673 
C 555.977059 379.30673 558.659598 378.195586 560.637169 376.218014 
C 562.614741 374.240443 563.725885 371.557904 563.725885 368.761195 
C 563.725885 365.964487 562.614741 363.281948 560.637169 361.304376 
C 558.659598 359.326804 555.977059 358.21566 553.18035 358.21566 
C 550.383641 358.21566 547.701102 359.326804 545.723531 361.304376 
C 543.745959 363.281948 542.634815 365.964487 542.634815 368.761195 
C 542.634815 371.557904 543.745959 374.240443 545.723531 376.218014 
C 547.701102 378.195586 550.383641 379.30673 553.18035 379.30673 
z
" clip-path="url(#p66f6b4d650)" style="fill: #6fa4ff; stroke: #6fa4ff; stroke-width: 2; stroke-linejoin: miter"/>
   </g>
   <g id="patch_67">
    <path d="M 645.888349 48.802714 
C 647.086938 48.802714 648.236598 48.32651 649.084128 47.478979 
C 649.931659 46.631448 650.407864 45.481789 650.407864 44.2832 
C 650.407864 43.08461 649.931659 41.934951 649.084128 41.08742 
C 648.236598 40.239889 647.086938 39.763685 645.888349 39.763685 
C 644.689759 39.763685 643.5401 40.239889 642.692569 41.08742 
C 641.845038 41.934951 641.368834 43.08461 641.368834 44.2832 
C 641.368834 45.481789 641.845038 46.631448 642.692569 47.478979 
C 643.5401 48.32651 644.689759 48.802714 645.888349 48.802714 
z
" clip-path="url(#p66f6b4d650)" style="fill: #bb8bff; stroke: #bb8bff; stroke-width: 1.5; stroke-linejoin: miter"/>
   </g>
   <g id="patch_68">
    <path d="M 630.823299 105.702249 
L 660.953399 105.702249 
L 660.953399 75.572149 
L 630.823299 75.572149 
z
" clip-path="url(#p66f6b4d650)" style="fill: #bb8bff; stroke: #bb8bff; stroke-width: 1.5; stroke-linejoin: miter"/>
   </g>
   <g id="patch_69">
    <path d="M 692.242348 95.156714 
C 693.440937 95.156714 694.590597 94.680509 695.438128 93.832979 
C 696.285658 92.985448 696.761863 91.835788 696.761863 90.637199 
C 696.761863 89.43861 696.285658 88.28895 695.438128 87.441419 
C 694.590597 86.593889 693.440937 86.117684 692.242348 86.117684 
C 691.043759 86.117684 689.894099 86.593889 689.046568 87.441419 
C 688.199038 88.28895 687.722833 89.43861 687.722833 90.637199 
C 687.722833 91.835788 688.199038 92.985448 689.046568 93.832979 
C 689.894099 94.680509 691.043759 95.156714 692.242348 95.156714 
z
" clip-path="url(#p66f6b4d650)" style="fill: #bb8bff; stroke: #bb8bff; stroke-width: 1.5; stroke-linejoin: miter"/>
   </g>
   <g id="patch_70">
    <path d="M 677.177298 337.472246 
L 707.307398 337.472246 
L 707.307398 307.342146 
L 677.177298 307.342146 
z
" clip-path="url(#p66f6b4d650)" style="fill: #bb8bff; stroke: #bb8bff; stroke-width: 1.5; stroke-linejoin: miter"/>
   </g>
   <g id="patch_71">
    <path d="M 738.596348 326.926711 
C 739.794937 326.926711 740.944596 326.450506 741.792127 325.602975 
C 742.639658 324.755445 743.115862 323.605785 743.115862 322.407196 
C 743.115862 321.208606 742.639658 320.058947 741.792127 319.211416 
C 740.944596 318.363885 739.794937 317.887681 738.596348 317.887681 
C 737.397758 317.887681 736.248099 318.363885 735.400568 319.211416 
C 734.553037 320.058947 734.076833 321.208606 734.076833 322.407196 
C 734.076833 323.605785 734.553037 324.755445 735.400568 325.602975 
C 736.248099 326.450506 737.397758 326.926711 738.596348 326.926711 
z
" clip-path="url(#p66f6b4d650)" style="fill: #bb8bff; stroke: #bb8bff; stroke-width: 1.5; stroke-linejoin: miter"/>
   </g>
   <g id="patch_72">
    <path d="M 723.531298 383.826245 
L 753.661397 383.826245 
L 753.661397 353.696145 
L 723.531298 353.696145 
z
" clip-path="url(#p66f6b4d650)" style="fill: #bb8bff; stroke: #bb8bff; stroke-width: 1.5; stroke-linejoin: miter"/>
   </g>
   <g id="patch_73">
    <path d="M 784.950347 373.28071 
C 786.148936 373.28071 787.298596 372.804506 788.146127 371.956975 
C 788.993657 371.109444 789.469862 369.959785 789.469862 368.761195 
C 789.469862 367.562606 788.993657 366.412946 788.146127 365.565416 
C 787.298596 364.717885 786.148936 364.24168 784.950347 364.24168 
C 783.751758 364.24168 782.602098 364.717885 781.754567 365.565416 
C 780.907037 366.412946 780.430832 367.562606 780.430832 368.761195 
C 780.430832 369.959785 780.907037 371.109444 781.754567 371.956975 
C 782.602098 372.804506 783.751758 373.28071 784.950347 373.28071 
z
" clip-path="url(#p66f6b4d650)" style="fill: #bb8bff; stroke: #bb8bff; stroke-width: 1.5; stroke-linejoin: miter"/>
   </g>
   <g id="patch_74">
    <path d="M 769.885297 59.348249 
L 800.015397 59.348249 
L 800.015397 29.21815 
L 769.885297 29.21815 
z
" clip-path="url(#p66f6b4d650)" style="fill: #bb8bff; stroke: #bb8bff; stroke-width: 1.5; stroke-linejoin: miter"/>
   </g>
   <g id="patch_75">
    <path d="M 877.658346 95.156714 
C 878.856935 95.156714 880.006595 94.680509 880.854125 93.832979 
C 881.701656 92.985448 882.177861 91.835788 882.177861 90.637199 
C 882.177861 89.43861 881.701656 88.28895 880.854125 87.441419 
C 880.006595 86.593889 878.856935 86.117684 877.658346 86.117684 
C 876.459756 86.117684 875.310097 86.593889 874.462566 87.441419 
C 873.615035 88.28895 873.138831 89.43861 873.138831 90.637199 
C 873.138831 91.835788 873.615035 92.985448 874.462566 93.832979 
C 875.310097 94.680509 876.459756 95.156714 877.658346 95.156714 
z
" clip-path="url(#p66f6b4d650)" style="fill: #6fa4ff; stroke: #6fa4ff; stroke-width: 1.5; stroke-linejoin: miter"/>
   </g>
   <g id="patch_76">
    <path d="M 877.658346 54.828734 
C 880.455054 54.828734 883.137593 53.71759 885.115165 51.740019 
C 887.092736 49.762447 888.203881 47.079908 888.203881 44.2832 
C 888.203881 41.486491 887.092736 38.803952 885.115165 36.82638 
C 883.137593 34.848809 880.455054 33.737665 877.658346 33.737665 
C 874.861637 33.737665 872.179098 34.848809 870.201526 36.82638 
C 868.223955 38.803952 867.112811 41.486491 867.112811 44.2832 
C 867.112811 47.079908 868.223955 49.762447 870.201526 51.740019 
C 872.179098 53.71759 874.861637 54.828734 877.658346 54.828734 
z
" clip-path="url(#p66f6b4d650)" style="fill: #6fa4ff; stroke: #6fa4ff; stroke-width: 2; stroke-linejoin: miter"/>
   </g>
   <g id="patch_77">
    <path d="M 877.658346 326.926711 
C 878.856935 326.926711 880.006595 326.450506 880.854125 325.602975 
C 881.701656 324.755445 882.177861 323.605785 882.177861 322.407196 
C 882.177861 321.208606 881.701656 320.058947 880.854125 319.211416 
C 880.006595 318.363885 878.856935 317.887681 877.658346 317.887681 
C 876.459756 317.887681 875.310097 318.363885 874.462566 319.211416 
C 873.615035 320.058947 873.138831 321.208606 873.138831 322.407196 
C 873.138831 323.605785 873.615035 324.755445 874.462566 325.602975 
C 875.310097 326.450506 876.459756 326.926711 877.658346 326.926711 
z
" clip-path="url(#p66f6b4d650)" style="fill: #6fa4ff; stroke: #6fa4ff; stroke-width: 1.5; stroke-linejoin: miter"/>
   </g>
   <g id="patch_78">
    <path d="M 877.658346 379.30673 
C 880.455054 379.30673 883.137593 378.195586 885.115165 376.218014 
C 887.092736 374.240443 888.203881 371.557904 888.203881 368.761195 
C 888.203881 365.964487 887.092736 363.281948 885.115165 361.304376 
C 883.137593 359.326804 880.455054 358.21566 877.658346 358.21566 
C 874.861637 358.21566 872.179098 359.326804 870.201526 361.304376 
C 868.223955 363.281948 867.112811 365.964487 867.112811 368.761195 
C 867.112811 371.557904 868.223955 374.240443 870.201526 376.218014 
C 872.179098 378.195586 874.861637 379.30673 877.658346 379.30673 
z
" clip-path="url(#p66f6b4d650)" style="fill: #6fa4ff; stroke: #6fa4ff; stroke-width: 2; stroke-linejoin: miter"/>
   </g>
   <g id="patch_79">
    <path d="M 970.366344 48.802714 
C 971.564934 48.802714 972.714593 48.32651 973.562124 47.478979 
C 974.409655 46.631448 974.885859 45.481789 974.885859 44.2832 
C 974.885859 43.08461 974.409655 41.934951 973.562124 41.08742 
C 972.714593 40.239889 971.564934 39.763685 970.366344 39.763685 
C 969.167755 39.763685 968.018095 40.239889 967.170565 41.08742 
C 966.323034 41.934951 965.846829 43.08461 965.846829 44.2832 
C 965.846829 45.481789 966.323034 46.631448 967.170565 47.478979 
C 968.018095 48.32651 969.167755 48.802714 970.366344 48.802714 
z
" clip-path="url(#p66f6b4d650)" style="fill: #bb8bff; stroke: #bb8bff; stroke-width: 1.5; stroke-linejoin: miter"/>
   </g>
   <g id="patch_80">
    <path d="M 955.301295 383.826245 
L 985.431394 383.826245 
L 985.431394 353.696145 
L 955.301295 353.696145 
z
" clip-path="url(#p66f6b4d650)" style="fill: #bb8bff; stroke: #bb8bff; stroke-width: 1.5; stroke-linejoin: miter"/>
   </g>
   <g id="patch_81">
    <path d="M 1063.074343 373.28071 
C 1064.272933 373.28071 1065.422592 372.804506 1066.270123 371.956975 
C 1067.117654 371.109444 1067.593858 369.959785 1067.593858 368.761195 
C 1067.593858 367.562606 1067.117654 366.412946 1066.270123 365.565416 
C 1065.422592 364.717885 1064.272933 364.24168 1063.074343 364.24168 
C 1061.875754 364.24168 1060.726094 364.717885 1059.878564 365.565416 
C 1059.031033 366.412946 1058.554828 367.562606 1058.554828 368.761195 
C 1058.554828 369.959785 1059.031033 371.109444 1059.878564 371.956975 
C 1060.726094 372.804506 1061.875754 373.28071 1063.074343 373.28071 
z
" clip-path="url(#p66f6b4d650)" style="fill: #6fa4ff; stroke: #6fa4ff; stroke-width: 1.5; stroke-linejoin: miter"/>
   </g>
   <g id="patch_82">
    <path d="M 1063.074343 54.828734 
C 1065.871052 54.828734 1068.553591 53.71759 1070.531162 51.740019 
C 1072.508734 49.762447 1073.619878 47.079908 1073.619878 44.2832 
C 1073.619878 41.486491 1072.508734 38.803952 1070.531162 36.82638 
C 1068.553591 34.848809 1065.871052 33.737665 1063.074343 33.737665 
C 1060.277635 33.737665 1057.595096 34.848809 1055.617524 36.82638 
C 1053.639952 38.803952 1052.528808 41.486491 1052.528808 44.2832 
C 1052.528808 47.079908 1053.639952 49.762447 1055.617524 51.740019 
C 1057.595096 53.71759 1060.277635 54.828734 1063.074343 54.828734 
z
" clip-path="url(#p66f6b4d650)" style="fill: #6fa4ff; stroke: #6fa4ff; stroke-width: 2; stroke-linejoin: miter"/>
   </g>
   <g id="line2d_29">
    <path d="M 506.826351 50.309219 
L 506.826351 38.25718 
" clip-path="url(#p66f6b4d650)" style="fill: none; stroke: #ffffff; stroke-width: 2; stroke-linecap: square"/>
   </g>
   <g id="line2d_30">
    <path d="M 500.800331 44.2832 
L 512.852371 44.2832 
" clip-path="url(#p66f6b4d650)" style="fill: none; stroke: #ffffff; stroke-width: 2; stroke-linecap: square"/>
   </g>
   <g id="line2d_31">
    <path d="M 506.826351 328.433216 
L 506.826351 316.381176 
" clip-path="url(#p66f6b4d650)" style="fill: none; stroke: #ffffff; stroke-width: 2; stroke-linecap: square"/>
   </g>
   <g id="line2d_32">
    <path d="M 500.800331 322.407196 
L 512.852371 322.407196 
" clip-path="url(#p66f6b4d650)" style="fill: none; stroke: #ffffff; stroke-width: 2; stroke-linecap: square"/>
   </g>
   <g id="line2d_33">
    <path d="M 553.18035 96.663219 
L 553.18035 84.611179 
" clip-path="url(#p66f6b4d650)" style="fill: none; stroke: #ffffff; stroke-width: 2; stroke-linecap: square"/>
   </g>
   <g id="line2d_34">
    <path d="M 547.15433 90.637199 
L 559.20637 90.637199 
" clip-path="url(#p66f6b4d650)" style="fill: none; stroke: #ffffff; stroke-width: 2; stroke-linecap: square"/>
   </g>
   <g id="line2d_35">
    <path d="M 553.18035 374.787215 
L 553.18035 362.735175 
" clip-path="url(#p66f6b4d650)" style="fill: none; stroke: #ffffff; stroke-width: 2; stroke-linecap: square"/>
   </g>
   <g id="line2d_36">
    <path d="M 547.15433 368.761195 
L 559.20637 368.761195 
" clip-path="url(#p66f6b4d650)" style="fill: none; stroke: #ffffff; stroke-width: 2; stroke-linecap: square"/>
   </g>
   <g id="line2d_37">
    <path d="M 877.658346 50.309219 
L 877.658346 38.25718 
" clip-path="url(#p66f6b4d650)" style="fill: none; stroke: #ffffff; stroke-width: 2; stroke-linecap: square"/>
   </g>
   <g id="line2d_38">
    <path d="M 871.632326 44.2832 
L 883.684366 44.2832 
" clip-path="url(#p66f6b4d650)" style="fill: none; stroke: #ffffff; stroke-width: 2; stroke-linecap: square"/>
   </g>
   <g id="line2d_39">
    <path d="M 877.658346 374.787215 
L 877.658346 362.735175 
" clip-path="url(#p66f6b4d650)" style="fill: none; stroke: #ffffff; stroke-width: 2; stroke-linecap: square"/>
   </g>
   <g id="line2d_40">
    <path d="M 871.632326 368.761195 
L 883.684366 368.761195 
" clip-path="url(#p66f6b4d650)" style="fill: none; stroke: #ffffff; stroke-width: 2; stroke-linecap: square"/>
   </g>
   <g id="line2d_41">
    <path d="M 1063.074343 50.309219 
L 1063.074343 38.25718 
" clip-path="url(#p66f6b4d650)" style="fill: none; stroke: #ffffff; stroke-width: 2; stroke-linecap: square"/>
   </g>
   <g id="line2d_42">
    <path d="M 1057.048323 44.2832 
L 1069.100363 44.2832 
" clip-path="url(#p66f6b4d650)" style="fill: none; stroke: #ffffff; stroke-width: 2; stroke-linecap: square"/>
   </g>
   <g id="text_1">
    <g clip-path="url(#p66f6b4d650)">
     <!-- ${q0}$ -->
     <g transform="translate(34.538397 48.734176) scale(0.1625 -0.1625)">
      <defs>
       <path id="DejaVuSans-Oblique-71" d="M 2669 525 
Q 2438 222 2123 65 
Q 1809 -91 1428 -91 
Q 897 -91 595 267 
Q 294 625 294 1253 
Q 294 1759 480 2231 
Q 666 2703 1013 3078 
Q 1238 3322 1530 3453 
Q 1822 3584 2144 3584 
Q 2531 3584 2781 3431 
Q 3031 3278 3144 2969 
L 3244 3494 
L 3822 3494 
L 2888 -1319 
L 2309 -1319 
L 2669 525 
z
M 891 1338 
Q 891 875 1084 633 
Q 1278 391 1644 391 
Q 2188 391 2572 911 
Q 2956 1431 2956 2175 
Q 2956 2625 2757 2864 
Q 2559 3103 2188 3103 
Q 1916 3103 1684 2976 
Q 1453 2850 1281 2606 
Q 1100 2350 995 2006 
Q 891 1663 891 1338 
z
" transform="scale(0.015625)"/>
       <path id="DejaVuSans-30" d="M 2034 4250 
Q 1547 4250 1301 3770 
Q 1056 3291 1056 2328 
Q 1056 1369 1301 889 
Q 1547 409 2034 409 
Q 2525 409 2770 889 
Q 3016 1369 3016 2328 
Q 3016 3291 2770 3770 
Q 2525 4250 2034 4250 
z
M 2034 4750 
Q 2819 4750 3233 4129 
Q 3647 3509 3647 2328 
Q 3647 1150 3233 529 
Q 2819 -91 2034 -91 
Q 1250 -91 836 529 
Q 422 1150 422 2328 
Q 422 3509 836 4129 
Q 1250 4750 2034 4750 
z
" transform="scale(0.015625)"/>
      </defs>
      <use xlink:href="#DejaVuSans-Oblique-71" transform="translate(0 0.78125)"/>
      <use xlink:href="#DejaVuSans-30" transform="translate(63.476562 0.78125)"/>
     </g>
    </g>
   </g>
   <g id="text_2">
    <g clip-path="url(#p66f6b4d650)">
     <!-- ${q1}$ -->
     <g transform="translate(34.538397 95.088175) scale(0.1625 -0.1625)">
      <defs>
       <path id="DejaVuSans-31" d="M 794 531 
L 1825 531 
L 1825 4091 
L 703 3866 
L 703 4441 
L 1819 4666 
L 2450 4666 
L 2450 531 
L 3481 531 
L 3481 0 
L 794 0 
L 794 531 
z
" transform="scale(0.015625)"/>
      </defs>
      <use xlink:href="#DejaVuSans-Oblique-71" transform="translate(0 0.09375)"/>
      <use xlink:href="#DejaVuSans-31" transform="translate(63.476562 0.09375)"/>
     </g>
    </g>
   </g>
   <g id="text_3">
    <g clip-path="url(#p66f6b4d650)">
     <!-- ${q2}$ -->
     <g transform="translate(34.538397 141.442175) scale(0.1625 -0.1625)">
      <defs>
       <path id="DejaVuSans-32" d="M 1228 531 
L 3431 531 
L 3431 0 
L 469 0 
L 469 531 
Q 828 903 1448 1529 
Q 2069 2156 2228 2338 
Q 2531 2678 2651 2914 
Q 2772 3150 2772 3378 
Q 2772 3750 2511 3984 
Q 2250 4219 1831 4219 
Q 1534 4219 1204 4116 
Q 875 4013 500 3803 
L 500 4441 
Q 881 4594 1212 4672 
Q 1544 4750 1819 4750 
Q 2544 4750 2975 4387 
Q 3406 4025 3406 3419 
Q 3406 3131 3298 2873 
Q 3191 2616 2906 2266 
Q 2828 2175 2409 1742 
Q 1991 1309 1228 531 
z
" transform="scale(0.015625)"/>
      </defs>
      <use xlink:href="#DejaVuSans-Oblique-71" transform="translate(0 0.78125)"/>
      <use xlink:href="#DejaVuSans-32" transform="translate(63.476562 0.78125)"/>
     </g>
    </g>
   </g>
   <g id="text_4">
    <g clip-path="url(#p66f6b4d650)">
     <!-- ${q3}$ -->
     <g transform="translate(34.538397 187.796174) scale(0.1625 -0.1625)">
      <defs>
       <path id="DejaVuSans-33" d="M 2597 2516 
Q 3050 2419 3304 2112 
Q 3559 1806 3559 1356 
Q 3559 666 3084 287 
Q 2609 -91 1734 -91 
Q 1441 -91 1130 -33 
Q 819 25 488 141 
L 488 750 
Q 750 597 1062 519 
Q 1375 441 1716 441 
Q 2309 441 2620 675 
Q 2931 909 2931 1356 
Q 2931 1769 2642 2001 
Q 2353 2234 1838 2234 
L 1294 2234 
L 1294 2753 
L 1863 2753 
Q 2328 2753 2575 2939 
Q 2822 3125 2822 3475 
Q 2822 3834 2567 4026 
Q 2313 4219 1838 4219 
Q 1578 4219 1281 4162 
Q 984 4106 628 3988 
L 628 4550 
Q 988 4650 1302 4700 
Q 1616 4750 1894 4750 
Q 2613 4750 3031 4423 
Q 3450 4097 3450 3541 
Q 3450 3153 3228 2886 
Q 3006 2619 2597 2516 
z
" transform="scale(0.015625)"/>
      </defs>
      <use xlink:href="#DejaVuSans-Oblique-71" transform="translate(0 0.78125)"/>
      <use xlink:href="#DejaVuSans-33" transform="translate(63.476562 0.78125)"/>
     </g>
    </g>
   </g>
   <g id="text_5">
    <g clip-path="url(#p66f6b4d650)">
     <!-- ${q4}$ -->
     <g transform="translate(34.538397 234.150174) scale(0.1625 -0.1625)">
      <defs>
       <path id="DejaVuSans-34" d="M 2419 4116 
L 825 1625 
L 2419 1625 
L 2419 4116 
z
M 2253 4666 
L 3047 4666 
L 3047 1625 
L 3713 1625 
L 3713 1100 
L 3047 1100 
L 3047 0 
L 2419 0 
L 2419 1100 
L 313 1100 
L 313 1709 
L 2253 4666 
z
" transform="scale(0.015625)"/>
      </defs>
      <use xlink:href="#DejaVuSans-Oblique-71" transform="translate(0 0.09375)"/>
      <use xlink:href="#DejaVuSans-34" transform="translate(63.476562 0.09375)"/>
     </g>
    </g>
   </g>
   <g id="text_6">
    <g clip-path="url(#p66f6b4d650)">
     <!-- ${q5}$ -->
     <g transform="translate(34.538397 280.504173) scale(0.1625 -0.1625)">
      <defs>
       <path id="DejaVuSans-35" d="M 691 4666 
L 3169 4666 
L 3169 4134 
L 1269 4134 
L 1269 2991 
Q 1406 3038 1543 3061 
Q 1681 3084 1819 3084 
Q 2600 3084 3056 2656 
Q 3513 2228 3513 1497 
Q 3513 744 3044 326 
Q 2575 -91 1722 -91 
Q 1428 -91 1123 -41 
Q 819 9 494 109 
L 494 744 
Q 775 591 1075 516 
Q 1375 441 1709 441 
Q 2250 441 2565 725 
Q 2881 1009 2881 1497 
Q 2881 1984 2565 2268 
Q 2250 2553 1709 2553 
Q 1456 2553 1204 2497 
Q 953 2441 691 2322 
L 691 4666 
z
" transform="scale(0.015625)"/>
      </defs>
      <use xlink:href="#DejaVuSans-Oblique-71" transform="translate(0 0.09375)"/>
      <use xlink:href="#DejaVuSans-35" transform="translate(63.476562 0.09375)"/>
     </g>
    </g>
   </g>
   <g id="text_7">
    <g clip-path="url(#p66f6b4d650)">
     <!-- ${q6}$ -->
     <g transform="translate(34.538397 326.858172) scale(0.1625 -0.1625)">
      <defs>
       <path id="DejaVuSans-36" d="M 2113 2584 
Q 1688 2584 1439 2293 
Q 1191 2003 1191 1497 
Q 1191 994 1439 701 
Q 1688 409 2113 409 
Q 2538 409 2786 701 
Q 3034 994 3034 1497 
Q 3034 2003 2786 2293 
Q 2538 2584 2113 2584 
z
M 3366 4563 
L 3366 3988 
Q 3128 4100 2886 4159 
Q 2644 4219 2406 4219 
Q 1781 4219 1451 3797 
Q 1122 3375 1075 2522 
Q 1259 2794 1537 2939 
Q 1816 3084 2150 3084 
Q 2853 3084 3261 2657 
Q 3669 2231 3669 1497 
Q 3669 778 3244 343 
Q 2819 -91 2113 -91 
Q 1303 -91 875 529 
Q 447 1150 447 2328 
Q 447 3434 972 4092 
Q 1497 4750 2381 4750 
Q 2619 4750 2861 4703 
Q 3103 4656 3366 4563 
z
" transform="scale(0.015625)"/>
      </defs>
      <use xlink:href="#DejaVuSans-Oblique-71" transform="translate(0 0.78125)"/>
      <use xlink:href="#DejaVuSans-36" transform="translate(63.476562 0.78125)"/>
     </g>
    </g>
   </g>
   <g id="text_8">
    <g clip-path="url(#p66f6b4d650)">
     <!-- ${q7}$ -->
     <g transform="translate(34.538397 373.212172) scale(0.1625 -0.1625)">
      <defs>
       <path id="DejaVuSans-37" d="M 525 4666 
L 3525 4666 
L 3525 4397 
L 1831 0 
L 1172 0 
L 2766 4134 
L 525 4134 
L 525 4666 
z
" transform="scale(0.015625)"/>
      </defs>
      <use xlink:href="#DejaVuSans-Oblique-71" transform="translate(0 0.09375)"/>
      <use xlink:href="#DejaVuSans-37" transform="translate(63.476562 0.09375)"/>
     </g>
    </g>
   </g>
   <g id="text_9">
    <g clip-path="url(#p66f6b4d650)">
     <!-- x_0 -->
     <g transform="translate(82.727856 101.701854) scale(0.08 -0.08)">
      <defs>
       <path id="DejaVuSans-78" d="M 3513 3500 
L 2247 1797 
L 3578 0 
L 2900 0 
L 1881 1375 
L 863 0 
L 184 0 
L 1544 1831 
L 300 3500 
L 978 3500 
L 1906 2253 
L 2834 3500 
L 3513 3500 
z
" transform="scale(0.015625)"/>
       <path id="DejaVuSans-5f" d="M 3263 -1063 
L 3263 -1509 
L -63 -1509 
L -63 -1063 
L 3263 -1063 
z
" transform="scale(0.015625)"/>
      </defs>
      <use xlink:href="#DejaVuSans-78"/>
      <use xlink:href="#DejaVuSans-5f" x="59.179688"/>
      <use xlink:href="#DejaVuSans-30" x="109.179688"/>
     </g>
    </g>
   </g>
   <g id="text_10">
    <g clip-path="url(#p66f6b4d650)">
     <!-- $\mathrm{R_Z}$ -->
     <g transform="translate(81.710356 89.704871) scale(0.13 -0.13)">
      <defs>
       <path id="DejaVuSans-52" d="M 2841 2188 
Q 3044 2119 3236 1894 
Q 3428 1669 3622 1275 
L 4263 0 
L 3584 0 
L 2988 1197 
Q 2756 1666 2539 1819 
Q 2322 1972 1947 1972 
L 1259 1972 
L 1259 0 
L 628 0 
L 628 4666 
L 2053 4666 
Q 2853 4666 3247 4331 
Q 3641 3997 3641 3322 
Q 3641 2881 3436 2590 
Q 3231 2300 2841 2188 
z
M 1259 4147 
L 1259 2491 
L 2053 2491 
Q 2509 2491 2742 2702 
Q 2975 2913 2975 3322 
Q 2975 3731 2742 3939 
Q 2509 4147 2053 4147 
L 1259 4147 
z
" transform="scale(0.015625)"/>
       <path id="DejaVuSans-5a" d="M 359 4666 
L 4025 4666 
L 4025 4184 
L 1075 531 
L 4097 531 
L 4097 0 
L 288 0 
L 288 481 
L 3238 4134 
L 359 4134 
L 359 4666 
z
" transform="scale(0.015625)"/>
      </defs>
      <use xlink:href="#DejaVuSans-52" transform="translate(0 0.09375)"/>
      <use xlink:href="#DejaVuSans-5a" transform="translate(70.439453 -16.3125) scale(0.7)"/>
     </g>
    </g>
   </g>
   <g id="text_11">
    <g clip-path="url(#p66f6b4d650)">
     <!-- x_0 -->
     <g transform="translate(129.081856 148.055853) scale(0.08 -0.08)">
      <use xlink:href="#DejaVuSans-78"/>
      <use xlink:href="#DejaVuSans-5f" x="59.179688"/>
      <use xlink:href="#DejaVuSans-30" x="109.179688"/>
     </g>
    </g>
   </g>
   <g id="text_12">
    <g clip-path="url(#p66f6b4d650)">
     <!-- $\mathrm{R_Z}$ -->
     <g transform="translate(128.064356 136.058871) scale(0.13 -0.13)">
      <use xlink:href="#DejaVuSans-52" transform="translate(0 0.09375)"/>
      <use xlink:href="#DejaVuSans-5a" transform="translate(70.439453 -16.3125) scale(0.7)"/>
     </g>
    </g>
   </g>
   <g id="text_13">
    <g clip-path="url(#p66f6b4d650)">
     <!-- x_0 -->
     <g transform="translate(175.435855 194.409853) scale(0.08 -0.08)">
      <use xlink:href="#DejaVuSans-78"/>
      <use xlink:href="#DejaVuSans-5f" x="59.179688"/>
      <use xlink:href="#DejaVuSans-30" x="109.179688"/>
     </g>
    </g>
   </g>
   <g id="text_14">
    <g clip-path="url(#p66f6b4d650)">
     <!-- $\mathrm{R_Z}$ -->
     <g transform="translate(174.418355 182.41287) scale(0.13 -0.13)">
      <use xlink:href="#DejaVuSans-52" transform="translate(0 0.09375)"/>
      <use xlink:href="#DejaVuSans-5a" transform="translate(70.439453 -16.3125) scale(0.7)"/>
     </g>
    </g>
   </g>
   <g id="text_15">
    <g clip-path="url(#p66f6b4d650)">
     <!-- x_0 -->
     <g transform="translate(221.789854 240.763852) scale(0.08 -0.08)">
      <use xlink:href="#DejaVuSans-78"/>
      <use xlink:href="#DejaVuSans-5f" x="59.179688"/>
      <use xlink:href="#DejaVuSans-30" x="109.179688"/>
     </g>
    </g>
   </g>
   <g id="text_16">
    <g clip-path="url(#p66f6b4d650)">
     <!-- $\mathrm{R_Z}$ -->
     <g transform="translate(220.772354 228.76687) scale(0.13 -0.13)">
      <use xlink:href="#DejaVuSans-52" transform="translate(0 0.09375)"/>
      <use xlink:href="#DejaVuSans-5a" transform="translate(70.439453 -16.3125) scale(0.7)"/>
     </g>
    </g>
   </g>
   <g id="text_17">
    <g clip-path="url(#p66f6b4d650)">
     <!-- x_0 -->
     <g transform="translate(268.143854 287.117851) scale(0.08 -0.08)">
      <use xlink:href="#DejaVuSans-78"/>
      <use xlink:href="#DejaVuSans-5f" x="59.179688"/>
      <use xlink:href="#DejaVuSans-30" x="109.179688"/>
     </g>
    </g>
   </g>
   <g id="text_18">
    <g clip-path="url(#p66f6b4d650)">
     <!-- $\mathrm{R_Z}$ -->
     <g transform="translate(267.126354 275.120869) scale(0.13 -0.13)">
      <use xlink:href="#DejaVuSans-52" transform="translate(0 0.09375)"/>
      <use xlink:href="#DejaVuSans-5a" transform="translate(70.439453 -16.3125) scale(0.7)"/>
     </g>
    </g>
   </g>
   <g id="text_19">
    <g clip-path="url(#p66f6b4d650)">
     <!-- x_0 -->
     <g transform="translate(314.497853 333.471851) scale(0.08 -0.08)">
      <use xlink:href="#DejaVuSans-78"/>
      <use xlink:href="#DejaVuSans-5f" x="59.179688"/>
      <use xlink:href="#DejaVuSans-30" x="109.179688"/>
     </g>
    </g>
   </g>
   <g id="text_20">
    <g clip-path="url(#p66f6b4d650)">
     <!-- $\mathrm{R_Z}$ -->
     <g transform="translate(313.480353 321.474868) scale(0.13 -0.13)">
      <use xlink:href="#DejaVuSans-52" transform="translate(0 0.09375)"/>
      <use xlink:href="#DejaVuSans-5a" transform="translate(70.439453 -16.3125) scale(0.7)"/>
     </g>
    </g>
   </g>
   <g id="text_21">
    <g clip-path="url(#p66f6b4d650)">
     <!-- x_0 -->
     <g transform="translate(360.851852 379.82585) scale(0.08 -0.08)">
      <use xlink:href="#DejaVuSans-78"/>
      <use xlink:href="#DejaVuSans-5f" x="59.179688"/>
      <use xlink:href="#DejaVuSans-30" x="109.179688"/>
     </g>
    </g>
   </g>
   <g id="text_22">
    <g clip-path="url(#p66f6b4d650)">
     <!-- $\mathrm{R_Z}$ -->
     <g transform="translate(359.834352 367.828868) scale(0.13 -0.13)">
      <use xlink:href="#DejaVuSans-52" transform="translate(0 0.09375)"/>
      <use xlink:href="#DejaVuSans-5a" transform="translate(70.439453 -16.3125) scale(0.7)"/>
     </g>
    </g>
   </g>
   <g id="text_23">
    <g clip-path="url(#p66f6b4d650)">
     <!-- x_0 -->
     <g transform="translate(407.205852 55.347854) scale(0.08 -0.08)">
      <use xlink:href="#DejaVuSans-78"/>
      <use xlink:href="#DejaVuSans-5f" x="59.179688"/>
      <use xlink:href="#DejaVuSans-30" x="109.179688"/>
     </g>
    </g>
   </g>
   <g id="text_24">
    <g clip-path="url(#p66f6b4d650)">
     <!-- $\mathrm{R_Z}$ -->
     <g transform="translate(406.188352 43.350872) scale(0.13 -0.13)">
      <use xlink:href="#DejaVuSans-52" transform="translate(0 0.09375)"/>
      <use xlink:href="#DejaVuSans-5a" transform="translate(70.439453 -16.3125) scale(0.7)"/>
     </g>
    </g>
   </g>
   <g id="line2d_43">
    <path d="M 460.472351 21.1062 
L 460.472351 67.460199 
" clip-path="url(#p66f6b4d650)" style="fill: none; stroke-dasharray: 3.7,1.6; stroke-dashoffset: 0; stroke: #000000"/>
   </g>
   <g id="line2d_44">
    <path d="M 460.472351 67.460199 
L 460.472351 113.814199 
" clip-path="url(#p66f6b4d650)" style="fill: none; stroke-dasharray: 3.7,1.6; stroke-dashoffset: 0; stroke: #000000"/>
   </g>
   <g id="line2d_45">
    <path d="M 460.472351 113.814199 
L 460.472351 160.168198 
" clip-path="url(#p66f6b4d650)" style="fill: none; stroke-dasharray: 3.7,1.6; stroke-dashoffset: 0; stroke: #000000"/>
   </g>
   <g id="line2d_46">
    <path d="M 460.472351 160.168198 
L 460.472351 206.522197 
" clip-path="url(#p66f6b4d650)" style="fill: none; stroke-dasharray: 3.7,1.6; stroke-dashoffset: 0; stroke: #000000"/>
   </g>
   <g id="line2d_47">
    <path d="M 460.472351 206.522197 
L 460.472351 252.876197 
" clip-path="url(#p66f6b4d650)" style="fill: none; stroke-dasharray: 3.7,1.6; stroke-dashoffset: 0; stroke: #000000"/>
   </g>
   <g id="line2d_48">
    <path d="M 460.472351 252.876197 
L 460.472351 299.230196 
" clip-path="url(#p66f6b4d650)" style="fill: none; stroke-dasharray: 3.7,1.6; stroke-dashoffset: 0; stroke: #000000"/>
   </g>
   <g id="line2d_49">
    <path d="M 460.472351 299.230196 
L 460.472351 345.584196 
" clip-path="url(#p66f6b4d650)" style="fill: none; stroke-dasharray: 3.7,1.6; stroke-dashoffset: 0; stroke: #000000"/>
   </g>
   <g id="line2d_50">
    <path d="M 460.472351 345.584196 
L 460.472351 391.938195 
" clip-path="url(#p66f6b4d650)" style="fill: none; stroke-dasharray: 3.7,1.6; stroke-dashoffset: 0; stroke: #000000"/>
   </g>
   <g id="line2d_51">
    <path d="M 599.534349 21.1062 
L 599.534349 67.460199 
" clip-path="url(#p66f6b4d650)" style="fill: none; stroke-dasharray: 3.7,1.6; stroke-dashoffset: 0; stroke: #000000"/>
   </g>
   <g id="line2d_52">
    <path d="M 599.534349 67.460199 
L 599.534349 113.814199 
" clip-path="url(#p66f6b4d650)" style="fill: none; stroke-dasharray: 3.7,1.6; stroke-dashoffset: 0; stroke: #000000"/>
   </g>
   <g id="line2d_53">
    <path d="M 599.534349 113.814199 
L 599.534349 160.168198 
" clip-path="url(#p66f6b4d650)" style="fill: none; stroke-dasharray: 3.7,1.6; stroke-dashoffset: 0; stroke: #000000"/>
   </g>
   <g id="line2d_54">
    <path d="M 599.534349 160.168198 
L 599.534349 206.522197 
" clip-path="url(#p66f6b4d650)" style="fill: none; stroke-dasharray: 3.7,1.6; stroke-dashoffset: 0; stroke: #000000"/>
   </g>
   <g id="line2d_55">
    <path d="M 599.534349 206.522197 
L 599.534349 252.876197 
" clip-path="url(#p66f6b4d650)" style="fill: none; stroke-dasharray: 3.7,1.6; stroke-dashoffset: 0; stroke: #000000"/>
   </g>
   <g id="line2d_56">
    <path d="M 599.534349 252.876197 
L 599.534349 299.230196 
" clip-path="url(#p66f6b4d650)" style="fill: none; stroke-dasharray: 3.7,1.6; stroke-dashoffset: 0; stroke: #000000"/>
   </g>
   <g id="line2d_57">
    <path d="M 599.534349 299.230196 
L 599.534349 345.584196 
" clip-path="url(#p66f6b4d650)" style="fill: none; stroke-dasharray: 3.7,1.6; stroke-dashoffset: 0; stroke: #000000"/>
   </g>
   <g id="line2d_58">
    <path d="M 599.534349 345.584196 
L 599.534349 391.938195 
" clip-path="url(#p66f6b4d650)" style="fill: none; stroke-dasharray: 3.7,1.6; stroke-dashoffset: 0; stroke: #000000"/>
   </g>
   <g id="text_25">
    <g clip-path="url(#p66f6b4d650)">
     <!-- x_1 -->
     <g transform="translate(638.975849 101.661229) scale(0.08 -0.08)">
      <use xlink:href="#DejaVuSans-78"/>
      <use xlink:href="#DejaVuSans-5f" x="59.179688"/>
      <use xlink:href="#DejaVuSans-31" x="109.179688"/>
     </g>
    </g>
   </g>
   <g id="text_26">
    <g clip-path="url(#p66f6b4d650)">
     <!-- $\mathrm{R_Z}$ -->
     <g transform="translate(637.958349 89.704871) scale(0.13 -0.13)">
      <use xlink:href="#DejaVuSans-52" transform="translate(0 0.09375)"/>
      <use xlink:href="#DejaVuSans-5a" transform="translate(70.439453 -16.3125) scale(0.7)"/>
     </g>
    </g>
   </g>
   <g id="text_27">
    <g clip-path="url(#p66f6b4d650)">
     <!-- x_1 -->
     <g transform="translate(685.329848 333.431226) scale(0.08 -0.08)">
      <use xlink:href="#DejaVuSans-78"/>
      <use xlink:href="#DejaVuSans-5f" x="59.179688"/>
      <use xlink:href="#DejaVuSans-31" x="109.179688"/>
     </g>
    </g>
   </g>
   <g id="text_28">
    <g clip-path="url(#p66f6b4d650)">
     <!-- $\mathrm{R_Z}$ -->
     <g transform="translate(684.312348 321.474868) scale(0.13 -0.13)">
      <use xlink:href="#DejaVuSans-52" transform="translate(0 0.09375)"/>
      <use xlink:href="#DejaVuSans-5a" transform="translate(70.439453 -16.3125) scale(0.7)"/>
     </g>
    </g>
   </g>
   <g id="text_29">
    <g clip-path="url(#p66f6b4d650)">
     <!-- x_1 -->
     <g transform="translate(731.683848 379.785225) scale(0.08 -0.08)">
      <use xlink:href="#DejaVuSans-78"/>
      <use xlink:href="#DejaVuSans-5f" x="59.179688"/>
      <use xlink:href="#DejaVuSans-31" x="109.179688"/>
     </g>
    </g>
   </g>
   <g id="text_30">
    <g clip-path="url(#p66f6b4d650)">
     <!-- $\mathrm{R_Z}$ -->
     <g transform="translate(730.666348 367.828868) scale(0.13 -0.13)">
      <use xlink:href="#DejaVuSans-52" transform="translate(0 0.09375)"/>
      <use xlink:href="#DejaVuSans-5a" transform="translate(70.439453 -16.3125) scale(0.7)"/>
     </g>
    </g>
   </g>
   <g id="text_31">
    <g clip-path="url(#p66f6b4d650)">
     <!-- x_1 -->
     <g transform="translate(778.037847 55.307229) scale(0.08 -0.08)">
      <use xlink:href="#DejaVuSans-78"/>
      <use xlink:href="#DejaVuSans-5f" x="59.179688"/>
      <use xlink:href="#DejaVuSans-31" x="109.179688"/>
     </g>
    </g>
   </g>
   <g id="text_32">
    <g clip-path="url(#p66f6b4d650)">
     <!-- $\mathrm{R_Z}$ -->
     <g transform="translate(777.020347 43.350872) scale(0.13 -0.13)">
      <use xlink:href="#DejaVuSans-52" transform="translate(0 0.09375)"/>
      <use xlink:href="#DejaVuSans-5a" transform="translate(70.439453 -16.3125) scale(0.7)"/>
     </g>
    </g>
   </g>
   <g id="line2d_59">
    <path d="M 831.304346 21.1062 
L 831.304346 67.460199 
" clip-path="url(#p66f6b4d650)" style="fill: none; stroke-dasharray: 3.7,1.6; stroke-dashoffset: 0; stroke: #000000"/>
   </g>
   <g id="line2d_60">
    <path d="M 831.304346 67.460199 
L 831.304346 113.814199 
" clip-path="url(#p66f6b4d650)" style="fill: none; stroke-dasharray: 3.7,1.6; stroke-dashoffset: 0; stroke: #000000"/>
   </g>
   <g id="line2d_61">
    <path d="M 831.304346 113.814199 
L 831.304346 160.168198 
" clip-path="url(#p66f6b4d650)" style="fill: none; stroke-dasharray: 3.7,1.6; stroke-dashoffset: 0; stroke: #000000"/>
   </g>
   <g id="line2d_62">
    <path d="M 831.304346 160.168198 
L 831.304346 206.522197 
" clip-path="url(#p66f6b4d650)" style="fill: none; stroke-dasharray: 3.7,1.6; stroke-dashoffset: 0; stroke: #000000"/>
   </g>
   <g id="line2d_63">
    <path d="M 831.304346 206.522197 
L 831.304346 252.876197 
" clip-path="url(#p66f6b4d650)" style="fill: none; stroke-dasharray: 3.7,1.6; stroke-dashoffset: 0; stroke: #000000"/>
   </g>
   <g id="line2d_64">
    <path d="M 831.304346 252.876197 
L 831.304346 299.230196 
" clip-path="url(#p66f6b4d650)" style="fill: none; stroke-dasharray: 3.7,1.6; stroke-dashoffset: 0; stroke: #000000"/>
   </g>
   <g id="line2d_65">
    <path d="M 831.304346 299.230196 
L 831.304346 345.584196 
" clip-path="url(#p66f6b4d650)" style="fill: none; stroke-dasharray: 3.7,1.6; stroke-dashoffset: 0; stroke: #000000"/>
   </g>
   <g id="line2d_66">
    <path d="M 831.304346 345.584196 
L 831.304346 391.938195 
" clip-path="url(#p66f6b4d650)" style="fill: none; stroke-dasharray: 3.7,1.6; stroke-dashoffset: 0; stroke: #000000"/>
   </g>
   <g id="line2d_67">
    <path d="M 924.012345 21.1062 
L 924.012345 67.460199 
" clip-path="url(#p66f6b4d650)" style="fill: none; stroke-dasharray: 3.7,1.6; stroke-dashoffset: 0; stroke: #000000"/>
   </g>
   <g id="line2d_68">
    <path d="M 924.012345 67.460199 
L 924.012345 113.814199 
" clip-path="url(#p66f6b4d650)" style="fill: none; stroke-dasharray: 3.7,1.6; stroke-dashoffset: 0; stroke: #000000"/>
   </g>
   <g id="line2d_69">
    <path d="M 924.012345 113.814199 
L 924.012345 160.168198 
" clip-path="url(#p66f6b4d650)" style="fill: none; stroke-dasharray: 3.7,1.6; stroke-dashoffset: 0; stroke: #000000"/>
   </g>
   <g id="line2d_70">
    <path d="M 924.012345 160.168198 
L 924.012345 206.522197 
" clip-path="url(#p66f6b4d650)" style="fill: none; stroke-dasharray: 3.7,1.6; stroke-dashoffset: 0; stroke: #000000"/>
   </g>
   <g id="line2d_71">
    <path d="M 924.012345 206.522197 
L 924.012345 252.876197 
" clip-path="url(#p66f6b4d650)" style="fill: none; stroke-dasharray: 3.7,1.6; stroke-dashoffset: 0; stroke: #000000"/>
   </g>
   <g id="line2d_72">
    <path d="M 924.012345 252.876197 
L 924.012345 299.230196 
" clip-path="url(#p66f6b4d650)" style="fill: none; stroke-dasharray: 3.7,1.6; stroke-dashoffset: 0; stroke: #000000"/>
   </g>
   <g id="line2d_73">
    <path d="M 924.012345 299.230196 
L 924.012345 345.584196 
" clip-path="url(#p66f6b4d650)" style="fill: none; stroke-dasharray: 3.7,1.6; stroke-dashoffset: 0; stroke: #000000"/>
   </g>
   <g id="line2d_74">
    <path d="M 924.012345 345.584196 
L 924.012345 391.938195 
" clip-path="url(#p66f6b4d650)" style="fill: none; stroke-dasharray: 3.7,1.6; stroke-dashoffset: 0; stroke: #000000"/>
   </g>
   <g id="text_33">
    <g clip-path="url(#p66f6b4d650)">
     <!-- x_2 -->
     <g transform="translate(963.453844 379.82585) scale(0.08 -0.08)">
      <use xlink:href="#DejaVuSans-78"/>
      <use xlink:href="#DejaVuSans-5f" x="59.179688"/>
      <use xlink:href="#DejaVuSans-32" x="109.179688"/>
     </g>
    </g>
   </g>
   <g id="text_34">
    <g clip-path="url(#p66f6b4d650)">
     <!-- $\mathrm{R_Z}$ -->
     <g transform="translate(962.436344 367.828868) scale(0.13 -0.13)">
      <use xlink:href="#DejaVuSans-52" transform="translate(0 0.09375)"/>
      <use xlink:href="#DejaVuSans-5a" transform="translate(70.439453 -16.3125) scale(0.7)"/>
     </g>
    </g>
   </g>
   <g id="line2d_75">
    <path d="M 1016.720344 21.1062 
L 1016.720344 67.460199 
" clip-path="url(#p66f6b4d650)" style="fill: none; stroke-dasharray: 3.7,1.6; stroke-dashoffset: 0; stroke: #000000"/>
   </g>
   <g id="line2d_76">
    <path d="M 1016.720344 67.460199 
L 1016.720344 113.814199 
" clip-path="url(#p66f6b4d650)" style="fill: none; stroke-dasharray: 3.7,1.6; stroke-dashoffset: 0; stroke: #000000"/>
   </g>
   <g id="line2d_77">
    <path d="M 1016.720344 113.814199 
L 1016.720344 160.168198 
" clip-path="url(#p66f6b4d650)" style="fill: none; stroke-dasharray: 3.7,1.6; stroke-dashoffset: 0; stroke: #000000"/>
   </g>
   <g id="line2d_78">
    <path d="M 1016.720344 160.168198 
L 1016.720344 206.522197 
" clip-path="url(#p66f6b4d650)" style="fill: none; stroke-dasharray: 3.7,1.6; stroke-dashoffset: 0; stroke: #000000"/>
   </g>
   <g id="line2d_79">
    <path d="M 1016.720344 206.522197 
L 1016.720344 252.876197 
" clip-path="url(#p66f6b4d650)" style="fill: none; stroke-dasharray: 3.7,1.6; stroke-dashoffset: 0; stroke: #000000"/>
   </g>
   <g id="line2d_80">
    <path d="M 1016.720344 252.876197 
L 1016.720344 299.230196 
" clip-path="url(#p66f6b4d650)" style="fill: none; stroke-dasharray: 3.7,1.6; stroke-dashoffset: 0; stroke: #000000"/>
   </g>
   <g id="line2d_81">
    <path d="M 1016.720344 299.230196 
L 1016.720344 345.584196 
" clip-path="url(#p66f6b4d650)" style="fill: none; stroke-dasharray: 3.7,1.6; stroke-dashoffset: 0; stroke: #000000"/>
   </g>
   <g id="line2d_82">
    <path d="M 1016.720344 345.584196 
L 1016.720344 391.938195 
" clip-path="url(#p66f6b4d650)" style="fill: none; stroke-dasharray: 3.7,1.6; stroke-dashoffset: 0; stroke: #000000"/>
   </g>
  </g>
 </g>
 <defs>
  <clipPath id="p66f6b4d650">
   <rect x="7.2" y="7.2" width="1086.467983" height="389.373595"/>
  </clipPath>
 </defs>
</svg>
