<?xml version="1.0" encoding="utf-8" standalone="no"?>
<!DOCTYPE svg PUBLIC "-//W3C//DTD SVG 1.1//EN"
  "http://www.w3.org/Graphics/SVG/1.1/DTD/svg11.dtd">
<svg xmlns:xlink="http://www.w3.org/1999/xlink" width="878.4pt" height="662.4pt" viewBox="0 0 878.4 662.4" xmlns="http://www.w3.org/2000/svg" version="1.1">
 <metadata>
  <rdf:RDF xmlns:dc="http://purl.org/dc/elements/1.1/" xmlns:cc="http://creativecommons.org/ns#" xmlns:rdf="http://www.w3.org/1999/02/22-rdf-syntax-ns#">
   <cc:Work>
    <dc:type rdf:resource="http://purl.org/dc/dcmitype/StillImage"/>
    <dc:date>2023-11-08T11:35:36.109542</dc:date>
    <dc:format>image/svg+xml</dc:format>
    <dc:creator>
     <cc:Agent>
      <dc:title>Matplotlib v3.8.1, https://matplotlib.org/</dc:title>
     </cc:Agent>
    </dc:creator>
   </cc:Work>
  </rdf:RDF>
 </metadata>
 <defs>
  <style type="text/css">*{stroke-linejoin: round; stroke-linecap: butt}</style>
 </defs>
 <g id="figure_1">
  <g id="patch_1">
   <path d="M 0 662.4 
L 878.4 662.4 
L 878.4 0 
L 0 0 
L 0 662.4 
z
" style="fill: none"/>
  </g>
  <g id="axes_1">
   <g id="line2d_1">
    <path d="M 79.2 79.2 
L 799.2 79.2 
" clip-path="url(#p9b773c2626)" style="fill: none; stroke: #000000; stroke-width: 1.5; stroke-linecap: square"/>
   </g>
   <g id="line2d_2">
    <path d="M 79.2 151.2 
L 799.2 151.2 
" clip-path="url(#p9b773c2626)" style="fill: none; stroke: #000000; stroke-width: 1.5; stroke-linecap: square"/>
   </g>
   <g id="line2d_3">
    <path d="M 79.2 223.2 
L 799.2 223.2 
" clip-path="url(#p9b773c2626)" style="fill: none; stroke: #000000; stroke-width: 1.5; stroke-linecap: square"/>
   </g>
   <g id="line2d_4">
    <path d="M 79.2 295.2 
L 799.2 295.2 
" clip-path="url(#p9b773c2626)" style="fill: none; stroke: #000000; stroke-width: 1.5; stroke-linecap: square"/>
   </g>
   <g id="line2d_5">
    <path d="M 79.2 367.2 
L 799.2 367.2 
" clip-path="url(#p9b773c2626)" style="fill: none; stroke: #000000; stroke-width: 1.5; stroke-linecap: square"/>
   </g>
   <g id="line2d_6">
    <path d="M 79.2 439.2 
L 799.2 439.2 
" clip-path="url(#p9b773c2626)" style="fill: none; stroke: #000000; stroke-width: 1.5; stroke-linecap: square"/>
   </g>
   <g id="line2d_7">
    <path d="M 79.2 511.2 
L 799.2 511.2 
" clip-path="url(#p9b773c2626)" style="fill: none; stroke: #000000; stroke-width: 1.5; stroke-linecap: square"/>
   </g>
   <g id="line2d_8">
    <path d="M 79.2 583.2 
L 799.2 583.2 
" clip-path="url(#p9b773c2626)" style="fill: none; stroke: #000000; stroke-width: 1.5; stroke-linecap: square"/>
   </g>
   <g id="line2d_9">
    <path d="M 151.2 79.2 
L 151.2 151.2 
" clip-path="url(#p9b773c2626)" style="fill: none; stroke: #000000; stroke-width: 1.5; stroke-linecap: square"/>
   </g>
   <g id="line2d_10">
    <path d="M 223.2 151.2 
L 223.2 223.2 
" clip-path="url(#p9b773c2626)" style="fill: none; stroke: #000000; stroke-width: 1.5; stroke-linecap: square"/>
   </g>
   <g id="line2d_11">
    <path d="M 295.2 223.2 
L 295.2 295.2 
" clip-path="url(#p9b773c2626)" style="fill: none; stroke: #000000; stroke-width: 1.5; stroke-linecap: square"/>
   </g>
   <g id="line2d_12">
    <path d="M 367.2 295.2 
L 367.2 367.2 
" clip-path="url(#p9b773c2626)" style="fill: none; stroke: #000000; stroke-width: 1.5; stroke-linecap: square"/>
   </g>
   <g id="line2d_13">
    <path d="M 439.2 367.2 
L 439.2 439.2 
" clip-path="url(#p9b773c2626)" style="fill: none; stroke: #000000; stroke-width: 1.5; stroke-linecap: square"/>
   </g>
   <g id="line2d_14">
    <path d="M 511.2 439.2 
L 511.2 511.2 
" clip-path="url(#p9b773c2626)" style="fill: none; stroke: #000000; stroke-width: 1.5; stroke-linecap: square"/>
   </g>
   <g id="line2d_15">
    <path d="M 583.2 511.2 
L 583.2 583.2 
" clip-path="url(#p9b773c2626)" style="fill: none; stroke: #000000; stroke-width: 1.5; stroke-linecap: square"/>
   </g>
   <g id="line2d_16">
    <path d="M 655.2 79.2 
L 655.2 583.2 
" clip-path="url(#p9b773c2626)" style="fill: none; stroke: #000000; stroke-width: 1.5; stroke-linecap: square"/>
   </g>
   <g id="LineCollection_1">
    <path d="M 723.6 43.2 
L 723.6 619.2 
" clip-path="url(#p9b773c2626)" style="fill: none; stroke: #1f77b4; stroke-width: 1.5"/>
   </g>
   <g id="LineCollection_2">
    <path d="M 730.8 43.2 
L 730.8 619.2 
" clip-path="url(#p9b773c2626)" style="fill: none; stroke: #1f77b4; stroke-width: 1.5"/>
   </g>
   <g id="patch_2">
    <path d="M 786.6 52.2 
L 811.8 52.2 
Q 826.2 52.2 826.2 66.6 
L 826.2 91.8 
Q 826.2 106.2 811.8 106.2 
L 786.6 106.2 
Q 772.2 106.2 772.2 91.8 
L 772.2 66.6 
Q 772.2 52.2 786.6 52.2 
z
" clip-path="url(#p9b773c2626)" style="fill: #ffffff; stroke: #000000; stroke-width: 3; stroke-linejoin: miter"/>
   </g>
   <g id="patch_3">
    <path d="M 786.6 124.2 
L 811.8 124.2 
Q 826.2 124.2 826.2 138.6 
L 826.2 163.8 
Q 826.2 178.2 811.8 178.2 
L 786.6 178.2 
Q 772.2 178.2 772.2 163.8 
L 772.2 138.6 
Q 772.2 124.2 786.6 124.2 
z
" clip-path="url(#p9b773c2626)" style="fill: #ffffff; stroke: #000000; stroke-width: 3; stroke-linejoin: miter"/>
   </g>
   <g id="patch_4">
    <path d="M 786.6 196.2 
L 811.8 196.2 
Q 826.2 196.2 826.2 210.6 
L 826.2 235.8 
Q 826.2 250.2 811.8 250.2 
L 786.6 250.2 
Q 772.2 250.2 772.2 235.8 
L 772.2 210.6 
Q 772.2 196.2 786.6 196.2 
z
" clip-path="url(#p9b773c2626)" style="fill: #ffffff; stroke: #000000; stroke-width: 3; stroke-linejoin: miter"/>
   </g>
   <g id="patch_5">
    <path d="M 786.6 268.2 
L 811.8 268.2 
Q 826.2 268.2 826.2 282.6 
L 826.2 307.8 
Q 826.2 322.2 811.8 322.2 
L 786.6 322.2 
Q 772.2 322.2 772.2 307.8 
L 772.2 282.6 
Q 772.2 268.2 786.6 268.2 
z
" clip-path="url(#p9b773c2626)" style="fill: #ffffff; stroke: #000000; stroke-width: 3; stroke-linejoin: miter"/>
   </g>
   <g id="patch_6">
    <path d="M 786.6 340.2 
L 811.8 340.2 
Q 826.2 340.2 826.2 354.6 
L 826.2 379.8 
Q 826.2 394.2 811.8 394.2 
L 786.6 394.2 
Q 772.2 394.2 772.2 379.8 
L 772.2 354.6 
Q 772.2 340.2 786.6 340.2 
z
" clip-path="url(#p9b773c2626)" style="fill: #ffffff; stroke: #000000; stroke-width: 3; stroke-linejoin: miter"/>
   </g>
   <g id="patch_7">
    <path d="M 786.6 412.2 
L 811.8 412.2 
Q 826.2 412.2 826.2 426.6 
L 826.2 451.8 
Q 826.2 466.2 811.8 466.2 
L 786.6 466.2 
Q 772.2 466.2 772.2 451.8 
L 772.2 426.6 
Q 772.2 412.2 786.6 412.2 
z
" clip-path="url(#p9b773c2626)" style="fill: #ffffff; stroke: #000000; stroke-width: 3; stroke-linejoin: miter"/>
   </g>
   <g id="patch_8">
    <path d="M 786.6 484.2 
L 811.8 484.2 
Q 826.2 484.2 826.2 498.6 
L 826.2 523.8 
Q 826.2 538.2 811.8 538.2 
L 786.6 538.2 
Q 772.2 538.2 772.2 523.8 
L 772.2 498.6 
Q 772.2 484.2 786.6 484.2 
z
" clip-path="url(#p9b773c2626)" style="fill: #ffffff; stroke: #000000; stroke-width: 3; stroke-linejoin: miter"/>
   </g>
   <g id="patch_9">
    <path d="M 786.6 556.2 
L 811.8 556.2 
Q 826.2 556.2 826.2 570.6 
L 826.2 595.8 
Q 826.2 610.2 811.8 610.2 
L 786.6 610.2 
Q 772.2 610.2 772.2 595.8 
L 772.2 570.6 
Q 772.2 556.2 786.6 556.2 
z
" clip-path="url(#p9b773c2626)" style="fill: #ffffff; stroke: #000000; stroke-width: 3; stroke-linejoin: miter"/>
   </g>
   <g id="text_1">
    <!-- 0 -->
    <g transform="translate(38.74625 83.063125) scale(0.14 -0.14)">
     <defs>
      <path id="DejaVuSans-30" d="M 2034 4250 
Q 1547 4250 1301 3770 
Q 1056 3291 1056 2328 
Q 1056 1369 1301 889 
Q 1547 409 2034 409 
Q 2525 409 2770 889 
Q 3016 1369 3016 2328 
Q 3016 3291 2770 3770 
Q 2525 4250 2034 4250 
z
M 2034 4750 
Q 2819 4750 3233 4129 
Q 3647 3509 3647 2328 
Q 3647 1150 3233 529 
Q 2819 -91 2034 -91 
Q 1250 -91 836 529 
Q 422 1150 422 2328 
Q 422 3509 836 4129 
Q 1250 4750 2034 4750 
z
" transform="scale(0.015625)"/>
     </defs>
     <use xlink:href="#DejaVuSans-30"/>
    </g>
   </g>
   <g id="text_2">
    <!-- 1 -->
    <g transform="translate(38.74625 155.063125) scale(0.14 -0.14)">
     <defs>
      <path id="DejaVuSans-31" d="M 794 531 
L 1825 531 
L 1825 4091 
L 703 3866 
L 703 4441 
L 1819 4666 
L 2450 4666 
L 2450 531 
L 3481 531 
L 3481 0 
L 794 0 
L 794 531 
z
" transform="scale(0.015625)"/>
     </defs>
     <use xlink:href="#DejaVuSans-31"/>
    </g>
   </g>
   <g id="text_3">
    <!-- 2 -->
    <g transform="translate(38.74625 227.063125) scale(0.14 -0.14)">
     <defs>
      <path id="DejaVuSans-32" d="M 1228 531 
L 3431 531 
L 3431 0 
L 469 0 
L 469 531 
Q 828 903 1448 1529 
Q 2069 2156 2228 2338 
Q 2531 2678 2651 2914 
Q 2772 3150 2772 3378 
Q 2772 3750 2511 3984 
Q 2250 4219 1831 4219 
Q 1534 4219 1204 4116 
Q 875 4013 500 3803 
L 500 4441 
Q 881 4594 1212 4672 
Q 1544 4750 1819 4750 
Q 2544 4750 2975 4387 
Q 3406 4025 3406 3419 
Q 3406 3131 3298 2873 
Q 3191 2616 2906 2266 
Q 2828 2175 2409 1742 
Q 1991 1309 1228 531 
z
" transform="scale(0.015625)"/>
     </defs>
     <use xlink:href="#DejaVuSans-32"/>
    </g>
   </g>
   <g id="text_4">
    <!-- 3 -->
    <g transform="translate(38.74625 299.063125) scale(0.14 -0.14)">
     <defs>
      <path id="DejaVuSans-33" d="M 2597 2516 
Q 3050 2419 3304 2112 
Q 3559 1806 3559 1356 
Q 3559 666 3084 287 
Q 2609 -91 1734 -91 
Q 1441 -91 1130 -33 
Q 819 25 488 141 
L 488 750 
Q 750 597 1062 519 
Q 1375 441 1716 441 
Q 2309 441 2620 675 
Q 2931 909 2931 1356 
Q 2931 1769 2642 2001 
Q 2353 2234 1838 2234 
L 1294 2234 
L 1294 2753 
L 1863 2753 
Q 2328 2753 2575 2939 
Q 2822 3125 2822 3475 
Q 2822 3834 2567 4026 
Q 2313 4219 1838 4219 
Q 1578 4219 1281 4162 
Q 984 4106 628 3988 
L 628 4550 
Q 988 4650 1302 4700 
Q 1616 4750 1894 4750 
Q 2613 4750 3031 4423 
Q 3450 4097 3450 3541 
Q 3450 3153 3228 2886 
Q 3006 2619 2597 2516 
z
" transform="scale(0.015625)"/>
     </defs>
     <use xlink:href="#DejaVuSans-33"/>
    </g>
   </g>
   <g id="text_5">
    <!-- 4 -->
    <g transform="translate(38.74625 371.063125) scale(0.14 -0.14)">
     <defs>
      <path id="DejaVuSans-34" d="M 2419 4116 
L 825 1625 
L 2419 1625 
L 2419 4116 
z
M 2253 4666 
L 3047 4666 
L 3047 1625 
L 3713 1625 
L 3713 1100 
L 3047 1100 
L 3047 0 
L 2419 0 
L 2419 1100 
L 313 1100 
L 313 1709 
L 2253 4666 
z
" transform="scale(0.015625)"/>
     </defs>
     <use xlink:href="#DejaVuSans-34"/>
    </g>
   </g>
   <g id="text_6">
    <!-- 5 -->
    <g transform="translate(38.74625 443.063125) scale(0.14 -0.14)">
     <defs>
      <path id="DejaVuSans-35" d="M 691 4666 
L 3169 4666 
L 3169 4134 
L 1269 4134 
L 1269 2991 
Q 1406 3038 1543 3061 
Q 1681 3084 1819 3084 
Q 2600 3084 3056 2656 
Q 3513 2228 3513 1497 
Q 3513 744 3044 326 
Q 2575 -91 1722 -91 
Q 1428 -91 1123 -41 
Q 819 9 494 109 
L 494 744 
Q 775 591 1075 516 
Q 1375 441 1709 441 
Q 2250 441 2565 725 
Q 2881 1009 2881 1497 
Q 2881 1984 2565 2268 
Q 2250 2553 1709 2553 
Q 1456 2553 1204 2497 
Q 953 2441 691 2322 
L 691 4666 
z
" transform="scale(0.015625)"/>
     </defs>
     <use xlink:href="#DejaVuSans-35"/>
    </g>
   </g>
   <g id="text_7">
    <!-- 6 -->
    <g transform="translate(38.74625 515.063125) scale(0.14 -0.14)">
     <defs>
      <path id="DejaVuSans-36" d="M 2113 2584 
Q 1688 2584 1439 2293 
Q 1191 2003 1191 1497 
Q 1191 994 1439 701 
Q 1688 409 2113 409 
Q 2538 409 2786 701 
Q 3034 994 3034 1497 
Q 3034 2003 2786 2293 
Q 2538 2584 2113 2584 
z
M 3366 4563 
L 3366 3988 
Q 3128 4100 2886 4159 
Q 2644 4219 2406 4219 
Q 1781 4219 1451 3797 
Q 1122 3375 1075 2522 
Q 1259 2794 1537 2939 
Q 1816 3084 2150 3084 
Q 2853 3084 3261 2657 
Q 3669 2231 3669 1497 
Q 3669 778 3244 343 
Q 2819 -91 2113 -91 
Q 1303 -91 875 529 
Q 447 1150 447 2328 
Q 447 3434 972 4092 
Q 1497 4750 2381 4750 
Q 2619 4750 2861 4703 
Q 3103 4656 3366 4563 
z
" transform="scale(0.015625)"/>
     </defs>
     <use xlink:href="#DejaVuSans-36"/>
    </g>
   </g>
   <g id="text_8">
    <!-- 7 -->
    <g transform="translate(38.74625 587.063125) scale(0.14 -0.14)">
     <defs>
      <path id="DejaVuSans-37" d="M 525 4666 
L 3525 4666 
L 3525 4397 
L 1831 0 
L 1172 0 
L 2766 4134 
L 525 4134 
L 525 4666 
z
" transform="scale(0.015625)"/>
     </defs>
     <use xlink:href="#DejaVuSans-37"/>
    </g>
   </g>
   <g id="patch_10">
    <path d="M 151.2 72 
C 153.109462 72 154.940975 72.758637 156.291169 74.108831 
C 157.641363 75.459025 158.4 77.290538 158.4 79.2 
C 158.4 81.109462 157.641363 82.940975 156.291169 84.291169 
C 154.940975 85.641363 153.109462 86.4 151.2 86.4 
C 149.290538 86.4 147.459025 85.641363 146.108831 84.291169 
C 144.758637 82.940975 144 81.109462 144 79.2 
C 144 77.290538 144.758637 75.459025 146.108831 74.108831 
C 147.459025 72.758637 149.290538 72 151.2 72 
z
" clip-path="url(#p9b773c2626)" style="stroke: #000000; stroke-width: 3; stroke-linejoin: miter"/>
   </g>
   <g id="patch_11">
    <path d="M 223.2 144 
C 225.109462 144 226.940975 144.758637 228.291169 146.108831 
C 229.641363 147.459025 230.4 149.290538 230.4 151.2 
C 230.4 153.109462 229.641363 154.940975 228.291169 156.291169 
C 226.940975 157.641363 225.109462 158.4 223.2 158.4 
C 221.290538 158.4 219.459025 157.641363 218.108831 156.291169 
C 216.758637 154.940975 216 153.109462 216 151.2 
C 216 149.290538 216.758637 147.459025 218.108831 146.108831 
C 219.459025 144.758637 221.290538 144 223.2 144 
z
" clip-path="url(#p9b773c2626)" style="stroke: #000000; stroke-width: 3; stroke-linejoin: miter"/>
   </g>
   <g id="patch_12">
    <path d="M 295.2 216 
C 297.109462 216 298.940975 216.758637 300.291169 218.108831 
C 301.641363 219.459025 302.4 221.290538 302.4 223.2 
C 302.4 225.109462 301.641363 226.940975 300.291169 228.291169 
C 298.940975 229.641363 297.109462 230.4 295.2 230.4 
C 293.290538 230.4 291.459025 229.641363 290.108831 228.291169 
C 288.758637 226.940975 288 225.109462 288 223.2 
C 288 221.290538 288.758637 219.459025 290.108831 218.108831 
C 291.459025 216.758637 293.290538 216 295.2 216 
z
" clip-path="url(#p9b773c2626)" style="stroke: #000000; stroke-width: 3; stroke-linejoin: miter"/>
   </g>
   <g id="patch_13">
    <path d="M 367.2 288 
C 369.109462 288 370.940975 288.758637 372.291169 290.108831 
C 373.641363 291.459025 374.4 293.290538 374.4 295.2 
C 374.4 297.109462 373.641363 298.940975 372.291169 300.291169 
C 370.940975 301.641363 369.109462 302.4 367.2 302.4 
C 365.290538 302.4 363.459025 301.641363 362.108831 300.291169 
C 360.758637 298.940975 360 297.109462 360 295.2 
C 360 293.290538 360.758637 291.459025 362.108831 290.108831 
C 363.459025 288.758637 365.290538 288 367.2 288 
z
" clip-path="url(#p9b773c2626)" style="stroke: #000000; stroke-width: 3; stroke-linejoin: miter"/>
   </g>
   <g id="patch_14">
    <path d="M 439.2 360 
C 441.109462 360 442.940975 360.758637 444.291169 362.108831 
C 445.641363 363.459025 446.4 365.290538 446.4 367.2 
C 446.4 369.109462 445.641363 370.940975 444.291169 372.291169 
C 442.940975 373.641363 441.109462 374.4 439.2 374.4 
C 437.290538 374.4 435.459025 373.641363 434.108831 372.291169 
C 432.758637 370.940975 432 369.109462 432 367.2 
C 432 365.290538 432.758637 363.459025 434.108831 362.108831 
C 435.459025 360.758637 437.290538 360 439.2 360 
z
" clip-path="url(#p9b773c2626)" style="stroke: #000000; stroke-width: 3; stroke-linejoin: miter"/>
   </g>
   <g id="patch_15">
    <path d="M 511.2 432 
C 513.109462 432 514.940975 432.758637 516.291169 434.108831 
C 517.641363 435.459025 518.4 437.290538 518.4 439.2 
C 518.4 441.109462 517.641363 442.940975 516.291169 444.291169 
C 514.940975 445.641363 513.109462 446.4 511.2 446.4 
C 509.290538 446.4 507.459025 445.641363 506.108831 444.291169 
C 504.758637 442.940975 504 441.109462 504 439.2 
C 504 437.290538 504.758637 435.459025 506.108831 434.108831 
C 507.459025 432.758637 509.290538 432 511.2 432 
z
" clip-path="url(#p9b773c2626)" style="stroke: #000000; stroke-width: 3; stroke-linejoin: miter"/>
   </g>
   <g id="patch_16">
    <path d="M 583.2 504 
C 585.109462 504 586.940975 504.758637 588.291169 506.108831 
C 589.641363 507.459025 590.4 509.290538 590.4 511.2 
C 590.4 513.109462 589.641363 514.940975 588.291169 516.291169 
C 586.940975 517.641363 585.109462 518.4 583.2 518.4 
C 581.290538 518.4 579.459025 517.641363 578.108831 516.291169 
C 576.758637 514.940975 576 513.109462 576 511.2 
C 576 509.290538 576.758637 507.459025 578.108831 506.108831 
C 579.459025 504.758637 581.290538 504 583.2 504 
z
" clip-path="url(#p9b773c2626)" style="stroke: #000000; stroke-width: 3; stroke-linejoin: miter"/>
   </g>
   <g id="patch_17">
    <path d="M 655.2 576 
C 657.109462 576 658.940975 576.758637 660.291169 578.108831 
C 661.641363 579.459025 662.4 581.290538 662.4 583.2 
C 662.4 585.109462 661.641363 586.940975 660.291169 588.291169 
C 658.940975 589.641363 657.109462 590.4 655.2 590.4 
C 653.290538 590.4 651.459025 589.641363 650.108831 588.291169 
C 648.758637 586.940975 648 585.109462 648 583.2 
C 648 581.290538 648.758637 579.459025 650.108831 578.108831 
C 651.459025 576.758637 653.290538 576 655.2 576 
z
" clip-path="url(#p9b773c2626)" style="stroke: #000000; stroke-width: 3; stroke-linejoin: miter"/>
   </g>
   <g id="patch_18">
    <path d="M 783 82.575 
C 783 78.638046 784.707946 74.858311 787.74487 72.074464 
C 790.781794 69.290617 794.905141 67.725 799.2 67.725 
C 803.494859 67.725 807.618206 69.290617 810.65513 72.074464 
C 813.692054 74.858311 815.4 78.638046 815.4 82.575 
" clip-path="url(#p9b773c2626)" style="fill: none; stroke: #000000; stroke-width: 3; stroke-linejoin: miter"/>
   </g>
   <g id="patch_19">
    <path d="M 783 154.575 
C 783 150.638046 784.707946 146.858311 787.74487 144.074464 
C 790.781794 141.290617 794.905141 139.725 799.2 139.725 
C 803.494859 139.725 807.618206 141.290617 810.65513 144.074464 
C 813.692054 146.858311 815.4 150.638046 815.4 154.575 
" clip-path="url(#p9b773c2626)" style="fill: none; stroke: #000000; stroke-width: 3; stroke-linejoin: miter"/>
   </g>
   <g id="patch_20">
    <path d="M 783 226.575 
C 783 222.638046 784.707946 218.858311 787.74487 216.074464 
C 790.781794 213.290617 794.905141 211.725 799.2 211.725 
C 803.494859 211.725 807.618206 213.290617 810.65513 216.074464 
C 813.692054 218.858311 815.4 222.638046 815.4 226.575 
" clip-path="url(#p9b773c2626)" style="fill: none; stroke: #000000; stroke-width: 3; stroke-linejoin: miter"/>
   </g>
   <g id="patch_21">
    <path d="M 783 298.575 
C 783 294.638046 784.707946 290.858311 787.74487 288.074464 
C 790.781794 285.290617 794.905141 283.725 799.2 283.725 
C 803.494859 283.725 807.618206 285.290617 810.65513 288.074464 
C 813.692054 290.858311 815.4 294.638046 815.4 298.575 
" clip-path="url(#p9b773c2626)" style="fill: none; stroke: #000000; stroke-width: 3; stroke-linejoin: miter"/>
   </g>
   <g id="patch_22">
    <path d="M 783 370.575 
C 783 366.638046 784.707946 362.858311 787.74487 360.074464 
C 790.781794 357.290617 794.905141 355.725 799.2 355.725 
C 803.494859 355.725 807.618206 357.290617 810.65513 360.074464 
C 813.692054 362.858311 815.4 366.638046 815.4 370.575 
" clip-path="url(#p9b773c2626)" style="fill: none; stroke: #000000; stroke-width: 3; stroke-linejoin: miter"/>
   </g>
   <g id="patch_23">
    <path d="M 783 442.575 
C 783 438.638046 784.707946 434.858311 787.74487 432.074464 
C 790.781794 429.290617 794.905141 427.725 799.2 427.725 
C 803.494859 427.725 807.618206 429.290617 810.65513 432.074464 
C 813.692054 434.858311 815.4 438.638046 815.4 442.575 
" clip-path="url(#p9b773c2626)" style="fill: none; stroke: #000000; stroke-width: 3; stroke-linejoin: miter"/>
   </g>
   <g id="patch_24">
    <path d="M 783 514.575 
C 783 510.638046 784.707946 506.858311 787.74487 504.074464 
C 790.781794 501.290617 794.905141 499.725 799.2 499.725 
C 803.494859 499.725 807.618206 501.290617 810.65513 504.074464 
C 813.692054 506.858311 815.4 510.638046 815.4 514.575 
" clip-path="url(#p9b773c2626)" style="fill: none; stroke: #000000; stroke-width: 3; stroke-linejoin: miter"/>
   </g>
   <g id="patch_25">
    <path d="M 783 586.575 
C 783 582.638046 784.707946 578.858311 787.74487 576.074464 
C 790.781794 573.290617 794.905141 571.725 799.2 571.725 
C 803.494859 571.725 807.618206 573.290617 810.65513 576.074464 
C 813.692054 578.858311 815.4 582.638046 815.4 586.575 
" clip-path="url(#p9b773c2626)" style="fill: none; stroke: #000000; stroke-width: 3; stroke-linejoin: miter"/>
   </g>
   <g id="patch_26">
    <path d="M 138.6 124.2 
L 163.8 124.2 
Q 178.2 124.2 178.2 138.6 
L 178.2 163.8 
Q 178.2 178.2 163.8 178.2 
L 138.6 178.2 
Q 124.2 178.2 124.2 163.8 
L 124.2 138.6 
Q 124.2 124.2 138.6 124.2 
z
" clip-path="url(#p9b773c2626)" style="fill: #ffffff; stroke: #000000; stroke-width: 3; stroke-linejoin: miter"/>
   </g>
   <g id="patch_27">
    <path d="M 210.6 196.2 
L 235.8 196.2 
Q 250.2 196.2 250.2 210.6 
L 250.2 235.8 
Q 250.2 250.2 235.8 250.2 
L 210.6 250.2 
Q 196.2 250.2 196.2 235.8 
L 196.2 210.6 
Q 196.2 196.2 210.6 196.2 
z
" clip-path="url(#p9b773c2626)" style="fill: #ffffff; stroke: #000000; stroke-width: 3; stroke-linejoin: miter"/>
   </g>
   <g id="patch_28">
    <path d="M 282.6 268.2 
L 307.8 268.2 
Q 322.2 268.2 322.2 282.6 
L 322.2 307.8 
Q 322.2 322.2 307.8 322.2 
L 282.6 322.2 
Q 268.2 322.2 268.2 307.8 
L 268.2 282.6 
Q 268.2 268.2 282.6 268.2 
z
" clip-path="url(#p9b773c2626)" style="fill: #ffffff; stroke: #000000; stroke-width: 3; stroke-linejoin: miter"/>
   </g>
   <g id="patch_29">
    <path d="M 354.6 340.2 
L 379.8 340.2 
Q 394.2 340.2 394.2 354.6 
L 394.2 379.8 
Q 394.2 394.2 379.8 394.2 
L 354.6 394.2 
Q 340.2 394.2 340.2 379.8 
L 340.2 354.6 
Q 340.2 340.2 354.6 340.2 
z
" clip-path="url(#p9b773c2626)" style="fill: #ffffff; stroke: #000000; stroke-width: 3; stroke-linejoin: miter"/>
   </g>
   <g id="patch_30">
    <path d="M 426.6 412.2 
L 451.8 412.2 
Q 466.2 412.2 466.2 426.6 
L 466.2 451.8 
Q 466.2 466.2 451.8 466.2 
L 426.6 466.2 
Q 412.2 466.2 412.2 451.8 
L 412.2 426.6 
Q 412.2 412.2 426.6 412.2 
z
" clip-path="url(#p9b773c2626)" style="fill: #ffffff; stroke: #000000; stroke-width: 3; stroke-linejoin: miter"/>
   </g>
   <g id="patch_31">
    <path d="M 498.6 484.2 
L 523.8 484.2 
Q 538.2 484.2 538.2 498.6 
L 538.2 523.8 
Q 538.2 538.2 523.8 538.2 
L 498.6 538.2 
Q 484.2 538.2 484.2 523.8 
L 484.2 498.6 
Q 484.2 484.2 498.6 484.2 
z
" clip-path="url(#p9b773c2626)" style="fill: #ffffff; stroke: #000000; stroke-width: 3; stroke-linejoin: miter"/>
   </g>
   <g id="patch_32">
    <path d="M 570.6 556.2 
L 595.8 556.2 
Q 610.2 556.2 610.2 570.6 
L 610.2 595.8 
Q 610.2 610.2 595.8 610.2 
L 570.6 610.2 
Q 556.2 610.2 556.2 595.8 
L 556.2 570.6 
Q 556.2 556.2 570.6 556.2 
z
" clip-path="url(#p9b773c2626)" style="fill: #ffffff; stroke: #000000; stroke-width: 3; stroke-linejoin: miter"/>
   </g>
   <g id="patch_33">
    <path d="M 642.6 52.2 
L 667.8 52.2 
Q 682.2 52.2 682.2 66.6 
L 682.2 91.8 
Q 682.2 106.2 667.8 106.2 
L 642.6 106.2 
Q 628.2 106.2 628.2 91.8 
L 628.2 66.6 
Q 628.2 52.2 642.6 52.2 
z
" clip-path="url(#p9b773c2626)" style="fill: #ffffff; stroke: #000000; stroke-width: 3; stroke-linejoin: miter"/>
   </g>
   <g id="patch_34">
    <path d="M 811.69927 57.017884 
L 803.595961 63.963577 
L 806.45913 65.681478 
L 790.25913 92.681478 
L 790.32087 92.718522 
L 806.52087 65.718522 
L 809.384039 67.436423 
z
" clip-path="url(#p9b773c2626)" style="fill: #ffffff; stroke: #000000; stroke-width: 3; stroke-linejoin: miter"/>
   </g>
   <g id="patch_35">
    <path d="M 811.69927 129.017884 
L 803.595961 135.963577 
L 806.45913 137.681478 
L 790.25913 164.681478 
L 790.32087 164.718522 
L 806.52087 137.718522 
L 809.384039 139.436423 
z
" clip-path="url(#p9b773c2626)" style="fill: #ffffff; stroke: #000000; stroke-width: 3; stroke-linejoin: miter"/>
   </g>
   <g id="patch_36">
    <path d="M 811.69927 201.017884 
L 803.595961 207.963577 
L 806.45913 209.681478 
L 790.25913 236.681478 
L 790.32087 236.718522 
L 806.52087 209.718522 
L 809.384039 211.436423 
z
" clip-path="url(#p9b773c2626)" style="fill: #ffffff; stroke: #000000; stroke-width: 3; stroke-linejoin: miter"/>
   </g>
   <g id="patch_37">
    <path d="M 811.69927 273.017884 
L 803.595961 279.963577 
L 806.45913 281.681478 
L 790.25913 308.681478 
L 790.32087 308.718522 
L 806.52087 281.718522 
L 809.384039 283.436423 
z
" clip-path="url(#p9b773c2626)" style="fill: #ffffff; stroke: #000000; stroke-width: 3; stroke-linejoin: miter"/>
   </g>
   <g id="patch_38">
    <path d="M 811.69927 345.017884 
L 803.595961 351.963577 
L 806.45913 353.681478 
L 790.25913 380.681478 
L 790.32087 380.718522 
L 806.52087 353.718522 
L 809.384039 355.436423 
z
" clip-path="url(#p9b773c2626)" style="fill: #ffffff; stroke: #000000; stroke-width: 3; stroke-linejoin: miter"/>
   </g>
   <g id="patch_39">
    <path d="M 811.69927 417.017884 
L 803.595961 423.963577 
L 806.45913 425.681478 
L 790.25913 452.681478 
L 790.32087 452.718522 
L 806.52087 425.718522 
L 809.384039 427.436423 
z
" clip-path="url(#p9b773c2626)" style="fill: #ffffff; stroke: #000000; stroke-width: 3; stroke-linejoin: miter"/>
   </g>
   <g id="patch_40">
    <path d="M 811.69927 489.017884 
L 803.595961 495.963577 
L 806.45913 497.681478 
L 790.25913 524.681478 
L 790.32087 524.718522 
L 806.52087 497.718522 
L 809.384039 499.436423 
z
" clip-path="url(#p9b773c2626)" style="fill: #ffffff; stroke: #000000; stroke-width: 3; stroke-linejoin: miter"/>
   </g>
   <g id="patch_41">
    <path d="M 811.69927 561.017884 
L 803.595961 567.963577 
L 806.45913 569.681478 
L 790.25913 596.681478 
L 790.32087 596.718522 
L 806.52087 569.718522 
L 809.384039 571.436423 
z
" clip-path="url(#p9b773c2626)" style="fill: #ffffff; stroke: #000000; stroke-width: 3; stroke-linejoin: miter"/>
   </g>
   <g id="text_9">
    <!-- RZ -->
    <g transform="translate(141.541094 155.063125) scale(0.14 -0.14)">
     <defs>
      <path id="DejaVuSans-52" d="M 2841 2188 
Q 3044 2119 3236 1894 
Q 3428 1669 3622 1275 
L 4263 0 
L 3584 0 
L 2988 1197 
Q 2756 1666 2539 1819 
Q 2322 1972 1947 1972 
L 1259 1972 
L 1259 0 
L 628 0 
L 628 4666 
L 2053 4666 
Q 2853 4666 3247 4331 
Q 3641 3997 3641 3322 
Q 3641 2881 3436 2590 
Q 3231 2300 2841 2188 
z
M 1259 4147 
L 1259 2491 
L 2053 2491 
Q 2509 2491 2742 2702 
Q 2975 2913 2975 3322 
Q 2975 3731 2742 3939 
Q 2509 4147 2053 4147 
L 1259 4147 
z
" transform="scale(0.015625)"/>
      <path id="DejaVuSans-5a" d="M 359 4666 
L 4025 4666 
L 4025 4184 
L 1075 531 
L 4097 531 
L 4097 0 
L 288 0 
L 288 481 
L 3238 4134 
L 359 4134 
L 359 4666 
z
" transform="scale(0.015625)"/>
     </defs>
     <use xlink:href="#DejaVuSans-52"/>
     <use xlink:href="#DejaVuSans-5a" x="69.482422"/>
    </g>
   </g>
   <g id="text_10">
    <!-- RZ -->
    <g transform="translate(213.541094 227.063125) scale(0.14 -0.14)">
     <use xlink:href="#DejaVuSans-52"/>
     <use xlink:href="#DejaVuSans-5a" x="69.482422"/>
    </g>
   </g>
   <g id="text_11">
    <!-- RZ -->
    <g transform="translate(285.541094 299.063125) scale(0.14 -0.14)">
     <use xlink:href="#DejaVuSans-52"/>
     <use xlink:href="#DejaVuSans-5a" x="69.482422"/>
    </g>
   </g>
   <g id="text_12">
    <!-- RZ -->
    <g transform="translate(357.541094 371.063125) scale(0.14 -0.14)">
     <use xlink:href="#DejaVuSans-52"/>
     <use xlink:href="#DejaVuSans-5a" x="69.482422"/>
    </g>
   </g>
   <g id="text_13">
    <!-- RZ -->
    <g transform="translate(429.541094 443.063125) scale(0.14 -0.14)">
     <use xlink:href="#DejaVuSans-52"/>
     <use xlink:href="#DejaVuSans-5a" x="69.482422"/>
    </g>
   </g>
   <g id="text_14">
    <!-- RZ -->
    <g transform="translate(501.541094 515.063125) scale(0.14 -0.14)">
     <use xlink:href="#DejaVuSans-52"/>
     <use xlink:href="#DejaVuSans-5a" x="69.482422"/>
    </g>
   </g>
   <g id="text_15">
    <!-- RZ -->
    <g transform="translate(573.541094 587.063125) scale(0.14 -0.14)">
     <use xlink:href="#DejaVuSans-52"/>
     <use xlink:href="#DejaVuSans-5a" x="69.482422"/>
    </g>
   </g>
   <g id="text_16">
    <!-- RZ -->
    <g transform="translate(645.541094 83.063125) scale(0.14 -0.14)">
     <use xlink:href="#DejaVuSans-52"/>
     <use xlink:href="#DejaVuSans-5a" x="69.482422"/>
    </g>
   </g>
  </g>
 </g>
 <defs>
  <clipPath id="p9b773c2626">
   <rect x="7.2" y="7.2" width="864" height="648"/>
  </clipPath>
 </defs>
</svg>
