<?xml version="1.0" encoding="utf-8" standalone="no"?>
<!DOCTYPE svg PUBLIC "-//W3C//DTD SVG 1.1//EN"
  "http://www.w3.org/Graphics/SVG/1.1/DTD/svg11.dtd">
<svg xmlns:xlink="http://www.w3.org/1999/xlink" width="280.8pt" height="280.8pt" viewBox="0 0 280.8 280.8" xmlns="http://www.w3.org/2000/svg" version="1.1">
 <metadata>
  <rdf:RDF xmlns:dc="http://purl.org/dc/elements/1.1/" xmlns:cc="http://creativecommons.org/ns#" xmlns:rdf="http://www.w3.org/1999/02/22-rdf-syntax-ns#">
   <cc:Work>
    <dc:type rdf:resource="http://purl.org/dc/dcmitype/StillImage"/>
    <dc:date>2023-11-08T12:19:58.708851</dc:date>
    <dc:format>image/svg+xml</dc:format>
    <dc:creator>
     <cc:Agent>
      <dc:title>Matplotlib v3.8.1, https://matplotlib.org/</dc:title>
     </cc:Agent>
    </dc:creator>
   </cc:Work>
  </rdf:RDF>
 </metadata>
 <defs>
  <style type="text/css">*{stroke-linejoin: round; stroke-linecap: butt}</style>
 </defs>
 <g id="figure_1">
  <g id="patch_1">
   <path d="M 0 280.8 
L 280.8 280.8 
L 280.8 0 
L 0 0 
L 0 280.8 
z
" style="fill: none"/>
  </g>
  <g id="axes_1">
   <g id="patch_2">
    <path d="M 241.309091 152.509091 
C 244.520459 152.509091 247.600731 151.233201 249.871511 148.96242 
C 252.142292 146.69164 253.418182 143.611368 253.418182 140.4 
C 253.418182 137.188632 252.142292 134.10836 249.871511 131.83758 
C 247.600731 129.566799 244.520459 128.290909 241.309091 128.290909 
C 238.097722 128.290909 235.017451 129.566799 232.746671 131.83758 
C 230.47589 134.10836 229.2 137.188632 229.2 140.4 
C 229.2 143.611368 230.47589 146.69164 232.746671 148.96242 
C 235.017451 151.233201 238.097722 152.509091 241.309091 152.509091 
z
" clip-path="url(#p49ee77017a)" style="fill: #92a9bd; stroke: #000000; stroke-width: 1.5; stroke-linejoin: miter"/>
   </g>
   <g id="patch_3">
    <path d="M 171.582624 56.538842 
C 174.793992 56.538842 177.874264 55.262952 180.145044 52.992172 
C 182.415825 50.721391 183.691715 47.64112 183.691715 44.429752 
C 183.691715 41.218383 182.415825 38.138112 180.145044 35.867331 
C 177.874264 33.596551 174.793992 32.320661 171.582624 32.320661 
C 168.371256 32.320661 165.290984 33.596551 163.020204 35.867331 
C 160.749423 38.138112 159.473533 41.218383 159.473533 44.429752 
C 159.473533 47.64112 160.749423 50.721391 163.020204 52.992172 
C 165.290984 55.262952 168.371256 56.538842 171.582624 56.538842 
z
" clip-path="url(#p49ee77017a)" style="fill: #92a9bd; stroke: #000000; stroke-width: 1.5; stroke-linejoin: miter"/>
   </g>
   <g id="patch_4">
    <path d="M 58.762831 93.196215 
C 61.974199 93.196215 65.05447 91.920325 67.325251 89.649545 
C 69.596031 87.378764 70.871921 84.298493 70.871921 81.087125 
C 70.871921 77.875756 69.596031 74.795485 67.325251 72.524704 
C 65.05447 70.253924 61.974199 68.978034 58.762831 68.978034 
C 55.551462 68.978034 52.471191 70.253924 50.20041 72.524704 
C 47.92963 74.795485 46.65374 77.875756 46.65374 81.087125 
C 46.65374 84.298493 47.92963 87.378764 50.20041 89.649545 
C 52.471191 91.920325 55.551462 93.196215 58.762831 93.196215 
z
" clip-path="url(#p49ee77017a)" style="fill: #92a9bd; stroke: #000000; stroke-width: 1.5; stroke-linejoin: miter"/>
   </g>
   <g id="patch_5">
    <path d="M 58.762831 211.821966 
C 61.974199 211.821966 65.05447 210.546076 67.325251 208.275296 
C 69.596031 206.004515 70.871921 202.924244 70.871921 199.712875 
C 70.871921 196.501507 69.596031 193.421236 67.325251 191.150455 
C 65.05447 188.879675 61.974199 187.603785 58.762831 187.603785 
C 55.551462 187.603785 52.471191 188.879675 50.20041 191.150455 
C 47.92963 193.421236 46.65374 196.501507 46.65374 199.712875 
C 46.65374 202.924244 47.92963 206.004515 50.20041 208.275296 
C 52.471191 210.546076 55.551462 211.821966 58.762831 211.821966 
z
" clip-path="url(#p49ee77017a)" style="fill: #92a9bd; stroke: #000000; stroke-width: 1.5; stroke-linejoin: miter"/>
   </g>
   <g id="patch_6">
    <path d="M 171.582624 248.479339 
C 174.793992 248.479339 177.874264 247.203449 180.145044 244.932669 
C 182.415825 242.661888 183.691715 239.581617 183.691715 236.370248 
C 183.691715 233.15888 182.415825 230.078609 180.145044 227.807828 
C 177.874264 225.537048 174.793992 224.261158 171.582624 224.261158 
C 168.371256 224.261158 165.290984 225.537048 163.020204 227.807828 
C 160.749423 230.078609 159.473533 233.15888 159.473533 236.370248 
C 159.473533 239.581617 160.749423 242.661888 163.020204 244.932669 
C 165.290984 247.203449 168.371256 248.479339 171.582624 248.479339 
z
" clip-path="url(#p49ee77017a)" style="fill: #92a9bd; stroke: #000000; stroke-width: 1.5; stroke-linejoin: miter"/>
   </g>
   <g id="text_1">
    <!-- 0 -->
    <g transform="translate(236.537216 144.539062) scale(0.15 -0.15)">
     <defs>
      <path id="DejaVuSans-30" d="M 2034 4250 
Q 1547 4250 1301 3770 
Q 1056 3291 1056 2328 
Q 1056 1369 1301 889 
Q 1547 409 2034 409 
Q 2525 409 2770 889 
Q 3016 1369 3016 2328 
Q 3016 3291 2770 3770 
Q 2525 4250 2034 4250 
z
M 2034 4750 
Q 2819 4750 3233 4129 
Q 3647 3509 3647 2328 
Q 3647 1150 3233 529 
Q 2819 -91 2034 -91 
Q 1250 -91 836 529 
Q 422 1150 422 2328 
Q 422 3509 836 4129 
Q 1250 4750 2034 4750 
z
" transform="scale(0.015625)"/>
     </defs>
     <use xlink:href="#DejaVuSans-30"/>
    </g>
   </g>
   <g id="text_2">
    <!-- 1 -->
    <g transform="translate(166.810749 48.568814) scale(0.15 -0.15)">
     <defs>
      <path id="DejaVuSans-31" d="M 794 531 
L 1825 531 
L 1825 4091 
L 703 3866 
L 703 4441 
L 1819 4666 
L 2450 4666 
L 2450 531 
L 3481 531 
L 3481 0 
L 794 0 
L 794 531 
z
" transform="scale(0.015625)"/>
     </defs>
     <use xlink:href="#DejaVuSans-31"/>
    </g>
   </g>
   <g id="text_3">
    <!-- 2 -->
    <g transform="translate(53.990956 85.226187) scale(0.15 -0.15)">
     <defs>
      <path id="DejaVuSans-32" d="M 1228 531 
L 3431 531 
L 3431 0 
L 469 0 
L 469 531 
Q 828 903 1448 1529 
Q 2069 2156 2228 2338 
Q 2531 2678 2651 2914 
Q 2772 3150 2772 3378 
Q 2772 3750 2511 3984 
Q 2250 4219 1831 4219 
Q 1534 4219 1204 4116 
Q 875 4013 500 3803 
L 500 4441 
Q 881 4594 1212 4672 
Q 1544 4750 1819 4750 
Q 2544 4750 2975 4387 
Q 3406 4025 3406 3419 
Q 3406 3131 3298 2873 
Q 3191 2616 2906 2266 
Q 2828 2175 2409 1742 
Q 1991 1309 1228 531 
z
" transform="scale(0.015625)"/>
     </defs>
     <use xlink:href="#DejaVuSans-32"/>
    </g>
   </g>
   <g id="text_4">
    <!-- 3 -->
    <g transform="translate(53.990956 203.851938) scale(0.15 -0.15)">
     <defs>
      <path id="DejaVuSans-33" d="M 2597 2516 
Q 3050 2419 3304 2112 
Q 3559 1806 3559 1356 
Q 3559 666 3084 287 
Q 2609 -91 1734 -91 
Q 1441 -91 1130 -33 
Q 819 25 488 141 
L 488 750 
Q 750 597 1062 519 
Q 1375 441 1716 441 
Q 2309 441 2620 675 
Q 2931 909 2931 1356 
Q 2931 1769 2642 2001 
Q 2353 2234 1838 2234 
L 1294 2234 
L 1294 2753 
L 1863 2753 
Q 2328 2753 2575 2939 
Q 2822 3125 2822 3475 
Q 2822 3834 2567 4026 
Q 2313 4219 1838 4219 
Q 1578 4219 1281 4162 
Q 984 4106 628 3988 
L 628 4550 
Q 988 4650 1302 4700 
Q 1616 4750 1894 4750 
Q 2613 4750 3031 4423 
Q 3450 4097 3450 3541 
Q 3450 3153 3228 2886 
Q 3006 2619 2597 2516 
z
" transform="scale(0.015625)"/>
     </defs>
     <use xlink:href="#DejaVuSans-33"/>
    </g>
   </g>
   <g id="text_5">
    <!-- 4 -->
    <g transform="translate(166.810749 240.509311) scale(0.15 -0.15)">
     <defs>
      <path id="DejaVuSans-34" d="M 2419 4116 
L 825 1625 
L 2419 1625 
L 2419 4116 
z
M 2253 4666 
L 3047 4666 
L 3047 1625 
L 3713 1625 
L 3713 1100 
L 3047 1100 
L 3047 0 
L 2419 0 
L 2419 1100 
L 313 1100 
L 313 1709 
L 2253 4666 
z
" transform="scale(0.015625)"/>
     </defs>
     <use xlink:href="#DejaVuSans-34"/>
    </g>
   </g>
  </g>
 </g>
 <defs>
  <clipPath id="p49ee77017a">
   <rect x="7.2" y="7.2" width="266.4" height="266.4"/>
  </clipPath>
 </defs>
</svg>
