<?xml version="1.0" encoding="utf-8" standalone="no"?>
<!DOCTYPE svg PUBLIC "-//W3C//DTD SVG 1.1//EN"
  "http://www.w3.org/Graphics/SVG/1.1/DTD/svg11.dtd">
<svg xmlns:xlink="http://www.w3.org/1999/xlink" width="347.04pt" height="347.04pt" viewBox="0 0 347.04 347.04" xmlns="http://www.w3.org/2000/svg" version="1.1">
 <metadata>
  <rdf:RDF xmlns:dc="http://purl.org/dc/elements/1.1/" xmlns:cc="http://creativecommons.org/ns#" xmlns:rdf="http://www.w3.org/1999/02/22-rdf-syntax-ns#">
   <cc:Work>
    <dc:type rdf:resource="http://purl.org/dc/dcmitype/StillImage"/>
    <dc:date>2023-11-08T12:20:09.059339</dc:date>
    <dc:format>image/svg+xml</dc:format>
    <dc:creator>
     <cc:Agent>
      <dc:title>Matplotlib v3.8.1, https://matplotlib.org/</dc:title>
     </cc:Agent>
    </dc:creator>
   </cc:Work>
  </rdf:RDF>
 </metadata>
 <defs>
  <style type="text/css">*{stroke-linejoin: round; stroke-linecap: butt}</style>
 </defs>
 <g id="figure_1">
  <g id="patch_1">
   <path d="M -0 347.04 
L 347.04 347.04 
L 347.04 -0 
L -0 -0 
L -0 347.04 
z
" style="fill: none"/>
  </g>
  <g id="axes_1">
   <g id="LineCollection_1">
    <path d="M 40.464 40.464 
L 339.84 40.464 
" clip-path="url(#pb1f33c49a5)" style="fill: none; stroke: #808080; stroke-width: 1.5"/>
   </g>
   <g id="LineCollection_2">
    <path d="M 40.464 73.728 
L 339.84 73.728 
" clip-path="url(#pb1f33c49a5)" style="fill: none; stroke: #808080; stroke-width: 1.5"/>
   </g>
   <g id="LineCollection_3">
    <path d="M 40.464 106.992 
L 339.84 106.992 
" clip-path="url(#pb1f33c49a5)" style="fill: none; stroke: #808080; stroke-width: 1.5"/>
   </g>
   <g id="LineCollection_4">
    <path d="M 40.464 140.256 
L 339.84 140.256 
" clip-path="url(#pb1f33c49a5)" style="fill: none; stroke: #808080; stroke-width: 1.5"/>
   </g>
   <g id="LineCollection_5">
    <path d="M 40.464 173.52 
L 339.84 173.52 
" clip-path="url(#pb1f33c49a5)" style="fill: none; stroke: #808080; stroke-width: 1.5"/>
   </g>
   <g id="LineCollection_6">
    <path d="M 40.464 206.784 
L 339.84 206.784 
" clip-path="url(#pb1f33c49a5)" style="fill: none; stroke: #808080; stroke-width: 1.5"/>
   </g>
   <g id="LineCollection_7">
    <path d="M 40.464 240.048 
L 339.84 240.048 
" clip-path="url(#pb1f33c49a5)" style="fill: none; stroke: #808080; stroke-width: 1.5"/>
   </g>
   <g id="LineCollection_8">
    <path d="M 40.464 273.312 
L 339.84 273.312 
" clip-path="url(#pb1f33c49a5)" style="fill: none; stroke: #808080; stroke-width: 1.5"/>
   </g>
   <g id="line2d_1">
    <path d="M 73.728 40.464 
L 73.728 106.992 
" clip-path="url(#pb1f33c49a5)" style="fill: none; stroke: #000000; stroke-width: 1.5; stroke-linecap: square"/>
   </g>
   <g id="line2d_2">
    <path d="M 90.36 73.728 
L 90.36 140.256 
" clip-path="url(#pb1f33c49a5)" style="fill: none; stroke: #000000; stroke-width: 1.5; stroke-linecap: square"/>
   </g>
   <g id="line2d_3">
    <path d="M 106.992 106.992 
L 106.992 173.52 
" clip-path="url(#pb1f33c49a5)" style="fill: none; stroke: #000000; stroke-width: 1.5; stroke-linecap: square"/>
   </g>
   <g id="line2d_4">
    <path d="M 123.624 140.256 
L 123.624 206.784 
" clip-path="url(#pb1f33c49a5)" style="fill: none; stroke: #000000; stroke-width: 1.5; stroke-linecap: square"/>
   </g>
   <g id="line2d_5">
    <path d="M 140.256 173.52 
L 140.256 240.048 
" clip-path="url(#pb1f33c49a5)" style="fill: none; stroke: #000000; stroke-width: 1.5; stroke-linecap: square"/>
   </g>
   <g id="line2d_6">
    <path d="M 156.888 206.784 
L 156.888 273.312 
" clip-path="url(#pb1f33c49a5)" style="fill: none; stroke: #000000; stroke-width: 1.5; stroke-linecap: square"/>
   </g>
   <g id="patch_2">
    <path d="M 40.464 57.096 
C 44.874858 57.096 49.105652 55.343548 52.2246 52.2246 
C 55.343548 49.105652 57.096 44.874858 57.096 40.464 
C 57.096 36.053142 55.343548 31.822348 52.2246 28.7034 
C 49.105652 25.584452 44.874858 23.832 40.464 23.832 
C 36.053142 23.832 31.822348 25.584452 28.7034 28.7034 
C 25.584452 31.822348 23.832 36.053142 23.832 40.464 
C 23.832 44.874858 25.584452 49.105652 28.7034 52.2246 
C 31.822348 55.343548 36.053142 57.096 40.464 57.096 
z
" clip-path="url(#pb1f33c49a5)" style="fill: #92a9bd; stroke: #000000; stroke-linejoin: miter"/>
   </g>
   <g id="patch_3">
    <path d="M 40.464 90.36 
C 44.874858 90.36 49.105652 88.607548 52.2246 85.4886 
C 55.343548 82.369652 57.096 78.138858 57.096 73.728 
C 57.096 69.317142 55.343548 65.086348 52.2246 61.9674 
C 49.105652 58.848452 44.874858 57.096 40.464 57.096 
C 36.053142 57.096 31.822348 58.848452 28.7034 61.9674 
C 25.584452 65.086348 23.832 69.317142 23.832 73.728 
C 23.832 78.138858 25.584452 82.369652 28.7034 85.4886 
C 31.822348 88.607548 36.053142 90.36 40.464 90.36 
z
" clip-path="url(#pb1f33c49a5)" style="fill: #92a9bd; stroke: #000000; stroke-linejoin: miter"/>
   </g>
   <g id="patch_4">
    <path d="M 40.464 123.624 
C 44.874858 123.624 49.105652 121.871548 52.2246 118.7526 
C 55.343548 115.633652 57.096 111.402858 57.096 106.992 
C 57.096 102.581142 55.343548 98.350348 52.2246 95.2314 
C 49.105652 92.112452 44.874858 90.36 40.464 90.36 
C 36.053142 90.36 31.822348 92.112452 28.7034 95.2314 
C 25.584452 98.350348 23.832 102.581142 23.832 106.992 
C 23.832 111.402858 25.584452 115.633652 28.7034 118.7526 
C 31.822348 121.871548 36.053142 123.624 40.464 123.624 
z
" clip-path="url(#pb1f33c49a5)" style="fill: #92a9bd; stroke: #000000; stroke-linejoin: miter"/>
   </g>
   <g id="patch_5">
    <path d="M 40.464 156.888 
C 44.874858 156.888 49.105652 155.135548 52.2246 152.0166 
C 55.343548 148.897652 57.096 144.666858 57.096 140.256 
C 57.096 135.845142 55.343548 131.614348 52.2246 128.4954 
C 49.105652 125.376452 44.874858 123.624 40.464 123.624 
C 36.053142 123.624 31.822348 125.376452 28.7034 128.4954 
C 25.584452 131.614348 23.832 135.845142 23.832 140.256 
C 23.832 144.666858 25.584452 148.897652 28.7034 152.0166 
C 31.822348 155.135548 36.053142 156.888 40.464 156.888 
z
" clip-path="url(#pb1f33c49a5)" style="fill: #92a9bd; stroke: #000000; stroke-linejoin: miter"/>
   </g>
   <g id="patch_6">
    <path d="M 40.464 190.152 
C 44.874858 190.152 49.105652 188.399548 52.2246 185.2806 
C 55.343548 182.161652 57.096 177.930858 57.096 173.52 
C 57.096 169.109142 55.343548 164.878348 52.2246 161.7594 
C 49.105652 158.640452 44.874858 156.888 40.464 156.888 
C 36.053142 156.888 31.822348 158.640452 28.7034 161.7594 
C 25.584452 164.878348 23.832 169.109142 23.832 173.52 
C 23.832 177.930858 25.584452 182.161652 28.7034 185.2806 
C 31.822348 188.399548 36.053142 190.152 40.464 190.152 
z
" clip-path="url(#pb1f33c49a5)" style="fill: #92a9bd; stroke: #000000; stroke-linejoin: miter"/>
   </g>
   <g id="patch_7">
    <path d="M 40.464 223.416 
C 44.874858 223.416 49.105652 221.663548 52.2246 218.5446 
C 55.343548 215.425652 57.096 211.194858 57.096 206.784 
C 57.096 202.373142 55.343548 198.142348 52.2246 195.0234 
C 49.105652 191.904452 44.874858 190.152 40.464 190.152 
C 36.053142 190.152 31.822348 191.904452 28.7034 195.0234 
C 25.584452 198.142348 23.832 202.373142 23.832 206.784 
C 23.832 211.194858 25.584452 215.425652 28.7034 218.5446 
C 31.822348 221.663548 36.053142 223.416 40.464 223.416 
z
" clip-path="url(#pb1f33c49a5)" style="fill: #92a9bd; stroke: #000000; stroke-linejoin: miter"/>
   </g>
   <g id="patch_8">
    <path d="M 40.464 256.68 
C 44.874858 256.68 49.105652 254.927548 52.2246 251.8086 
C 55.343548 248.689652 57.096 244.458858 57.096 240.048 
C 57.096 235.637142 55.343548 231.406348 52.2246 228.2874 
C 49.105652 225.168452 44.874858 223.416 40.464 223.416 
C 36.053142 223.416 31.822348 225.168452 28.7034 228.2874 
C 25.584452 231.406348 23.832 235.637142 23.832 240.048 
C 23.832 244.458858 25.584452 248.689652 28.7034 251.8086 
C 31.822348 254.927548 36.053142 256.68 40.464 256.68 
z
" clip-path="url(#pb1f33c49a5)" style="fill: #92a9bd; stroke: #000000; stroke-linejoin: miter"/>
   </g>
   <g id="patch_9">
    <path d="M 40.464 289.944 
C 44.874858 289.944 49.105652 288.191548 52.2246 285.0726 
C 55.343548 281.953652 57.096 277.722858 57.096 273.312 
C 57.096 268.901142 55.343548 264.670348 52.2246 261.5514 
C 49.105652 258.432452 44.874858 256.68 40.464 256.68 
C 36.053142 256.68 31.822348 258.432452 28.7034 261.5514 
C 25.584452 264.670348 23.832 268.901142 23.832 273.312 
C 23.832 277.722858 25.584452 281.953652 28.7034 285.0726 
C 31.822348 288.191548 36.053142 289.944 40.464 289.944 
z
" clip-path="url(#pb1f33c49a5)" style="fill: #92a9bd; stroke: #000000; stroke-linejoin: miter"/>
   </g>
   <g id="patch_10">
    <path d="M 73.728 47.1168 
C 75.492343 47.1168 77.184661 46.415819 78.43224 45.16824 
C 79.679819 43.920661 80.3808 42.228343 80.3808 40.464 
C 80.3808 38.699657 79.679819 37.007339 78.43224 35.75976 
C 77.184661 34.512181 75.492343 33.8112 73.728 33.8112 
C 71.963657 33.8112 70.271339 34.512181 69.02376 35.75976 
C 67.776181 37.007339 67.0752 38.699657 67.0752 40.464 
C 67.0752 42.228343 67.776181 43.920661 69.02376 45.16824 
C 70.271339 46.415819 71.963657 47.1168 73.728 47.1168 
z
" clip-path="url(#pb1f33c49a5)" style="fill: #08306b; stroke: #08306b; stroke-linejoin: miter"/>
   </g>
   <g id="patch_11">
    <path d="M 73.728 113.6448 
C 75.492343 113.6448 77.184661 112.943819 78.43224 111.69624 
C 79.679819 110.448661 80.3808 108.756343 80.3808 106.992 
C 80.3808 105.227657 79.679819 103.535339 78.43224 102.28776 
C 77.184661 101.040181 75.492343 100.3392 73.728 100.3392 
C 71.963657 100.3392 70.271339 101.040181 69.02376 102.28776 
C 67.776181 103.535339 67.0752 105.227657 67.0752 106.992 
C 67.0752 108.756343 67.776181 110.448661 69.02376 111.69624 
C 70.271339 112.943819 71.963657 113.6448 73.728 113.6448 
z
" clip-path="url(#pb1f33c49a5)" style="fill: #6aaed6; stroke: #6aaed6; stroke-linejoin: miter"/>
   </g>
   <g id="patch_12">
    <path d="M 90.36 80.3808 
C 92.124343 80.3808 93.816661 79.679819 95.06424 78.43224 
C 96.311819 77.184661 97.0128 75.492343 97.0128 73.728 
C 97.0128 71.963657 96.311819 70.271339 95.06424 69.02376 
C 93.816661 67.776181 92.124343 67.0752 90.36 67.0752 
C 88.595657 67.0752 86.903339 67.776181 85.65576 69.02376 
C 84.408181 70.271339 83.7072 71.963657 83.7072 73.728 
C 83.7072 75.492343 84.408181 77.184661 85.65576 78.43224 
C 86.903339 79.679819 88.595657 80.3808 90.36 80.3808 
z
" clip-path="url(#pb1f33c49a5)" style="fill: #08306b; stroke: #08306b; stroke-linejoin: miter"/>
   </g>
   <g id="patch_13">
    <path d="M 90.36 146.9088 
C 92.124343 146.9088 93.816661 146.207819 95.06424 144.96024 
C 96.311819 143.712661 97.0128 142.020343 97.0128 140.256 
C 97.0128 138.491657 96.311819 136.799339 95.06424 135.55176 
C 93.816661 134.304181 92.124343 133.6032 90.36 133.6032 
C 88.595657 133.6032 86.903339 134.304181 85.65576 135.55176 
C 84.408181 136.799339 83.7072 138.491657 83.7072 140.256 
C 83.7072 142.020343 84.408181 143.712661 85.65576 144.96024 
C 86.903339 146.207819 88.595657 146.9088 90.36 146.9088 
z
" clip-path="url(#pb1f33c49a5)" style="fill: #6aaed6; stroke: #6aaed6; stroke-linejoin: miter"/>
   </g>
   <g id="patch_14">
    <path d="M 106.992 113.6448 
C 108.756343 113.6448 110.448661 112.943819 111.69624 111.69624 
C 112.943819 110.448661 113.6448 108.756343 113.6448 106.992 
C 113.6448 105.227657 112.943819 103.535339 111.69624 102.28776 
C 110.448661 101.040181 108.756343 100.3392 106.992 100.3392 
C 105.227657 100.3392 103.535339 101.040181 102.28776 102.28776 
C 101.040181 103.535339 100.3392 105.227657 100.3392 106.992 
C 100.3392 108.756343 101.040181 110.448661 102.28776 111.69624 
C 103.535339 112.943819 105.227657 113.6448 106.992 113.6448 
z
" clip-path="url(#pb1f33c49a5)" style="fill: #08306b; stroke: #08306b; stroke-linejoin: miter"/>
   </g>
   <g id="patch_15">
    <path d="M 106.992 180.1728 
C 108.756343 180.1728 110.448661 179.471819 111.69624 178.22424 
C 112.943819 176.976661 113.6448 175.284343 113.6448 173.52 
C 113.6448 171.755657 112.943819 170.063339 111.69624 168.81576 
C 110.448661 167.568181 108.756343 166.8672 106.992 166.8672 
C 105.227657 166.8672 103.535339 167.568181 102.28776 168.81576 
C 101.040181 170.063339 100.3392 171.755657 100.3392 173.52 
C 100.3392 175.284343 101.040181 176.976661 102.28776 178.22424 
C 103.535339 179.471819 105.227657 180.1728 106.992 180.1728 
z
" clip-path="url(#pb1f33c49a5)" style="fill: #6aaed6; stroke: #6aaed6; stroke-linejoin: miter"/>
   </g>
   <g id="patch_16">
    <path d="M 123.624 146.9088 
C 125.388343 146.9088 127.080661 146.207819 128.32824 144.96024 
C 129.575819 143.712661 130.2768 142.020343 130.2768 140.256 
C 130.2768 138.491657 129.575819 136.799339 128.32824 135.55176 
C 127.080661 134.304181 125.388343 133.6032 123.624 133.6032 
C 121.859657 133.6032 120.167339 134.304181 118.91976 135.55176 
C 117.672181 136.799339 116.9712 138.491657 116.9712 140.256 
C 116.9712 142.020343 117.672181 143.712661 118.91976 144.96024 
C 120.167339 146.207819 121.859657 146.9088 123.624 146.9088 
z
" clip-path="url(#pb1f33c49a5)" style="fill: #08306b; stroke: #08306b; stroke-linejoin: miter"/>
   </g>
   <g id="patch_17">
    <path d="M 123.624 213.4368 
C 125.388343 213.4368 127.080661 212.735819 128.32824 211.48824 
C 129.575819 210.240661 130.2768 208.548343 130.2768 206.784 
C 130.2768 205.019657 129.575819 203.327339 128.32824 202.07976 
C 127.080661 200.832181 125.388343 200.1312 123.624 200.1312 
C 121.859657 200.1312 120.167339 200.832181 118.91976 202.07976 
C 117.672181 203.327339 116.9712 205.019657 116.9712 206.784 
C 116.9712 208.548343 117.672181 210.240661 118.91976 211.48824 
C 120.167339 212.735819 121.859657 213.4368 123.624 213.4368 
z
" clip-path="url(#pb1f33c49a5)" style="fill: #6aaed6; stroke: #6aaed6; stroke-linejoin: miter"/>
   </g>
   <g id="patch_18">
    <path d="M 140.256 180.1728 
C 142.020343 180.1728 143.712661 179.471819 144.96024 178.22424 
C 146.207819 176.976661 146.9088 175.284343 146.9088 173.52 
C 146.9088 171.755657 146.207819 170.063339 144.96024 168.81576 
C 143.712661 167.568181 142.020343 166.8672 140.256 166.8672 
C 138.491657 166.8672 136.799339 167.568181 135.55176 168.81576 
C 134.304181 170.063339 133.6032 171.755657 133.6032 173.52 
C 133.6032 175.284343 134.304181 176.976661 135.55176 178.22424 
C 136.799339 179.471819 138.491657 180.1728 140.256 180.1728 
z
" clip-path="url(#pb1f33c49a5)" style="fill: #08306b; stroke: #08306b; stroke-linejoin: miter"/>
   </g>
   <g id="patch_19">
    <path d="M 140.256 246.7008 
C 142.020343 246.7008 143.712661 245.999819 144.96024 244.75224 
C 146.207819 243.504661 146.9088 241.812343 146.9088 240.048 
C 146.9088 238.283657 146.207819 236.591339 144.96024 235.34376 
C 143.712661 234.096181 142.020343 233.3952 140.256 233.3952 
C 138.491657 233.3952 136.799339 234.096181 135.55176 235.34376 
C 134.304181 236.591339 133.6032 238.283657 133.6032 240.048 
C 133.6032 241.812343 134.304181 243.504661 135.55176 244.75224 
C 136.799339 245.999819 138.491657 246.7008 140.256 246.7008 
z
" clip-path="url(#pb1f33c49a5)" style="fill: #6aaed6; stroke: #6aaed6; stroke-linejoin: miter"/>
   </g>
   <g id="patch_20">
    <path d="M 156.888 213.4368 
C 158.652343 213.4368 160.344661 212.735819 161.59224 211.48824 
C 162.839819 210.240661 163.5408 208.548343 163.5408 206.784 
C 163.5408 205.019657 162.839819 203.327339 161.59224 202.07976 
C 160.344661 200.832181 158.652343 200.1312 156.888 200.1312 
C 155.123657 200.1312 153.431339 200.832181 152.18376 202.07976 
C 150.936181 203.327339 150.2352 205.019657 150.2352 206.784 
C 150.2352 208.548343 150.936181 210.240661 152.18376 211.48824 
C 153.431339 212.735819 155.123657 213.4368 156.888 213.4368 
z
" clip-path="url(#pb1f33c49a5)" style="fill: #08306b; stroke: #08306b; stroke-linejoin: miter"/>
   </g>
   <g id="patch_21">
    <path d="M 156.888 279.9648 
C 158.652343 279.9648 160.344661 279.263819 161.59224 278.01624 
C 162.839819 276.768661 163.5408 275.076343 163.5408 273.312 
C 163.5408 271.547657 162.839819 269.855339 161.59224 268.60776 
C 160.344661 267.360181 158.652343 266.6592 156.888 266.6592 
C 155.123657 266.6592 153.431339 267.360181 152.18376 268.60776 
C 150.936181 269.855339 150.2352 271.547657 150.2352 273.312 
C 150.2352 275.076343 150.936181 276.768661 152.18376 278.01624 
C 153.431339 279.263819 155.123657 279.9648 156.888 279.9648 
z
" clip-path="url(#pb1f33c49a5)" style="fill: #6aaed6; stroke: #6aaed6; stroke-linejoin: miter"/>
   </g>
   <g id="text_1">
    <!-- 0 -->
    <g transform="translate(37.28275 43.223375) scale(0.1 -0.1)">
     <defs>
      <path id="DejaVuSans-30" d="M 2034 4250 
Q 1547 4250 1301 3770 
Q 1056 3291 1056 2328 
Q 1056 1369 1301 889 
Q 1547 409 2034 409 
Q 2525 409 2770 889 
Q 3016 1369 3016 2328 
Q 3016 3291 2770 3770 
Q 2525 4250 2034 4250 
z
M 2034 4750 
Q 2819 4750 3233 4129 
Q 3647 3509 3647 2328 
Q 3647 1150 3233 529 
Q 2819 -91 2034 -91 
Q 1250 -91 836 529 
Q 422 1150 422 2328 
Q 422 3509 836 4129 
Q 1250 4750 2034 4750 
z
" transform="scale(0.015625)"/>
     </defs>
     <use xlink:href="#DejaVuSans-30"/>
    </g>
   </g>
   <g id="text_2">
    <!-- 1 -->
    <g transform="translate(37.28275 76.487375) scale(0.1 -0.1)">
     <defs>
      <path id="DejaVuSans-31" d="M 794 531 
L 1825 531 
L 1825 4091 
L 703 3866 
L 703 4441 
L 1819 4666 
L 2450 4666 
L 2450 531 
L 3481 531 
L 3481 0 
L 794 0 
L 794 531 
z
" transform="scale(0.015625)"/>
     </defs>
     <use xlink:href="#DejaVuSans-31"/>
    </g>
   </g>
   <g id="text_3">
    <!-- 2 -->
    <g transform="translate(37.28275 109.751375) scale(0.1 -0.1)">
     <defs>
      <path id="DejaVuSans-32" d="M 1228 531 
L 3431 531 
L 3431 0 
L 469 0 
L 469 531 
Q 828 903 1448 1529 
Q 2069 2156 2228 2338 
Q 2531 2678 2651 2914 
Q 2772 3150 2772 3378 
Q 2772 3750 2511 3984 
Q 2250 4219 1831 4219 
Q 1534 4219 1204 4116 
Q 875 4013 500 3803 
L 500 4441 
Q 881 4594 1212 4672 
Q 1544 4750 1819 4750 
Q 2544 4750 2975 4387 
Q 3406 4025 3406 3419 
Q 3406 3131 3298 2873 
Q 3191 2616 2906 2266 
Q 2828 2175 2409 1742 
Q 1991 1309 1228 531 
z
" transform="scale(0.015625)"/>
     </defs>
     <use xlink:href="#DejaVuSans-32"/>
    </g>
   </g>
   <g id="text_4">
    <!-- 3 -->
    <g transform="translate(37.28275 143.015375) scale(0.1 -0.1)">
     <defs>
      <path id="DejaVuSans-33" d="M 2597 2516 
Q 3050 2419 3304 2112 
Q 3559 1806 3559 1356 
Q 3559 666 3084 287 
Q 2609 -91 1734 -91 
Q 1441 -91 1130 -33 
Q 819 25 488 141 
L 488 750 
Q 750 597 1062 519 
Q 1375 441 1716 441 
Q 2309 441 2620 675 
Q 2931 909 2931 1356 
Q 2931 1769 2642 2001 
Q 2353 2234 1838 2234 
L 1294 2234 
L 1294 2753 
L 1863 2753 
Q 2328 2753 2575 2939 
Q 2822 3125 2822 3475 
Q 2822 3834 2567 4026 
Q 2313 4219 1838 4219 
Q 1578 4219 1281 4162 
Q 984 4106 628 3988 
L 628 4550 
Q 988 4650 1302 4700 
Q 1616 4750 1894 4750 
Q 2613 4750 3031 4423 
Q 3450 4097 3450 3541 
Q 3450 3153 3228 2886 
Q 3006 2619 2597 2516 
z
" transform="scale(0.015625)"/>
     </defs>
     <use xlink:href="#DejaVuSans-33"/>
    </g>
   </g>
   <g id="text_5">
    <!-- 4 -->
    <g transform="translate(37.28275 176.279375) scale(0.1 -0.1)">
     <defs>
      <path id="DejaVuSans-34" d="M 2419 4116 
L 825 1625 
L 2419 1625 
L 2419 4116 
z
M 2253 4666 
L 3047 4666 
L 3047 1625 
L 3713 1625 
L 3713 1100 
L 3047 1100 
L 3047 0 
L 2419 0 
L 2419 1100 
L 313 1100 
L 313 1709 
L 2253 4666 
z
" transform="scale(0.015625)"/>
     </defs>
     <use xlink:href="#DejaVuSans-34"/>
    </g>
   </g>
   <g id="text_6">
    <!-- 5 -->
    <g transform="translate(37.28275 209.543375) scale(0.1 -0.1)">
     <defs>
      <path id="DejaVuSans-35" d="M 691 4666 
L 3169 4666 
L 3169 4134 
L 1269 4134 
L 1269 2991 
Q 1406 3038 1543 3061 
Q 1681 3084 1819 3084 
Q 2600 3084 3056 2656 
Q 3513 2228 3513 1497 
Q 3513 744 3044 326 
Q 2575 -91 1722 -91 
Q 1428 -91 1123 -41 
Q 819 9 494 109 
L 494 744 
Q 775 591 1075 516 
Q 1375 441 1709 441 
Q 2250 441 2565 725 
Q 2881 1009 2881 1497 
Q 2881 1984 2565 2268 
Q 2250 2553 1709 2553 
Q 1456 2553 1204 2497 
Q 953 2441 691 2322 
L 691 4666 
z
" transform="scale(0.015625)"/>
     </defs>
     <use xlink:href="#DejaVuSans-35"/>
    </g>
   </g>
   <g id="text_7">
    <!-- 6 -->
    <g transform="translate(37.28275 242.807375) scale(0.1 -0.1)">
     <defs>
      <path id="DejaVuSans-36" d="M 2113 2584 
Q 1688 2584 1439 2293 
Q 1191 2003 1191 1497 
Q 1191 994 1439 701 
Q 1688 409 2113 409 
Q 2538 409 2786 701 
Q 3034 994 3034 1497 
Q 3034 2003 2786 2293 
Q 2538 2584 2113 2584 
z
M 3366 4563 
L 3366 3988 
Q 3128 4100 2886 4159 
Q 2644 4219 2406 4219 
Q 1781 4219 1451 3797 
Q 1122 3375 1075 2522 
Q 1259 2794 1537 2939 
Q 1816 3084 2150 3084 
Q 2853 3084 3261 2657 
Q 3669 2231 3669 1497 
Q 3669 778 3244 343 
Q 2819 -91 2113 -91 
Q 1303 -91 875 529 
Q 447 1150 447 2328 
Q 447 3434 972 4092 
Q 1497 4750 2381 4750 
Q 2619 4750 2861 4703 
Q 3103 4656 3366 4563 
z
" transform="scale(0.015625)"/>
     </defs>
     <use xlink:href="#DejaVuSans-36"/>
    </g>
   </g>
   <g id="text_8">
    <!-- 7 -->
    <g transform="translate(37.28275 276.071375) scale(0.1 -0.1)">
     <defs>
      <path id="DejaVuSans-37" d="M 525 4666 
L 3525 4666 
L 3525 4397 
L 1831 0 
L 1172 0 
L 2766 4134 
L 525 4134 
L 525 4666 
z
" transform="scale(0.015625)"/>
     </defs>
     <use xlink:href="#DejaVuSans-37"/>
    </g>
   </g>
  </g>
 </g>
 <defs>
  <clipPath id="pb1f33c49a5">
   <rect x="7.2" y="7.2" width="332.64" height="332.64"/>
  </clipPath>
 </defs>
</svg>
