<?xml version="1.0" encoding="utf-8" standalone="no"?>
<!DOCTYPE svg PUBLIC "-//W3C//DTD SVG 1.1//EN"
  "http://www.w3.org/Graphics/SVG/1.1/DTD/svg11.dtd">
<svg xmlns:xlink="http://www.w3.org/1999/xlink" width="280.8pt" height="280.8pt" viewBox="0 0 280.8 280.8" xmlns="http://www.w3.org/2000/svg" version="1.1">
 <metadata>
  <rdf:RDF xmlns:dc="http://purl.org/dc/elements/1.1/" xmlns:cc="http://creativecommons.org/ns#" xmlns:rdf="http://www.w3.org/1999/02/22-rdf-syntax-ns#">
   <cc:Work>
    <dc:type rdf:resource="http://purl.org/dc/dcmitype/StillImage"/>
    <dc:date>2023-11-08T12:20:11.158159</dc:date>
    <dc:format>image/svg+xml</dc:format>
    <dc:creator>
     <cc:Agent>
      <dc:title>Matplotlib v3.8.1, https://matplotlib.org/</dc:title>
     </cc:Agent>
    </dc:creator>
   </cc:Work>
  </rdf:RDF>
 </metadata>
 <defs>
  <style type="text/css">*{stroke-linejoin: round; stroke-linecap: butt}</style>
 </defs>
 <g id="figure_1">
  <g id="patch_1">
   <path d="M 0 280.8 
L 280.8 280.8 
L 280.8 0 
L 0 0 
L 0 280.8 
z
" style="fill: none"/>
  </g>
  <g id="axes_1">
   <g id="patch_2">
    <path d="M 240.54398 138.552858 
Q 228.848321 110.317041 217.794443 83.630618 
" clip-path="url(#pccb6652380)" style="fill: none; stroke: #000000; stroke-width: 1.5; stroke-linecap: round"/>
    <path d="M 217.223797 91.660211 
L 217.794443 83.630618 
L 223.87573 88.90489 
z
" clip-path="url(#pccb6652380)" style="stroke: #000000; stroke-width: 1.5; stroke-linecap: round"/>
   </g>
   <g id="patch_3">
    <path d="M 138.552858 40.25602 
Q 110.317041 51.951679 83.630618 63.005557 
" clip-path="url(#pccb6652380)" style="fill: none; stroke: #000000; stroke-width: 1.5; stroke-linecap: round"/>
    <path d="M 91.660211 63.576203 
L 83.630618 63.005557 
L 88.90489 56.92427 
z
" clip-path="url(#pccb6652380)" style="stroke: #000000; stroke-width: 1.5; stroke-linecap: round"/>
   </g>
   <g id="patch_4">
    <path d="M 40.25602 142.247142 
Q 51.951679 170.482959 63.005557 197.169382 
" clip-path="url(#pccb6652380)" style="fill: none; stroke: #000000; stroke-width: 1.5; stroke-linecap: round"/>
    <path d="M 63.576203 189.139789 
L 63.005557 197.169382 
L 56.92427 191.89511 
z
" clip-path="url(#pccb6652380)" style="stroke: #000000; stroke-width: 1.5; stroke-linecap: round"/>
   </g>
   <g id="patch_5">
    <path d="M 142.247142 240.54398 
Q 170.482959 228.848321 197.169382 217.794443 
" clip-path="url(#pccb6652380)" style="fill: none; stroke: #000000; stroke-width: 1.5; stroke-linecap: round"/>
    <path d="M 189.139789 217.223797 
L 197.169382 217.794443 
L 191.89511 223.87573 
z
" clip-path="url(#pccb6652380)" style="stroke: #000000; stroke-width: 1.5; stroke-linecap: round"/>
   </g>
   <g id="patch_6">
    <path d="M 241.309091 152.509091 
C 244.520459 152.509091 247.600731 151.233201 249.871511 148.96242 
C 252.142292 146.69164 253.418182 143.611368 253.418182 140.4 
C 253.418182 137.188632 252.142292 134.10836 249.871511 131.83758 
C 247.600731 129.566799 244.520459 128.290909 241.309091 128.290909 
C 238.097722 128.290909 235.017451 129.566799 232.746671 131.83758 
C 230.47589 134.10836 229.2 137.188632 229.2 140.4 
C 229.2 143.611368 230.47589 146.69164 232.746671 148.96242 
C 235.017451 151.233201 238.097722 152.509091 241.309091 152.509091 
z
" clip-path="url(#pccb6652380)" style="fill: #0096ff; stroke: #000000; stroke-width: 1.5; stroke-linejoin: miter"/>
   </g>
   <g id="patch_7">
    <path d="M 211.753502 81.155588 
C 214.964871 81.155588 218.045142 79.879698 220.315923 77.608918 
C 222.586703 75.338137 223.862593 72.257866 223.862593 69.046498 
C 223.862593 65.835129 222.586703 62.754858 220.315923 60.484077 
C 218.045142 58.213297 214.964871 56.937407 211.753502 56.937407 
C 208.542134 56.937407 205.461863 58.213297 203.191082 60.484077 
C 200.920302 62.754858 199.644412 65.835129 199.644412 69.046498 
C 199.644412 72.257866 200.920302 75.338137 203.191082 77.608918 
C 205.461863 79.879698 208.542134 81.155588 211.753502 81.155588 
z
" clip-path="url(#pccb6652380)" style="fill: #0096ff; stroke: #000000; stroke-width: 1.5; stroke-linejoin: miter"/>
   </g>
   <g id="patch_8">
    <path d="M 140.4 51.6 
C 143.611368 51.6 146.69164 50.32411 148.96242 48.053329 
C 151.233201 45.782549 152.509091 42.702278 152.509091 39.490909 
C 152.509091 36.279541 151.233201 33.199269 148.96242 30.928489 
C 146.69164 28.657708 143.611368 27.381818 140.4 27.381818 
C 137.188632 27.381818 134.10836 28.657708 131.83758 30.928489 
C 129.566799 33.199269 128.290909 36.279541 128.290909 39.490909 
C 128.290909 42.702278 129.566799 45.782549 131.83758 48.053329 
C 134.10836 50.32411 137.188632 51.6 140.4 51.6 
z
" clip-path="url(#pccb6652380)" style="fill: #0096ff; stroke: #000000; stroke-width: 1.5; stroke-linejoin: miter"/>
   </g>
   <g id="patch_9">
    <path d="M 69.046498 81.155588 
C 72.257866 81.155588 75.338137 79.879698 77.608918 77.608918 
C 79.879698 75.338137 81.155588 72.257866 81.155588 69.046498 
C 81.155588 65.835129 79.879698 62.754858 77.608918 60.484077 
C 75.338137 58.213297 72.257866 56.937407 69.046498 56.937407 
C 65.835129 56.937407 62.754858 58.213297 60.484077 60.484077 
C 58.213297 62.754858 56.937407 65.835129 56.937407 69.046498 
C 56.937407 72.257866 58.213297 75.338137 60.484077 77.608918 
C 62.754858 79.879698 65.835129 81.155588 69.046498 81.155588 
z
" clip-path="url(#pccb6652380)" style="fill: #0096ff; stroke: #000000; stroke-width: 1.5; stroke-linejoin: miter"/>
   </g>
   <g id="patch_10">
    <path d="M 39.490909 152.509091 
C 42.702278 152.509091 45.782549 151.233201 48.053329 148.96242 
C 50.32411 146.69164 51.6 143.611368 51.6 140.4 
C 51.6 137.188632 50.32411 134.10836 48.053329 131.83758 
C 45.782549 129.566799 42.702278 128.290909 39.490909 128.290909 
C 36.279541 128.290909 33.199269 129.566799 30.928489 131.83758 
C 28.657708 134.10836 27.381818 137.188632 27.381818 140.4 
C 27.381818 143.611368 28.657708 146.69164 30.928489 148.96242 
C 33.199269 151.233201 36.279541 152.509091 39.490909 152.509091 
z
" clip-path="url(#pccb6652380)" style="fill: #0096ff; stroke: #000000; stroke-width: 1.5; stroke-linejoin: miter"/>
   </g>
   <g id="patch_11">
    <path d="M 69.046498 223.862593 
C 72.257866 223.862593 75.338137 222.586703 77.608918 220.315923 
C 79.879698 218.045142 81.155588 214.964871 81.155588 211.753502 
C 81.155588 208.542134 79.879698 205.461863 77.608918 203.191082 
C 75.338137 200.920302 72.257866 199.644412 69.046498 199.644412 
C 65.835129 199.644412 62.754858 200.920302 60.484077 203.191082 
C 58.213297 205.461863 56.937407 208.542134 56.937407 211.753502 
C 56.937407 214.964871 58.213297 218.045142 60.484077 220.315923 
C 62.754858 222.586703 65.835129 223.862593 69.046498 223.862593 
z
" clip-path="url(#pccb6652380)" style="fill: #0096ff; stroke: #000000; stroke-width: 1.5; stroke-linejoin: miter"/>
   </g>
   <g id="patch_12">
    <path d="M 140.4 253.418182 
C 143.611368 253.418182 146.69164 252.142292 148.96242 249.871511 
C 151.233201 247.600731 152.509091 244.520459 152.509091 241.309091 
C 152.509091 238.097722 151.233201 235.017451 148.96242 232.746671 
C 146.69164 230.47589 143.611368 229.2 140.4 229.2 
C 137.188632 229.2 134.10836 230.47589 131.83758 232.746671 
C 129.566799 235.017451 128.290909 238.097722 128.290909 241.309091 
C 128.290909 244.520459 129.566799 247.600731 131.83758 249.871511 
C 134.10836 252.142292 137.188632 253.418182 140.4 253.418182 
z
" clip-path="url(#pccb6652380)" style="fill: #0096ff; stroke: #000000; stroke-width: 1.5; stroke-linejoin: miter"/>
   </g>
   <g id="patch_13">
    <path d="M 211.753502 223.862593 
C 214.964871 223.862593 218.045142 222.586703 220.315923 220.315923 
C 222.586703 218.045142 223.862593 214.964871 223.862593 211.753502 
C 223.862593 208.542134 222.586703 205.461863 220.315923 203.191082 
C 218.045142 200.920302 214.964871 199.644412 211.753502 199.644412 
C 208.542134 199.644412 205.461863 200.920302 203.191082 203.191082 
C 200.920302 205.461863 199.644412 208.542134 199.644412 211.753502 
C 199.644412 214.964871 200.920302 218.045142 203.191082 220.315923 
C 205.461863 222.586703 208.542134 223.862593 211.753502 223.862593 
z
" clip-path="url(#pccb6652380)" style="fill: #0096ff; stroke: #000000; stroke-width: 1.5; stroke-linejoin: miter"/>
   </g>
   <g id="text_1">
    <!-- 0 -->
    <g transform="translate(236.537216 144.539062) scale(0.15 -0.15)">
     <defs>
      <path id="DejaVuSans-30" d="M 2034 4250 
Q 1547 4250 1301 3770 
Q 1056 3291 1056 2328 
Q 1056 1369 1301 889 
Q 1547 409 2034 409 
Q 2525 409 2770 889 
Q 3016 1369 3016 2328 
Q 3016 3291 2770 3770 
Q 2525 4250 2034 4250 
z
M 2034 4750 
Q 2819 4750 3233 4129 
Q 3647 3509 3647 2328 
Q 3647 1150 3233 529 
Q 2819 -91 2034 -91 
Q 1250 -91 836 529 
Q 422 1150 422 2328 
Q 422 3509 836 4129 
Q 1250 4750 2034 4750 
z
" transform="scale(0.015625)"/>
     </defs>
     <use xlink:href="#DejaVuSans-30"/>
    </g>
   </g>
   <g id="text_2">
    <!-- 1 -->
    <g transform="translate(206.981627 73.18556) scale(0.15 -0.15)">
     <defs>
      <path id="DejaVuSans-31" d="M 794 531 
L 1825 531 
L 1825 4091 
L 703 3866 
L 703 4441 
L 1819 4666 
L 2450 4666 
L 2450 531 
L 3481 531 
L 3481 0 
L 794 0 
L 794 531 
z
" transform="scale(0.015625)"/>
     </defs>
     <use xlink:href="#DejaVuSans-31"/>
    </g>
   </g>
   <g id="text_3">
    <!-- 2 -->
    <g transform="translate(135.628125 43.629972) scale(0.15 -0.15)">
     <defs>
      <path id="DejaVuSans-32" d="M 1228 531 
L 3431 531 
L 3431 0 
L 469 0 
L 469 531 
Q 828 903 1448 1529 
Q 2069 2156 2228 2338 
Q 2531 2678 2651 2914 
Q 2772 3150 2772 3378 
Q 2772 3750 2511 3984 
Q 2250 4219 1831 4219 
Q 1534 4219 1204 4116 
Q 875 4013 500 3803 
L 500 4441 
Q 881 4594 1212 4672 
Q 1544 4750 1819 4750 
Q 2544 4750 2975 4387 
Q 3406 4025 3406 3419 
Q 3406 3131 3298 2873 
Q 3191 2616 2906 2266 
Q 2828 2175 2409 1742 
Q 1991 1309 1228 531 
z
" transform="scale(0.015625)"/>
     </defs>
     <use xlink:href="#DejaVuSans-32"/>
    </g>
   </g>
   <g id="text_4">
    <!-- 3 -->
    <g transform="translate(64.274623 73.18556) scale(0.15 -0.15)">
     <defs>
      <path id="DejaVuSans-33" d="M 2597 2516 
Q 3050 2419 3304 2112 
Q 3559 1806 3559 1356 
Q 3559 666 3084 287 
Q 2609 -91 1734 -91 
Q 1441 -91 1130 -33 
Q 819 25 488 141 
L 488 750 
Q 750 597 1062 519 
Q 1375 441 1716 441 
Q 2309 441 2620 675 
Q 2931 909 2931 1356 
Q 2931 1769 2642 2001 
Q 2353 2234 1838 2234 
L 1294 2234 
L 1294 2753 
L 1863 2753 
Q 2328 2753 2575 2939 
Q 2822 3125 2822 3475 
Q 2822 3834 2567 4026 
Q 2313 4219 1838 4219 
Q 1578 4219 1281 4162 
Q 984 4106 628 3988 
L 628 4550 
Q 988 4650 1302 4700 
Q 1616 4750 1894 4750 
Q 2613 4750 3031 4423 
Q 3450 4097 3450 3541 
Q 3450 3153 3228 2886 
Q 3006 2619 2597 2516 
z
" transform="scale(0.015625)"/>
     </defs>
     <use xlink:href="#DejaVuSans-33"/>
    </g>
   </g>
   <g id="text_5">
    <!-- 4 -->
    <g transform="translate(34.719034 144.539062) scale(0.15 -0.15)">
     <defs>
      <path id="DejaVuSans-34" d="M 2419 4116 
L 825 1625 
L 2419 1625 
L 2419 4116 
z
M 2253 4666 
L 3047 4666 
L 3047 1625 
L 3713 1625 
L 3713 1100 
L 3047 1100 
L 3047 0 
L 2419 0 
L 2419 1100 
L 313 1100 
L 313 1709 
L 2253 4666 
z
" transform="scale(0.015625)"/>
     </defs>
     <use xlink:href="#DejaVuSans-34"/>
    </g>
   </g>
   <g id="text_6">
    <!-- 5 -->
    <g transform="translate(64.274623 215.892565) scale(0.15 -0.15)">
     <defs>
      <path id="DejaVuSans-35" d="M 691 4666 
L 3169 4666 
L 3169 4134 
L 1269 4134 
L 1269 2991 
Q 1406 3038 1543 3061 
Q 1681 3084 1819 3084 
Q 2600 3084 3056 2656 
Q 3513 2228 3513 1497 
Q 3513 744 3044 326 
Q 2575 -91 1722 -91 
Q 1428 -91 1123 -41 
Q 819 9 494 109 
L 494 744 
Q 775 591 1075 516 
Q 1375 441 1709 441 
Q 2250 441 2565 725 
Q 2881 1009 2881 1497 
Q 2881 1984 2565 2268 
Q 2250 2553 1709 2553 
Q 1456 2553 1204 2497 
Q 953 2441 691 2322 
L 691 4666 
z
" transform="scale(0.015625)"/>
     </defs>
     <use xlink:href="#DejaVuSans-35"/>
    </g>
   </g>
   <g id="text_7">
    <!-- 6 -->
    <g transform="translate(135.628125 245.448153) scale(0.15 -0.15)">
     <defs>
      <path id="DejaVuSans-36" d="M 2113 2584 
Q 1688 2584 1439 2293 
Q 1191 2003 1191 1497 
Q 1191 994 1439 701 
Q 1688 409 2113 409 
Q 2538 409 2786 701 
Q 3034 994 3034 1497 
Q 3034 2003 2786 2293 
Q 2538 2584 2113 2584 
z
M 3366 4563 
L 3366 3988 
Q 3128 4100 2886 4159 
Q 2644 4219 2406 4219 
Q 1781 4219 1451 3797 
Q 1122 3375 1075 2522 
Q 1259 2794 1537 2939 
Q 1816 3084 2150 3084 
Q 2853 3084 3261 2657 
Q 3669 2231 3669 1497 
Q 3669 778 3244 343 
Q 2819 -91 2113 -91 
Q 1303 -91 875 529 
Q 447 1150 447 2328 
Q 447 3434 972 4092 
Q 1497 4750 2381 4750 
Q 2619 4750 2861 4703 
Q 3103 4656 3366 4563 
z
" transform="scale(0.015625)"/>
     </defs>
     <use xlink:href="#DejaVuSans-36"/>
    </g>
   </g>
   <g id="text_8">
    <!-- 7 -->
    <g transform="translate(206.981627 215.892565) scale(0.15 -0.15)">
     <defs>
      <path id="DejaVuSans-37" d="M 525 4666 
L 3525 4666 
L 3525 4397 
L 1831 0 
L 1172 0 
L 2766 4134 
L 525 4134 
L 525 4666 
z
" transform="scale(0.015625)"/>
     </defs>
     <use xlink:href="#DejaVuSans-37"/>
    </g>
   </g>
  </g>
 </g>
 <defs>
  <clipPath id="pccb6652380">
   <rect x="7.2" y="7.2" width="266.4" height="266.4"/>
  </clipPath>
 </defs>
</svg>
