<?xml version="1.0" encoding="utf-8" standalone="no"?>
<!DOCTYPE svg PUBLIC "-//W3C//DTD SVG 1.1//EN"
  "http://www.w3.org/Graphics/SVG/1.1/DTD/svg11.dtd">
<svg xmlns:xlink="http://www.w3.org/1999/xlink" width="347.04pt" height="347.04pt" viewBox="0 0 347.04 347.04" xmlns="http://www.w3.org/2000/svg" version="1.1">
 <metadata>
  <rdf:RDF xmlns:dc="http://purl.org/dc/elements/1.1/" xmlns:cc="http://creativecommons.org/ns#" xmlns:rdf="http://www.w3.org/1999/02/22-rdf-syntax-ns#">
   <cc:Work>
    <dc:type rdf:resource="http://purl.org/dc/dcmitype/StillImage"/>
    <dc:date>2023-11-08T12:20:16.321241</dc:date>
    <dc:format>image/svg+xml</dc:format>
    <dc:creator>
     <cc:Agent>
      <dc:title>Matplotlib v3.8.1, https://matplotlib.org/</dc:title>
     </cc:Agent>
    </dc:creator>
   </cc:Work>
  </rdf:RDF>
 </metadata>
 <defs>
  <style type="text/css">*{stroke-linejoin: round; stroke-linecap: butt}</style>
 </defs>
 <g id="figure_1">
  <g id="patch_1">
   <path d="M -0 347.04 
L 347.04 347.04 
L 347.04 -0 
L -0 -0 
L -0 347.04 
z
" style="fill: none"/>
  </g>
  <g id="axes_1">
   <g id="LineCollection_1">
    <path d="M 40.464 40.464 
L 339.84 40.464 
" clip-path="url(#pfc582c3164)" style="fill: none; stroke: #808080; stroke-width: 1.5"/>
   </g>
   <g id="LineCollection_2">
    <path d="M 40.464 73.728 
L 339.84 73.728 
" clip-path="url(#pfc582c3164)" style="fill: none; stroke: #808080; stroke-width: 1.5"/>
   </g>
   <g id="LineCollection_3">
    <path d="M 40.464 106.992 
L 339.84 106.992 
" clip-path="url(#pfc582c3164)" style="fill: none; stroke: #808080; stroke-width: 1.5"/>
   </g>
   <g id="LineCollection_4">
    <path d="M 40.464 140.256 
L 339.84 140.256 
" clip-path="url(#pfc582c3164)" style="fill: none; stroke: #808080; stroke-width: 1.5"/>
   </g>
   <g id="LineCollection_5">
    <path d="M 40.464 173.52 
L 339.84 173.52 
" clip-path="url(#pfc582c3164)" style="fill: none; stroke: #808080; stroke-width: 1.5"/>
   </g>
   <g id="LineCollection_6">
    <path d="M 40.464 206.784 
L 339.84 206.784 
" clip-path="url(#pfc582c3164)" style="fill: none; stroke: #808080; stroke-width: 1.5"/>
   </g>
   <g id="LineCollection_7">
    <path d="M 40.464 240.048 
L 339.84 240.048 
" clip-path="url(#pfc582c3164)" style="fill: none; stroke: #808080; stroke-width: 1.5"/>
   </g>
   <g id="LineCollection_8">
    <path d="M 40.464 273.312 
L 339.84 273.312 
" clip-path="url(#pfc582c3164)" style="fill: none; stroke: #808080; stroke-width: 1.5"/>
   </g>
   <g id="line2d_1">
    <path d="M 73.728 73.728 
L 73.728 106.992 
" clip-path="url(#pfc582c3164)" style="fill: none; stroke: #000000; stroke-width: 1.5; stroke-linecap: square"/>
   </g>
   <g id="line2d_2">
    <path d="M 90.36 173.52 
L 90.36 206.784 
" clip-path="url(#pfc582c3164)" style="fill: none; stroke: #000000; stroke-width: 1.5; stroke-linecap: square"/>
   </g>
   <g id="patch_2">
    <path d="M 40.464 57.096 
C 44.874858 57.096 49.105652 55.343548 52.2246 52.2246 
C 55.343548 49.105652 57.096 44.874858 57.096 40.464 
C 57.096 36.053142 55.343548 31.822348 52.2246 28.7034 
C 49.105652 25.584452 44.874858 23.832 40.464 23.832 
C 36.053142 23.832 31.822348 25.584452 28.7034 28.7034 
C 25.584452 31.822348 23.832 36.053142 23.832 40.464 
C 23.832 44.874858 25.584452 49.105652 28.7034 52.2246 
C 31.822348 55.343548 36.053142 57.096 40.464 57.096 
z
" clip-path="url(#pfc582c3164)" style="fill: #92a9bd; stroke: #000000; stroke-linejoin: miter"/>
   </g>
   <g id="patch_3">
    <path d="M 40.464 90.36 
C 44.874858 90.36 49.105652 88.607548 52.2246 85.4886 
C 55.343548 82.369652 57.096 78.138858 57.096 73.728 
C 57.096 69.317142 55.343548 65.086348 52.2246 61.9674 
C 49.105652 58.848452 44.874858 57.096 40.464 57.096 
C 36.053142 57.096 31.822348 58.848452 28.7034 61.9674 
C 25.584452 65.086348 23.832 69.317142 23.832 73.728 
C 23.832 78.138858 25.584452 82.369652 28.7034 85.4886 
C 31.822348 88.607548 36.053142 90.36 40.464 90.36 
z
" clip-path="url(#pfc582c3164)" style="fill: #92a9bd; stroke: #000000; stroke-linejoin: miter"/>
   </g>
   <g id="patch_4">
    <path d="M 40.464 123.624 
C 44.874858 123.624 49.105652 121.871548 52.2246 118.7526 
C 55.343548 115.633652 57.096 111.402858 57.096 106.992 
C 57.096 102.581142 55.343548 98.350348 52.2246 95.2314 
C 49.105652 92.112452 44.874858 90.36 40.464 90.36 
C 36.053142 90.36 31.822348 92.112452 28.7034 95.2314 
C 25.584452 98.350348 23.832 102.581142 23.832 106.992 
C 23.832 111.402858 25.584452 115.633652 28.7034 118.7526 
C 31.822348 121.871548 36.053142 123.624 40.464 123.624 
z
" clip-path="url(#pfc582c3164)" style="fill: #92a9bd; stroke: #000000; stroke-linejoin: miter"/>
   </g>
   <g id="patch_5">
    <path d="M 40.464 156.888 
C 44.874858 156.888 49.105652 155.135548 52.2246 152.0166 
C 55.343548 148.897652 57.096 144.666858 57.096 140.256 
C 57.096 135.845142 55.343548 131.614348 52.2246 128.4954 
C 49.105652 125.376452 44.874858 123.624 40.464 123.624 
C 36.053142 123.624 31.822348 125.376452 28.7034 128.4954 
C 25.584452 131.614348 23.832 135.845142 23.832 140.256 
C 23.832 144.666858 25.584452 148.897652 28.7034 152.0166 
C 31.822348 155.135548 36.053142 156.888 40.464 156.888 
z
" clip-path="url(#pfc582c3164)" style="fill: #92a9bd; stroke: #000000; stroke-linejoin: miter"/>
   </g>
   <g id="patch_6">
    <path d="M 40.464 190.152 
C 44.874858 190.152 49.105652 188.399548 52.2246 185.2806 
C 55.343548 182.161652 57.096 177.930858 57.096 173.52 
C 57.096 169.109142 55.343548 164.878348 52.2246 161.7594 
C 49.105652 158.640452 44.874858 156.888 40.464 156.888 
C 36.053142 156.888 31.822348 158.640452 28.7034 161.7594 
C 25.584452 164.878348 23.832 169.109142 23.832 173.52 
C 23.832 177.930858 25.584452 182.161652 28.7034 185.2806 
C 31.822348 188.399548 36.053142 190.152 40.464 190.152 
z
" clip-path="url(#pfc582c3164)" style="fill: #92a9bd; stroke: #000000; stroke-linejoin: miter"/>
   </g>
   <g id="patch_7">
    <path d="M 40.464 223.416 
C 44.874858 223.416 49.105652 221.663548 52.2246 218.5446 
C 55.343548 215.425652 57.096 211.194858 57.096 206.784 
C 57.096 202.373142 55.343548 198.142348 52.2246 195.0234 
C 49.105652 191.904452 44.874858 190.152 40.464 190.152 
C 36.053142 190.152 31.822348 191.904452 28.7034 195.0234 
C 25.584452 198.142348 23.832 202.373142 23.832 206.784 
C 23.832 211.194858 25.584452 215.425652 28.7034 218.5446 
C 31.822348 221.663548 36.053142 223.416 40.464 223.416 
z
" clip-path="url(#pfc582c3164)" style="fill: #92a9bd; stroke: #000000; stroke-linejoin: miter"/>
   </g>
   <g id="patch_8">
    <path d="M 40.464 256.68 
C 44.874858 256.68 49.105652 254.927548 52.2246 251.8086 
C 55.343548 248.689652 57.096 244.458858 57.096 240.048 
C 57.096 235.637142 55.343548 231.406348 52.2246 228.2874 
C 49.105652 225.168452 44.874858 223.416 40.464 223.416 
C 36.053142 223.416 31.822348 225.168452 28.7034 228.2874 
C 25.584452 231.406348 23.832 235.637142 23.832 240.048 
C 23.832 244.458858 25.584452 248.689652 28.7034 251.8086 
C 31.822348 254.927548 36.053142 256.68 40.464 256.68 
z
" clip-path="url(#pfc582c3164)" style="fill: #92a9bd; stroke: #000000; stroke-linejoin: miter"/>
   </g>
   <g id="patch_9">
    <path d="M 40.464 289.944 
C 44.874858 289.944 49.105652 288.191548 52.2246 285.0726 
C 55.343548 281.953652 57.096 277.722858 57.096 273.312 
C 57.096 268.901142 55.343548 264.670348 52.2246 261.5514 
C 49.105652 258.432452 44.874858 256.68 40.464 256.68 
C 36.053142 256.68 31.822348 258.432452 28.7034 261.5514 
C 25.584452 264.670348 23.832 268.901142 23.832 273.312 
C 23.832 277.722858 25.584452 281.953652 28.7034 285.0726 
C 31.822348 288.191548 36.053142 289.944 40.464 289.944 
z
" clip-path="url(#pfc582c3164)" style="fill: #92a9bd; stroke: #000000; stroke-linejoin: miter"/>
   </g>
   <g id="patch_10">
    <path d="M 73.728 80.3808 
C 75.492343 80.3808 77.184661 79.679819 78.43224 78.43224 
C 79.679819 77.184661 80.3808 75.492343 80.3808 73.728 
C 80.3808 71.963657 79.679819 70.271339 78.43224 69.02376 
C 77.184661 67.776181 75.492343 67.0752 73.728 67.0752 
C 71.963657 67.0752 70.271339 67.776181 69.02376 69.02376 
C 67.776181 70.271339 67.0752 71.963657 67.0752 73.728 
C 67.0752 75.492343 67.776181 77.184661 69.02376 78.43224 
C 70.271339 79.679819 71.963657 80.3808 73.728 80.3808 
z
" clip-path="url(#pfc582c3164)" style="fill: #08306b; stroke: #08306b; stroke-linejoin: miter"/>
   </g>
   <g id="patch_11">
    <path d="M 73.728 113.6448 
C 75.492343 113.6448 77.184661 112.943819 78.43224 111.69624 
C 79.679819 110.448661 80.3808 108.756343 80.3808 106.992 
C 80.3808 105.227657 79.679819 103.535339 78.43224 102.28776 
C 77.184661 101.040181 75.492343 100.3392 73.728 100.3392 
C 71.963657 100.3392 70.271339 101.040181 69.02376 102.28776 
C 67.776181 103.535339 67.0752 105.227657 67.0752 106.992 
C 67.0752 108.756343 67.776181 110.448661 69.02376 111.69624 
C 70.271339 112.943819 71.963657 113.6448 73.728 113.6448 
z
" clip-path="url(#pfc582c3164)" style="fill: #6aaed6; stroke: #6aaed6; stroke-linejoin: miter"/>
   </g>
   <g id="patch_12">
    <path d="M 90.36 180.1728 
C 92.124343 180.1728 93.816661 179.471819 95.06424 178.22424 
C 96.311819 176.976661 97.0128 175.284343 97.0128 173.52 
C 97.0128 171.755657 96.311819 170.063339 95.06424 168.81576 
C 93.816661 167.568181 92.124343 166.8672 90.36 166.8672 
C 88.595657 166.8672 86.903339 167.568181 85.65576 168.81576 
C 84.408181 170.063339 83.7072 171.755657 83.7072 173.52 
C 83.7072 175.284343 84.408181 176.976661 85.65576 178.22424 
C 86.903339 179.471819 88.595657 180.1728 90.36 180.1728 
z
" clip-path="url(#pfc582c3164)" style="fill: #08306b; stroke: #08306b; stroke-linejoin: miter"/>
   </g>
   <g id="patch_13">
    <path d="M 90.36 213.4368 
C 92.124343 213.4368 93.816661 212.735819 95.06424 211.48824 
C 96.311819 210.240661 97.0128 208.548343 97.0128 206.784 
C 97.0128 205.019657 96.311819 203.327339 95.06424 202.07976 
C 93.816661 200.832181 92.124343 200.1312 90.36 200.1312 
C 88.595657 200.1312 86.903339 200.832181 85.65576 202.07976 
C 84.408181 203.327339 83.7072 205.019657 83.7072 206.784 
C 83.7072 208.548343 84.408181 210.240661 85.65576 211.48824 
C 86.903339 212.735819 88.595657 213.4368 90.36 213.4368 
z
" clip-path="url(#pfc582c3164)" style="fill: #6aaed6; stroke: #6aaed6; stroke-linejoin: miter"/>
   </g>
   <g id="text_1">
    <!-- 0 -->
    <g transform="translate(37.28275 43.223375) scale(0.1 -0.1)">
     <defs>
      <path id="DejaVuSans-30" d="M 2034 4250 
Q 1547 4250 1301 3770 
Q 1056 3291 1056 2328 
Q 1056 1369 1301 889 
Q 1547 409 2034 409 
Q 2525 409 2770 889 
Q 3016 1369 3016 2328 
Q 3016 3291 2770 3770 
Q 2525 4250 2034 4250 
z
M 2034 4750 
Q 2819 4750 3233 4129 
Q 3647 3509 3647 2328 
Q 3647 1150 3233 529 
Q 2819 -91 2034 -91 
Q 1250 -91 836 529 
Q 422 1150 422 2328 
Q 422 3509 836 4129 
Q 1250 4750 2034 4750 
z
" transform="scale(0.015625)"/>
     </defs>
     <use xlink:href="#DejaVuSans-30"/>
    </g>
   </g>
   <g id="text_2">
    <!-- 1 -->
    <g transform="translate(37.28275 76.487375) scale(0.1 -0.1)">
     <defs>
      <path id="DejaVuSans-31" d="M 794 531 
L 1825 531 
L 1825 4091 
L 703 3866 
L 703 4441 
L 1819 4666 
L 2450 4666 
L 2450 531 
L 3481 531 
L 3481 0 
L 794 0 
L 794 531 
z
" transform="scale(0.015625)"/>
     </defs>
     <use xlink:href="#DejaVuSans-31"/>
    </g>
   </g>
   <g id="text_3">
    <!-- 2 -->
    <g transform="translate(37.28275 109.751375) scale(0.1 -0.1)">
     <defs>
      <path id="DejaVuSans-32" d="M 1228 531 
L 3431 531 
L 3431 0 
L 469 0 
L 469 531 
Q 828 903 1448 1529 
Q 2069 2156 2228 2338 
Q 2531 2678 2651 2914 
Q 2772 3150 2772 3378 
Q 2772 3750 2511 3984 
Q 2250 4219 1831 4219 
Q 1534 4219 1204 4116 
Q 875 4013 500 3803 
L 500 4441 
Q 881 4594 1212 4672 
Q 1544 4750 1819 4750 
Q 2544 4750 2975 4387 
Q 3406 4025 3406 3419 
Q 3406 3131 3298 2873 
Q 3191 2616 2906 2266 
Q 2828 2175 2409 1742 
Q 1991 1309 1228 531 
z
" transform="scale(0.015625)"/>
     </defs>
     <use xlink:href="#DejaVuSans-32"/>
    </g>
   </g>
   <g id="text_4">
    <!-- 3 -->
    <g transform="translate(37.28275 143.015375) scale(0.1 -0.1)">
     <defs>
      <path id="DejaVuSans-33" d="M 2597 2516 
Q 3050 2419 3304 2112 
Q 3559 1806 3559 1356 
Q 3559 666 3084 287 
Q 2609 -91 1734 -91 
Q 1441 -91 1130 -33 
Q 819 25 488 141 
L 488 750 
Q 750 597 1062 519 
Q 1375 441 1716 441 
Q 2309 441 2620 675 
Q 2931 909 2931 1356 
Q 2931 1769 2642 2001 
Q 2353 2234 1838 2234 
L 1294 2234 
L 1294 2753 
L 1863 2753 
Q 2328 2753 2575 2939 
Q 2822 3125 2822 3475 
Q 2822 3834 2567 4026 
Q 2313 4219 1838 4219 
Q 1578 4219 1281 4162 
Q 984 4106 628 3988 
L 628 4550 
Q 988 4650 1302 4700 
Q 1616 4750 1894 4750 
Q 2613 4750 3031 4423 
Q 3450 4097 3450 3541 
Q 3450 3153 3228 2886 
Q 3006 2619 2597 2516 
z
" transform="scale(0.015625)"/>
     </defs>
     <use xlink:href="#DejaVuSans-33"/>
    </g>
   </g>
   <g id="text_5">
    <!-- 4 -->
    <g transform="translate(37.28275 176.279375) scale(0.1 -0.1)">
     <defs>
      <path id="DejaVuSans-34" d="M 2419 4116 
L 825 1625 
L 2419 1625 
L 2419 4116 
z
M 2253 4666 
L 3047 4666 
L 3047 1625 
L 3713 1625 
L 3713 1100 
L 3047 1100 
L 3047 0 
L 2419 0 
L 2419 1100 
L 313 1100 
L 313 1709 
L 2253 4666 
z
" transform="scale(0.015625)"/>
     </defs>
     <use xlink:href="#DejaVuSans-34"/>
    </g>
   </g>
   <g id="text_6">
    <!-- 5 -->
    <g transform="translate(37.28275 209.543375) scale(0.1 -0.1)">
     <defs>
      <path id="DejaVuSans-35" d="M 691 4666 
L 3169 4666 
L 3169 4134 
L 1269 4134 
L 1269 2991 
Q 1406 3038 1543 3061 
Q 1681 3084 1819 3084 
Q 2600 3084 3056 2656 
Q 3513 2228 3513 1497 
Q 3513 744 3044 326 
Q 2575 -91 1722 -91 
Q 1428 -91 1123 -41 
Q 819 9 494 109 
L 494 744 
Q 775 591 1075 516 
Q 1375 441 1709 441 
Q 2250 441 2565 725 
Q 2881 1009 2881 1497 
Q 2881 1984 2565 2268 
Q 2250 2553 1709 2553 
Q 1456 2553 1204 2497 
Q 953 2441 691 2322 
L 691 4666 
z
" transform="scale(0.015625)"/>
     </defs>
     <use xlink:href="#DejaVuSans-35"/>
    </g>
   </g>
   <g id="text_7">
    <!-- 6 -->
    <g transform="translate(37.28275 242.807375) scale(0.1 -0.1)">
     <defs>
      <path id="DejaVuSans-36" d="M 2113 2584 
Q 1688 2584 1439 2293 
Q 1191 2003 1191 1497 
Q 1191 994 1439 701 
Q 1688 409 2113 409 
Q 2538 409 2786 701 
Q 3034 994 3034 1497 
Q 3034 2003 2786 2293 
Q 2538 2584 2113 2584 
z
M 3366 4563 
L 3366 3988 
Q 3128 4100 2886 4159 
Q 2644 4219 2406 4219 
Q 1781 4219 1451 3797 
Q 1122 3375 1075 2522 
Q 1259 2794 1537 2939 
Q 1816 3084 2150 3084 
Q 2853 3084 3261 2657 
Q 3669 2231 3669 1497 
Q 3669 778 3244 343 
Q 2819 -91 2113 -91 
Q 1303 -91 875 529 
Q 447 1150 447 2328 
Q 447 3434 972 4092 
Q 1497 4750 2381 4750 
Q 2619 4750 2861 4703 
Q 3103 4656 3366 4563 
z
" transform="scale(0.015625)"/>
     </defs>
     <use xlink:href="#DejaVuSans-36"/>
    </g>
   </g>
   <g id="text_8">
    <!-- 7 -->
    <g transform="translate(37.28275 276.071375) scale(0.1 -0.1)">
     <defs>
      <path id="DejaVuSans-37" d="M 525 4666 
L 3525 4666 
L 3525 4397 
L 1831 0 
L 1172 0 
L 2766 4134 
L 525 4134 
L 525 4666 
z
" transform="scale(0.015625)"/>
     </defs>
     <use xlink:href="#DejaVuSans-37"/>
    </g>
   </g>
  </g>
 </g>
 <defs>
  <clipPath id="pfc582c3164">
   <rect x="7.2" y="7.2" width="332.64" height="332.64"/>
  </clipPath>
 </defs>
</svg>
