<?xml version="1.0" encoding="utf-8" standalone="no"?>
<!DOCTYPE svg PUBLIC "-//W3C//DTD SVG 1.1//EN"
  "http://www.w3.org/Graphics/SVG/1.1/DTD/svg11.dtd">
<svg xmlns:xlink="http://www.w3.org/1999/xlink" width="288pt" height="288pt" viewBox="0 0 288 288" xmlns="http://www.w3.org/2000/svg" version="1.1">
 <metadata>
  <rdf:RDF xmlns:dc="http://purl.org/dc/elements/1.1/" xmlns:cc="http://creativecommons.org/ns#" xmlns:rdf="http://www.w3.org/1999/02/22-rdf-syntax-ns#">
   <cc:Work>
    <dc:type rdf:resource="http://purl.org/dc/dcmitype/StillImage"/>
    <dc:date>2023-11-03T15:35:41.245107</dc:date>
    <dc:format>image/svg+xml</dc:format>
    <dc:creator>
     <cc:Agent>
      <dc:title>Matplotlib v3.8.0, https://matplotlib.org/</dc:title>
     </cc:Agent>
    </dc:creator>
   </cc:Work>
  </rdf:RDF>
 </metadata>
 <defs>
  <style type="text/css">*{stroke-linejoin: round; stroke-linecap: butt}</style>
 </defs>
 <g id="figure_1">
  <g id="patch_1">
   <path d="M 0 288 
L 288 288 
L 288 0 
L 0 0 
L 0 288 
z
" style="fill: none"/>
  </g>
  <g id="axes_1">
   <g id="patch_2">
    <path d="M 244.145019 142.155367 
Q 231.675898 112.052246 219.848557 83.498519 
" clip-path="url(#pa763abe4b6)" style="fill: none; stroke: #000000; stroke-width: 1.5; stroke-linecap: round"/>
    <path d="M 219.468126 88.851581 
L 219.848557 83.498519 
L 223.902748 87.0147 
z
" clip-path="url(#pa763abe4b6)" style="stroke: #000000; stroke-width: 1.5; stroke-linecap: round"/>
   </g>
   <g id="patch_3">
    <path d="M 142.155367 43.854981 
Q 112.052246 56.324102 83.498519 68.151443 
" clip-path="url(#pa763abe4b6)" style="fill: none; stroke: #000000; stroke-width: 1.5; stroke-linecap: round"/>
    <path d="M 88.851581 68.531874 
L 83.498519 68.151443 
L 87.0147 64.097252 
z
" clip-path="url(#pa763abe4b6)" style="stroke: #000000; stroke-width: 1.5; stroke-linecap: round"/>
   </g>
   <g id="patch_4">
    <path d="M 43.854981 145.844633 
Q 56.324102 175.947754 68.151443 204.501481 
" clip-path="url(#pa763abe4b6)" style="fill: none; stroke: #000000; stroke-width: 1.5; stroke-linecap: round"/>
    <path d="M 68.531874 199.148419 
L 68.151443 204.501481 
L 64.097252 200.9853 
z
" clip-path="url(#pa763abe4b6)" style="stroke: #000000; stroke-width: 1.5; stroke-linecap: round"/>
   </g>
   <g id="patch_5">
    <path d="M 145.844633 244.145019 
Q 175.947754 231.675898 204.501481 219.848557 
" clip-path="url(#pa763abe4b6)" style="fill: none; stroke: #000000; stroke-width: 1.5; stroke-linecap: round"/>
    <path d="M 199.148419 219.468126 
L 204.501481 219.848557 
L 200.9853 223.902748 
z
" clip-path="url(#pa763abe4b6)" style="stroke: #000000; stroke-width: 1.5; stroke-linecap: round"/>
   </g>
   <g id="patch_6">
    <path d="M 244.909091 156.109091 
C 248.120459 156.109091 251.200731 154.833201 253.471511 152.56242 
C 255.742292 150.29164 257.018182 147.211368 257.018182 144 
C 257.018182 140.788632 255.742292 137.70836 253.471511 135.43758 
C 251.200731 133.166799 248.120459 131.890909 244.909091 131.890909 
C 241.697722 131.890909 238.617451 133.166799 236.346671 135.43758 
C 234.07589 137.70836 232.8 140.788632 232.8 144 
C 232.8 147.211368 234.07589 150.29164 236.346671 152.56242 
C 238.617451 154.833201 241.697722 156.109091 244.909091 156.109091 
z
" clip-path="url(#pa763abe4b6)" style="fill: #ff7e79; stroke: #000000; stroke-width: 1.5; stroke-linejoin: miter"/>
   </g>
   <g id="patch_7">
    <path d="M 215.353502 80.719225 
C 217.494415 80.719225 219.547929 79.868631 221.061783 78.354778 
C 222.575636 76.840924 223.42623 74.78741 223.42623 72.646498 
C 223.42623 70.505585 222.575636 68.452071 221.061783 66.938217 
C 219.547929 65.424364 217.494415 64.57377 215.353502 64.57377 
C 213.21259 64.57377 211.159076 65.424364 209.645222 66.938217 
C 208.131369 68.452071 207.280775 70.505585 207.280775 72.646498 
C 207.280775 74.78741 208.131369 76.840924 209.645222 78.354778 
C 211.159076 79.868631 213.21259 80.719225 215.353502 80.719225 
z
" clip-path="url(#pa763abe4b6)" style="fill: #ff7e79; stroke: #000000; stroke-width: 1.5; stroke-linejoin: miter"/>
   </g>
   <g id="patch_8">
    <path d="M 144 55.2 
C 147.211368 55.2 150.29164 53.92411 152.56242 51.653329 
C 154.833201 49.382549 156.109091 46.302278 156.109091 43.090909 
C 156.109091 39.879541 154.833201 36.799269 152.56242 34.528489 
C 150.29164 32.257708 147.211368 30.981818 144 30.981818 
C 140.788632 30.981818 137.70836 32.257708 135.43758 34.528489 
C 133.166799 36.799269 131.890909 39.879541 131.890909 43.090909 
C 131.890909 46.302278 133.166799 49.382549 135.43758 51.653329 
C 137.70836 53.92411 140.788632 55.2 144 55.2 
z
" clip-path="url(#pa763abe4b6)" style="fill: #ff7e79; stroke: #000000; stroke-width: 1.5; stroke-linejoin: miter"/>
   </g>
   <g id="patch_9">
    <path d="M 72.646498 80.719225 
C 74.78741 80.719225 76.840924 79.868631 78.354778 78.354778 
C 79.868631 76.840924 80.719225 74.78741 80.719225 72.646498 
C 80.719225 70.505585 79.868631 68.452071 78.354778 66.938217 
C 76.840924 65.424364 74.78741 64.57377 72.646498 64.57377 
C 70.505585 64.57377 68.452071 65.424364 66.938217 66.938217 
C 65.424364 68.452071 64.57377 70.505585 64.57377 72.646498 
C 64.57377 74.78741 65.424364 76.840924 66.938217 78.354778 
C 68.452071 79.868631 70.505585 80.719225 72.646498 80.719225 
z
" clip-path="url(#pa763abe4b6)" style="fill: #ff7e79; stroke: #000000; stroke-width: 1.5; stroke-linejoin: miter"/>
   </g>
   <g id="patch_10">
    <path d="M 43.090909 156.109091 
C 46.302278 156.109091 49.382549 154.833201 51.653329 152.56242 
C 53.92411 150.29164 55.2 147.211368 55.2 144 
C 55.2 140.788632 53.92411 137.70836 51.653329 135.43758 
C 49.382549 133.166799 46.302278 131.890909 43.090909 131.890909 
C 39.879541 131.890909 36.799269 133.166799 34.528489 135.43758 
C 32.257708 137.70836 30.981818 140.788632 30.981818 144 
C 30.981818 147.211368 32.257708 150.29164 34.528489 152.56242 
C 36.799269 154.833201 39.879541 156.109091 43.090909 156.109091 
z
" clip-path="url(#pa763abe4b6)" style="fill: #ff7e79; stroke: #000000; stroke-width: 1.5; stroke-linejoin: miter"/>
   </g>
   <g id="patch_11">
    <path d="M 72.646498 223.42623 
C 74.78741 223.42623 76.840924 222.575636 78.354778 221.061783 
C 79.868631 219.547929 80.719225 217.494415 80.719225 215.353502 
C 80.719225 213.21259 79.868631 211.159076 78.354778 209.645222 
C 76.840924 208.131369 74.78741 207.280775 72.646498 207.280775 
C 70.505585 207.280775 68.452071 208.131369 66.938217 209.645222 
C 65.424364 211.159076 64.57377 213.21259 64.57377 215.353502 
C 64.57377 217.494415 65.424364 219.547929 66.938217 221.061783 
C 68.452071 222.575636 70.505585 223.42623 72.646498 223.42623 
z
" clip-path="url(#pa763abe4b6)" style="fill: #ff7e79; stroke: #000000; stroke-width: 1.5; stroke-linejoin: miter"/>
   </g>
   <g id="patch_12">
    <path d="M 144 257.018182 
C 147.211368 257.018182 150.29164 255.742292 152.56242 253.471511 
C 154.833201 251.200731 156.109091 248.120459 156.109091 244.909091 
C 156.109091 241.697722 154.833201 238.617451 152.56242 236.346671 
C 150.29164 234.07589 147.211368 232.8 144 232.8 
C 140.788632 232.8 137.70836 234.07589 135.43758 236.346671 
C 133.166799 238.617451 131.890909 241.697722 131.890909 244.909091 
C 131.890909 248.120459 133.166799 251.200731 135.43758 253.471511 
C 137.70836 255.742292 140.788632 257.018182 144 257.018182 
z
" clip-path="url(#pa763abe4b6)" style="fill: #ff7e79; stroke: #000000; stroke-width: 1.5; stroke-linejoin: miter"/>
   </g>
   <g id="patch_13">
    <path d="M 215.353502 223.42623 
C 217.494415 223.42623 219.547929 222.575636 221.061783 221.061783 
C 222.575636 219.547929 223.42623 217.494415 223.42623 215.353502 
C 223.42623 213.21259 222.575636 211.159076 221.061783 209.645222 
C 219.547929 208.131369 217.494415 207.280775 215.353502 207.280775 
C 213.21259 207.280775 211.159076 208.131369 209.645222 209.645222 
C 208.131369 211.159076 207.280775 213.21259 207.280775 215.353502 
C 207.280775 217.494415 208.131369 219.547929 209.645222 221.061783 
C 211.159076 222.575636 213.21259 223.42623 215.353502 223.42623 
z
" clip-path="url(#pa763abe4b6)" style="fill: #ff7e79; stroke: #000000; stroke-width: 1.5; stroke-linejoin: miter"/>
   </g>
   <g id="text_1">
    <!-- 1 -->
    <g transform="translate(240.137216 148.139063) scale(0.15 -0.15)">
     <defs>
      <path id="DejaVuSans-31" d="M 794 531 
L 1825 531 
L 1825 4091 
L 703 3866 
L 703 4441 
L 1819 4666 
L 2450 4666 
L 2450 531 
L 3481 531 
L 3481 0 
L 794 0 
L 794 531 
z
" transform="scale(0.015625)"/>
     </defs>
     <use xlink:href="#DejaVuSans-31"/>
    </g>
   </g>
   <g id="text_2">
    <!-- 2 -->
    <g transform="translate(210.581627 76.78556) scale(0.15 -0.15)">
     <defs>
      <path id="DejaVuSans-32" d="M 1228 531 
L 3431 531 
L 3431 0 
L 469 0 
L 469 531 
Q 828 903 1448 1529 
Q 2069 2156 2228 2338 
Q 2531 2678 2651 2914 
Q 2772 3150 2772 3378 
Q 2772 3750 2511 3984 
Q 2250 4219 1831 4219 
Q 1534 4219 1204 4116 
Q 875 4013 500 3803 
L 500 4441 
Q 881 4594 1212 4672 
Q 1544 4750 1819 4750 
Q 2544 4750 2975 4387 
Q 3406 4025 3406 3419 
Q 3406 3131 3298 2873 
Q 3191 2616 2906 2266 
Q 2828 2175 2409 1742 
Q 1991 1309 1228 531 
z
" transform="scale(0.015625)"/>
     </defs>
     <use xlink:href="#DejaVuSans-32"/>
    </g>
   </g>
   <g id="text_3">
    <!-- 3 -->
    <g transform="translate(139.228125 47.229972) scale(0.15 -0.15)">
     <defs>
      <path id="DejaVuSans-33" d="M 2597 2516 
Q 3050 2419 3304 2112 
Q 3559 1806 3559 1356 
Q 3559 666 3084 287 
Q 2609 -91 1734 -91 
Q 1441 -91 1130 -33 
Q 819 25 488 141 
L 488 750 
Q 750 597 1062 519 
Q 1375 441 1716 441 
Q 2309 441 2620 675 
Q 2931 909 2931 1356 
Q 2931 1769 2642 2001 
Q 2353 2234 1838 2234 
L 1294 2234 
L 1294 2753 
L 1863 2753 
Q 2328 2753 2575 2939 
Q 2822 3125 2822 3475 
Q 2822 3834 2567 4026 
Q 2313 4219 1838 4219 
Q 1578 4219 1281 4162 
Q 984 4106 628 3988 
L 628 4550 
Q 988 4650 1302 4700 
Q 1616 4750 1894 4750 
Q 2613 4750 3031 4423 
Q 3450 4097 3450 3541 
Q 3450 3153 3228 2886 
Q 3006 2619 2597 2516 
z
" transform="scale(0.015625)"/>
     </defs>
     <use xlink:href="#DejaVuSans-33"/>
    </g>
   </g>
   <g id="text_4">
    <!-- 4 -->
    <g transform="translate(67.874623 76.78556) scale(0.15 -0.15)">
     <defs>
      <path id="DejaVuSans-34" d="M 2419 4116 
L 825 1625 
L 2419 1625 
L 2419 4116 
z
M 2253 4666 
L 3047 4666 
L 3047 1625 
L 3713 1625 
L 3713 1100 
L 3047 1100 
L 3047 0 
L 2419 0 
L 2419 1100 
L 313 1100 
L 313 1709 
L 2253 4666 
z
" transform="scale(0.015625)"/>
     </defs>
     <use xlink:href="#DejaVuSans-34"/>
    </g>
   </g>
   <g id="text_5">
    <!-- 5 -->
    <g transform="translate(38.319034 148.139063) scale(0.15 -0.15)">
     <defs>
      <path id="DejaVuSans-35" d="M 691 4666 
L 3169 4666 
L 3169 4134 
L 1269 4134 
L 1269 2991 
Q 1406 3038 1543 3061 
Q 1681 3084 1819 3084 
Q 2600 3084 3056 2656 
Q 3513 2228 3513 1497 
Q 3513 744 3044 326 
Q 2575 -91 1722 -91 
Q 1428 -91 1123 -41 
Q 819 9 494 109 
L 494 744 
Q 775 591 1075 516 
Q 1375 441 1709 441 
Q 2250 441 2565 725 
Q 2881 1009 2881 1497 
Q 2881 1984 2565 2268 
Q 2250 2553 1709 2553 
Q 1456 2553 1204 2497 
Q 953 2441 691 2322 
L 691 4666 
z
" transform="scale(0.015625)"/>
     </defs>
     <use xlink:href="#DejaVuSans-35"/>
    </g>
   </g>
   <g id="text_6">
    <!-- 6 -->
    <g transform="translate(67.874623 219.492565) scale(0.15 -0.15)">
     <defs>
      <path id="DejaVuSans-36" d="M 2113 2584 
Q 1688 2584 1439 2293 
Q 1191 2003 1191 1497 
Q 1191 994 1439 701 
Q 1688 409 2113 409 
Q 2538 409 2786 701 
Q 3034 994 3034 1497 
Q 3034 2003 2786 2293 
Q 2538 2584 2113 2584 
z
M 3366 4563 
L 3366 3988 
Q 3128 4100 2886 4159 
Q 2644 4219 2406 4219 
Q 1781 4219 1451 3797 
Q 1122 3375 1075 2522 
Q 1259 2794 1537 2939 
Q 1816 3084 2150 3084 
Q 2853 3084 3261 2657 
Q 3669 2231 3669 1497 
Q 3669 778 3244 343 
Q 2819 -91 2113 -91 
Q 1303 -91 875 529 
Q 447 1150 447 2328 
Q 447 3434 972 4092 
Q 1497 4750 2381 4750 
Q 2619 4750 2861 4703 
Q 3103 4656 3366 4563 
z
" transform="scale(0.015625)"/>
     </defs>
     <use xlink:href="#DejaVuSans-36"/>
    </g>
   </g>
   <g id="text_7">
    <!-- 7 -->
    <g transform="translate(139.228125 249.048153) scale(0.15 -0.15)">
     <defs>
      <path id="DejaVuSans-37" d="M 525 4666 
L 3525 4666 
L 3525 4397 
L 1831 0 
L 1172 0 
L 2766 4134 
L 525 4134 
L 525 4666 
z
" transform="scale(0.015625)"/>
     </defs>
     <use xlink:href="#DejaVuSans-37"/>
    </g>
   </g>
   <g id="text_8">
    <!-- 8 -->
    <g transform="translate(210.581627 219.492565) scale(0.15 -0.15)">
     <defs>
      <path id="DejaVuSans-38" d="M 2034 2216 
Q 1584 2216 1326 1975 
Q 1069 1734 1069 1313 
Q 1069 891 1326 650 
Q 1584 409 2034 409 
Q 2484 409 2743 651 
Q 3003 894 3003 1313 
Q 3003 1734 2745 1975 
Q 2488 2216 2034 2216 
z
M 1403 2484 
Q 997 2584 770 2862 
Q 544 3141 544 3541 
Q 544 4100 942 4425 
Q 1341 4750 2034 4750 
Q 2731 4750 3128 4425 
Q 3525 4100 3525 3541 
Q 3525 3141 3298 2862 
Q 3072 2584 2669 2484 
Q 3125 2378 3379 2068 
Q 3634 1759 3634 1313 
Q 3634 634 3220 271 
Q 2806 -91 2034 -91 
Q 1263 -91 848 271 
Q 434 634 434 1313 
Q 434 1759 690 2068 
Q 947 2378 1403 2484 
z
M 1172 3481 
Q 1172 3119 1398 2916 
Q 1625 2713 2034 2713 
Q 2441 2713 2670 2916 
Q 2900 3119 2900 3481 
Q 2900 3844 2670 4047 
Q 2441 4250 2034 4250 
Q 1625 4250 1398 4047 
Q 1172 3844 1172 3481 
z
" transform="scale(0.015625)"/>
     </defs>
     <use xlink:href="#DejaVuSans-38"/>
    </g>
   </g>
  </g>
 </g>
 <defs>
  <clipPath id="pa763abe4b6">
   <rect x="10.8" y="10.8" width="266.4" height="266.4"/>
  </clipPath>
 </defs>
</svg>
