<svg preserveAspectRatio="xMidYMid meet" data-bbox="0.344 0.191 160.312 22.618"
							xmlns="http://www.w3.org/2000/svg" viewBox="0.344 0.191 160.312 22.618" height="23"
							width="161" data-type="color" role="presentation" aria-hidden="true" aria-label="">
							<g>
								<path fill="#00263A"
									d="M11.838 22.809c6.468 0 11.447-5.1 11.447-11.348 0-6.28-4.98-11.27-11.447-11.27C5.29.191.344 5.181.344 11.461c0 6.249 4.947 11.348 11.494 11.348ZM61.734 8.274h-6.462V22.49h6.462V8.274Zm-21.971-1.62h-6.462v15.832h6.462V6.653Zm8.4-6.14h-6.461v21.972h6.462V.514Zm-16.8 0H24.9v21.972h6.462V.514ZM144.825 20.71c1.895 0 2.952-1.39 2.952-3.24v-4.14h-.842v4.094c0 1.437-.729 2.487-2.11 2.487-1.387 0-2.122-1.055-2.122-2.487v-4.095h-.841v4.141c0 1.85 1.057 3.24 2.963 3.24Zm-45.106-.02c2.08 0 3.712-1.65 3.712-3.743 0-2.098-1.632-3.737-3.712-3.737-2.075 0-3.712 1.64-3.712 3.737 0 2.093 1.637 3.742 3.712 3.742Zm51.92-.022c1.427 0 2.567-.752 2.567-2.107 0-1.036-.6-1.583-2.434-2.083-1.366-.371-1.813-.69-1.813-1.34 0-.686.76-1.124 1.664-1.124.699 0 1.413.278 1.89.716l.503-.582c-.626-.582-1.514-.917-2.429-.917-1.474 0-2.469.804-2.469 1.943 0 1.057.559 1.557 2.264 2 1.479.387 1.972.742 1.972 1.402 0 .856-.755 1.3-1.715 1.3-.837 0-1.721-.346-2.275-1.016l-.554.536c.672.84 1.75 1.272 2.829 1.272Zm-39.976-.098h.842v-7.24h-.842v7.24Zm-6.691 0h.842v-2.582h1.761c.17 0 .334-.01.493-.03l1.192 2.613h.949l-1.329-2.83c.796-.345 1.309-1.046 1.309-2.082 0-1.408-.95-2.33-2.408-2.33h-2.809v7.242Zm30.405 0h.841v-2.582h1.762c.169 0 .333-.01.493-.03l1.191 2.613h.95l-1.33-2.83c.796-.345 1.309-1.046 1.309-2.082 0-1.408-.949-2.33-2.408-2.33h-2.808v7.242Zm-4.447 0h.841v-6.443h2.342v-.798h-5.515v.798h2.332v6.444Zm26.07 0h.841v-6.443h2.342v-.798h-5.514v.798H157v6.444Zm-43.365 0h.878l.657-1.7h3.502l.657 1.7h.878l-2.901-7.24h-.77l-2.901 7.24Zm-41.419 0h.842v-5.746l2.347 3.123h.39l2.352-3.123v5.747h.842v-7.242h-.796L75.6 16.973l-2.589-3.644h-.795v7.242Zm15.477 0h.841v-5.746l2.347 3.123h.39l2.353-3.123v5.747h.841v-7.242h-.795l-2.593 3.644-2.589-3.644h-.795v7.242Zm33.644 0h4.596v-.813h-3.754v-6.428h-.842v7.242Zm-40.294 0h5.109v-.798h-4.267v-2.516h3.42v-.783h-3.42v-2.346h4.195v-.798h-5.037v7.242Zm15.82-3.618c0-1.654 1.29-2.928 2.856-2.928 1.571 0 2.86 1.274 2.86 2.928 0 1.65-1.289 2.918-2.86 2.918-1.567 0-2.856-1.268-2.856-2.918Zm18.605 1.15 1.407-3.63.046-.129.041.13 1.407 3.63h-2.901Zm-9.654-.871v-3.124h1.895c.976 0 1.623.588 1.623 1.557 0 .943-.632 1.567-1.623 1.567h-1.895Zm30.404 0v-3.124h1.895c.976 0 1.623.588 1.623 1.557 0 .943-.632 1.567-1.623 1.567h-1.895ZM6.966 11.477c0-2.884 2.318-5.102 4.872-5.102 2.506 0 4.824 2.202 4.824 5.102 0 2.915-2.271 5.132-4.824 5.132-2.538 0-4.872-2.217-4.872-5.132Zm69.254-.284c2.476 0 4.419-1.963 4.419-4.454 0-2.497-1.943-4.447-4.419-4.447-2.47 0-4.419 1.95-4.419 4.447 0 2.491 1.95 4.454 4.419 4.454Zm78.203-.141h1.001V7.978h2.097c.202 0 .398-.012.587-.037l1.418 3.11h1.13l-1.582-3.367c.947-.41 1.558-1.245 1.558-2.479 0-1.675-1.13-2.772-2.866-2.772h-3.343v8.619Zm-21.869 0h1.002v-8.62h-1.002v8.62Zm-17.456 0h1.002V7.125h5.086v3.927h1.008v-8.62h-1.008v3.725H116.1V2.433h-1.002v8.619Zm-9.65 0h1.001V4.015l5.215 7.037h.989v-8.62h-1.002v6.982l-5.171-6.981h-1.032v8.619Zm30.553 0h1.002v-6.84l2.793 3.717h.465l2.8-3.717v6.84h1.001v-8.62h-.946l-3.087 4.338-3.081-4.337h-.947v8.619Zm-53.528 0h1.001V7.996h2.06c1.792 0 2.891-1.103 2.891-2.81 0-1.644-1.124-2.753-2.897-2.753h-3.055v8.619Zm7.53 0h1.001V7.996h2.06c1.792 0 2.891-1.103 2.891-2.81 0-1.644-1.124-2.753-2.897-2.753h-3.055v8.619Zm7.53 0h6.08v-.95h-5.079V7.107h4.071v-.932h-4.07V3.383h4.993v-.95h-5.995v8.619Zm27.106 0h6.081v-.95h-5.079V7.107h4.07v-.932h-4.07V3.383h4.993v-.95h-5.995v8.619Zm21.869 0h6.08v-.95h-5.079V7.107h4.071v-.932h-4.071V3.383h4.994v-.95h-5.995v8.619ZM72.821 6.745c0-1.97 1.535-3.485 3.399-3.485 1.87 0 3.405 1.516 3.405 3.485 0 1.964-1.535 3.473-3.405 3.473-1.864 0-3.399-1.51-3.399-3.473Zm82.603.332V3.358h2.256c1.161 0 1.932.7 1.932 1.853 0 1.123-.752 1.866-1.932 1.866h-2.256Zm-64.42-.006V3.358h1.987c1.186 0 1.956.718 1.956 1.841 0 1.135-.77 1.872-1.956 1.872h-1.987Zm-7.53 0V3.358h1.987c1.186 0 1.956.718 1.956 1.841 0 1.135-.77 1.872-1.956 1.872h-1.987ZM49.78.514v6.14h17.448V.513H49.78Z"
									data-color="1"></path>
							</g>
						</svg>