<?xml version="1.0" encoding="utf-8" standalone="no"?>
<!DOCTYPE svg PUBLIC "-//W3C//DTD SVG 1.1//EN"
  "http://www.w3.org/Graphics/SVG/1.1/DTD/svg11.dtd">
<svg xmlns:xlink="http://www.w3.org/1999/xlink" width="288pt" height="288pt" viewBox="0 0 288 288" xmlns="http://www.w3.org/2000/svg" version="1.1">
 <metadata>
  <rdf:RDF xmlns:dc="http://purl.org/dc/elements/1.1/" xmlns:cc="http://creativecommons.org/ns#" xmlns:rdf="http://www.w3.org/1999/02/22-rdf-syntax-ns#">
   <cc:Work>
    <dc:type rdf:resource="http://purl.org/dc/dcmitype/StillImage"/>
    <dc:date>2023-11-03T15:35:41.330201</dc:date>
    <dc:format>image/svg+xml</dc:format>
    <dc:creator>
     <cc:Agent>
      <dc:title>Matplotlib v3.8.0, https://matplotlib.org/</dc:title>
     </cc:Agent>
    </dc:creator>
   </cc:Work>
  </rdf:RDF>
 </metadata>
 <defs>
  <style type="text/css">*{stroke-linejoin: round; stroke-linecap: butt}</style>
 </defs>
 <g id="figure_1">
  <g id="patch_1">
   <path d="M 0 288 
L 288 288 
L 288 0 
L 0 0 
L 0 288 
z
" style="fill: none"/>
  </g>
  <g id="axes_1">
   <g id="patch_2">
    <path d="M 243.734027 142.382664 
Q 213.604852 100.913411 184.461422 60.800922 
" clip-path="url(#pa795443b66)" style="fill: none; stroke: #000000; stroke-width: 1.5; stroke-linecap: round"/>
    <path d="M 185.781015 68.741871 
L 184.461422 60.800922 
L 191.605937 64.509817 
z
" clip-path="url(#pa795443b66)" style="stroke: #000000; stroke-width: 1.5; stroke-linecap: round"/>
   </g>
   <g id="patch_3">
    <path d="M 243.006614 143.381848 
Q 159.393917 116.214436 77.376191 89.565261 
" clip-path="url(#pa795443b66)" style="fill: none; stroke: #000000; stroke-width: 1.5; stroke-linecap: round"/>
    <path d="M 83.111337 95.213987 
L 77.376191 89.565261 
L 85.336259 88.36638 
z
" clip-path="url(#pa795443b66)" style="stroke: #000000; stroke-width: 1.5; stroke-linecap: round"/>
   </g>
   <g id="patch_4">
    <path d="M 243.006614 144.618152 
Q 159.393917 171.785564 77.376191 198.434739 
" clip-path="url(#pa795443b66)" style="fill: none; stroke: #000000; stroke-width: 1.5; stroke-linecap: round"/>
    <path d="M 85.336259 199.63362 
L 77.376191 198.434739 
L 83.111337 192.786013 
z
" clip-path="url(#pa795443b66)" style="stroke: #000000; stroke-width: 1.5; stroke-linecap: round"/>
   </g>
   <g id="patch_5">
    <path d="M 243.734027 145.617336 
Q 213.604852 187.086589 184.461422 227.199078 
" clip-path="url(#pa795443b66)" style="fill: none; stroke: #000000; stroke-width: 1.5; stroke-linecap: round"/>
    <path d="M 191.605937 223.490183 
L 184.461422 227.199078 
L 185.781015 219.258129 
z
" clip-path="url(#pa795443b66)" style="stroke: #000000; stroke-width: 1.5; stroke-linecap: round"/>
   </g>
   <g id="patch_6">
    <path d="M 173.281331 48.647519 
Q 124.531301 64.487364 77.376242 79.808972 
" clip-path="url(#pa795443b66)" style="fill: none; stroke: #000000; stroke-width: 1.5; stroke-linecap: round"/>
    <path d="M 85.33631 81.007853 
L 77.376242 79.808972 
L 83.111387 74.160246 
z
" clip-path="url(#pa795443b66)" style="stroke: #000000; stroke-width: 1.5; stroke-linecap: round"/>
   </g>
   <g id="patch_7">
    <path d="M 174.006828 49.648095 
Q 122.33134 120.773303 71.641597 190.541748 
" clip-path="url(#pa795443b66)" style="fill: none; stroke: #000000; stroke-width: 1.5; stroke-linecap: round"/>
    <path d="M 78.786112 186.832853 
L 71.641597 190.541748 
L 72.96119 182.600799 
z
" clip-path="url(#pa795443b66)" style="stroke: #000000; stroke-width: 1.5; stroke-linecap: round"/>
   </g>
   <g id="patch_8">
    <path d="M 175.182624 50.030134 
Q 175.182624 137.945726 175.182624 224.184267 
" clip-path="url(#pa795443b66)" style="fill: none; stroke: #000000; stroke-width: 1.5; stroke-linecap: round"/>
    <path d="M 178.782624 216.984267 
L 175.182624 224.184267 
L 171.582624 216.984267 
z
" clip-path="url(#pa795443b66)" style="stroke: #000000; stroke-width: 1.5; stroke-linecap: round"/>
   </g>
   <g id="patch_9">
    <path d="M 62.362831 86.686262 
Q 62.362831 137.945077 62.362831 187.526841 
" clip-path="url(#pa795443b66)" style="fill: none; stroke: #000000; stroke-width: 1.5; stroke-linecap: round"/>
    <path d="M 65.962831 180.326841 
L 62.362831 187.526841 
L 58.762831 180.326841 
z
" clip-path="url(#pa795443b66)" style="stroke: #000000; stroke-width: 1.5; stroke-linecap: round"/>
   </g>
   <g id="patch_10">
    <path d="M 63.538626 86.305468 
Q 115.214115 157.430676 165.903857 227.199121 
" clip-path="url(#pa795443b66)" style="fill: none; stroke: #000000; stroke-width: 1.5; stroke-linecap: round"/>
    <path d="M 164.584264 219.258172 
L 165.903857 227.199121 
L 158.759342 223.490226 
z
" clip-path="url(#pa795443b66)" style="stroke: #000000; stroke-width: 1.5; stroke-linecap: round"/>
   </g>
   <g id="patch_11">
    <path d="M 64.264124 203.930643 
Q 113.014153 219.770488 160.169213 235.092095 
" clip-path="url(#pa795443b66)" style="fill: none; stroke: #000000; stroke-width: 1.5; stroke-linecap: round"/>
    <path d="M 154.434067 229.44337 
L 160.169213 235.092095 
L 152.209145 236.290977 
z
" clip-path="url(#pa795443b66)" style="stroke: #000000; stroke-width: 1.5; stroke-linecap: round"/>
   </g>
   <g id="patch_12">
    <path d="M 244.909091 156.109091 
C 248.120459 156.109091 251.200731 154.833201 253.471511 152.56242 
C 255.742292 150.29164 257.018182 147.211368 257.018182 144 
C 257.018182 140.788632 255.742292 137.70836 253.471511 135.43758 
C 251.200731 133.166799 248.120459 131.890909 244.909091 131.890909 
C 241.697722 131.890909 238.617451 133.166799 236.346671 135.43758 
C 234.07589 137.70836 232.8 140.788632 232.8 144 
C 232.8 147.211368 234.07589 150.29164 236.346671 152.56242 
C 238.617451 154.833201 241.697722 156.109091 244.909091 156.109091 
z
" clip-path="url(#pa795443b66)" style="fill: #a9449d; stroke: #000000; stroke-width: 1.5; stroke-linejoin: miter"/>
   </g>
   <g id="patch_13">
    <path d="M 175.182624 60.138842 
C 178.393992 60.138842 181.474264 58.862952 183.745044 56.592172 
C 186.015825 54.321391 187.291715 51.24112 187.291715 48.029752 
C 187.291715 44.818383 186.015825 41.738112 183.745044 39.467331 
C 181.474264 37.196551 178.393992 35.920661 175.182624 35.920661 
C 171.971256 35.920661 168.890984 37.196551 166.620204 39.467331 
C 164.349423 41.738112 163.073533 44.818383 163.073533 48.029752 
C 163.073533 51.24112 164.349423 54.321391 166.620204 56.592172 
C 168.890984 58.862952 171.971256 60.138842 175.182624 60.138842 
z
" clip-path="url(#pa795443b66)" style="fill: #a9449d; stroke: #000000; stroke-width: 1.5; stroke-linejoin: miter"/>
   </g>
   <g id="patch_14">
    <path d="M 62.362831 96.796215 
C 65.574199 96.796215 68.65447 95.520325 70.925251 93.249545 
C 73.196031 90.978764 74.471921 87.898493 74.471921 84.687125 
C 74.471921 81.475756 73.196031 78.395485 70.925251 76.124704 
C 68.65447 73.853924 65.574199 72.578034 62.362831 72.578034 
C 59.151462 72.578034 56.071191 73.853924 53.80041 76.124704 
C 51.52963 78.395485 50.25374 81.475756 50.25374 84.687125 
C 50.25374 87.898493 51.52963 90.978764 53.80041 93.249545 
C 56.071191 95.520325 59.151462 96.796215 62.362831 96.796215 
z
" clip-path="url(#pa795443b66)" style="fill: #a9449d; stroke: #000000; stroke-width: 1.5; stroke-linejoin: miter"/>
   </g>
   <g id="patch_15">
    <path d="M 62.362831 215.421966 
C 65.574199 215.421966 68.65447 214.146076 70.925251 211.875296 
C 73.196031 209.604515 74.471921 206.524244 74.471921 203.312875 
C 74.471921 200.101507 73.196031 197.021236 70.925251 194.750455 
C 68.65447 192.479675 65.574199 191.203785 62.362831 191.203785 
C 59.151462 191.203785 56.071191 192.479675 53.80041 194.750455 
C 51.52963 197.021236 50.25374 200.101507 50.25374 203.312875 
C 50.25374 206.524244 51.52963 209.604515 53.80041 211.875296 
C 56.071191 214.146076 59.151462 215.421966 62.362831 215.421966 
z
" clip-path="url(#pa795443b66)" style="fill: #a9449d; stroke: #000000; stroke-width: 1.5; stroke-linejoin: miter"/>
   </g>
   <g id="patch_16">
    <path d="M 175.182624 252.079339 
C 178.393992 252.079339 181.474264 250.803449 183.745044 248.532669 
C 186.015825 246.261888 187.291715 243.181617 187.291715 239.970248 
C 187.291715 236.75888 186.015825 233.678609 183.745044 231.407828 
C 181.474264 229.137048 178.393992 227.861158 175.182624 227.861158 
C 171.971256 227.861158 168.890984 229.137048 166.620204 231.407828 
C 164.349423 233.678609 163.073533 236.75888 163.073533 239.970248 
C 163.073533 243.181617 164.349423 246.261888 166.620204 248.532669 
C 168.890984 250.803449 171.971256 252.079339 175.182624 252.079339 
z
" clip-path="url(#pa795443b66)" style="fill: #a9449d; stroke: #000000; stroke-width: 1.5; stroke-linejoin: miter"/>
   </g>
   <g id="text_1">
    <!-- 1 -->
    <g transform="translate(240.137216 148.139063) scale(0.15 -0.15)">
     <defs>
      <path id="DejaVuSans-31" d="M 794 531 
L 1825 531 
L 1825 4091 
L 703 3866 
L 703 4441 
L 1819 4666 
L 2450 4666 
L 2450 531 
L 3481 531 
L 3481 0 
L 794 0 
L 794 531 
z
" transform="scale(0.015625)"/>
     </defs>
     <use xlink:href="#DejaVuSans-31"/>
    </g>
   </g>
   <g id="text_2">
    <!-- 2 -->
    <g transform="translate(170.410749 52.168814) scale(0.15 -0.15)">
     <defs>
      <path id="DejaVuSans-32" d="M 1228 531 
L 3431 531 
L 3431 0 
L 469 0 
L 469 531 
Q 828 903 1448 1529 
Q 2069 2156 2228 2338 
Q 2531 2678 2651 2914 
Q 2772 3150 2772 3378 
Q 2772 3750 2511 3984 
Q 2250 4219 1831 4219 
Q 1534 4219 1204 4116 
Q 875 4013 500 3803 
L 500 4441 
Q 881 4594 1212 4672 
Q 1544 4750 1819 4750 
Q 2544 4750 2975 4387 
Q 3406 4025 3406 3419 
Q 3406 3131 3298 2873 
Q 3191 2616 2906 2266 
Q 2828 2175 2409 1742 
Q 1991 1309 1228 531 
z
" transform="scale(0.015625)"/>
     </defs>
     <use xlink:href="#DejaVuSans-32"/>
    </g>
   </g>
   <g id="text_3">
    <!-- 3 -->
    <g transform="translate(57.590956 88.826187) scale(0.15 -0.15)">
     <defs>
      <path id="DejaVuSans-33" d="M 2597 2516 
Q 3050 2419 3304 2112 
Q 3559 1806 3559 1356 
Q 3559 666 3084 287 
Q 2609 -91 1734 -91 
Q 1441 -91 1130 -33 
Q 819 25 488 141 
L 488 750 
Q 750 597 1062 519 
Q 1375 441 1716 441 
Q 2309 441 2620 675 
Q 2931 909 2931 1356 
Q 2931 1769 2642 2001 
Q 2353 2234 1838 2234 
L 1294 2234 
L 1294 2753 
L 1863 2753 
Q 2328 2753 2575 2939 
Q 2822 3125 2822 3475 
Q 2822 3834 2567 4026 
Q 2313 4219 1838 4219 
Q 1578 4219 1281 4162 
Q 984 4106 628 3988 
L 628 4550 
Q 988 4650 1302 4700 
Q 1616 4750 1894 4750 
Q 2613 4750 3031 4423 
Q 3450 4097 3450 3541 
Q 3450 3153 3228 2886 
Q 3006 2619 2597 2516 
z
" transform="scale(0.015625)"/>
     </defs>
     <use xlink:href="#DejaVuSans-33"/>
    </g>
   </g>
   <g id="text_4">
    <!-- 4 -->
    <g transform="translate(57.590956 207.451938) scale(0.15 -0.15)">
     <defs>
      <path id="DejaVuSans-34" d="M 2419 4116 
L 825 1625 
L 2419 1625 
L 2419 4116 
z
M 2253 4666 
L 3047 4666 
L 3047 1625 
L 3713 1625 
L 3713 1100 
L 3047 1100 
L 3047 0 
L 2419 0 
L 2419 1100 
L 313 1100 
L 313 1709 
L 2253 4666 
z
" transform="scale(0.015625)"/>
     </defs>
     <use xlink:href="#DejaVuSans-34"/>
    </g>
   </g>
   <g id="text_5">
    <!-- 5 -->
    <g transform="translate(170.410749 244.109311) scale(0.15 -0.15)">
     <defs>
      <path id="DejaVuSans-35" d="M 691 4666 
L 3169 4666 
L 3169 4134 
L 1269 4134 
L 1269 2991 
Q 1406 3038 1543 3061 
Q 1681 3084 1819 3084 
Q 2600 3084 3056 2656 
Q 3513 2228 3513 1497 
Q 3513 744 3044 326 
Q 2575 -91 1722 -91 
Q 1428 -91 1123 -41 
Q 819 9 494 109 
L 494 744 
Q 775 591 1075 516 
Q 1375 441 1709 441 
Q 2250 441 2565 725 
Q 2881 1009 2881 1497 
Q 2881 1984 2565 2268 
Q 2250 2553 1709 2553 
Q 1456 2553 1204 2497 
Q 953 2441 691 2322 
L 691 4666 
z
" transform="scale(0.015625)"/>
     </defs>
     <use xlink:href="#DejaVuSans-35"/>
    </g>
   </g>
  </g>
 </g>
 <defs>
  <clipPath id="pa795443b66">
   <rect x="10.8" y="10.8" width="266.4" height="266.4"/>
  </clipPath>
 </defs>
</svg>
