<?xml version="1.0" encoding="utf-8" standalone="no"?>
<!DOCTYPE svg PUBLIC "-//W3C//DTD SVG 1.1//EN"
  "http://www.w3.org/Graphics/SVG/1.1/DTD/svg11.dtd">
<svg xmlns:xlink="http://www.w3.org/1999/xlink" width="526.153846pt" height="347.04pt" viewBox="0 0 526.153846 347.04" xmlns="http://www.w3.org/2000/svg" version="1.1">
 <metadata>
  <rdf:RDF xmlns:dc="http://purl.org/dc/elements/1.1/" xmlns:cc="http://creativecommons.org/ns#" xmlns:rdf="http://www.w3.org/1999/02/22-rdf-syntax-ns#">
   <cc:Work>
    <dc:type rdf:resource="http://purl.org/dc/dcmitype/StillImage"/>
    <dc:date>2023-11-07T20:37:36.949579</dc:date>
    <dc:format>image/svg+xml</dc:format>
    <dc:creator>
     <cc:Agent>
      <dc:title>Matplotlib v3.8.0, https://matplotlib.org/</dc:title>
     </cc:Agent>
    </dc:creator>
   </cc:Work>
  </rdf:RDF>
 </metadata>
 <defs>
  <style type="text/css">*{stroke-linejoin: round; stroke-linecap: butt}</style>
 </defs>
 <g id="figure_1">
  <g id="patch_1">
   <path d="M -0 347.04 
L 526.153846 347.04 
L 526.153846 -0 
L -0 -0 
L -0 347.04 
z
" style="fill: none"/>
  </g>
  <g id="axes_1">
   <g id="LineCollection_1">
    <path d="M 32.787692 32.787692 
L 518.953846 32.787692 
" clip-path="url(#p37b496a97d)" style="fill: none; stroke: #808080; stroke-width: 1.5"/>
   </g>
   <g id="LineCollection_2">
    <path d="M 32.787692 58.375385 
L 518.953846 58.375385 
" clip-path="url(#p37b496a97d)" style="fill: none; stroke: #808080; stroke-width: 1.5"/>
   </g>
   <g id="LineCollection_3">
    <path d="M 32.787692 83.963077 
L 518.953846 83.963077 
" clip-path="url(#p37b496a97d)" style="fill: none; stroke: #808080; stroke-width: 1.5"/>
   </g>
   <g id="LineCollection_4">
    <path d="M 32.787692 109.550769 
L 518.953846 109.550769 
" clip-path="url(#p37b496a97d)" style="fill: none; stroke: #808080; stroke-width: 1.5"/>
   </g>
   <g id="LineCollection_5">
    <path d="M 32.787692 135.138462 
L 518.953846 135.138462 
" clip-path="url(#p37b496a97d)" style="fill: none; stroke: #808080; stroke-width: 1.5"/>
   </g>
   <g id="LineCollection_6">
    <path d="M 32.787692 160.726154 
L 518.953846 160.726154 
" clip-path="url(#p37b496a97d)" style="fill: none; stroke: #808080; stroke-width: 1.5"/>
   </g>
   <g id="LineCollection_7">
    <path d="M 32.787692 186.313846 
L 518.953846 186.313846 
" clip-path="url(#p37b496a97d)" style="fill: none; stroke: #808080; stroke-width: 1.5"/>
   </g>
   <g id="LineCollection_8">
    <path d="M 32.787692 211.901538 
L 518.953846 211.901538 
" clip-path="url(#p37b496a97d)" style="fill: none; stroke: #808080; stroke-width: 1.5"/>
   </g>
   <g id="LineCollection_9">
    <path d="M 32.787692 237.489231 
L 518.953846 237.489231 
" clip-path="url(#p37b496a97d)" style="fill: none; stroke: #808080; stroke-width: 1.5"/>
   </g>
   <g id="LineCollection_10">
    <path d="M 32.787692 263.076923 
L 518.953846 263.076923 
" clip-path="url(#p37b496a97d)" style="fill: none; stroke: #808080; stroke-width: 1.5"/>
   </g>
   <g id="LineCollection_11">
    <path d="M 32.787692 288.664615 
L 518.953846 288.664615 
" clip-path="url(#p37b496a97d)" style="fill: none; stroke: #808080; stroke-width: 1.5"/>
   </g>
   <g id="line2d_1">
    <path d="M 71.169231 32.787692 
L 71.169231 58.375385 
" clip-path="url(#p37b496a97d)" style="fill: none; stroke: #000000; stroke-width: 1.5; stroke-linecap: square"/>
   </g>
   <g id="line2d_2">
    <path d="M 71.169231 58.375385 
L 71.169231 83.963077 
" clip-path="url(#p37b496a97d)" style="fill: none; stroke: #000000; stroke-width: 1.5; stroke-linecap: square"/>
   </g>
   <g id="line2d_3">
    <path d="M 71.169231 83.963077 
L 71.169231 109.550769 
" clip-path="url(#p37b496a97d)" style="fill: none; stroke: #000000; stroke-width: 1.5; stroke-linecap: square"/>
   </g>
   <g id="line2d_4">
    <path d="M 83.963077 109.550769 
L 83.963077 135.138462 
" clip-path="url(#p37b496a97d)" style="fill: none; stroke: #000000; stroke-width: 1.5; stroke-linecap: square"/>
   </g>
   <g id="line2d_5">
    <path d="M 83.963077 135.138462 
L 83.963077 160.726154 
" clip-path="url(#p37b496a97d)" style="fill: none; stroke: #000000; stroke-width: 1.5; stroke-linecap: square"/>
   </g>
   <g id="line2d_6">
    <path d="M 83.963077 160.726154 
L 83.963077 186.313846 
" clip-path="url(#p37b496a97d)" style="fill: none; stroke: #000000; stroke-width: 1.5; stroke-linecap: square"/>
   </g>
   <g id="line2d_7">
    <path d="M 122.344615 211.901538 
L 122.344615 237.489231 
" clip-path="url(#p37b496a97d)" style="fill: none; stroke: #000000; stroke-width: 1.5; stroke-linecap: square"/>
   </g>
   <g id="line2d_8">
    <path d="M 122.344615 237.489231 
L 122.344615 263.076923 
" clip-path="url(#p37b496a97d)" style="fill: none; stroke: #000000; stroke-width: 1.5; stroke-linecap: square"/>
   </g>
   <g id="line2d_9">
    <path d="M 147.932308 186.313846 
L 147.932308 211.901538 
" clip-path="url(#p37b496a97d)" style="fill: none; stroke: #000000; stroke-width: 1.5; stroke-linecap: square"/>
   </g>
   <g id="line2d_10">
    <path d="M 147.932308 211.901538 
L 147.932308 237.489231 
" clip-path="url(#p37b496a97d)" style="fill: none; stroke: #000000; stroke-width: 1.5; stroke-linecap: square"/>
   </g>
   <g id="line2d_11">
    <path d="M 147.932308 237.489231 
L 147.932308 263.076923 
" clip-path="url(#p37b496a97d)" style="fill: none; stroke: #000000; stroke-width: 1.5; stroke-linecap: square"/>
   </g>
   <g id="line2d_12">
    <path d="M 160.726154 109.550769 
L 160.726154 135.138462 
" clip-path="url(#p37b496a97d)" style="fill: none; stroke: #000000; stroke-width: 1.5; stroke-linecap: square"/>
   </g>
   <g id="line2d_13">
    <path d="M 160.726154 135.138462 
L 160.726154 160.726154 
" clip-path="url(#p37b496a97d)" style="fill: none; stroke: #000000; stroke-width: 1.5; stroke-linecap: square"/>
   </g>
   <g id="line2d_14">
    <path d="M 160.726154 160.726154 
L 160.726154 186.313846 
" clip-path="url(#p37b496a97d)" style="fill: none; stroke: #000000; stroke-width: 1.5; stroke-linecap: square"/>
   </g>
   <g id="line2d_15">
    <path d="M 173.52 32.787692 
L 173.52 58.375385 
" clip-path="url(#p37b496a97d)" style="fill: none; stroke: #000000; stroke-width: 1.5; stroke-linecap: square"/>
   </g>
   <g id="line2d_16">
    <path d="M 173.52 58.375385 
L 173.52 83.963077 
" clip-path="url(#p37b496a97d)" style="fill: none; stroke: #000000; stroke-width: 1.5; stroke-linecap: square"/>
   </g>
   <g id="line2d_17">
    <path d="M 173.52 83.963077 
L 173.52 109.550769 
" clip-path="url(#p37b496a97d)" style="fill: none; stroke: #000000; stroke-width: 1.5; stroke-linecap: square"/>
   </g>
   <g id="patch_2">
    <path d="M 32.787692 43.022769 
C 35.502066 43.022769 38.105632 41.944337 40.024985 40.024985 
C 41.944337 38.105632 43.022769 35.502066 43.022769 32.787692 
C 43.022769 30.073318 41.944337 27.469752 40.024985 25.5504 
C 38.105632 23.631048 35.502066 22.552615 32.787692 22.552615 
C 30.073318 22.552615 27.469752 23.631048 25.5504 25.5504 
C 23.631048 27.469752 22.552615 30.073318 22.552615 32.787692 
C 22.552615 35.502066 23.631048 38.105632 25.5504 40.024985 
C 27.469752 41.944337 30.073318 43.022769 32.787692 43.022769 
z
" clip-path="url(#p37b496a97d)" style="fill: #92a9bd; stroke: #000000; stroke-linejoin: miter"/>
   </g>
   <g id="patch_3">
    <path d="M 32.787692 68.610462 
C 35.502066 68.610462 38.105632 67.532029 40.024985 65.612677 
C 41.944337 63.693325 43.022769 61.089759 43.022769 58.375385 
C 43.022769 55.66101 41.944337 53.057445 40.024985 51.138092 
C 38.105632 49.21874 35.502066 48.140308 32.787692 48.140308 
C 30.073318 48.140308 27.469752 49.21874 25.5504 51.138092 
C 23.631048 53.057445 22.552615 55.66101 22.552615 58.375385 
C 22.552615 61.089759 23.631048 63.693325 25.5504 65.612677 
C 27.469752 67.532029 30.073318 68.610462 32.787692 68.610462 
z
" clip-path="url(#p37b496a97d)" style="fill: #92a9bd; stroke: #000000; stroke-linejoin: miter"/>
   </g>
   <g id="patch_4">
    <path d="M 32.787692 94.198154 
C 35.502066 94.198154 38.105632 93.119722 40.024985 91.200369 
C 41.944337 89.281017 43.022769 86.677451 43.022769 83.963077 
C 43.022769 81.248703 41.944337 78.645137 40.024985 76.725785 
C 38.105632 74.806432 35.502066 73.728 32.787692 73.728 
C 30.073318 73.728 27.469752 74.806432 25.5504 76.725785 
C 23.631048 78.645137 22.552615 81.248703 22.552615 83.963077 
C 22.552615 86.677451 23.631048 89.281017 25.5504 91.200369 
C 27.469752 93.119722 30.073318 94.198154 32.787692 94.198154 
z
" clip-path="url(#p37b496a97d)" style="fill: #92a9bd; stroke: #000000; stroke-linejoin: miter"/>
   </g>
   <g id="patch_5">
    <path d="M 32.787692 119.785846 
C 35.502066 119.785846 38.105632 118.707414 40.024985 116.788062 
C 41.944337 114.868709 43.022769 112.265143 43.022769 109.550769 
C 43.022769 106.836395 41.944337 104.232829 40.024985 102.313477 
C 38.105632 100.394125 35.502066 99.315692 32.787692 99.315692 
C 30.073318 99.315692 27.469752 100.394125 25.5504 102.313477 
C 23.631048 104.232829 22.552615 106.836395 22.552615 109.550769 
C 22.552615 112.265143 23.631048 114.868709 25.5504 116.788062 
C 27.469752 118.707414 30.073318 119.785846 32.787692 119.785846 
z
" clip-path="url(#p37b496a97d)" style="fill: #92a9bd; stroke: #000000; stroke-linejoin: miter"/>
   </g>
   <g id="patch_6">
    <path d="M 32.787692 145.373538 
C 35.502066 145.373538 38.105632 144.295106 40.024985 142.375754 
C 41.944337 140.456401 43.022769 137.852836 43.022769 135.138462 
C 43.022769 132.424087 41.944337 129.820522 40.024985 127.901169 
C 38.105632 125.981817 35.502066 124.903385 32.787692 124.903385 
C 30.073318 124.903385 27.469752 125.981817 25.5504 127.901169 
C 23.631048 129.820522 22.552615 132.424087 22.552615 135.138462 
C 22.552615 137.852836 23.631048 140.456401 25.5504 142.375754 
C 27.469752 144.295106 30.073318 145.373538 32.787692 145.373538 
z
" clip-path="url(#p37b496a97d)" style="fill: #92a9bd; stroke: #000000; stroke-linejoin: miter"/>
   </g>
   <g id="patch_7">
    <path d="M 32.787692 170.961231 
C 35.502066 170.961231 38.105632 169.882798 40.024985 167.963446 
C 41.944337 166.044094 43.022769 163.440528 43.022769 160.726154 
C 43.022769 158.01178 41.944337 155.408214 40.024985 153.488862 
C 38.105632 151.569509 35.502066 150.491077 32.787692 150.491077 
C 30.073318 150.491077 27.469752 151.569509 25.5504 153.488862 
C 23.631048 155.408214 22.552615 158.01178 22.552615 160.726154 
C 22.552615 163.440528 23.631048 166.044094 25.5504 167.963446 
C 27.469752 169.882798 30.073318 170.961231 32.787692 170.961231 
z
" clip-path="url(#p37b496a97d)" style="fill: #92a9bd; stroke: #000000; stroke-linejoin: miter"/>
   </g>
   <g id="patch_8">
    <path d="M 32.787692 196.548923 
C 35.502066 196.548923 38.105632 195.470491 40.024985 193.551138 
C 41.944337 191.631786 43.022769 189.02822 43.022769 186.313846 
C 43.022769 183.599472 41.944337 180.995906 40.024985 179.076554 
C 38.105632 177.157202 35.502066 176.078769 32.787692 176.078769 
C 30.073318 176.078769 27.469752 177.157202 25.5504 179.076554 
C 23.631048 180.995906 22.552615 183.599472 22.552615 186.313846 
C 22.552615 189.02822 23.631048 191.631786 25.5504 193.551138 
C 27.469752 195.470491 30.073318 196.548923 32.787692 196.548923 
z
" clip-path="url(#p37b496a97d)" style="fill: #92a9bd; stroke: #000000; stroke-linejoin: miter"/>
   </g>
   <g id="patch_9">
    <path d="M 32.787692 222.136615 
C 35.502066 222.136615 38.105632 221.058183 40.024985 219.138831 
C 41.944337 217.219478 43.022769 214.615913 43.022769 211.901538 
C 43.022769 209.187164 41.944337 206.583599 40.024985 204.664246 
C 38.105632 202.744894 35.502066 201.666462 32.787692 201.666462 
C 30.073318 201.666462 27.469752 202.744894 25.5504 204.664246 
C 23.631048 206.583599 22.552615 209.187164 22.552615 211.901538 
C 22.552615 214.615913 23.631048 217.219478 25.5504 219.138831 
C 27.469752 221.058183 30.073318 222.136615 32.787692 222.136615 
z
" clip-path="url(#p37b496a97d)" style="fill: #92a9bd; stroke: #000000; stroke-linejoin: miter"/>
   </g>
   <g id="patch_10">
    <path d="M 32.787692 247.724308 
C 35.502066 247.724308 38.105632 246.645875 40.024985 244.726523 
C 41.944337 242.807171 43.022769 240.203605 43.022769 237.489231 
C 43.022769 234.774857 41.944337 232.171291 40.024985 230.251938 
C 38.105632 228.332586 35.502066 227.254154 32.787692 227.254154 
C 30.073318 227.254154 27.469752 228.332586 25.5504 230.251938 
C 23.631048 232.171291 22.552615 234.774857 22.552615 237.489231 
C 22.552615 240.203605 23.631048 242.807171 25.5504 244.726523 
C 27.469752 246.645875 30.073318 247.724308 32.787692 247.724308 
z
" clip-path="url(#p37b496a97d)" style="fill: #92a9bd; stroke: #000000; stroke-linejoin: miter"/>
   </g>
   <g id="patch_11">
    <path d="M 32.787692 273.312 
C 35.502066 273.312 38.105632 272.233568 40.024985 270.314215 
C 41.944337 268.394863 43.022769 265.791297 43.022769 263.076923 
C 43.022769 260.362549 41.944337 257.758983 40.024985 255.839631 
C 38.105632 253.920278 35.502066 252.841846 32.787692 252.841846 
C 30.073318 252.841846 27.469752 253.920278 25.5504 255.839631 
C 23.631048 257.758983 22.552615 260.362549 22.552615 263.076923 
C 22.552615 265.791297 23.631048 268.394863 25.5504 270.314215 
C 27.469752 272.233568 30.073318 273.312 32.787692 273.312 
z
" clip-path="url(#p37b496a97d)" style="fill: #92a9bd; stroke: #000000; stroke-linejoin: miter"/>
   </g>
   <g id="patch_12">
    <path d="M 32.787692 298.899692 
C 35.502066 298.899692 38.105632 297.82126 40.024985 295.901908 
C 41.944337 293.982555 43.022769 291.37899 43.022769 288.664615 
C 43.022769 285.950241 41.944337 283.346675 40.024985 281.427323 
C 38.105632 279.507971 35.502066 278.429538 32.787692 278.429538 
C 30.073318 278.429538 27.469752 279.507971 25.5504 281.427323 
C 23.631048 283.346675 22.552615 285.950241 22.552615 288.664615 
C 22.552615 291.37899 23.631048 293.982555 25.5504 295.901908 
C 27.469752 297.82126 30.073318 298.899692 32.787692 298.899692 
z
" clip-path="url(#p37b496a97d)" style="fill: #92a9bd; stroke: #000000; stroke-linejoin: miter"/>
   </g>
   <g id="patch_13">
    <path d="M 58.375385 242.606769 
C 59.732572 242.606769 61.034355 242.067553 61.994031 241.107877 
C 62.953707 240.148201 63.492923 238.846418 63.492923 237.489231 
C 63.492923 236.132044 62.953707 234.830261 61.994031 233.870585 
C 61.034355 232.910908 59.732572 232.371692 58.375385 232.371692 
C 57.018198 232.371692 55.716415 232.910908 54.756738 233.870585 
C 53.797062 234.830261 53.257846 236.132044 53.257846 237.489231 
C 53.257846 238.846418 53.797062 240.148201 54.756738 241.107877 
C 55.716415 242.067553 57.018198 242.606769 58.375385 242.606769 
z
" clip-path="url(#p37b496a97d)" style="fill: #ff7e79; stroke: #ff7e79; stroke-linejoin: miter"/>
   </g>
   <g id="patch_14">
    <path d="M 58.375385 268.194462 
C 59.732572 268.194462 61.034355 267.655245 61.994031 266.695569 
C 62.953707 265.735893 63.492923 264.43411 63.492923 263.076923 
C 63.492923 261.719736 62.953707 260.417953 61.994031 259.458277 
C 61.034355 258.498601 59.732572 257.959385 58.375385 257.959385 
C 57.018198 257.959385 55.716415 258.498601 54.756738 259.458277 
C 53.797062 260.417953 53.257846 261.719736 53.257846 263.076923 
C 53.257846 264.43411 53.797062 265.735893 54.756738 266.695569 
C 55.716415 267.655245 57.018198 268.194462 58.375385 268.194462 
z
" clip-path="url(#p37b496a97d)" style="fill: #ff7e79; stroke: #ff7e79; stroke-linejoin: miter"/>
   </g>
   <g id="patch_15">
    <path d="M 58.375385 293.782154 
C 59.732572 293.782154 61.034355 293.242938 61.994031 292.283262 
C 62.953707 291.323585 63.492923 290.021802 63.492923 288.664615 
C 63.492923 287.307428 62.953707 286.005645 61.994031 285.045969 
C 61.034355 284.086293 59.732572 283.547077 58.375385 283.547077 
C 57.018198 283.547077 55.716415 284.086293 54.756738 285.045969 
C 53.797062 286.005645 53.257846 287.307428 53.257846 288.664615 
C 53.257846 290.021802 53.797062 291.323585 54.756738 292.283262 
C 55.716415 293.242938 57.018198 293.782154 58.375385 293.782154 
z
" clip-path="url(#p37b496a97d)" style="fill: #ff7e79; stroke: #ff7e79; stroke-linejoin: miter"/>
   </g>
   <g id="patch_16">
    <path d="M 71.169231 37.905231 
C 72.526418 37.905231 73.828201 37.366015 74.787877 36.406338 
C 75.747553 35.446662 76.286769 34.144879 76.286769 32.787692 
C 76.286769 31.430505 75.747553 30.128722 74.787877 29.169046 
C 73.828201 28.20937 72.526418 27.670154 71.169231 27.670154 
C 69.812044 27.670154 68.510261 28.20937 67.550585 29.169046 
C 66.590908 30.128722 66.051692 31.430505 66.051692 32.787692 
C 66.051692 34.144879 66.590908 35.446662 67.550585 36.406338 
C 68.510261 37.366015 69.812044 37.905231 71.169231 37.905231 
z
" clip-path="url(#p37b496a97d)" style="fill: #08306b; stroke: #08306b; stroke-linejoin: miter"/>
   </g>
   <g id="patch_17">
    <path d="M 71.169231 63.492923 
C 72.526418 63.492923 73.828201 62.953707 74.787877 61.994031 
C 75.747553 61.034355 76.286769 59.732572 76.286769 58.375385 
C 76.286769 57.018198 75.747553 55.716415 74.787877 54.756738 
C 73.828201 53.797062 72.526418 53.257846 71.169231 53.257846 
C 69.812044 53.257846 68.510261 53.797062 67.550585 54.756738 
C 66.590908 55.716415 66.051692 57.018198 66.051692 58.375385 
C 66.051692 59.732572 66.590908 61.034355 67.550585 61.994031 
C 68.510261 62.953707 69.812044 63.492923 71.169231 63.492923 
z
" clip-path="url(#p37b496a97d)" style="fill: #2070b4; stroke: #2070b4; stroke-linejoin: miter"/>
   </g>
   <g id="patch_18">
    <path d="M 71.169231 89.080615 
C 72.526418 89.080615 73.828201 88.541399 74.787877 87.581723 
C 75.747553 86.622047 76.286769 85.320264 76.286769 83.963077 
C 76.286769 82.60589 75.747553 81.304107 74.787877 80.344431 
C 73.828201 79.384755 72.526418 78.845538 71.169231 78.845538 
C 69.812044 78.845538 68.510261 79.384755 67.550585 80.344431 
C 66.590908 81.304107 66.051692 82.60589 66.051692 83.963077 
C 66.051692 85.320264 66.590908 86.622047 67.550585 87.581723 
C 68.510261 88.541399 69.812044 89.080615 71.169231 89.080615 
z
" clip-path="url(#p37b496a97d)" style="fill: #6aaed6; stroke: #6aaed6; stroke-linejoin: miter"/>
   </g>
   <g id="patch_19">
    <path d="M 71.169231 114.668308 
C 72.526418 114.668308 73.828201 114.129092 74.787877 113.169415 
C 75.747553 112.209739 76.286769 110.907956 76.286769 109.550769 
C 76.286769 108.193582 75.747553 106.891799 74.787877 105.932123 
C 73.828201 104.972447 72.526418 104.433231 71.169231 104.433231 
C 69.812044 104.433231 68.510261 104.972447 67.550585 105.932123 
C 66.590908 106.891799 66.051692 108.193582 66.051692 109.550769 
C 66.051692 110.907956 66.590908 112.209739 67.550585 113.169415 
C 68.510261 114.129092 69.812044 114.668308 71.169231 114.668308 
z
" clip-path="url(#p37b496a97d)" style="fill: #c6dbef; stroke: #c6dbef; stroke-linejoin: miter"/>
   </g>
   <g id="patch_20">
    <path d="M 83.963077 114.668308 
C 85.320264 114.668308 86.622047 114.129092 87.581723 113.169415 
C 88.541399 112.209739 89.080615 110.907956 89.080615 109.550769 
C 89.080615 108.193582 88.541399 106.891799 87.581723 105.932123 
C 86.622047 104.972447 85.320264 104.433231 83.963077 104.433231 
C 82.60589 104.433231 81.304107 104.972447 80.344431 105.932123 
C 79.384755 106.891799 78.845538 108.193582 78.845538 109.550769 
C 78.845538 110.907956 79.384755 112.209739 80.344431 113.169415 
C 81.304107 114.129092 82.60589 114.668308 83.963077 114.668308 
z
" clip-path="url(#p37b496a97d)" style="fill: #08306b; stroke: #08306b; stroke-linejoin: miter"/>
   </g>
   <g id="patch_21">
    <path d="M 83.963077 140.256 
C 85.320264 140.256 86.622047 139.716784 87.581723 138.757108 
C 88.541399 137.797432 89.080615 136.495649 89.080615 135.138462 
C 89.080615 133.781274 88.541399 132.479492 87.581723 131.519815 
C 86.622047 130.560139 85.320264 130.020923 83.963077 130.020923 
C 82.60589 130.020923 81.304107 130.560139 80.344431 131.519815 
C 79.384755 132.479492 78.845538 133.781274 78.845538 135.138462 
C 78.845538 136.495649 79.384755 137.797432 80.344431 138.757108 
C 81.304107 139.716784 82.60589 140.256 83.963077 140.256 
z
" clip-path="url(#p37b496a97d)" style="fill: #2070b4; stroke: #2070b4; stroke-linejoin: miter"/>
   </g>
   <g id="patch_22">
    <path d="M 83.963077 165.843692 
C 85.320264 165.843692 86.622047 165.304476 87.581723 164.3448 
C 88.541399 163.385124 89.080615 162.083341 89.080615 160.726154 
C 89.080615 159.368967 88.541399 158.067184 87.581723 157.107508 
C 86.622047 156.147832 85.320264 155.608615 83.963077 155.608615 
C 82.60589 155.608615 81.304107 156.147832 80.344431 157.107508 
C 79.384755 158.067184 78.845538 159.368967 78.845538 160.726154 
C 78.845538 162.083341 79.384755 163.385124 80.344431 164.3448 
C 81.304107 165.304476 82.60589 165.843692 83.963077 165.843692 
z
" clip-path="url(#p37b496a97d)" style="fill: #6aaed6; stroke: #6aaed6; stroke-linejoin: miter"/>
   </g>
   <g id="patch_23">
    <path d="M 83.963077 191.431385 
C 85.320264 191.431385 86.622047 190.892168 87.581723 189.932492 
C 88.541399 188.972816 89.080615 187.671033 89.080615 186.313846 
C 89.080615 184.956659 88.541399 183.654876 87.581723 182.6952 
C 86.622047 181.735524 85.320264 181.196308 83.963077 181.196308 
C 82.60589 181.196308 81.304107 181.735524 80.344431 182.6952 
C 79.384755 183.654876 78.845538 184.956659 78.845538 186.313846 
C 78.845538 187.671033 79.384755 188.972816 80.344431 189.932492 
C 81.304107 190.892168 82.60589 191.431385 83.963077 191.431385 
z
" clip-path="url(#p37b496a97d)" style="fill: #c6dbef; stroke: #c6dbef; stroke-linejoin: miter"/>
   </g>
   <g id="patch_24">
    <path d="M 109.550769 242.606769 
C 110.907956 242.606769 112.209739 242.067553 113.169415 241.107877 
C 114.129092 240.148201 114.668308 238.846418 114.668308 237.489231 
C 114.668308 236.132044 114.129092 234.830261 113.169415 233.870585 
C 112.209739 232.910908 110.907956 232.371692 109.550769 232.371692 
C 108.193582 232.371692 106.891799 232.910908 105.932123 233.870585 
C 104.972447 234.830261 104.433231 236.132044 104.433231 237.489231 
C 104.433231 238.846418 104.972447 240.148201 105.932123 241.107877 
C 106.891799 242.067553 108.193582 242.606769 109.550769 242.606769 
z
" clip-path="url(#p37b496a97d)" style="fill: #008000; stroke: #008000; stroke-linejoin: miter"/>
   </g>
   <g id="patch_25">
    <path d="M 109.550769 268.194462 
C 110.907956 268.194462 112.209739 267.655245 113.169415 266.695569 
C 114.129092 265.735893 114.668308 264.43411 114.668308 263.076923 
C 114.668308 261.719736 114.129092 260.417953 113.169415 259.458277 
C 112.209739 258.498601 110.907956 257.959385 109.550769 257.959385 
C 108.193582 257.959385 106.891799 258.498601 105.932123 259.458277 
C 104.972447 260.417953 104.433231 261.719736 104.433231 263.076923 
C 104.433231 264.43411 104.972447 265.735893 105.932123 266.695569 
C 106.891799 267.655245 108.193582 268.194462 109.550769 268.194462 
z
" clip-path="url(#p37b496a97d)" style="fill: #008000; stroke: #008000; stroke-linejoin: miter"/>
   </g>
   <g id="patch_26">
    <path d="M 109.550769 293.782154 
C 110.907956 293.782154 112.209739 293.242938 113.169415 292.283262 
C 114.129092 291.323585 114.668308 290.021802 114.668308 288.664615 
C 114.668308 287.307428 114.129092 286.005645 113.169415 285.045969 
C 112.209739 284.086293 110.907956 283.547077 109.550769 283.547077 
C 108.193582 283.547077 106.891799 284.086293 105.932123 285.045969 
C 104.972447 286.005645 104.433231 287.307428 104.433231 288.664615 
C 104.433231 290.021802 104.972447 291.323585 105.932123 292.283262 
C 106.891799 293.242938 108.193582 293.782154 109.550769 293.782154 
z
" clip-path="url(#p37b496a97d)" style="fill: #008000; stroke: #008000; stroke-linejoin: miter"/>
   </g>
   <g id="patch_27">
    <path d="M 122.344615 217.019077 
C 123.701802 217.019077 125.003585 216.479861 125.963262 215.520185 
C 126.922938 214.560508 127.462154 213.258726 127.462154 211.901538 
C 127.462154 210.544351 126.922938 209.242568 125.963262 208.282892 
C 125.003585 207.323216 123.701802 206.784 122.344615 206.784 
C 120.987428 206.784 119.685645 207.323216 118.725969 208.282892 
C 117.766293 209.242568 117.227077 210.544351 117.227077 211.901538 
C 117.227077 213.258726 117.766293 214.560508 118.725969 215.520185 
C 119.685645 216.479861 120.987428 217.019077 122.344615 217.019077 
z
" clip-path="url(#p37b496a97d)" style="fill: #08306b; stroke: #08306b; stroke-linejoin: miter"/>
   </g>
   <g id="patch_28">
    <path d="M 122.344615 242.606769 
C 123.701802 242.606769 125.003585 242.067553 125.963262 241.107877 
C 126.922938 240.148201 127.462154 238.846418 127.462154 237.489231 
C 127.462154 236.132044 126.922938 234.830261 125.963262 233.870585 
C 125.003585 232.910908 123.701802 232.371692 122.344615 232.371692 
C 120.987428 232.371692 119.685645 232.910908 118.725969 233.870585 
C 117.766293 234.830261 117.227077 236.132044 117.227077 237.489231 
C 117.227077 238.846418 117.766293 240.148201 118.725969 241.107877 
C 119.685645 242.067553 120.987428 242.606769 122.344615 242.606769 
z
" clip-path="url(#p37b496a97d)" style="fill: #3787c0; stroke: #3787c0; stroke-linejoin: miter"/>
   </g>
   <g id="patch_29">
    <path d="M 122.344615 268.194462 
C 123.701802 268.194462 125.003585 267.655245 125.963262 266.695569 
C 126.922938 265.735893 127.462154 264.43411 127.462154 263.076923 
C 127.462154 261.719736 126.922938 260.417953 125.963262 259.458277 
C 125.003585 258.498601 123.701802 257.959385 122.344615 257.959385 
C 120.987428 257.959385 119.685645 258.498601 118.725969 259.458277 
C 117.766293 260.417953 117.227077 261.719736 117.227077 263.076923 
C 117.227077 264.43411 117.766293 265.735893 118.725969 266.695569 
C 119.685645 267.655245 120.987428 268.194462 122.344615 268.194462 
z
" clip-path="url(#p37b496a97d)" style="fill: #abd0e6; stroke: #abd0e6; stroke-linejoin: miter"/>
   </g>
   <g id="patch_30">
    <path d="M 147.932308 191.431385 
C 149.289495 191.431385 150.591278 190.892168 151.550954 189.932492 
C 152.51063 188.972816 153.049846 187.671033 153.049846 186.313846 
C 153.049846 184.956659 152.51063 183.654876 151.550954 182.6952 
C 150.591278 181.735524 149.289495 181.196308 147.932308 181.196308 
C 146.575121 181.196308 145.273338 181.735524 144.313662 182.6952 
C 143.353985 183.654876 142.814769 184.956659 142.814769 186.313846 
C 142.814769 187.671033 143.353985 188.972816 144.313662 189.932492 
C 145.273338 190.892168 146.575121 191.431385 147.932308 191.431385 
z
" clip-path="url(#p37b496a97d)" style="fill: #08306b; stroke: #08306b; stroke-linejoin: miter"/>
   </g>
   <g id="patch_31">
    <path d="M 147.932308 217.019077 
C 149.289495 217.019077 150.591278 216.479861 151.550954 215.520185 
C 152.51063 214.560508 153.049846 213.258726 153.049846 211.901538 
C 153.049846 210.544351 152.51063 209.242568 151.550954 208.282892 
C 150.591278 207.323216 149.289495 206.784 147.932308 206.784 
C 146.575121 206.784 145.273338 207.323216 144.313662 208.282892 
C 143.353985 209.242568 142.814769 210.544351 142.814769 211.901538 
C 142.814769 213.258726 143.353985 214.560508 144.313662 215.520185 
C 145.273338 216.479861 146.575121 217.019077 147.932308 217.019077 
z
" clip-path="url(#p37b496a97d)" style="fill: #2070b4; stroke: #2070b4; stroke-linejoin: miter"/>
   </g>
   <g id="patch_32">
    <path d="M 147.932308 242.606769 
C 149.289495 242.606769 150.591278 242.067553 151.550954 241.107877 
C 152.51063 240.148201 153.049846 238.846418 153.049846 237.489231 
C 153.049846 236.132044 152.51063 234.830261 151.550954 233.870585 
C 150.591278 232.910908 149.289495 232.371692 147.932308 232.371692 
C 146.575121 232.371692 145.273338 232.910908 144.313662 233.870585 
C 143.353985 234.830261 142.814769 236.132044 142.814769 237.489231 
C 142.814769 238.846418 143.353985 240.148201 144.313662 241.107877 
C 145.273338 242.067553 146.575121 242.606769 147.932308 242.606769 
z
" clip-path="url(#p37b496a97d)" style="fill: #6aaed6; stroke: #6aaed6; stroke-linejoin: miter"/>
   </g>
   <g id="patch_33">
    <path d="M 147.932308 268.194462 
C 149.289495 268.194462 150.591278 267.655245 151.550954 266.695569 
C 152.51063 265.735893 153.049846 264.43411 153.049846 263.076923 
C 153.049846 261.719736 152.51063 260.417953 151.550954 259.458277 
C 150.591278 258.498601 149.289495 257.959385 147.932308 257.959385 
C 146.575121 257.959385 145.273338 258.498601 144.313662 259.458277 
C 143.353985 260.417953 142.814769 261.719736 142.814769 263.076923 
C 142.814769 264.43411 143.353985 265.735893 144.313662 266.695569 
C 145.273338 267.655245 146.575121 268.194462 147.932308 268.194462 
z
" clip-path="url(#p37b496a97d)" style="fill: #c6dbef; stroke: #c6dbef; stroke-linejoin: miter"/>
   </g>
   <g id="patch_34">
    <path d="M 160.726154 114.668308 
C 162.083341 114.668308 163.385124 114.129092 164.3448 113.169415 
C 165.304476 112.209739 165.843692 110.907956 165.843692 109.550769 
C 165.843692 108.193582 165.304476 106.891799 164.3448 105.932123 
C 163.385124 104.972447 162.083341 104.433231 160.726154 104.433231 
C 159.368967 104.433231 158.067184 104.972447 157.107508 105.932123 
C 156.147832 106.891799 155.608615 108.193582 155.608615 109.550769 
C 155.608615 110.907956 156.147832 112.209739 157.107508 113.169415 
C 158.067184 114.129092 159.368967 114.668308 160.726154 114.668308 
z
" clip-path="url(#p37b496a97d)" style="fill: #08306b; stroke: #08306b; stroke-linejoin: miter"/>
   </g>
   <g id="patch_35">
    <path d="M 160.726154 140.256 
C 162.083341 140.256 163.385124 139.716784 164.3448 138.757108 
C 165.304476 137.797432 165.843692 136.495649 165.843692 135.138462 
C 165.843692 133.781274 165.304476 132.479492 164.3448 131.519815 
C 163.385124 130.560139 162.083341 130.020923 160.726154 130.020923 
C 159.368967 130.020923 158.067184 130.560139 157.107508 131.519815 
C 156.147832 132.479492 155.608615 133.781274 155.608615 135.138462 
C 155.608615 136.495649 156.147832 137.797432 157.107508 138.757108 
C 158.067184 139.716784 159.368967 140.256 160.726154 140.256 
z
" clip-path="url(#p37b496a97d)" style="fill: #2070b4; stroke: #2070b4; stroke-linejoin: miter"/>
   </g>
   <g id="patch_36">
    <path d="M 160.726154 165.843692 
C 162.083341 165.843692 163.385124 165.304476 164.3448 164.3448 
C 165.304476 163.385124 165.843692 162.083341 165.843692 160.726154 
C 165.843692 159.368967 165.304476 158.067184 164.3448 157.107508 
C 163.385124 156.147832 162.083341 155.608615 160.726154 155.608615 
C 159.368967 155.608615 158.067184 156.147832 157.107508 157.107508 
C 156.147832 158.067184 155.608615 159.368967 155.608615 160.726154 
C 155.608615 162.083341 156.147832 163.385124 157.107508 164.3448 
C 158.067184 165.304476 159.368967 165.843692 160.726154 165.843692 
z
" clip-path="url(#p37b496a97d)" style="fill: #6aaed6; stroke: #6aaed6; stroke-linejoin: miter"/>
   </g>
   <g id="patch_37">
    <path d="M 160.726154 191.431385 
C 162.083341 191.431385 163.385124 190.892168 164.3448 189.932492 
C 165.304476 188.972816 165.843692 187.671033 165.843692 186.313846 
C 165.843692 184.956659 165.304476 183.654876 164.3448 182.6952 
C 163.385124 181.735524 162.083341 181.196308 160.726154 181.196308 
C 159.368967 181.196308 158.067184 181.735524 157.107508 182.6952 
C 156.147832 183.654876 155.608615 184.956659 155.608615 186.313846 
C 155.608615 187.671033 156.147832 188.972816 157.107508 189.932492 
C 158.067184 190.892168 159.368967 191.431385 160.726154 191.431385 
z
" clip-path="url(#p37b496a97d)" style="fill: #c6dbef; stroke: #c6dbef; stroke-linejoin: miter"/>
   </g>
   <g id="patch_38">
    <path d="M 173.52 37.905231 
C 174.877187 37.905231 176.17897 37.366015 177.138646 36.406338 
C 178.098322 35.446662 178.637538 34.144879 178.637538 32.787692 
C 178.637538 31.430505 178.098322 30.128722 177.138646 29.169046 
C 176.17897 28.20937 174.877187 27.670154 173.52 27.670154 
C 172.162813 27.670154 170.86103 28.20937 169.901354 29.169046 
C 168.941678 30.128722 168.402462 31.430505 168.402462 32.787692 
C 168.402462 34.144879 168.941678 35.446662 169.901354 36.406338 
C 170.86103 37.366015 172.162813 37.905231 173.52 37.905231 
z
" clip-path="url(#p37b496a97d)" style="fill: #08306b; stroke: #08306b; stroke-linejoin: miter"/>
   </g>
   <g id="patch_39">
    <path d="M 173.52 63.492923 
C 174.877187 63.492923 176.17897 62.953707 177.138646 61.994031 
C 178.098322 61.034355 178.637538 59.732572 178.637538 58.375385 
C 178.637538 57.018198 178.098322 55.716415 177.138646 54.756738 
C 176.17897 53.797062 174.877187 53.257846 173.52 53.257846 
C 172.162813 53.257846 170.86103 53.797062 169.901354 54.756738 
C 168.941678 55.716415 168.402462 57.018198 168.402462 58.375385 
C 168.402462 59.732572 168.941678 61.034355 169.901354 61.994031 
C 170.86103 62.953707 172.162813 63.492923 173.52 63.492923 
z
" clip-path="url(#p37b496a97d)" style="fill: #2070b4; stroke: #2070b4; stroke-linejoin: miter"/>
   </g>
   <g id="patch_40">
    <path d="M 173.52 89.080615 
C 174.877187 89.080615 176.17897 88.541399 177.138646 87.581723 
C 178.098322 86.622047 178.637538 85.320264 178.637538 83.963077 
C 178.637538 82.60589 178.098322 81.304107 177.138646 80.344431 
C 176.17897 79.384755 174.877187 78.845538 173.52 78.845538 
C 172.162813 78.845538 170.86103 79.384755 169.901354 80.344431 
C 168.941678 81.304107 168.402462 82.60589 168.402462 83.963077 
C 168.402462 85.320264 168.941678 86.622047 169.901354 87.581723 
C 170.86103 88.541399 172.162813 89.080615 173.52 89.080615 
z
" clip-path="url(#p37b496a97d)" style="fill: #6aaed6; stroke: #6aaed6; stroke-linejoin: miter"/>
   </g>
   <g id="patch_41">
    <path d="M 173.52 114.668308 
C 174.877187 114.668308 176.17897 114.129092 177.138646 113.169415 
C 178.098322 112.209739 178.637538 110.907956 178.637538 109.550769 
C 178.637538 108.193582 178.098322 106.891799 177.138646 105.932123 
C 176.17897 104.972447 174.877187 104.433231 173.52 104.433231 
C 172.162813 104.433231 170.86103 104.972447 169.901354 105.932123 
C 168.941678 106.891799 168.402462 108.193582 168.402462 109.550769 
C 168.402462 110.907956 168.941678 112.209739 169.901354 113.169415 
C 170.86103 114.129092 172.162813 114.668308 173.52 114.668308 
z
" clip-path="url(#p37b496a97d)" style="fill: #c6dbef; stroke: #c6dbef; stroke-linejoin: miter"/>
   </g>
   <g id="text_1">
    <!-- 0 -->
    <g transform="translate(29.606442 35.547067) scale(0.1 -0.1)">
     <defs>
      <path id="DejaVuSans-30" d="M 2034 4250 
Q 1547 4250 1301 3770 
Q 1056 3291 1056 2328 
Q 1056 1369 1301 889 
Q 1547 409 2034 409 
Q 2525 409 2770 889 
Q 3016 1369 3016 2328 
Q 3016 3291 2770 3770 
Q 2525 4250 2034 4250 
z
M 2034 4750 
Q 2819 4750 3233 4129 
Q 3647 3509 3647 2328 
Q 3647 1150 3233 529 
Q 2819 -91 2034 -91 
Q 1250 -91 836 529 
Q 422 1150 422 2328 
Q 422 3509 836 4129 
Q 1250 4750 2034 4750 
z
" transform="scale(0.015625)"/>
     </defs>
     <use xlink:href="#DejaVuSans-30"/>
    </g>
   </g>
   <g id="text_2">
    <!-- 1 -->
    <g transform="translate(29.606442 61.13476) scale(0.1 -0.1)">
     <defs>
      <path id="DejaVuSans-31" d="M 794 531 
L 1825 531 
L 1825 4091 
L 703 3866 
L 703 4441 
L 1819 4666 
L 2450 4666 
L 2450 531 
L 3481 531 
L 3481 0 
L 794 0 
L 794 531 
z
" transform="scale(0.015625)"/>
     </defs>
     <use xlink:href="#DejaVuSans-31"/>
    </g>
   </g>
   <g id="text_3">
    <!-- 2 -->
    <g transform="translate(29.606442 86.722452) scale(0.1 -0.1)">
     <defs>
      <path id="DejaVuSans-32" d="M 1228 531 
L 3431 531 
L 3431 0 
L 469 0 
L 469 531 
Q 828 903 1448 1529 
Q 2069 2156 2228 2338 
Q 2531 2678 2651 2914 
Q 2772 3150 2772 3378 
Q 2772 3750 2511 3984 
Q 2250 4219 1831 4219 
Q 1534 4219 1204 4116 
Q 875 4013 500 3803 
L 500 4441 
Q 881 4594 1212 4672 
Q 1544 4750 1819 4750 
Q 2544 4750 2975 4387 
Q 3406 4025 3406 3419 
Q 3406 3131 3298 2873 
Q 3191 2616 2906 2266 
Q 2828 2175 2409 1742 
Q 1991 1309 1228 531 
z
" transform="scale(0.015625)"/>
     </defs>
     <use xlink:href="#DejaVuSans-32"/>
    </g>
   </g>
   <g id="text_4">
    <!-- 3 -->
    <g transform="translate(29.606442 112.310144) scale(0.1 -0.1)">
     <defs>
      <path id="DejaVuSans-33" d="M 2597 2516 
Q 3050 2419 3304 2112 
Q 3559 1806 3559 1356 
Q 3559 666 3084 287 
Q 2609 -91 1734 -91 
Q 1441 -91 1130 -33 
Q 819 25 488 141 
L 488 750 
Q 750 597 1062 519 
Q 1375 441 1716 441 
Q 2309 441 2620 675 
Q 2931 909 2931 1356 
Q 2931 1769 2642 2001 
Q 2353 2234 1838 2234 
L 1294 2234 
L 1294 2753 
L 1863 2753 
Q 2328 2753 2575 2939 
Q 2822 3125 2822 3475 
Q 2822 3834 2567 4026 
Q 2313 4219 1838 4219 
Q 1578 4219 1281 4162 
Q 984 4106 628 3988 
L 628 4550 
Q 988 4650 1302 4700 
Q 1616 4750 1894 4750 
Q 2613 4750 3031 4423 
Q 3450 4097 3450 3541 
Q 3450 3153 3228 2886 
Q 3006 2619 2597 2516 
z
" transform="scale(0.015625)"/>
     </defs>
     <use xlink:href="#DejaVuSans-33"/>
    </g>
   </g>
   <g id="text_5">
    <!-- 4 -->
    <g transform="translate(29.606442 137.897837) scale(0.1 -0.1)">
     <defs>
      <path id="DejaVuSans-34" d="M 2419 4116 
L 825 1625 
L 2419 1625 
L 2419 4116 
z
M 2253 4666 
L 3047 4666 
L 3047 1625 
L 3713 1625 
L 3713 1100 
L 3047 1100 
L 3047 0 
L 2419 0 
L 2419 1100 
L 313 1100 
L 313 1709 
L 2253 4666 
z
" transform="scale(0.015625)"/>
     </defs>
     <use xlink:href="#DejaVuSans-34"/>
    </g>
   </g>
   <g id="text_6">
    <!-- 5 -->
    <g transform="translate(29.606442 163.485529) scale(0.1 -0.1)">
     <defs>
      <path id="DejaVuSans-35" d="M 691 4666 
L 3169 4666 
L 3169 4134 
L 1269 4134 
L 1269 2991 
Q 1406 3038 1543 3061 
Q 1681 3084 1819 3084 
Q 2600 3084 3056 2656 
Q 3513 2228 3513 1497 
Q 3513 744 3044 326 
Q 2575 -91 1722 -91 
Q 1428 -91 1123 -41 
Q 819 9 494 109 
L 494 744 
Q 775 591 1075 516 
Q 1375 441 1709 441 
Q 2250 441 2565 725 
Q 2881 1009 2881 1497 
Q 2881 1984 2565 2268 
Q 2250 2553 1709 2553 
Q 1456 2553 1204 2497 
Q 953 2441 691 2322 
L 691 4666 
z
" transform="scale(0.015625)"/>
     </defs>
     <use xlink:href="#DejaVuSans-35"/>
    </g>
   </g>
   <g id="text_7">
    <!-- 6 -->
    <g transform="translate(29.606442 189.073221) scale(0.1 -0.1)">
     <defs>
      <path id="DejaVuSans-36" d="M 2113 2584 
Q 1688 2584 1439 2293 
Q 1191 2003 1191 1497 
Q 1191 994 1439 701 
Q 1688 409 2113 409 
Q 2538 409 2786 701 
Q 3034 994 3034 1497 
Q 3034 2003 2786 2293 
Q 2538 2584 2113 2584 
z
M 3366 4563 
L 3366 3988 
Q 3128 4100 2886 4159 
Q 2644 4219 2406 4219 
Q 1781 4219 1451 3797 
Q 1122 3375 1075 2522 
Q 1259 2794 1537 2939 
Q 1816 3084 2150 3084 
Q 2853 3084 3261 2657 
Q 3669 2231 3669 1497 
Q 3669 778 3244 343 
Q 2819 -91 2113 -91 
Q 1303 -91 875 529 
Q 447 1150 447 2328 
Q 447 3434 972 4092 
Q 1497 4750 2381 4750 
Q 2619 4750 2861 4703 
Q 3103 4656 3366 4563 
z
" transform="scale(0.015625)"/>
     </defs>
     <use xlink:href="#DejaVuSans-36"/>
    </g>
   </g>
   <g id="text_8">
    <!-- 7 -->
    <g transform="translate(29.606442 214.660913) scale(0.1 -0.1)">
     <defs>
      <path id="DejaVuSans-37" d="M 525 4666 
L 3525 4666 
L 3525 4397 
L 1831 0 
L 1172 0 
L 2766 4134 
L 525 4134 
L 525 4666 
z
" transform="scale(0.015625)"/>
     </defs>
     <use xlink:href="#DejaVuSans-37"/>
    </g>
   </g>
   <g id="text_9">
    <!-- 8 -->
    <g transform="translate(29.606442 240.248606) scale(0.1 -0.1)">
     <defs>
      <path id="DejaVuSans-38" d="M 2034 2216 
Q 1584 2216 1326 1975 
Q 1069 1734 1069 1313 
Q 1069 891 1326 650 
Q 1584 409 2034 409 
Q 2484 409 2743 651 
Q 3003 894 3003 1313 
Q 3003 1734 2745 1975 
Q 2488 2216 2034 2216 
z
M 1403 2484 
Q 997 2584 770 2862 
Q 544 3141 544 3541 
Q 544 4100 942 4425 
Q 1341 4750 2034 4750 
Q 2731 4750 3128 4425 
Q 3525 4100 3525 3541 
Q 3525 3141 3298 2862 
Q 3072 2584 2669 2484 
Q 3125 2378 3379 2068 
Q 3634 1759 3634 1313 
Q 3634 634 3220 271 
Q 2806 -91 2034 -91 
Q 1263 -91 848 271 
Q 434 634 434 1313 
Q 434 1759 690 2068 
Q 947 2378 1403 2484 
z
M 1172 3481 
Q 1172 3119 1398 2916 
Q 1625 2713 2034 2713 
Q 2441 2713 2670 2916 
Q 2900 3119 2900 3481 
Q 2900 3844 2670 4047 
Q 2441 4250 2034 4250 
Q 1625 4250 1398 4047 
Q 1172 3844 1172 3481 
z
" transform="scale(0.015625)"/>
     </defs>
     <use xlink:href="#DejaVuSans-38"/>
    </g>
   </g>
   <g id="text_10">
    <!-- 9 -->
    <g transform="translate(29.606442 265.836298) scale(0.1 -0.1)">
     <defs>
      <path id="DejaVuSans-39" d="M 703 97 
L 703 672 
Q 941 559 1184 500 
Q 1428 441 1663 441 
Q 2288 441 2617 861 
Q 2947 1281 2994 2138 
Q 2813 1869 2534 1725 
Q 2256 1581 1919 1581 
Q 1219 1581 811 2004 
Q 403 2428 403 3163 
Q 403 3881 828 4315 
Q 1253 4750 1959 4750 
Q 2769 4750 3195 4129 
Q 3622 3509 3622 2328 
Q 3622 1225 3098 567 
Q 2575 -91 1691 -91 
Q 1453 -91 1209 -44 
Q 966 3 703 97 
z
M 1959 2075 
Q 2384 2075 2632 2365 
Q 2881 2656 2881 3163 
Q 2881 3666 2632 3958 
Q 2384 4250 1959 4250 
Q 1534 4250 1286 3958 
Q 1038 3666 1038 3163 
Q 1038 2656 1286 2365 
Q 1534 2075 1959 2075 
z
" transform="scale(0.015625)"/>
     </defs>
     <use xlink:href="#DejaVuSans-39"/>
    </g>
   </g>
   <g id="text_11">
    <!-- 10 -->
    <g transform="translate(26.425192 291.42399) scale(0.1 -0.1)">
     <use xlink:href="#DejaVuSans-31"/>
     <use xlink:href="#DejaVuSans-30" x="63.623047"/>
    </g>
   </g>
   <g id="text_12">
    <!-- crs -->
    <g transform="translate(66.132211 27.148476) rotate(-30) scale(0.1 -0.1)">
     <defs>
      <path id="DejaVuSans-63" d="M 3122 3366 
L 3122 2828 
Q 2878 2963 2633 3030 
Q 2388 3097 2138 3097 
Q 1578 3097 1268 2742 
Q 959 2388 959 1747 
Q 959 1106 1268 751 
Q 1578 397 2138 397 
Q 2388 397 2633 464 
Q 2878 531 3122 666 
L 3122 134 
Q 2881 22 2623 -34 
Q 2366 -91 2075 -91 
Q 1284 -91 818 406 
Q 353 903 353 1747 
Q 353 2603 823 3093 
Q 1294 3584 2113 3584 
Q 2378 3584 2631 3529 
Q 2884 3475 3122 3366 
z
" transform="scale(0.015625)"/>
      <path id="DejaVuSans-72" d="M 2631 2963 
Q 2534 3019 2420 3045 
Q 2306 3072 2169 3072 
Q 1681 3072 1420 2755 
Q 1159 2438 1159 1844 
L 1159 0 
L 581 0 
L 581 3500 
L 1159 3500 
L 1159 2956 
Q 1341 3275 1631 3429 
Q 1922 3584 2338 3584 
Q 2397 3584 2469 3576 
Q 2541 3569 2628 3553 
L 2631 2963 
z
" transform="scale(0.015625)"/>
      <path id="DejaVuSans-73" d="M 2834 3397 
L 2834 2853 
Q 2591 2978 2328 3040 
Q 2066 3103 1784 3103 
Q 1356 3103 1142 2972 
Q 928 2841 928 2578 
Q 928 2378 1081 2264 
Q 1234 2150 1697 2047 
L 1894 2003 
Q 2506 1872 2764 1633 
Q 3022 1394 3022 966 
Q 3022 478 2636 193 
Q 2250 -91 1575 -91 
Q 1294 -91 989 -36 
Q 684 19 347 128 
L 347 722 
Q 666 556 975 473 
Q 1284 391 1588 391 
Q 1994 391 2212 530 
Q 2431 669 2431 922 
Q 2431 1156 2273 1281 
Q 2116 1406 1581 1522 
L 1381 1569 
Q 847 1681 609 1914 
Q 372 2147 372 2553 
Q 372 3047 722 3315 
Q 1072 3584 1716 3584 
Q 2034 3584 2315 3537 
Q 2597 3491 2834 3397 
z
" transform="scale(0.015625)"/>
     </defs>
     <use xlink:href="#DejaVuSans-63"/>
     <use xlink:href="#DejaVuSans-72" x="54.980469"/>
     <use xlink:href="#DejaVuSans-73" x="96.09375"/>
    </g>
   </g>
   <g id="text_13">
    <!-- crs -->
    <g transform="translate(78.926057 103.911553) rotate(-30) scale(0.1 -0.1)">
     <use xlink:href="#DejaVuSans-63"/>
     <use xlink:href="#DejaVuSans-72" x="54.980469"/>
     <use xlink:href="#DejaVuSans-73" x="96.09375"/>
    </g>
   </g>
   <g id="text_14">
    <!-- cns -->
    <g transform="translate(116.343466 206.262322) rotate(-30) scale(0.1 -0.1)">
     <defs>
      <path id="DejaVuSans-6e" d="M 3513 2113 
L 3513 0 
L 2938 0 
L 2938 2094 
Q 2938 2591 2744 2837 
Q 2550 3084 2163 3084 
Q 1697 3084 1428 2787 
Q 1159 2491 1159 1978 
L 1159 0 
L 581 0 
L 581 3500 
L 1159 3500 
L 1159 2956 
Q 1366 3272 1645 3428 
Q 1925 3584 2291 3584 
Q 2894 3584 3203 3211 
Q 3513 2838 3513 2113 
z
" transform="scale(0.015625)"/>
     </defs>
     <use xlink:href="#DejaVuSans-63"/>
     <use xlink:href="#DejaVuSans-6e" x="54.980469"/>
     <use xlink:href="#DejaVuSans-73" x="118.359375"/>
    </g>
   </g>
   <g id="text_15">
    <!-- cry -->
    <g transform="translate(142.58812 180.67463) rotate(-30) scale(0.1 -0.1)">
     <defs>
      <path id="DejaVuSans-79" d="M 2059 -325 
Q 1816 -950 1584 -1140 
Q 1353 -1331 966 -1331 
L 506 -1331 
L 506 -850 
L 844 -850 
Q 1081 -850 1212 -737 
Q 1344 -625 1503 -206 
L 1606 56 
L 191 3500 
L 800 3500 
L 1894 763 
L 2988 3500 
L 3597 3500 
L 2059 -325 
z
" transform="scale(0.015625)"/>
     </defs>
     <use xlink:href="#DejaVuSans-63"/>
     <use xlink:href="#DejaVuSans-72" x="54.980469"/>
     <use xlink:href="#DejaVuSans-79" x="96.09375"/>
    </g>
   </g>
   <g id="text_16">
    <!-- cry -->
    <g transform="translate(155.381966 103.911553) rotate(-30) scale(0.1 -0.1)">
     <use xlink:href="#DejaVuSans-63"/>
     <use xlink:href="#DejaVuSans-72" x="54.980469"/>
     <use xlink:href="#DejaVuSans-79" x="96.09375"/>
    </g>
   </g>
   <g id="text_17">
    <!-- cry -->
    <g transform="translate(168.175812 27.148476) rotate(-30) scale(0.1 -0.1)">
     <use xlink:href="#DejaVuSans-63"/>
     <use xlink:href="#DejaVuSans-72" x="54.980469"/>
     <use xlink:href="#DejaVuSans-79" x="96.09375"/>
    </g>
   </g>
  </g>
 </g>
 <defs>
  <clipPath id="p37b496a97d">
   <rect x="7.2" y="7.2" width="511.753846" height="332.64"/>
  </clipPath>
 </defs>
</svg>
