<?xml version="1.0" encoding="utf-8" standalone="no"?>
<!DOCTYPE svg PUBLIC "-//W3C//DTD SVG 1.1//EN"
  "http://www.w3.org/Graphics/SVG/1.1/DTD/svg11.dtd">
<svg xmlns:xlink="http://www.w3.org/1999/xlink" width="457.92pt" height="347.04pt" viewBox="0 0 457.92 347.04" xmlns="http://www.w3.org/2000/svg" version="1.1">
 <metadata>
  <rdf:RDF xmlns:dc="http://purl.org/dc/elements/1.1/" xmlns:cc="http://creativecommons.org/ns#" xmlns:rdf="http://www.w3.org/1999/02/22-rdf-syntax-ns#">
   <cc:Work>
    <dc:type rdf:resource="http://purl.org/dc/dcmitype/StillImage"/>
    <dc:date>2023-11-07T20:59:39.593199</dc:date>
    <dc:format>image/svg+xml</dc:format>
    <dc:creator>
     <cc:Agent>
      <dc:title>Matplotlib v3.8.0, https://matplotlib.org/</dc:title>
     </cc:Agent>
    </dc:creator>
   </cc:Work>
  </rdf:RDF>
 </metadata>
 <defs>
  <style type="text/css">*{stroke-linejoin: round; stroke-linecap: butt}</style>
 </defs>
 <g id="figure_1">
  <g id="patch_1">
   <path d="M 0 347.04 
L 457.92 347.04 
L 457.92 -0 
L 0 -0 
L 0 347.04 
z
" style="fill: none"/>
  </g>
  <g id="axes_1">
   <g id="LineCollection_1">
    <path d="M 29.376 29.376 
L 450.72 29.376 
" clip-path="url(#pa9ed132e07)" style="fill: none; stroke: #808080; stroke-width: 1.5"/>
   </g>
   <g id="LineCollection_2">
    <path d="M 29.376 51.552 
L 450.72 51.552 
" clip-path="url(#pa9ed132e07)" style="fill: none; stroke: #808080; stroke-width: 1.5"/>
   </g>
   <g id="LineCollection_3">
    <path d="M 29.376 73.728 
L 450.72 73.728 
" clip-path="url(#pa9ed132e07)" style="fill: none; stroke: #808080; stroke-width: 1.5"/>
   </g>
   <g id="LineCollection_4">
    <path d="M 29.376 95.904 
L 450.72 95.904 
" clip-path="url(#pa9ed132e07)" style="fill: none; stroke: #808080; stroke-width: 1.5"/>
   </g>
   <g id="LineCollection_5">
    <path d="M 29.376 118.08 
L 450.72 118.08 
" clip-path="url(#pa9ed132e07)" style="fill: none; stroke: #808080; stroke-width: 1.5"/>
   </g>
   <g id="LineCollection_6">
    <path d="M 29.376 140.256 
L 450.72 140.256 
" clip-path="url(#pa9ed132e07)" style="fill: none; stroke: #808080; stroke-width: 1.5"/>
   </g>
   <g id="LineCollection_7">
    <path d="M 29.376 162.432 
L 450.72 162.432 
" clip-path="url(#pa9ed132e07)" style="fill: none; stroke: #808080; stroke-width: 1.5"/>
   </g>
   <g id="LineCollection_8">
    <path d="M 29.376 184.608 
L 450.72 184.608 
" clip-path="url(#pa9ed132e07)" style="fill: none; stroke: #808080; stroke-width: 1.5"/>
   </g>
   <g id="LineCollection_9">
    <path d="M 29.376 206.784 
L 450.72 206.784 
" clip-path="url(#pa9ed132e07)" style="fill: none; stroke: #808080; stroke-width: 1.5"/>
   </g>
   <g id="LineCollection_10">
    <path d="M 29.376 228.96 
L 450.72 228.96 
" clip-path="url(#pa9ed132e07)" style="fill: none; stroke: #808080; stroke-width: 1.5"/>
   </g>
   <g id="LineCollection_11">
    <path d="M 29.376 251.136 
L 450.72 251.136 
" clip-path="url(#pa9ed132e07)" style="fill: none; stroke: #808080; stroke-width: 1.5"/>
   </g>
   <g id="LineCollection_12">
    <path d="M 29.376 273.312 
L 450.72 273.312 
" clip-path="url(#pa9ed132e07)" style="fill: none; stroke: #808080; stroke-width: 1.5"/>
   </g>
   <g id="LineCollection_13">
    <path d="M 29.376 295.488 
L 450.72 295.488 
" clip-path="url(#pa9ed132e07)" style="fill: none; stroke: #808080; stroke-width: 1.5"/>
   </g>
   <g id="line2d_1">
    <path d="M 62.64 29.376 
L 62.64 51.552 
" clip-path="url(#pa9ed132e07)" style="fill: none; stroke: #000000; stroke-width: 1.5; stroke-linecap: square"/>
   </g>
   <g id="line2d_2">
    <path d="M 62.64 51.552 
L 62.64 73.728 
" clip-path="url(#pa9ed132e07)" style="fill: none; stroke: #000000; stroke-width: 1.5; stroke-linecap: square"/>
   </g>
   <g id="line2d_3">
    <path d="M 62.64 73.728 
L 62.64 95.904 
" clip-path="url(#pa9ed132e07)" style="fill: none; stroke: #000000; stroke-width: 1.5; stroke-linecap: square"/>
   </g>
   <g id="line2d_4">
    <path d="M 73.728 95.904 
L 73.728 118.08 
" clip-path="url(#pa9ed132e07)" style="fill: none; stroke: #000000; stroke-width: 1.5; stroke-linecap: square"/>
   </g>
   <g id="line2d_5">
    <path d="M 73.728 118.08 
L 73.728 140.256 
" clip-path="url(#pa9ed132e07)" style="fill: none; stroke: #000000; stroke-width: 1.5; stroke-linecap: square"/>
   </g>
   <g id="line2d_6">
    <path d="M 73.728 140.256 
L 73.728 162.432 
" clip-path="url(#pa9ed132e07)" style="fill: none; stroke: #000000; stroke-width: 1.5; stroke-linecap: square"/>
   </g>
   <g id="line2d_7">
    <path d="M 84.816 162.432 
L 84.816 184.608 
" clip-path="url(#pa9ed132e07)" style="fill: none; stroke: #000000; stroke-width: 1.5; stroke-linecap: square"/>
   </g>
   <g id="line2d_8">
    <path d="M 84.816 184.608 
L 84.816 206.784 
" clip-path="url(#pa9ed132e07)" style="fill: none; stroke: #000000; stroke-width: 1.5; stroke-linecap: square"/>
   </g>
   <g id="line2d_9">
    <path d="M 84.816 206.784 
L 84.816 228.96 
" clip-path="url(#pa9ed132e07)" style="fill: none; stroke: #000000; stroke-width: 1.5; stroke-linecap: square"/>
   </g>
   <g id="line2d_10">
    <path d="M 118.08 228.96 
L 118.08 251.136 
" clip-path="url(#pa9ed132e07)" style="fill: none; stroke: #000000; stroke-width: 1.5; stroke-linecap: square"/>
   </g>
   <g id="line2d_11">
    <path d="M 118.08 251.136 
L 118.08 273.312 
" clip-path="url(#pa9ed132e07)" style="fill: none; stroke: #000000; stroke-width: 1.5; stroke-linecap: square"/>
   </g>
   <g id="line2d_12">
    <path d="M 140.256 228.96 
L 140.256 251.136 
" clip-path="url(#pa9ed132e07)" style="fill: none; stroke: #000000; stroke-width: 1.5; stroke-linecap: square"/>
   </g>
   <g id="line2d_13">
    <path d="M 140.256 251.136 
L 140.256 273.312 
" clip-path="url(#pa9ed132e07)" style="fill: none; stroke: #000000; stroke-width: 1.5; stroke-linecap: square"/>
   </g>
   <g id="line2d_14">
    <path d="M 140.256 273.312 
L 140.256 295.488 
" clip-path="url(#pa9ed132e07)" style="fill: none; stroke: #000000; stroke-width: 1.5; stroke-linecap: square"/>
   </g>
   <g id="line2d_15">
    <path d="M 151.344 162.432 
L 151.344 184.608 
" clip-path="url(#pa9ed132e07)" style="fill: none; stroke: #000000; stroke-width: 1.5; stroke-linecap: square"/>
   </g>
   <g id="line2d_16">
    <path d="M 151.344 184.608 
L 151.344 206.784 
" clip-path="url(#pa9ed132e07)" style="fill: none; stroke: #000000; stroke-width: 1.5; stroke-linecap: square"/>
   </g>
   <g id="line2d_17">
    <path d="M 151.344 206.784 
L 151.344 228.96 
" clip-path="url(#pa9ed132e07)" style="fill: none; stroke: #000000; stroke-width: 1.5; stroke-linecap: square"/>
   </g>
   <g id="line2d_18">
    <path d="M 162.432 95.904 
L 162.432 118.08 
" clip-path="url(#pa9ed132e07)" style="fill: none; stroke: #000000; stroke-width: 1.5; stroke-linecap: square"/>
   </g>
   <g id="line2d_19">
    <path d="M 162.432 118.08 
L 162.432 140.256 
" clip-path="url(#pa9ed132e07)" style="fill: none; stroke: #000000; stroke-width: 1.5; stroke-linecap: square"/>
   </g>
   <g id="line2d_20">
    <path d="M 162.432 140.256 
L 162.432 162.432 
" clip-path="url(#pa9ed132e07)" style="fill: none; stroke: #000000; stroke-width: 1.5; stroke-linecap: square"/>
   </g>
   <g id="line2d_21">
    <path d="M 173.52 29.376 
L 173.52 51.552 
" clip-path="url(#pa9ed132e07)" style="fill: none; stroke: #000000; stroke-width: 1.5; stroke-linecap: square"/>
   </g>
   <g id="line2d_22">
    <path d="M 173.52 51.552 
L 173.52 73.728 
" clip-path="url(#pa9ed132e07)" style="fill: none; stroke: #000000; stroke-width: 1.5; stroke-linecap: square"/>
   </g>
   <g id="line2d_23">
    <path d="M 173.52 73.728 
L 173.52 95.904 
" clip-path="url(#pa9ed132e07)" style="fill: none; stroke: #000000; stroke-width: 1.5; stroke-linecap: square"/>
   </g>
   <g id="patch_2">
    <path d="M 29.376 40.464 
C 32.316572 40.464 35.137102 39.295698 37.2164 37.2164 
C 39.295698 35.137102 40.464 32.316572 40.464 29.376 
C 40.464 26.435428 39.295698 23.614898 37.2164 21.5356 
C 35.137102 19.456302 32.316572 18.288 29.376 18.288 
C 26.435428 18.288 23.614898 19.456302 21.5356 21.5356 
C 19.456302 23.614898 18.288 26.435428 18.288 29.376 
C 18.288 32.316572 19.456302 35.137102 21.5356 37.2164 
C 23.614898 39.295698 26.435428 40.464 29.376 40.464 
z
" clip-path="url(#pa9ed132e07)" style="fill: #92a9bd; stroke: #000000; stroke-linejoin: miter"/>
   </g>
   <g id="patch_3">
    <path d="M 29.376 62.64 
C 32.316572 62.64 35.137102 61.471698 37.2164 59.3924 
C 39.295698 57.313102 40.464 54.492572 40.464 51.552 
C 40.464 48.611428 39.295698 45.790898 37.2164 43.7116 
C 35.137102 41.632302 32.316572 40.464 29.376 40.464 
C 26.435428 40.464 23.614898 41.632302 21.5356 43.7116 
C 19.456302 45.790898 18.288 48.611428 18.288 51.552 
C 18.288 54.492572 19.456302 57.313102 21.5356 59.3924 
C 23.614898 61.471698 26.435428 62.64 29.376 62.64 
z
" clip-path="url(#pa9ed132e07)" style="fill: #92a9bd; stroke: #000000; stroke-linejoin: miter"/>
   </g>
   <g id="patch_4">
    <path d="M 29.376 84.816 
C 32.316572 84.816 35.137102 83.647698 37.2164 81.5684 
C 39.295698 79.489102 40.464 76.668572 40.464 73.728 
C 40.464 70.787428 39.295698 67.966898 37.2164 65.8876 
C 35.137102 63.808302 32.316572 62.64 29.376 62.64 
C 26.435428 62.64 23.614898 63.808302 21.5356 65.8876 
C 19.456302 67.966898 18.288 70.787428 18.288 73.728 
C 18.288 76.668572 19.456302 79.489102 21.5356 81.5684 
C 23.614898 83.647698 26.435428 84.816 29.376 84.816 
z
" clip-path="url(#pa9ed132e07)" style="fill: #92a9bd; stroke: #000000; stroke-linejoin: miter"/>
   </g>
   <g id="patch_5">
    <path d="M 29.376 106.992 
C 32.316572 106.992 35.137102 105.823698 37.2164 103.7444 
C 39.295698 101.665102 40.464 98.844572 40.464 95.904 
C 40.464 92.963428 39.295698 90.142898 37.2164 88.0636 
C 35.137102 85.984302 32.316572 84.816 29.376 84.816 
C 26.435428 84.816 23.614898 85.984302 21.5356 88.0636 
C 19.456302 90.142898 18.288 92.963428 18.288 95.904 
C 18.288 98.844572 19.456302 101.665102 21.5356 103.7444 
C 23.614898 105.823698 26.435428 106.992 29.376 106.992 
z
" clip-path="url(#pa9ed132e07)" style="fill: #92a9bd; stroke: #000000; stroke-linejoin: miter"/>
   </g>
   <g id="patch_6">
    <path d="M 29.376 129.168 
C 32.316572 129.168 35.137102 127.999698 37.2164 125.9204 
C 39.295698 123.841102 40.464 121.020572 40.464 118.08 
C 40.464 115.139428 39.295698 112.318898 37.2164 110.2396 
C 35.137102 108.160302 32.316572 106.992 29.376 106.992 
C 26.435428 106.992 23.614898 108.160302 21.5356 110.2396 
C 19.456302 112.318898 18.288 115.139428 18.288 118.08 
C 18.288 121.020572 19.456302 123.841102 21.5356 125.9204 
C 23.614898 127.999698 26.435428 129.168 29.376 129.168 
z
" clip-path="url(#pa9ed132e07)" style="fill: #92a9bd; stroke: #000000; stroke-linejoin: miter"/>
   </g>
   <g id="patch_7">
    <path d="M 29.376 151.344 
C 32.316572 151.344 35.137102 150.175698 37.2164 148.0964 
C 39.295698 146.017102 40.464 143.196572 40.464 140.256 
C 40.464 137.315428 39.295698 134.494898 37.2164 132.4156 
C 35.137102 130.336302 32.316572 129.168 29.376 129.168 
C 26.435428 129.168 23.614898 130.336302 21.5356 132.4156 
C 19.456302 134.494898 18.288 137.315428 18.288 140.256 
C 18.288 143.196572 19.456302 146.017102 21.5356 148.0964 
C 23.614898 150.175698 26.435428 151.344 29.376 151.344 
z
" clip-path="url(#pa9ed132e07)" style="fill: #92a9bd; stroke: #000000; stroke-linejoin: miter"/>
   </g>
   <g id="patch_8">
    <path d="M 29.376 173.52 
C 32.316572 173.52 35.137102 172.351698 37.2164 170.2724 
C 39.295698 168.193102 40.464 165.372572 40.464 162.432 
C 40.464 159.491428 39.295698 156.670898 37.2164 154.5916 
C 35.137102 152.512302 32.316572 151.344 29.376 151.344 
C 26.435428 151.344 23.614898 152.512302 21.5356 154.5916 
C 19.456302 156.670898 18.288 159.491428 18.288 162.432 
C 18.288 165.372572 19.456302 168.193102 21.5356 170.2724 
C 23.614898 172.351698 26.435428 173.52 29.376 173.52 
z
" clip-path="url(#pa9ed132e07)" style="fill: #92a9bd; stroke: #000000; stroke-linejoin: miter"/>
   </g>
   <g id="patch_9">
    <path d="M 29.376 195.696 
C 32.316572 195.696 35.137102 194.527698 37.2164 192.4484 
C 39.295698 190.369102 40.464 187.548572 40.464 184.608 
C 40.464 181.667428 39.295698 178.846898 37.2164 176.7676 
C 35.137102 174.688302 32.316572 173.52 29.376 173.52 
C 26.435428 173.52 23.614898 174.688302 21.5356 176.7676 
C 19.456302 178.846898 18.288 181.667428 18.288 184.608 
C 18.288 187.548572 19.456302 190.369102 21.5356 192.4484 
C 23.614898 194.527698 26.435428 195.696 29.376 195.696 
z
" clip-path="url(#pa9ed132e07)" style="fill: #92a9bd; stroke: #000000; stroke-linejoin: miter"/>
   </g>
   <g id="patch_10">
    <path d="M 29.376 217.872 
C 32.316572 217.872 35.137102 216.703698 37.2164 214.6244 
C 39.295698 212.545102 40.464 209.724572 40.464 206.784 
C 40.464 203.843428 39.295698 201.022898 37.2164 198.9436 
C 35.137102 196.864302 32.316572 195.696 29.376 195.696 
C 26.435428 195.696 23.614898 196.864302 21.5356 198.9436 
C 19.456302 201.022898 18.288 203.843428 18.288 206.784 
C 18.288 209.724572 19.456302 212.545102 21.5356 214.6244 
C 23.614898 216.703698 26.435428 217.872 29.376 217.872 
z
" clip-path="url(#pa9ed132e07)" style="fill: #92a9bd; stroke: #000000; stroke-linejoin: miter"/>
   </g>
   <g id="patch_11">
    <path d="M 29.376 240.048 
C 32.316572 240.048 35.137102 238.879698 37.2164 236.8004 
C 39.295698 234.721102 40.464 231.900572 40.464 228.96 
C 40.464 226.019428 39.295698 223.198898 37.2164 221.1196 
C 35.137102 219.040302 32.316572 217.872 29.376 217.872 
C 26.435428 217.872 23.614898 219.040302 21.5356 221.1196 
C 19.456302 223.198898 18.288 226.019428 18.288 228.96 
C 18.288 231.900572 19.456302 234.721102 21.5356 236.8004 
C 23.614898 238.879698 26.435428 240.048 29.376 240.048 
z
" clip-path="url(#pa9ed132e07)" style="fill: #92a9bd; stroke: #000000; stroke-linejoin: miter"/>
   </g>
   <g id="patch_12">
    <path d="M 29.376 262.224 
C 32.316572 262.224 35.137102 261.055698 37.2164 258.9764 
C 39.295698 256.897102 40.464 254.076572 40.464 251.136 
C 40.464 248.195428 39.295698 245.374898 37.2164 243.2956 
C 35.137102 241.216302 32.316572 240.048 29.376 240.048 
C 26.435428 240.048 23.614898 241.216302 21.5356 243.2956 
C 19.456302 245.374898 18.288 248.195428 18.288 251.136 
C 18.288 254.076572 19.456302 256.897102 21.5356 258.9764 
C 23.614898 261.055698 26.435428 262.224 29.376 262.224 
z
" clip-path="url(#pa9ed132e07)" style="fill: #92a9bd; stroke: #000000; stroke-linejoin: miter"/>
   </g>
   <g id="patch_13">
    <path d="M 29.376 284.4 
C 32.316572 284.4 35.137102 283.231698 37.2164 281.1524 
C 39.295698 279.073102 40.464 276.252572 40.464 273.312 
C 40.464 270.371428 39.295698 267.550898 37.2164 265.4716 
C 35.137102 263.392302 32.316572 262.224 29.376 262.224 
C 26.435428 262.224 23.614898 263.392302 21.5356 265.4716 
C 19.456302 267.550898 18.288 270.371428 18.288 273.312 
C 18.288 276.252572 19.456302 279.073102 21.5356 281.1524 
C 23.614898 283.231698 26.435428 284.4 29.376 284.4 
z
" clip-path="url(#pa9ed132e07)" style="fill: #92a9bd; stroke: #000000; stroke-linejoin: miter"/>
   </g>
   <g id="patch_14">
    <path d="M 29.376 306.576 
C 32.316572 306.576 35.137102 305.407698 37.2164 303.3284 
C 39.295698 301.249102 40.464 298.428572 40.464 295.488 
C 40.464 292.547428 39.295698 289.726898 37.2164 287.6476 
C 35.137102 285.568302 32.316572 284.4 29.376 284.4 
C 26.435428 284.4 23.614898 285.568302 21.5356 287.6476 
C 19.456302 289.726898 18.288 292.547428 18.288 295.488 
C 18.288 298.428572 19.456302 301.249102 21.5356 303.3284 
C 23.614898 305.407698 26.435428 306.576 29.376 306.576 
z
" clip-path="url(#pa9ed132e07)" style="fill: #92a9bd; stroke: #000000; stroke-linejoin: miter"/>
   </g>
   <g id="patch_15">
    <path d="M 51.552 255.5712 
C 52.728229 255.5712 53.856441 255.103879 54.68816 254.27216 
C 55.519879 253.440441 55.9872 252.312229 55.9872 251.136 
C 55.9872 249.959771 55.519879 248.831559 54.68816 247.99984 
C 53.856441 247.168121 52.728229 246.7008 51.552 246.7008 
C 50.375771 246.7008 49.247559 247.168121 48.41584 247.99984 
C 47.584121 248.831559 47.1168 249.959771 47.1168 251.136 
C 47.1168 252.312229 47.584121 253.440441 48.41584 254.27216 
C 49.247559 255.103879 50.375771 255.5712 51.552 255.5712 
z
" clip-path="url(#pa9ed132e07)" style="fill: #ff7e79; stroke: #ff7e79; stroke-linejoin: miter"/>
   </g>
   <g id="patch_16">
    <path d="M 51.552 277.7472 
C 52.728229 277.7472 53.856441 277.279879 54.68816 276.44816 
C 55.519879 275.616441 55.9872 274.488229 55.9872 273.312 
C 55.9872 272.135771 55.519879 271.007559 54.68816 270.17584 
C 53.856441 269.344121 52.728229 268.8768 51.552 268.8768 
C 50.375771 268.8768 49.247559 269.344121 48.41584 270.17584 
C 47.584121 271.007559 47.1168 272.135771 47.1168 273.312 
C 47.1168 274.488229 47.584121 275.616441 48.41584 276.44816 
C 49.247559 277.279879 50.375771 277.7472 51.552 277.7472 
z
" clip-path="url(#pa9ed132e07)" style="fill: #ff7e79; stroke: #ff7e79; stroke-linejoin: miter"/>
   </g>
   <g id="patch_17">
    <path d="M 51.552 299.9232 
C 52.728229 299.9232 53.856441 299.455879 54.68816 298.62416 
C 55.519879 297.792441 55.9872 296.664229 55.9872 295.488 
C 55.9872 294.311771 55.519879 293.183559 54.68816 292.35184 
C 53.856441 291.520121 52.728229 291.0528 51.552 291.0528 
C 50.375771 291.0528 49.247559 291.520121 48.41584 292.35184 
C 47.584121 293.183559 47.1168 294.311771 47.1168 295.488 
C 47.1168 296.664229 47.584121 297.792441 48.41584 298.62416 
C 49.247559 299.455879 50.375771 299.9232 51.552 299.9232 
z
" clip-path="url(#pa9ed132e07)" style="fill: #ff7e79; stroke: #ff7e79; stroke-linejoin: miter"/>
   </g>
   <g id="patch_18">
    <path d="M 62.64 33.8112 
C 63.816229 33.8112 64.944441 33.343879 65.77616 32.51216 
C 66.607879 31.680441 67.0752 30.552229 67.0752 29.376 
C 67.0752 28.199771 66.607879 27.071559 65.77616 26.23984 
C 64.944441 25.408121 63.816229 24.9408 62.64 24.9408 
C 61.463771 24.9408 60.335559 25.408121 59.50384 26.23984 
C 58.672121 27.071559 58.2048 28.199771 58.2048 29.376 
C 58.2048 30.552229 58.672121 31.680441 59.50384 32.51216 
C 60.335559 33.343879 61.463771 33.8112 62.64 33.8112 
z
" clip-path="url(#pa9ed132e07)" style="fill: #08306b; stroke: #08306b; stroke-linejoin: miter"/>
   </g>
   <g id="patch_19">
    <path d="M 62.64 55.9872 
C 63.816229 55.9872 64.944441 55.519879 65.77616 54.68816 
C 66.607879 53.856441 67.0752 52.728229 67.0752 51.552 
C 67.0752 50.375771 66.607879 49.247559 65.77616 48.41584 
C 64.944441 47.584121 63.816229 47.1168 62.64 47.1168 
C 61.463771 47.1168 60.335559 47.584121 59.50384 48.41584 
C 58.672121 49.247559 58.2048 50.375771 58.2048 51.552 
C 58.2048 52.728229 58.672121 53.856441 59.50384 54.68816 
C 60.335559 55.519879 61.463771 55.9872 62.64 55.9872 
z
" clip-path="url(#pa9ed132e07)" style="fill: #2070b4; stroke: #2070b4; stroke-linejoin: miter"/>
   </g>
   <g id="patch_20">
    <path d="M 62.64 78.1632 
C 63.816229 78.1632 64.944441 77.695879 65.77616 76.86416 
C 66.607879 76.032441 67.0752 74.904229 67.0752 73.728 
C 67.0752 72.551771 66.607879 71.423559 65.77616 70.59184 
C 64.944441 69.760121 63.816229 69.2928 62.64 69.2928 
C 61.463771 69.2928 60.335559 69.760121 59.50384 70.59184 
C 58.672121 71.423559 58.2048 72.551771 58.2048 73.728 
C 58.2048 74.904229 58.672121 76.032441 59.50384 76.86416 
C 60.335559 77.695879 61.463771 78.1632 62.64 78.1632 
z
" clip-path="url(#pa9ed132e07)" style="fill: #6aaed6; stroke: #6aaed6; stroke-linejoin: miter"/>
   </g>
   <g id="patch_21">
    <path d="M 62.64 100.3392 
C 63.816229 100.3392 64.944441 99.871879 65.77616 99.04016 
C 66.607879 98.208441 67.0752 97.080229 67.0752 95.904 
C 67.0752 94.727771 66.607879 93.599559 65.77616 92.76784 
C 64.944441 91.936121 63.816229 91.4688 62.64 91.4688 
C 61.463771 91.4688 60.335559 91.936121 59.50384 92.76784 
C 58.672121 93.599559 58.2048 94.727771 58.2048 95.904 
C 58.2048 97.080229 58.672121 98.208441 59.50384 99.04016 
C 60.335559 99.871879 61.463771 100.3392 62.64 100.3392 
z
" clip-path="url(#pa9ed132e07)" style="fill: #c6dbef; stroke: #c6dbef; stroke-linejoin: miter"/>
   </g>
   <g id="patch_22">
    <path d="M 73.728 100.3392 
C 74.904229 100.3392 76.032441 99.871879 76.86416 99.04016 
C 77.695879 98.208441 78.1632 97.080229 78.1632 95.904 
C 78.1632 94.727771 77.695879 93.599559 76.86416 92.76784 
C 76.032441 91.936121 74.904229 91.4688 73.728 91.4688 
C 72.551771 91.4688 71.423559 91.936121 70.59184 92.76784 
C 69.760121 93.599559 69.2928 94.727771 69.2928 95.904 
C 69.2928 97.080229 69.760121 98.208441 70.59184 99.04016 
C 71.423559 99.871879 72.551771 100.3392 73.728 100.3392 
z
" clip-path="url(#pa9ed132e07)" style="fill: #08306b; stroke: #08306b; stroke-linejoin: miter"/>
   </g>
   <g id="patch_23">
    <path d="M 73.728 122.5152 
C 74.904229 122.5152 76.032441 122.047879 76.86416 121.21616 
C 77.695879 120.384441 78.1632 119.256229 78.1632 118.08 
C 78.1632 116.903771 77.695879 115.775559 76.86416 114.94384 
C 76.032441 114.112121 74.904229 113.6448 73.728 113.6448 
C 72.551771 113.6448 71.423559 114.112121 70.59184 114.94384 
C 69.760121 115.775559 69.2928 116.903771 69.2928 118.08 
C 69.2928 119.256229 69.760121 120.384441 70.59184 121.21616 
C 71.423559 122.047879 72.551771 122.5152 73.728 122.5152 
z
" clip-path="url(#pa9ed132e07)" style="fill: #2070b4; stroke: #2070b4; stroke-linejoin: miter"/>
   </g>
   <g id="patch_24">
    <path d="M 73.728 144.6912 
C 74.904229 144.6912 76.032441 144.223879 76.86416 143.39216 
C 77.695879 142.560441 78.1632 141.432229 78.1632 140.256 
C 78.1632 139.079771 77.695879 137.951559 76.86416 137.11984 
C 76.032441 136.288121 74.904229 135.8208 73.728 135.8208 
C 72.551771 135.8208 71.423559 136.288121 70.59184 137.11984 
C 69.760121 137.951559 69.2928 139.079771 69.2928 140.256 
C 69.2928 141.432229 69.760121 142.560441 70.59184 143.39216 
C 71.423559 144.223879 72.551771 144.6912 73.728 144.6912 
z
" clip-path="url(#pa9ed132e07)" style="fill: #6aaed6; stroke: #6aaed6; stroke-linejoin: miter"/>
   </g>
   <g id="patch_25">
    <path d="M 73.728 166.8672 
C 74.904229 166.8672 76.032441 166.399879 76.86416 165.56816 
C 77.695879 164.736441 78.1632 163.608229 78.1632 162.432 
C 78.1632 161.255771 77.695879 160.127559 76.86416 159.29584 
C 76.032441 158.464121 74.904229 157.9968 73.728 157.9968 
C 72.551771 157.9968 71.423559 158.464121 70.59184 159.29584 
C 69.760121 160.127559 69.2928 161.255771 69.2928 162.432 
C 69.2928 163.608229 69.760121 164.736441 70.59184 165.56816 
C 71.423559 166.399879 72.551771 166.8672 73.728 166.8672 
z
" clip-path="url(#pa9ed132e07)" style="fill: #c6dbef; stroke: #c6dbef; stroke-linejoin: miter"/>
   </g>
   <g id="patch_26">
    <path d="M 84.816 166.8672 
C 85.992229 166.8672 87.120441 166.399879 87.95216 165.56816 
C 88.783879 164.736441 89.2512 163.608229 89.2512 162.432 
C 89.2512 161.255771 88.783879 160.127559 87.95216 159.29584 
C 87.120441 158.464121 85.992229 157.9968 84.816 157.9968 
C 83.639771 157.9968 82.511559 158.464121 81.67984 159.29584 
C 80.848121 160.127559 80.3808 161.255771 80.3808 162.432 
C 80.3808 163.608229 80.848121 164.736441 81.67984 165.56816 
C 82.511559 166.399879 83.639771 166.8672 84.816 166.8672 
z
" clip-path="url(#pa9ed132e07)" style="fill: #08306b; stroke: #08306b; stroke-linejoin: miter"/>
   </g>
   <g id="patch_27">
    <path d="M 84.816 189.0432 
C 85.992229 189.0432 87.120441 188.575879 87.95216 187.74416 
C 88.783879 186.912441 89.2512 185.784229 89.2512 184.608 
C 89.2512 183.431771 88.783879 182.303559 87.95216 181.47184 
C 87.120441 180.640121 85.992229 180.1728 84.816 180.1728 
C 83.639771 180.1728 82.511559 180.640121 81.67984 181.47184 
C 80.848121 182.303559 80.3808 183.431771 80.3808 184.608 
C 80.3808 185.784229 80.848121 186.912441 81.67984 187.74416 
C 82.511559 188.575879 83.639771 189.0432 84.816 189.0432 
z
" clip-path="url(#pa9ed132e07)" style="fill: #2070b4; stroke: #2070b4; stroke-linejoin: miter"/>
   </g>
   <g id="patch_28">
    <path d="M 84.816 211.2192 
C 85.992229 211.2192 87.120441 210.751879 87.95216 209.92016 
C 88.783879 209.088441 89.2512 207.960229 89.2512 206.784 
C 89.2512 205.607771 88.783879 204.479559 87.95216 203.64784 
C 87.120441 202.816121 85.992229 202.3488 84.816 202.3488 
C 83.639771 202.3488 82.511559 202.816121 81.67984 203.64784 
C 80.848121 204.479559 80.3808 205.607771 80.3808 206.784 
C 80.3808 207.960229 80.848121 209.088441 81.67984 209.92016 
C 82.511559 210.751879 83.639771 211.2192 84.816 211.2192 
z
" clip-path="url(#pa9ed132e07)" style="fill: #6aaed6; stroke: #6aaed6; stroke-linejoin: miter"/>
   </g>
   <g id="patch_29">
    <path d="M 84.816 233.3952 
C 85.992229 233.3952 87.120441 232.927879 87.95216 232.09616 
C 88.783879 231.264441 89.2512 230.136229 89.2512 228.96 
C 89.2512 227.783771 88.783879 226.655559 87.95216 225.82384 
C 87.120441 224.992121 85.992229 224.5248 84.816 224.5248 
C 83.639771 224.5248 82.511559 224.992121 81.67984 225.82384 
C 80.848121 226.655559 80.3808 227.783771 80.3808 228.96 
C 80.3808 230.136229 80.848121 231.264441 81.67984 232.09616 
C 82.511559 232.927879 83.639771 233.3952 84.816 233.3952 
z
" clip-path="url(#pa9ed132e07)" style="fill: #c6dbef; stroke: #c6dbef; stroke-linejoin: miter"/>
   </g>
   <g id="patch_30">
    <path d="M 106.992 255.5712 
C 108.168229 255.5712 109.296441 255.103879 110.12816 254.27216 
C 110.959879 253.440441 111.4272 252.312229 111.4272 251.136 
C 111.4272 249.959771 110.959879 248.831559 110.12816 247.99984 
C 109.296441 247.168121 108.168229 246.7008 106.992 246.7008 
C 105.815771 246.7008 104.687559 247.168121 103.85584 247.99984 
C 103.024121 248.831559 102.5568 249.959771 102.5568 251.136 
C 102.5568 252.312229 103.024121 253.440441 103.85584 254.27216 
C 104.687559 255.103879 105.815771 255.5712 106.992 255.5712 
z
" clip-path="url(#pa9ed132e07)" style="fill: #008000; stroke: #008000; stroke-linejoin: miter"/>
   </g>
   <g id="patch_31">
    <path d="M 106.992 277.7472 
C 108.168229 277.7472 109.296441 277.279879 110.12816 276.44816 
C 110.959879 275.616441 111.4272 274.488229 111.4272 273.312 
C 111.4272 272.135771 110.959879 271.007559 110.12816 270.17584 
C 109.296441 269.344121 108.168229 268.8768 106.992 268.8768 
C 105.815771 268.8768 104.687559 269.344121 103.85584 270.17584 
C 103.024121 271.007559 102.5568 272.135771 102.5568 273.312 
C 102.5568 274.488229 103.024121 275.616441 103.85584 276.44816 
C 104.687559 277.279879 105.815771 277.7472 106.992 277.7472 
z
" clip-path="url(#pa9ed132e07)" style="fill: #008000; stroke: #008000; stroke-linejoin: miter"/>
   </g>
   <g id="patch_32">
    <path d="M 106.992 299.9232 
C 108.168229 299.9232 109.296441 299.455879 110.12816 298.62416 
C 110.959879 297.792441 111.4272 296.664229 111.4272 295.488 
C 111.4272 294.311771 110.959879 293.183559 110.12816 292.35184 
C 109.296441 291.520121 108.168229 291.0528 106.992 291.0528 
C 105.815771 291.0528 104.687559 291.520121 103.85584 292.35184 
C 103.024121 293.183559 102.5568 294.311771 102.5568 295.488 
C 102.5568 296.664229 103.024121 297.792441 103.85584 298.62416 
C 104.687559 299.455879 105.815771 299.9232 106.992 299.9232 
z
" clip-path="url(#pa9ed132e07)" style="fill: #008000; stroke: #008000; stroke-linejoin: miter"/>
   </g>
   <g id="patch_33">
    <path d="M 118.08 233.3952 
C 119.256229 233.3952 120.384441 232.927879 121.21616 232.09616 
C 122.047879 231.264441 122.5152 230.136229 122.5152 228.96 
C 122.5152 227.783771 122.047879 226.655559 121.21616 225.82384 
C 120.384441 224.992121 119.256229 224.5248 118.08 224.5248 
C 116.903771 224.5248 115.775559 224.992121 114.94384 225.82384 
C 114.112121 226.655559 113.6448 227.783771 113.6448 228.96 
C 113.6448 230.136229 114.112121 231.264441 114.94384 232.09616 
C 115.775559 232.927879 116.903771 233.3952 118.08 233.3952 
z
" clip-path="url(#pa9ed132e07)" style="fill: #08306b; stroke: #08306b; stroke-linejoin: miter"/>
   </g>
   <g id="patch_34">
    <path d="M 118.08 255.5712 
C 119.256229 255.5712 120.384441 255.103879 121.21616 254.27216 
C 122.047879 253.440441 122.5152 252.312229 122.5152 251.136 
C 122.5152 249.959771 122.047879 248.831559 121.21616 247.99984 
C 120.384441 247.168121 119.256229 246.7008 118.08 246.7008 
C 116.903771 246.7008 115.775559 247.168121 114.94384 247.99984 
C 114.112121 248.831559 113.6448 249.959771 113.6448 251.136 
C 113.6448 252.312229 114.112121 253.440441 114.94384 254.27216 
C 115.775559 255.103879 116.903771 255.5712 118.08 255.5712 
z
" clip-path="url(#pa9ed132e07)" style="fill: #3787c0; stroke: #3787c0; stroke-linejoin: miter"/>
   </g>
   <g id="patch_35">
    <path d="M 118.08 277.7472 
C 119.256229 277.7472 120.384441 277.279879 121.21616 276.44816 
C 122.047879 275.616441 122.5152 274.488229 122.5152 273.312 
C 122.5152 272.135771 122.047879 271.007559 121.21616 270.17584 
C 120.384441 269.344121 119.256229 268.8768 118.08 268.8768 
C 116.903771 268.8768 115.775559 269.344121 114.94384 270.17584 
C 114.112121 271.007559 113.6448 272.135771 113.6448 273.312 
C 113.6448 274.488229 114.112121 275.616441 114.94384 276.44816 
C 115.775559 277.279879 116.903771 277.7472 118.08 277.7472 
z
" clip-path="url(#pa9ed132e07)" style="fill: #abd0e6; stroke: #abd0e6; stroke-linejoin: miter"/>
   </g>
   <g id="patch_36">
    <path d="M 140.256 233.3952 
C 141.432229 233.3952 142.560441 232.927879 143.39216 232.09616 
C 144.223879 231.264441 144.6912 230.136229 144.6912 228.96 
C 144.6912 227.783771 144.223879 226.655559 143.39216 225.82384 
C 142.560441 224.992121 141.432229 224.5248 140.256 224.5248 
C 139.079771 224.5248 137.951559 224.992121 137.11984 225.82384 
C 136.288121 226.655559 135.8208 227.783771 135.8208 228.96 
C 135.8208 230.136229 136.288121 231.264441 137.11984 232.09616 
C 137.951559 232.927879 139.079771 233.3952 140.256 233.3952 
z
" clip-path="url(#pa9ed132e07)" style="fill: #08306b; stroke: #08306b; stroke-linejoin: miter"/>
   </g>
   <g id="patch_37">
    <path d="M 140.256 255.5712 
C 141.432229 255.5712 142.560441 255.103879 143.39216 254.27216 
C 144.223879 253.440441 144.6912 252.312229 144.6912 251.136 
C 144.6912 249.959771 144.223879 248.831559 143.39216 247.99984 
C 142.560441 247.168121 141.432229 246.7008 140.256 246.7008 
C 139.079771 246.7008 137.951559 247.168121 137.11984 247.99984 
C 136.288121 248.831559 135.8208 249.959771 135.8208 251.136 
C 135.8208 252.312229 136.288121 253.440441 137.11984 254.27216 
C 137.951559 255.103879 139.079771 255.5712 140.256 255.5712 
z
" clip-path="url(#pa9ed132e07)" style="fill: #2070b4; stroke: #2070b4; stroke-linejoin: miter"/>
   </g>
   <g id="patch_38">
    <path d="M 140.256 277.7472 
C 141.432229 277.7472 142.560441 277.279879 143.39216 276.44816 
C 144.223879 275.616441 144.6912 274.488229 144.6912 273.312 
C 144.6912 272.135771 144.223879 271.007559 143.39216 270.17584 
C 142.560441 269.344121 141.432229 268.8768 140.256 268.8768 
C 139.079771 268.8768 137.951559 269.344121 137.11984 270.17584 
C 136.288121 271.007559 135.8208 272.135771 135.8208 273.312 
C 135.8208 274.488229 136.288121 275.616441 137.11984 276.44816 
C 137.951559 277.279879 139.079771 277.7472 140.256 277.7472 
z
" clip-path="url(#pa9ed132e07)" style="fill: #6aaed6; stroke: #6aaed6; stroke-linejoin: miter"/>
   </g>
   <g id="patch_39">
    <path d="M 140.256 299.9232 
C 141.432229 299.9232 142.560441 299.455879 143.39216 298.62416 
C 144.223879 297.792441 144.6912 296.664229 144.6912 295.488 
C 144.6912 294.311771 144.223879 293.183559 143.39216 292.35184 
C 142.560441 291.520121 141.432229 291.0528 140.256 291.0528 
C 139.079771 291.0528 137.951559 291.520121 137.11984 292.35184 
C 136.288121 293.183559 135.8208 294.311771 135.8208 295.488 
C 135.8208 296.664229 136.288121 297.792441 137.11984 298.62416 
C 137.951559 299.455879 139.079771 299.9232 140.256 299.9232 
z
" clip-path="url(#pa9ed132e07)" style="fill: #c6dbef; stroke: #c6dbef; stroke-linejoin: miter"/>
   </g>
   <g id="patch_40">
    <path d="M 151.344 166.8672 
C 152.520229 166.8672 153.648441 166.399879 154.48016 165.56816 
C 155.311879 164.736441 155.7792 163.608229 155.7792 162.432 
C 155.7792 161.255771 155.311879 160.127559 154.48016 159.29584 
C 153.648441 158.464121 152.520229 157.9968 151.344 157.9968 
C 150.167771 157.9968 149.039559 158.464121 148.20784 159.29584 
C 147.376121 160.127559 146.9088 161.255771 146.9088 162.432 
C 146.9088 163.608229 147.376121 164.736441 148.20784 165.56816 
C 149.039559 166.399879 150.167771 166.8672 151.344 166.8672 
z
" clip-path="url(#pa9ed132e07)" style="fill: #08306b; stroke: #08306b; stroke-linejoin: miter"/>
   </g>
   <g id="patch_41">
    <path d="M 151.344 189.0432 
C 152.520229 189.0432 153.648441 188.575879 154.48016 187.74416 
C 155.311879 186.912441 155.7792 185.784229 155.7792 184.608 
C 155.7792 183.431771 155.311879 182.303559 154.48016 181.47184 
C 153.648441 180.640121 152.520229 180.1728 151.344 180.1728 
C 150.167771 180.1728 149.039559 180.640121 148.20784 181.47184 
C 147.376121 182.303559 146.9088 183.431771 146.9088 184.608 
C 146.9088 185.784229 147.376121 186.912441 148.20784 187.74416 
C 149.039559 188.575879 150.167771 189.0432 151.344 189.0432 
z
" clip-path="url(#pa9ed132e07)" style="fill: #2070b4; stroke: #2070b4; stroke-linejoin: miter"/>
   </g>
   <g id="patch_42">
    <path d="M 151.344 211.2192 
C 152.520229 211.2192 153.648441 210.751879 154.48016 209.92016 
C 155.311879 209.088441 155.7792 207.960229 155.7792 206.784 
C 155.7792 205.607771 155.311879 204.479559 154.48016 203.64784 
C 153.648441 202.816121 152.520229 202.3488 151.344 202.3488 
C 150.167771 202.3488 149.039559 202.816121 148.20784 203.64784 
C 147.376121 204.479559 146.9088 205.607771 146.9088 206.784 
C 146.9088 207.960229 147.376121 209.088441 148.20784 209.92016 
C 149.039559 210.751879 150.167771 211.2192 151.344 211.2192 
z
" clip-path="url(#pa9ed132e07)" style="fill: #6aaed6; stroke: #6aaed6; stroke-linejoin: miter"/>
   </g>
   <g id="patch_43">
    <path d="M 151.344 233.3952 
C 152.520229 233.3952 153.648441 232.927879 154.48016 232.09616 
C 155.311879 231.264441 155.7792 230.136229 155.7792 228.96 
C 155.7792 227.783771 155.311879 226.655559 154.48016 225.82384 
C 153.648441 224.992121 152.520229 224.5248 151.344 224.5248 
C 150.167771 224.5248 149.039559 224.992121 148.20784 225.82384 
C 147.376121 226.655559 146.9088 227.783771 146.9088 228.96 
C 146.9088 230.136229 147.376121 231.264441 148.20784 232.09616 
C 149.039559 232.927879 150.167771 233.3952 151.344 233.3952 
z
" clip-path="url(#pa9ed132e07)" style="fill: #c6dbef; stroke: #c6dbef; stroke-linejoin: miter"/>
   </g>
   <g id="patch_44">
    <path d="M 162.432 100.3392 
C 163.608229 100.3392 164.736441 99.871879 165.56816 99.04016 
C 166.399879 98.208441 166.8672 97.080229 166.8672 95.904 
C 166.8672 94.727771 166.399879 93.599559 165.56816 92.76784 
C 164.736441 91.936121 163.608229 91.4688 162.432 91.4688 
C 161.255771 91.4688 160.127559 91.936121 159.29584 92.76784 
C 158.464121 93.599559 157.9968 94.727771 157.9968 95.904 
C 157.9968 97.080229 158.464121 98.208441 159.29584 99.04016 
C 160.127559 99.871879 161.255771 100.3392 162.432 100.3392 
z
" clip-path="url(#pa9ed132e07)" style="fill: #08306b; stroke: #08306b; stroke-linejoin: miter"/>
   </g>
   <g id="patch_45">
    <path d="M 162.432 122.5152 
C 163.608229 122.5152 164.736441 122.047879 165.56816 121.21616 
C 166.399879 120.384441 166.8672 119.256229 166.8672 118.08 
C 166.8672 116.903771 166.399879 115.775559 165.56816 114.94384 
C 164.736441 114.112121 163.608229 113.6448 162.432 113.6448 
C 161.255771 113.6448 160.127559 114.112121 159.29584 114.94384 
C 158.464121 115.775559 157.9968 116.903771 157.9968 118.08 
C 157.9968 119.256229 158.464121 120.384441 159.29584 121.21616 
C 160.127559 122.047879 161.255771 122.5152 162.432 122.5152 
z
" clip-path="url(#pa9ed132e07)" style="fill: #2070b4; stroke: #2070b4; stroke-linejoin: miter"/>
   </g>
   <g id="patch_46">
    <path d="M 162.432 144.6912 
C 163.608229 144.6912 164.736441 144.223879 165.56816 143.39216 
C 166.399879 142.560441 166.8672 141.432229 166.8672 140.256 
C 166.8672 139.079771 166.399879 137.951559 165.56816 137.11984 
C 164.736441 136.288121 163.608229 135.8208 162.432 135.8208 
C 161.255771 135.8208 160.127559 136.288121 159.29584 137.11984 
C 158.464121 137.951559 157.9968 139.079771 157.9968 140.256 
C 157.9968 141.432229 158.464121 142.560441 159.29584 143.39216 
C 160.127559 144.223879 161.255771 144.6912 162.432 144.6912 
z
" clip-path="url(#pa9ed132e07)" style="fill: #6aaed6; stroke: #6aaed6; stroke-linejoin: miter"/>
   </g>
   <g id="patch_47">
    <path d="M 162.432 166.8672 
C 163.608229 166.8672 164.736441 166.399879 165.56816 165.56816 
C 166.399879 164.736441 166.8672 163.608229 166.8672 162.432 
C 166.8672 161.255771 166.399879 160.127559 165.56816 159.29584 
C 164.736441 158.464121 163.608229 157.9968 162.432 157.9968 
C 161.255771 157.9968 160.127559 158.464121 159.29584 159.29584 
C 158.464121 160.127559 157.9968 161.255771 157.9968 162.432 
C 157.9968 163.608229 158.464121 164.736441 159.29584 165.56816 
C 160.127559 166.399879 161.255771 166.8672 162.432 166.8672 
z
" clip-path="url(#pa9ed132e07)" style="fill: #c6dbef; stroke: #c6dbef; stroke-linejoin: miter"/>
   </g>
   <g id="patch_48">
    <path d="M 173.52 33.8112 
C 174.696229 33.8112 175.824441 33.343879 176.65616 32.51216 
C 177.487879 31.680441 177.9552 30.552229 177.9552 29.376 
C 177.9552 28.199771 177.487879 27.071559 176.65616 26.23984 
C 175.824441 25.408121 174.696229 24.9408 173.52 24.9408 
C 172.343771 24.9408 171.215559 25.408121 170.38384 26.23984 
C 169.552121 27.071559 169.0848 28.199771 169.0848 29.376 
C 169.0848 30.552229 169.552121 31.680441 170.38384 32.51216 
C 171.215559 33.343879 172.343771 33.8112 173.52 33.8112 
z
" clip-path="url(#pa9ed132e07)" style="fill: #08306b; stroke: #08306b; stroke-linejoin: miter"/>
   </g>
   <g id="patch_49">
    <path d="M 173.52 55.9872 
C 174.696229 55.9872 175.824441 55.519879 176.65616 54.68816 
C 177.487879 53.856441 177.9552 52.728229 177.9552 51.552 
C 177.9552 50.375771 177.487879 49.247559 176.65616 48.41584 
C 175.824441 47.584121 174.696229 47.1168 173.52 47.1168 
C 172.343771 47.1168 171.215559 47.584121 170.38384 48.41584 
C 169.552121 49.247559 169.0848 50.375771 169.0848 51.552 
C 169.0848 52.728229 169.552121 53.856441 170.38384 54.68816 
C 171.215559 55.519879 172.343771 55.9872 173.52 55.9872 
z
" clip-path="url(#pa9ed132e07)" style="fill: #2070b4; stroke: #2070b4; stroke-linejoin: miter"/>
   </g>
   <g id="patch_50">
    <path d="M 173.52 78.1632 
C 174.696229 78.1632 175.824441 77.695879 176.65616 76.86416 
C 177.487879 76.032441 177.9552 74.904229 177.9552 73.728 
C 177.9552 72.551771 177.487879 71.423559 176.65616 70.59184 
C 175.824441 69.760121 174.696229 69.2928 173.52 69.2928 
C 172.343771 69.2928 171.215559 69.760121 170.38384 70.59184 
C 169.552121 71.423559 169.0848 72.551771 169.0848 73.728 
C 169.0848 74.904229 169.552121 76.032441 170.38384 76.86416 
C 171.215559 77.695879 172.343771 78.1632 173.52 78.1632 
z
" clip-path="url(#pa9ed132e07)" style="fill: #6aaed6; stroke: #6aaed6; stroke-linejoin: miter"/>
   </g>
   <g id="patch_51">
    <path d="M 173.52 100.3392 
C 174.696229 100.3392 175.824441 99.871879 176.65616 99.04016 
C 177.487879 98.208441 177.9552 97.080229 177.9552 95.904 
C 177.9552 94.727771 177.487879 93.599559 176.65616 92.76784 
C 175.824441 91.936121 174.696229 91.4688 173.52 91.4688 
C 172.343771 91.4688 171.215559 91.936121 170.38384 92.76784 
C 169.552121 93.599559 169.0848 94.727771 169.0848 95.904 
C 169.0848 97.080229 169.552121 98.208441 170.38384 99.04016 
C 171.215559 99.871879 172.343771 100.3392 173.52 100.3392 
z
" clip-path="url(#pa9ed132e07)" style="fill: #c6dbef; stroke: #c6dbef; stroke-linejoin: miter"/>
   </g>
   <g id="text_1">
    <!-- 0 -->
    <g transform="translate(26.19475 32.135375) scale(0.1 -0.1)">
     <defs>
      <path id="DejaVuSans-30" d="M 2034 4250 
Q 1547 4250 1301 3770 
Q 1056 3291 1056 2328 
Q 1056 1369 1301 889 
Q 1547 409 2034 409 
Q 2525 409 2770 889 
Q 3016 1369 3016 2328 
Q 3016 3291 2770 3770 
Q 2525 4250 2034 4250 
z
M 2034 4750 
Q 2819 4750 3233 4129 
Q 3647 3509 3647 2328 
Q 3647 1150 3233 529 
Q 2819 -91 2034 -91 
Q 1250 -91 836 529 
Q 422 1150 422 2328 
Q 422 3509 836 4129 
Q 1250 4750 2034 4750 
z
" transform="scale(0.015625)"/>
     </defs>
     <use xlink:href="#DejaVuSans-30"/>
    </g>
   </g>
   <g id="text_2">
    <!-- 1 -->
    <g transform="translate(26.19475 54.311375) scale(0.1 -0.1)">
     <defs>
      <path id="DejaVuSans-31" d="M 794 531 
L 1825 531 
L 1825 4091 
L 703 3866 
L 703 4441 
L 1819 4666 
L 2450 4666 
L 2450 531 
L 3481 531 
L 3481 0 
L 794 0 
L 794 531 
z
" transform="scale(0.015625)"/>
     </defs>
     <use xlink:href="#DejaVuSans-31"/>
    </g>
   </g>
   <g id="text_3">
    <!-- 2 -->
    <g transform="translate(26.19475 76.487375) scale(0.1 -0.1)">
     <defs>
      <path id="DejaVuSans-32" d="M 1228 531 
L 3431 531 
L 3431 0 
L 469 0 
L 469 531 
Q 828 903 1448 1529 
Q 2069 2156 2228 2338 
Q 2531 2678 2651 2914 
Q 2772 3150 2772 3378 
Q 2772 3750 2511 3984 
Q 2250 4219 1831 4219 
Q 1534 4219 1204 4116 
Q 875 4013 500 3803 
L 500 4441 
Q 881 4594 1212 4672 
Q 1544 4750 1819 4750 
Q 2544 4750 2975 4387 
Q 3406 4025 3406 3419 
Q 3406 3131 3298 2873 
Q 3191 2616 2906 2266 
Q 2828 2175 2409 1742 
Q 1991 1309 1228 531 
z
" transform="scale(0.015625)"/>
     </defs>
     <use xlink:href="#DejaVuSans-32"/>
    </g>
   </g>
   <g id="text_4">
    <!-- 3 -->
    <g transform="translate(26.19475 98.663375) scale(0.1 -0.1)">
     <defs>
      <path id="DejaVuSans-33" d="M 2597 2516 
Q 3050 2419 3304 2112 
Q 3559 1806 3559 1356 
Q 3559 666 3084 287 
Q 2609 -91 1734 -91 
Q 1441 -91 1130 -33 
Q 819 25 488 141 
L 488 750 
Q 750 597 1062 519 
Q 1375 441 1716 441 
Q 2309 441 2620 675 
Q 2931 909 2931 1356 
Q 2931 1769 2642 2001 
Q 2353 2234 1838 2234 
L 1294 2234 
L 1294 2753 
L 1863 2753 
Q 2328 2753 2575 2939 
Q 2822 3125 2822 3475 
Q 2822 3834 2567 4026 
Q 2313 4219 1838 4219 
Q 1578 4219 1281 4162 
Q 984 4106 628 3988 
L 628 4550 
Q 988 4650 1302 4700 
Q 1616 4750 1894 4750 
Q 2613 4750 3031 4423 
Q 3450 4097 3450 3541 
Q 3450 3153 3228 2886 
Q 3006 2619 2597 2516 
z
" transform="scale(0.015625)"/>
     </defs>
     <use xlink:href="#DejaVuSans-33"/>
    </g>
   </g>
   <g id="text_5">
    <!-- 4 -->
    <g transform="translate(26.19475 120.839375) scale(0.1 -0.1)">
     <defs>
      <path id="DejaVuSans-34" d="M 2419 4116 
L 825 1625 
L 2419 1625 
L 2419 4116 
z
M 2253 4666 
L 3047 4666 
L 3047 1625 
L 3713 1625 
L 3713 1100 
L 3047 1100 
L 3047 0 
L 2419 0 
L 2419 1100 
L 313 1100 
L 313 1709 
L 2253 4666 
z
" transform="scale(0.015625)"/>
     </defs>
     <use xlink:href="#DejaVuSans-34"/>
    </g>
   </g>
   <g id="text_6">
    <!-- 5 -->
    <g transform="translate(26.19475 143.015375) scale(0.1 -0.1)">
     <defs>
      <path id="DejaVuSans-35" d="M 691 4666 
L 3169 4666 
L 3169 4134 
L 1269 4134 
L 1269 2991 
Q 1406 3038 1543 3061 
Q 1681 3084 1819 3084 
Q 2600 3084 3056 2656 
Q 3513 2228 3513 1497 
Q 3513 744 3044 326 
Q 2575 -91 1722 -91 
Q 1428 -91 1123 -41 
Q 819 9 494 109 
L 494 744 
Q 775 591 1075 516 
Q 1375 441 1709 441 
Q 2250 441 2565 725 
Q 2881 1009 2881 1497 
Q 2881 1984 2565 2268 
Q 2250 2553 1709 2553 
Q 1456 2553 1204 2497 
Q 953 2441 691 2322 
L 691 4666 
z
" transform="scale(0.015625)"/>
     </defs>
     <use xlink:href="#DejaVuSans-35"/>
    </g>
   </g>
   <g id="text_7">
    <!-- 6 -->
    <g transform="translate(26.19475 165.191375) scale(0.1 -0.1)">
     <defs>
      <path id="DejaVuSans-36" d="M 2113 2584 
Q 1688 2584 1439 2293 
Q 1191 2003 1191 1497 
Q 1191 994 1439 701 
Q 1688 409 2113 409 
Q 2538 409 2786 701 
Q 3034 994 3034 1497 
Q 3034 2003 2786 2293 
Q 2538 2584 2113 2584 
z
M 3366 4563 
L 3366 3988 
Q 3128 4100 2886 4159 
Q 2644 4219 2406 4219 
Q 1781 4219 1451 3797 
Q 1122 3375 1075 2522 
Q 1259 2794 1537 2939 
Q 1816 3084 2150 3084 
Q 2853 3084 3261 2657 
Q 3669 2231 3669 1497 
Q 3669 778 3244 343 
Q 2819 -91 2113 -91 
Q 1303 -91 875 529 
Q 447 1150 447 2328 
Q 447 3434 972 4092 
Q 1497 4750 2381 4750 
Q 2619 4750 2861 4703 
Q 3103 4656 3366 4563 
z
" transform="scale(0.015625)"/>
     </defs>
     <use xlink:href="#DejaVuSans-36"/>
    </g>
   </g>
   <g id="text_8">
    <!-- 7 -->
    <g transform="translate(26.19475 187.367375) scale(0.1 -0.1)">
     <defs>
      <path id="DejaVuSans-37" d="M 525 4666 
L 3525 4666 
L 3525 4397 
L 1831 0 
L 1172 0 
L 2766 4134 
L 525 4134 
L 525 4666 
z
" transform="scale(0.015625)"/>
     </defs>
     <use xlink:href="#DejaVuSans-37"/>
    </g>
   </g>
   <g id="text_9">
    <!-- 8 -->
    <g transform="translate(26.19475 209.543375) scale(0.1 -0.1)">
     <defs>
      <path id="DejaVuSans-38" d="M 2034 2216 
Q 1584 2216 1326 1975 
Q 1069 1734 1069 1313 
Q 1069 891 1326 650 
Q 1584 409 2034 409 
Q 2484 409 2743 651 
Q 3003 894 3003 1313 
Q 3003 1734 2745 1975 
Q 2488 2216 2034 2216 
z
M 1403 2484 
Q 997 2584 770 2862 
Q 544 3141 544 3541 
Q 544 4100 942 4425 
Q 1341 4750 2034 4750 
Q 2731 4750 3128 4425 
Q 3525 4100 3525 3541 
Q 3525 3141 3298 2862 
Q 3072 2584 2669 2484 
Q 3125 2378 3379 2068 
Q 3634 1759 3634 1313 
Q 3634 634 3220 271 
Q 2806 -91 2034 -91 
Q 1263 -91 848 271 
Q 434 634 434 1313 
Q 434 1759 690 2068 
Q 947 2378 1403 2484 
z
M 1172 3481 
Q 1172 3119 1398 2916 
Q 1625 2713 2034 2713 
Q 2441 2713 2670 2916 
Q 2900 3119 2900 3481 
Q 2900 3844 2670 4047 
Q 2441 4250 2034 4250 
Q 1625 4250 1398 4047 
Q 1172 3844 1172 3481 
z
" transform="scale(0.015625)"/>
     </defs>
     <use xlink:href="#DejaVuSans-38"/>
    </g>
   </g>
   <g id="text_10">
    <!-- 9 -->
    <g transform="translate(26.19475 231.719375) scale(0.1 -0.1)">
     <defs>
      <path id="DejaVuSans-39" d="M 703 97 
L 703 672 
Q 941 559 1184 500 
Q 1428 441 1663 441 
Q 2288 441 2617 861 
Q 2947 1281 2994 2138 
Q 2813 1869 2534 1725 
Q 2256 1581 1919 1581 
Q 1219 1581 811 2004 
Q 403 2428 403 3163 
Q 403 3881 828 4315 
Q 1253 4750 1959 4750 
Q 2769 4750 3195 4129 
Q 3622 3509 3622 2328 
Q 3622 1225 3098 567 
Q 2575 -91 1691 -91 
Q 1453 -91 1209 -44 
Q 966 3 703 97 
z
M 1959 2075 
Q 2384 2075 2632 2365 
Q 2881 2656 2881 3163 
Q 2881 3666 2632 3958 
Q 2384 4250 1959 4250 
Q 1534 4250 1286 3958 
Q 1038 3666 1038 3163 
Q 1038 2656 1286 2365 
Q 1534 2075 1959 2075 
z
" transform="scale(0.015625)"/>
     </defs>
     <use xlink:href="#DejaVuSans-39"/>
    </g>
   </g>
   <g id="text_11">
    <!-- 10 -->
    <g transform="translate(23.0135 253.895375) scale(0.1 -0.1)">
     <use xlink:href="#DejaVuSans-31"/>
     <use xlink:href="#DejaVuSans-30" x="63.623047"/>
    </g>
   </g>
   <g id="text_12">
    <!-- 11 -->
    <g transform="translate(23.0135 276.071375) scale(0.1 -0.1)">
     <use xlink:href="#DejaVuSans-31"/>
     <use xlink:href="#DejaVuSans-31" x="63.623047"/>
    </g>
   </g>
   <g id="text_13">
    <!-- 12 -->
    <g transform="translate(23.0135 298.247375) scale(0.1 -0.1)">
     <use xlink:href="#DejaVuSans-31"/>
     <use xlink:href="#DejaVuSans-32" x="63.623047"/>
    </g>
   </g>
   <g id="text_14">
    <!-- crs -->
    <g transform="translate(57.602981 24.248538) rotate(-30) scale(0.1 -0.1)">
     <defs>
      <path id="DejaVuSans-63" d="M 3122 3366 
L 3122 2828 
Q 2878 2963 2633 3030 
Q 2388 3097 2138 3097 
Q 1578 3097 1268 2742 
Q 959 2388 959 1747 
Q 959 1106 1268 751 
Q 1578 397 2138 397 
Q 2388 397 2633 464 
Q 2878 531 3122 666 
L 3122 134 
Q 2881 22 2623 -34 
Q 2366 -91 2075 -91 
Q 1284 -91 818 406 
Q 353 903 353 1747 
Q 353 2603 823 3093 
Q 1294 3584 2113 3584 
Q 2378 3584 2631 3529 
Q 2884 3475 3122 3366 
z
" transform="scale(0.015625)"/>
      <path id="DejaVuSans-72" d="M 2631 2963 
Q 2534 3019 2420 3045 
Q 2306 3072 2169 3072 
Q 1681 3072 1420 2755 
Q 1159 2438 1159 1844 
L 1159 0 
L 581 0 
L 581 3500 
L 1159 3500 
L 1159 2956 
Q 1341 3275 1631 3429 
Q 1922 3584 2338 3584 
Q 2397 3584 2469 3576 
Q 2541 3569 2628 3553 
L 2631 2963 
z
" transform="scale(0.015625)"/>
      <path id="DejaVuSans-73" d="M 2834 3397 
L 2834 2853 
Q 2591 2978 2328 3040 
Q 2066 3103 1784 3103 
Q 1356 3103 1142 2972 
Q 928 2841 928 2578 
Q 928 2378 1081 2264 
Q 1234 2150 1697 2047 
L 1894 2003 
Q 2506 1872 2764 1633 
Q 3022 1394 3022 966 
Q 3022 478 2636 193 
Q 2250 -91 1575 -91 
Q 1294 -91 989 -36 
Q 684 19 347 128 
L 347 722 
Q 666 556 975 473 
Q 1284 391 1588 391 
Q 1994 391 2212 530 
Q 2431 669 2431 922 
Q 2431 1156 2273 1281 
Q 2116 1406 1581 1522 
L 1381 1569 
Q 847 1681 609 1914 
Q 372 2147 372 2553 
Q 372 3047 722 3315 
Q 1072 3584 1716 3584 
Q 2034 3584 2315 3537 
Q 2597 3491 2834 3397 
z
" transform="scale(0.015625)"/>
     </defs>
     <use xlink:href="#DejaVuSans-63"/>
     <use xlink:href="#DejaVuSans-72" x="54.980469"/>
     <use xlink:href="#DejaVuSans-73" x="96.09375"/>
    </g>
   </g>
   <g id="text_15">
    <!-- crs -->
    <g transform="translate(68.690981 90.776538) rotate(-30) scale(0.1 -0.1)">
     <use xlink:href="#DejaVuSans-63"/>
     <use xlink:href="#DejaVuSans-72" x="54.980469"/>
     <use xlink:href="#DejaVuSans-73" x="96.09375"/>
    </g>
   </g>
   <g id="text_16">
    <!-- crs -->
    <g transform="translate(79.778981 157.304538) rotate(-30) scale(0.1 -0.1)">
     <use xlink:href="#DejaVuSans-63"/>
     <use xlink:href="#DejaVuSans-72" x="54.980469"/>
     <use xlink:href="#DejaVuSans-73" x="96.09375"/>
    </g>
   </g>
   <g id="text_17">
    <!-- cns -->
    <g transform="translate(112.078851 223.832538) rotate(-30) scale(0.1 -0.1)">
     <defs>
      <path id="DejaVuSans-6e" d="M 3513 2113 
L 3513 0 
L 2938 0 
L 2938 2094 
Q 2938 2591 2744 2837 
Q 2550 3084 2163 3084 
Q 1697 3084 1428 2787 
Q 1159 2491 1159 1978 
L 1159 0 
L 581 0 
L 581 3500 
L 1159 3500 
L 1159 2956 
Q 1366 3272 1645 3428 
Q 1925 3584 2291 3584 
Q 2894 3584 3203 3211 
Q 3513 2838 3513 2113 
z
" transform="scale(0.015625)"/>
     </defs>
     <use xlink:href="#DejaVuSans-63"/>
     <use xlink:href="#DejaVuSans-6e" x="54.980469"/>
     <use xlink:href="#DejaVuSans-73" x="118.359375"/>
    </g>
   </g>
   <g id="text_18">
    <!-- cry -->
    <g transform="translate(134.911812 223.832538) rotate(-30) scale(0.1 -0.1)">
     <defs>
      <path id="DejaVuSans-79" d="M 2059 -325 
Q 1816 -950 1584 -1140 
Q 1353 -1331 966 -1331 
L 506 -1331 
L 506 -850 
L 844 -850 
Q 1081 -850 1212 -737 
Q 1344 -625 1503 -206 
L 1606 56 
L 191 3500 
L 800 3500 
L 1894 763 
L 2988 3500 
L 3597 3500 
L 2059 -325 
z
" transform="scale(0.015625)"/>
     </defs>
     <use xlink:href="#DejaVuSans-63"/>
     <use xlink:href="#DejaVuSans-72" x="54.980469"/>
     <use xlink:href="#DejaVuSans-79" x="96.09375"/>
    </g>
   </g>
   <g id="text_19">
    <!-- cry -->
    <g transform="translate(145.999812 157.304538) rotate(-30) scale(0.1 -0.1)">
     <use xlink:href="#DejaVuSans-63"/>
     <use xlink:href="#DejaVuSans-72" x="54.980469"/>
     <use xlink:href="#DejaVuSans-79" x="96.09375"/>
    </g>
   </g>
   <g id="text_20">
    <!-- cry -->
    <g transform="translate(157.087812 90.776538) rotate(-30) scale(0.1 -0.1)">
     <use xlink:href="#DejaVuSans-63"/>
     <use xlink:href="#DejaVuSans-72" x="54.980469"/>
     <use xlink:href="#DejaVuSans-79" x="96.09375"/>
    </g>
   </g>
   <g id="text_21">
    <!-- cry -->
    <g transform="translate(168.175812 24.248538) rotate(-30) scale(0.1 -0.1)">
     <use xlink:href="#DejaVuSans-63"/>
     <use xlink:href="#DejaVuSans-72" x="54.980469"/>
     <use xlink:href="#DejaVuSans-79" x="96.09375"/>
    </g>
   </g>
  </g>
 </g>
 <defs>
  <clipPath id="pa9ed132e07">
   <rect x="7.2" y="7.2" width="443.52" height="332.64"/>
  </clipPath>
 </defs>
</svg>
